<svg width="80" height="80" viewBox="0 0 80 80" fill="none" xmlns="http://www.w3.org/2000/svg">
<g clip-path="url(#clip0_423_1002)">
<path d="M78.6799 36.8499C76.9899 35.2599 70.9999 30.27 69.2299 28.77H69.1799L69.0499 28.65C67.9499 27.7 66.8199 26.77 65.7199 25.81C65.0863 25.256 64.2715 24.9536 63.4299 24.96C63.1899 24.96 62.9399 24.9599 62.7099 24.9099C62.7099 23.9099 62.7099 22.91 62.7099 21.96C62.7399 21.5172 62.665 21.0736 62.4912 20.6653C62.3174 20.2569 62.0497 19.8954 61.7099 19.61C61.1999 19.21 61.2499 18.87 61.4799 18.36C63.1299 14.63 64.7499 10.88 66.3699 7.13999C67.1599 5.31998 66.2599 4.13997 64.2699 3.93997C61.8901 3.66532 59.4935 4.28944 57.5499 5.68997L57.3999 5.78995L57.2299 5.86997C56.4799 6.26997 50.5199 9.61 49.7599 10.03L49.2499 9.47995L41.7299 1.00998C40.5799 -0.28002 39.3799 -0.28002 38.2299 1.00998C37.7399 1.54998 37.2299 2.09999 36.7799 2.63999L30.2099 10.03C27.5799 8.56 24.8999 7.20997 22.3799 5.61997C20.4178 4.33002 18.08 3.73499 15.7399 3.92996C13.7399 4.07996 12.8399 5.28996 13.6599 7.17996L18.5599 18.49C18.6999 18.82 18.8999 19.1 18.4699 19.43C18.0521 19.7468 17.7211 20.1641 17.5078 20.6432C17.2945 21.1222 17.2058 21.6474 17.2499 22.17C17.2499 23.07 17.2499 23.98 17.2499 24.96C16.5886 24.899 15.9221 24.9868 15.2992 25.217C14.6762 25.4471 14.1127 25.8137 13.6499 26.2899C9.64992 29.7699 5.56991 33.19 1.51991 36.63C-0.480087 38.29 -0.480089 40.1399 1.29991 41.9799C13.2266 54.1399 25.1599 66.2933 37.0999 78.44C37.8036 79.0373 38.56 79.5695 39.3599 80.03H40.6099C41.4066 79.5694 42.1597 79.0372 42.8599 78.44C54.7466 66.3666 66.6199 54.2866 78.4799 42.2C79.1988 41.5238 79.7236 40.6675 79.9999 39.72V39.0999C79.6693 38.2909 79.2248 37.5333 78.6799 36.8499ZM65.0199 28.31L67.4799 30.4H67.5299L67.6699 30.52C68.9499 31.62 74.4199 36.27 75.6699 37.36C75.8741 37.4955 76.0881 37.6158 76.3099 37.72L76.1099 37.92H57.5499L65.0199 28.31ZM62.7199 27.37L55.0599 37.25L47.6599 27.37H62.7199ZM60.3199 23.97C60.337 24.094 60.3259 24.2202 60.2874 24.3393C60.2488 24.4584 60.1838 24.5672 60.0972 24.6576C60.0107 24.748 59.9048 24.8177 59.7875 24.8614C59.6702 24.9051 59.5445 24.9217 59.4199 24.9099H21.2299C19.7299 24.9099 19.6399 24.82 19.6399 23.32V22.32C19.6399 21.24 19.8199 21.06 20.9299 21.06H58.9299C60.1299 21.06 60.2799 21.21 60.2799 22.4C60.3299 22.93 60.3199 23.45 60.3199 23.97ZM35.8099 27.34C38.5999 27.34 41.3799 27.34 44.1699 27.34C44.4154 27.3371 44.6523 27.4304 44.8299 27.5999C47.3999 30.9999 49.9499 34.42 52.5899 37.94H27.3799C29.9999 34.43 32.5399 31.0399 35.0899 27.6599C35.182 27.5606 35.2933 27.4811 35.4171 27.4261C35.5408 27.371 35.6745 27.3418 35.8099 27.34ZM16.2199 7.07999C16.1299 6.84999 16.0599 6.61997 15.9699 6.36997C17.4885 6.12547 19.0448 6.41906 20.3699 7.19998C23.3099 8.97998 26.3699 10.58 29.3699 12.2C30.4899 12.83 30.9399 12.76 31.7999 11.78C34.3599 8.9 36.9166 6.01664 39.4699 3.12998C39.6348 2.9205 39.7851 2.70002 39.9199 2.47L40.5399 3.15L48.2699 11.8499C49.0599 12.7399 49.5199 12.85 50.5799 12.24C51.3499 11.81 56.3099 9.03996 57.9499 8.10996L58.0999 8.03995C58.9299 7.58995 59.7599 7.15995 60.5499 6.66995C61.6699 5.96995 62.8299 6.34995 64.0799 6.28995C62.3199 10.3599 60.6199 14.29 58.8799 18.22C58.7799 18.43 58.2999 18.59 57.9999 18.59C45.9999 18.59 34.0166 18.59 22.0499 18.59C21.8118 18.6237 21.5696 18.5704 21.3676 18.44C21.1655 18.3096 21.0173 18.1108 20.9499 17.88C19.3799 14.32 17.7899 10.69 16.2199 7.07999ZM32.2899 27.38C29.7999 30.72 27.3799 33.96 24.9099 37.25L17.2499 27.38H32.2899ZM14.9499 28.31L22.4199 37.93H3.63991L14.9499 28.31ZM37.2099 75.14L3.13991 40.42H4.13991C10.5199 40.42 16.8999 40.42 23.2799 40.42C23.41 40.397 23.5433 40.4001 23.6722 40.429C23.8011 40.4579 23.923 40.512 24.0308 40.5882C24.1387 40.6645 24.2304 40.7613 24.3006 40.8731C24.3708 40.985 24.4182 41.1097 24.4399 41.24C25.1599 43.24 25.9399 45.17 26.6899 47.14C26.7499 47.27 26.7899 47.41 26.8399 47.55C26.9049 47.7914 26.985 48.0286 27.0799 48.26C29.7999 55.34 34.3899 67.26 37.0799 74.31C37.202 74.5684 37.2471 74.8566 37.2099 75.14ZM40.0099 75.09C39.8399 74.72 39.7399 74.5 39.6499 74.28C36.8399 66.95 32.1499 54.82 29.3399 47.49C29.2799 47.34 29.2299 47.19 29.1699 47.03L29.1099 46.82C28.4499 45.05 27.7599 43.28 27.1099 41.51C26.9899 41.19 26.8799 40.88 26.7299 40.51H53.2999C48.8699 51.99 44.4699 63.45 40.0099 75.09ZM42.7399 75.1599L42.6099 75.08C42.6799 74.84 42.7499 74.6 42.8399 74.36C47.0799 63.3 51.3232 52.2333 55.5699 41.1599C55.7399 40.7299 55.8599 40.4099 56.4599 40.4099C63.0199 40.4099 69.5899 40.4099 76.1499 40.4099C76.2999 40.4099 76.4499 40.4099 76.7699 40.4099L42.7399 75.1599Z" fill="#023ED4"/>
<path d="M38.7703 16.2899C39.5675 16.3849 40.3731 16.3849 41.1703 16.2899C41.9554 16.2085 42.6828 15.8398 43.2125 15.2547C43.7423 14.6695 44.0371 13.9092 44.0403 13.1199C44.1452 12.2981 43.94 11.4667 43.4648 10.7881C42.9896 10.1094 42.2785 9.63233 41.4703 9.44992C40.9836 9.37812 40.4923 9.34138 40.0003 9.33994C39.7403 9.33994 39.4803 9.33994 39.2203 9.33994C38.3783 9.33365 37.5662 9.65242 36.9534 10.2299C36.3405 10.8074 35.974 11.599 35.9303 12.4399C35.8003 14.5499 36.9003 16.0699 38.7703 16.2899ZM39.2403 11.7499C39.6103 11.7499 39.9703 11.7499 40.3403 11.7499C41.3403 11.7499 41.6503 12.0499 41.6503 12.8599C41.6503 13.6699 41.3303 13.9499 40.3303 13.9499H39.2403C38.5303 13.9499 38.3203 13.4799 38.3103 12.8599C38.3003 12.2399 38.5503 11.7999 39.2403 11.7499Z" fill="#023ED4"/>
<path d="M24.2696 16.8099C25.1996 16.8099 25.7696 16.3498 25.7596 15.5998C25.7496 14.8498 25.1796 14.3998 24.2396 14.4098C23.2996 14.4198 22.8096 14.8699 22.7896 15.5899C22.7696 16.3099 23.3596 16.8099 24.2696 16.8099Z" fill="#023ED4"/>
<path d="M48.3605 16.8099C49.2405 16.8099 49.8005 16.3599 49.8205 15.6399C49.8405 14.9199 49.2605 14.4198 48.3505 14.4098C47.4405 14.3998 46.8505 14.8598 46.8605 15.6198C46.8705 16.3798 47.4305 16.8199 48.3605 16.8099Z" fill="#023ED4"/>
<path d="M55.7201 16.8102C56.6101 16.8102 57.1601 16.3502 57.1701 15.6302C57.1801 14.9102 56.6101 14.4102 55.6901 14.4102C54.7701 14.4102 54.2001 14.8702 54.2101 15.6302C54.2201 16.3902 54.7801 16.8302 55.7201 16.8102Z" fill="#023ED4"/>
<path d="M31.6498 16.8098C32.5498 16.8098 33.0798 16.3799 33.1098 15.6499C33.1398 14.9199 32.5698 14.4198 31.6498 14.4098C30.7298 14.3998 30.1498 14.8698 30.1398 15.6098C30.1298 16.3498 30.7198 16.8198 31.6498 16.8098Z" fill="#023ED4"/>
</g>
<defs>
<clipPath id="clip0_423_1002">
<rect width="80" height="80" fill="white"/>
</clipPath>
</defs>
</svg>
