<svg width="80" height="80" viewBox="0 0 80 80" fill="none" xmlns="http://www.w3.org/2000/svg">
<g clip-path="url(#clip0_423_1012)">
<path d="M76.72 53.2902C78.4215 50.8418 79.5056 48.0182 79.88 45.0602C79.8967 44.9503 79.9269 44.8428 79.97 44.7402V44.6702V41.6202L79.92 41.4702C79.8771 41.309 79.8437 41.1454 79.82 40.9802C79.5188 38.7316 78.7732 36.5655 77.6266 34.6079C76.48 32.6503 74.9554 30.9405 73.1414 29.5779C71.3275 28.2154 69.2606 27.2274 67.0611 26.6716C64.8616 26.1157 62.5735 26.003 60.33 26.3402C57.531 26.7808 54.8849 27.9084 52.6285 29.6221C50.372 31.3358 48.5756 33.5822 47.4 36.1602C46.2297 38.7048 45.7145 41.5017 45.9014 44.2963C46.0883 47.0908 46.9713 49.7941 48.47 52.1602C51.13 56.4302 53.88 60.7202 56.54 64.8802C57.7733 66.8002 59 68.7203 60.22 70.6403L60.52 71.1202L60.68 71.3802L58.37 74.2502H14.9C14.2291 74.2568 13.5637 74.1282 12.9435 73.8722C12.3233 73.6163 11.761 73.2381 11.29 72.7602C10.6179 72.0514 10.1683 71.1611 9.99648 70.1995C9.82469 69.2379 9.93833 68.247 10.3234 67.3493C10.7084 66.4516 11.348 65.6863 12.1631 65.148C12.9782 64.6097 13.9332 64.3219 14.91 64.3202H23.05C26.6 64.3202 30.14 64.3202 33.69 64.3202C35.7056 64.3388 37.6461 63.5559 39.0845 62.1437C40.5229 60.7316 41.3414 58.8059 41.36 56.7902C41.3786 54.7746 40.5956 52.8342 39.1835 51.3957C37.7714 49.9573 35.8456 49.1388 33.83 49.1202C31.41 49.1202 28.95 49.1202 26.57 49.1202C25.12 49.1202 23.66 49.1202 22.2 49.1202C22.0301 49.1419 21.8576 49.1272 21.6939 49.0772C21.5301 49.0272 21.3788 48.9431 21.25 48.8303C20.78 48.2603 20.36 47.6602 19.9 47.0302C19.74 46.7902 19.57 46.5602 19.39 46.3202C19.21 46.0802 19.39 46.0802 19.52 45.7802L21.24 42.9603C24.6533 37.3803 28.06 31.7936 31.46 26.2003C33.069 23.6732 33.9817 20.7659 34.1056 17.7726C34.2295 14.7794 33.5602 11.8066 32.1655 9.15527C30.7708 6.50393 28.7002 4.26826 26.1635 2.67462C23.6267 1.08097 20.7139 0.18597 17.72 0.0802556H17.22C13.4487 0.0204369 9.7654 1.22171 6.75451 3.49346C3.74362 5.76522 1.57756 8.97733 0.599998 12.6202C0.419998 13.2602 0.3 13.9302 0.18 14.6202L0 15.5402V18.6202V18.7703C0.042879 18.9281 0.0762705 19.0884 0.0999985 19.2502C0.404769 21.6143 1.20559 23.8872 2.45 25.9202L10.4 38.9702L14.4 45.4902C14.49 45.6402 14.57 45.7903 14.65 45.9503L14.89 46.3702L14.71 46.5002C12.76 47.9702 12.12 49.6902 12.78 51.7502C13.0074 52.6009 13.5007 53.3566 14.1879 53.9071C14.8751 54.4576 15.7202 54.774 16.6 54.8102C17.6013 54.9091 18.6066 54.6665 19.4525 54.1219C20.2985 53.5773 20.9355 52.7626 21.26 51.8102L21.32 51.6602H25.22C28.12 51.6602 31.11 51.6602 34.05 51.6602C34.7323 51.6845 35.4008 51.8593 36.0077 52.1722C36.6145 52.4852 37.1446 52.9284 37.56 53.4702C38.0226 54.0453 38.3522 54.7156 38.5251 55.4332C38.698 56.1507 38.7099 56.8976 38.56 57.6202C38.3297 58.7533 37.7069 59.7687 36.8014 60.4876C35.8959 61.2065 34.7657 61.5828 33.61 61.5502H14.9C13.8784 61.5094 12.859 61.6748 11.9027 62.0366C10.9465 62.3984 10.0729 62.9493 9.33421 63.6562C8.59554 64.3631 8.00688 65.2117 7.60341 66.1511C7.19993 67.0906 6.98991 68.1017 6.98588 69.1241C6.98184 70.1466 7.18389 71.1593 7.57994 72.1019C7.97599 73.0445 8.55792 73.8977 9.291 74.6104C10.0241 75.3231 10.8933 75.8809 11.8466 76.2502C12.8 76.6196 13.8181 76.7931 14.84 76.7602C18.52 76.7602 24.5 76.7602 29.3 76.7602H58.67L58.73 76.9202C59.0121 77.6701 59.4773 78.3376 60.0835 78.8616C60.6896 79.3856 61.4172 79.7495 62.2 79.9202H63.69H63.79L64.1 79.8102C64.9071 79.592 65.6368 79.1518 66.2062 78.5397C66.7757 77.9275 67.162 77.1679 67.3214 76.3472C67.4807 75.5264 67.4067 74.6774 67.1077 73.8967C66.8087 73.1159 66.2968 72.4346 65.63 71.9302L65.41 71.7703L65.08 71.5102L65.34 71.0803L65.64 70.5902L68.76 65.6902C71.36 61.6202 74.05 57.4202 76.72 53.2902ZM7.27 28.6202L4.81 24.6202C3.6877 22.8138 2.97944 20.7813 2.7361 18.6686C2.49276 16.5559 2.72039 14.4155 3.40263 12.4013C4.08486 10.3871 5.20478 8.54893 6.6819 7.01898C8.15902 5.48903 9.95667 4.30524 11.9457 3.55267C13.9347 2.8001 16.0658 2.49746 18.1857 2.66644C20.3056 2.83542 22.3618 3.47187 24.2065 4.53002C26.0512 5.58818 27.6387 7.04174 28.8548 8.78637C30.0709 10.531 30.8855 12.5233 31.24 14.6202C31.8543 17.9605 31.217 21.4099 29.45 24.3102C26.63 28.9802 23.74 33.7102 20.94 38.3102L17.61 43.7703L17.39 44.1002L17 44.6202L7.27 28.6202ZM18.27 51.6202C17.933 51.9425 17.4862 52.1248 17.02 52.1302H17C16.5278 52.1071 16.0826 51.9031 15.7567 51.5605C15.4309 51.2179 15.2494 50.763 15.25 50.2902C15.2527 50.0478 15.3046 49.8085 15.4026 49.5867C15.5006 49.365 15.6426 49.1655 15.82 49.0002C15.9912 48.8293 16.1961 48.6957 16.4215 48.6079C16.647 48.5201 16.8883 48.4801 17.13 48.4902C17.6031 48.5109 18.0497 48.7142 18.3761 49.0573C18.7024 49.4004 18.883 49.8567 18.88 50.3303C18.8845 50.5859 18.8342 50.8396 18.7324 51.0742C18.6306 51.3088 18.4798 51.5189 18.29 51.6902L18.27 51.6202ZM64.27 76.7002C63.9379 77.0581 63.4778 77.2701 62.99 77.2902H63C62.5189 77.2824 62.0601 77.0864 61.7218 76.7444C61.3834 76.4023 61.1926 75.9414 61.19 75.4603C61.1924 74.9878 61.3784 74.5348 61.7087 74.1971C62.039 73.8593 62.4878 73.6632 62.96 73.6503C63.3046 73.6566 63.6403 73.7613 63.9275 73.9519C64.2147 74.1425 64.4414 74.4113 64.5811 74.7264C64.7208 75.0415 64.7677 75.3899 64.7161 75.7308C64.6645 76.0716 64.5167 76.3906 64.29 76.6503L64.27 76.7002ZM63.4 69.1602L63.24 69.3602L62.89 69.7802L57.55 61.3903C56.85 60.2903 56.14 59.2002 55.43 58.1002C53.86 55.6702 52.24 53.1603 50.73 50.6403C49.3481 48.3977 48.6077 45.8191 48.5896 43.185C48.5714 40.5509 49.2761 37.9624 50.6269 35.701C51.9778 33.4396 53.923 31.5921 56.251 30.3595C58.5789 29.1269 61.2004 28.5565 63.83 28.7103C66.2897 28.8577 68.6702 29.6355 70.7423 30.969C72.8144 32.3026 74.5085 34.1469 75.6617 36.3246C76.8148 38.5023 77.3881 40.9401 77.3266 43.4034C77.265 45.8668 76.5705 48.2729 75.31 50.3903C72.62 54.7903 69.79 59.2003 67.05 63.4603C65.84 65.4303 64.62 67.3202 63.41 69.2302L63.4 69.1602Z" fill="#023ED4"/>
<path d="M17.0898 9.44019C15.5873 9.435 14.117 9.87589 12.8652 10.707C11.6135 11.5382 10.6366 12.7222 10.0583 14.109C9.48 15.4958 9.32634 17.023 9.61679 18.4973C9.90723 19.9715 10.6287 21.3264 11.6898 22.3902C12.3846 23.093 13.2114 23.6518 14.1226 24.0344C15.0338 24.4171 16.0115 24.6161 16.9998 24.6202C18.9691 24.5488 20.8338 23.7163 22.2017 22.2979C23.5696 20.8794 24.334 18.9857 24.334 17.0152C24.334 15.0447 23.5696 13.1509 22.2017 11.7325C20.8338 10.3141 18.9691 9.48158 16.9998 9.41016L17.0898 9.44019ZM17.0898 22.0102C16.3883 22.0936 15.6771 22.0274 15.003 21.816C14.3289 21.6046 13.7073 21.2528 13.1791 20.7837C12.6508 20.3146 12.228 19.7389 11.9385 19.0945C11.6489 18.4501 11.4992 17.7516 11.4992 17.0452C11.4992 16.3387 11.6489 15.6403 11.9385 14.9959C12.228 14.3515 12.6508 13.7758 13.1791 13.3067C13.7073 12.8376 14.3289 12.4857 15.003 12.2743C15.6771 12.0629 16.3883 11.9968 17.0898 12.0802C18.3051 12.2248 19.4251 12.8099 20.2377 13.725C21.0504 14.64 21.4992 15.8214 21.4992 17.0452C21.4992 18.269 21.0504 19.4503 20.2377 20.3654C19.4251 21.2804 18.3051 21.8656 17.0898 22.0102Z" fill="#023ED4"/>
<path d="M63.0003 35.54C61.0304 35.6018 59.1612 36.4255 57.7863 37.8377C56.4114 39.2499 55.6381 41.1404 55.629 43.1113C55.6199 45.0822 56.3759 46.9798 57.7377 48.4045C59.0995 49.8293 60.961 50.6701 62.9303 50.7501C63.9331 50.7553 64.9272 50.5629 65.8556 50.1837C66.7839 49.8044 67.6285 49.2459 68.3408 48.54C69.0532 47.8342 69.6194 46.9948 70.0071 46.0699C70.3948 45.1451 70.5964 44.1529 70.6003 43.1501C70.5977 41.1343 69.7964 39.2017 68.372 37.7754C66.9476 36.3491 65.0161 35.5453 63.0003 35.54ZM63.0003 48.11C61.7851 47.9655 60.665 47.3803 59.8524 46.4652C59.0397 45.5502 58.5909 44.3689 58.5909 43.1451C58.5909 41.9213 59.0397 40.7399 59.8524 39.8249C60.665 38.9098 61.7851 38.3246 63.0003 38.1801C64.2156 38.3246 65.3356 38.9098 66.1483 39.8249C66.9609 40.7399 67.4097 41.9213 67.4097 43.1451C67.4097 44.3689 66.9609 45.5502 66.1483 46.4652C65.3356 47.3803 64.2156 47.9655 63.0003 48.11Z" fill="#023ED4"/>
</g>
<defs>
<clipPath id="clip0_423_1012">
<rect width="80" height="80" fill="white"/>
</clipPath>
</defs>
</svg>
