<svg width="80" height="80" viewBox="0 0 80 80" fill="none" xmlns="http://www.w3.org/2000/svg">
<g clip-path="url(#clip0_423_1009)">
<path d="M78.7802 65.47C76.5802 63.97 74.3702 62.47 72.1702 61.01C71.9402 60.86 71.7202 60.69 71.4802 60.51C71.8702 59.75 72.2302 59.05 72.6002 58.36C72.7852 58.0866 72.8602 57.7534 72.8102 57.427C72.7601 57.1007 72.5887 56.8053 72.3302 56.6C71.3302 55.76 70.4202 54.88 69.3902 54.14C68.1202 53.24 66.7702 52.46 65.3902 51.6C65.5002 51.33 65.6302 51.05 65.7302 50.76C66.7302 47.88 67.8802 45.04 68.7302 42.12C70.2169 36.9712 71.1456 31.6774 71.5002 26.33C71.9029 22.007 71.9263 17.6571 71.5702 13.33C71.4902 12.33 71.1702 12.05 70.2302 11.93C69.2902 11.81 68.3102 11.71 67.3702 11.55C57.7934 10.0144 48.7257 6.20076 40.9302 0.429974C40.1502 -0.150026 39.7702 -0.130026 38.9302 0.429974C38.0902 0.989974 37.3802 1.58997 36.5702 2.10997C28.5108 7.45375 19.2985 10.809 9.6902 11.8999C8.6902 12.0099 8.35019 12.32 8.34019 13.29C8.29019 16.78 8.29019 20.2899 8.29019 23.7799C8.26039 27.4797 8.65633 31.1707 9.4702 34.7799C10.2748 39.4602 11.541 44.0493 13.2502 48.48C13.6602 49.48 14.1002 50.54 14.5502 51.63C14.1899 51.8077 13.8394 52.0047 13.5002 52.22C11.6102 53.56 9.70019 54.87 7.88019 56.29C6.88019 57.06 6.8802 57.49 7.4702 58.6L8.4702 60.48C8.2002 60.68 8.00019 60.83 7.79019 60.97C5.58019 62.46 3.3702 63.97 1.1702 65.43C0.742589 65.7585 0.335181 66.1124 -0.0498047 66.49V67.11C0.241339 67.483 0.577186 67.8188 0.950195 68.11C2.77686 69.1633 4.62352 70.1833 6.49019 71.17C6.68597 71.2497 6.85144 71.3895 6.96283 71.5691C7.07422 71.7488 7.12582 71.9591 7.1102 72.17C7.1102 74.26 7.1102 76.36 7.1102 78.45C7.1102 79.81 7.9502 80.31 9.1102 79.62C13.3102 77.1466 17.5002 74.6666 21.6802 72.18C21.8586 72.1091 22.0183 71.9982 22.1469 71.8557C22.2755 71.7132 22.3695 71.543 22.4217 71.3583C22.4739 71.1736 22.4829 70.9794 22.448 70.7906C22.413 70.6019 22.3351 70.4238 22.2202 70.27C21.7502 69.27 21.2202 68.27 20.7402 67.1499C21.7902 66.7 22.7402 66.24 23.8002 65.89C24.0102 65.81 24.4202 66.04 24.6302 66.24C27.6285 69.2245 31.0524 71.7485 34.7902 73.73C36.2302 74.49 37.7302 75.18 39.2402 75.81C39.7147 75.9844 40.2357 75.9844 40.7102 75.81C46.0771 73.6738 50.9578 70.4766 55.0602 66.41C55.2376 66.1613 55.5044 65.9912 55.8047 65.9352C56.1049 65.8793 56.4152 65.9419 56.6702 66.11C57.3602 66.48 58.1002 66.74 58.8102 67.05C58.9155 67.1083 59.0158 67.1752 59.1102 67.25C58.6202 68.25 58.1102 69.25 57.6602 70.3C57.5429 70.4604 57.4648 70.6461 57.4323 70.8421C57.3999 71.0382 57.4139 71.2392 57.4732 71.4289C57.5325 71.6186 57.6355 71.7916 57.774 71.9342C57.9124 72.0769 58.0824 72.185 58.2702 72.25C62.4102 74.71 66.5535 77.1666 70.7002 79.62C71.9402 80.35 72.7602 79.8699 72.7702 78.3999C72.7702 76.34 72.7702 74.2699 72.7702 72.2099C72.7538 72.0003 72.8039 71.7908 72.9135 71.6113C73.023 71.4318 73.1863 71.2913 73.3802 71.2099C75.2402 70.2166 77.0869 69.1966 78.9202 68.1499C79.2932 67.8588 79.6291 67.523 79.9202 67.1499V66.53C79.561 66.1548 79.1804 65.8009 78.7802 65.47ZM9.51019 76.76C9.51019 74.9 9.51019 73.19 9.51019 71.48C9.55558 71.0781 9.47015 70.6723 9.26659 70.3228C9.06302 69.9733 8.75216 69.6988 8.38019 69.54C6.75019 68.7 5.15019 67.77 3.38019 66.81L9.57019 62.6499C9.82019 63.1199 10.0602 63.55 10.2802 63.98C11.3402 65.98 12.4202 68.0399 13.4502 70.09C13.5846 70.4136 13.8064 70.6934 14.0907 70.8982C14.375 71.1031 14.7107 71.2249 15.0602 71.25C15.9602 71.35 16.8502 71.55 17.9302 71.74L9.51019 76.76ZM17.4302 69.26L18.7202 68.39L19.3002 69.55L17.4302 69.26ZM15.0102 67.88L9.6902 57.67L15.4202 53.8L22.1302 63.89L15.0102 67.88ZM40.6502 73.36C40.3065 73.5097 39.9221 73.5379 39.5602 73.44C32.7592 70.6019 26.8364 66.0045 22.4002 60.12C17.7376 53.8596 14.4741 46.6708 12.8302 39.04C12.2402 36.49 11.8302 33.9099 11.3702 31.3399C11.0198 29.0816 10.806 26.8041 10.7302 24.52C10.7302 24.17 10.7302 23.82 10.7302 23.52V23.08C10.7302 20.34 10.6969 17.6067 10.6302 14.88C10.6302 14.39 10.7702 14.19 11.2802 14.14C12.1302 14.06 12.9802 13.93 13.8202 13.77C22.6444 12.2032 31.0398 8.79594 38.4602 3.77C38.9802 3.43 39.4602 2.81999 40.0202 2.81999C40.5802 2.81999 41.0202 3.42999 41.5702 3.81999C49.6892 9.30625 58.9681 12.8385 68.6802 14.14C69.1202 14.2 69.3702 14.27 69.3902 14.82C69.7301 21.719 69.2501 28.634 67.9602 35.42C66.7798 42.1183 64.524 48.5818 61.2802 54.56C56.7318 62.9827 49.458 69.6113 40.6502 73.36ZM57.8702 63.88L64.6002 53.82L70.3102 57.66C68.4602 61.21 66.7002 64.6 64.9802 67.89L57.8702 63.88ZM61.2702 68.39L62.5502 69.25L60.6902 69.57L61.2702 68.39ZM74.8202 67.78C73.7102 68.4 72.6102 69.04 71.4802 69.62C71.1562 69.7569 70.8845 69.9937 70.7046 70.2959C70.5247 70.5982 70.4461 70.9499 70.4802 71.3C70.4802 73.07 70.4802 74.84 70.4802 76.76L62.0102 71.76C63.1102 71.57 64.0102 71.37 64.9502 71.25C65.2723 71.2237 65.5811 71.1102 65.8436 70.9217C66.1061 70.7332 66.3124 70.4768 66.4402 70.18C67.6002 67.9 68.7902 65.64 69.9802 63.38C70.1002 63.15 70.2302 62.93 70.3802 62.66L76.5502 66.81L74.8202 67.78Z" fill="#023ED4"/>
<path d="M63.1996 36.8901C63.5923 35.5835 63.87 34.2451 64.0296 32.8901L64.1496 32.3601V32.2401C64.4155 30.0072 64.5191 27.758 64.4596 25.5101V25.3201C64.4596 23.3201 64.4429 21.2934 64.4096 19.2401C64.4096 18.3201 64.0096 17.9901 63.0796 17.8201C60.7796 17.4001 58.4496 17.0801 56.1996 16.4801C50.7323 15.0514 45.5872 12.5943 41.0396 9.2401C40.1496 8.5901 39.8496 8.6001 38.9396 9.2401C38.3496 9.6601 37.7696 10.1101 37.1596 10.5001C31.1332 14.4598 24.2696 16.9656 17.1096 17.8201C15.9696 17.9601 15.6896 18.2901 15.6196 19.4201C15.2818 24.5899 15.547 29.7816 16.4096 34.8901C17.3612 40.9686 19.3932 46.8277 22.4096 52.1901C22.6196 52.5601 22.8396 52.9201 23.0696 53.2801L23.1596 53.4201C23.5496 54.0201 23.9496 54.6201 24.3596 55.2101C24.4466 55.3312 24.5472 55.442 24.6596 55.5401C25.5952 56.8019 26.5966 58.0136 27.6596 59.1701L27.8296 59.3601L28.0196 59.5501C28.5595 60.1179 29.1303 60.6553 29.7296 61.1601C32.5878 63.663 35.851 65.6616 39.3796 67.0701C39.7862 67.2201 40.233 67.2201 40.6396 67.0701C46.3923 64.7866 51.403 60.9594 55.1196 56.0101C58.4143 51.629 60.8195 46.6453 62.1996 41.3401C62.5396 39.8701 62.8696 38.3801 63.1996 36.8901ZM40.6196 64.5801C40.2241 64.7346 39.785 64.7346 39.3896 64.5801C36.6244 63.3899 34.0473 61.8032 31.7396 59.8701C29.2959 57.7207 27.1413 55.2636 25.3296 52.5601L25.2096 52.3801L25.0596 52.1301C23.6312 49.8468 22.4384 47.4244 21.4996 44.9001C19.0943 38.308 17.8558 31.3473 17.8396 24.3301C17.8396 22.9501 17.8396 21.5601 17.8396 20.1901L18.4496 20.0701C26.0348 19.0198 33.2608 16.178 39.5296 11.7801C39.9896 11.4601 40.2396 11.6101 40.6096 11.8701C44.8665 14.8627 49.6004 17.1113 54.6096 18.5201C57.0496 19.2201 59.5596 19.6901 62.1096 20.2901C62.1439 20.4209 62.164 20.555 62.1696 20.6901C62.1696 22.6901 62.1696 24.6901 62.1696 26.6301C62.1214 28.5202 61.9712 30.4062 61.7196 32.2801C61.7196 32.4201 61.6696 32.5601 61.6496 32.7001C60.9314 38.701 59.1395 44.5237 56.3596 49.8901C52.9482 56.4506 47.3834 61.6376 40.5996 64.5801H40.6196Z" fill="#023ED4"/>
</g>
<defs>
<clipPath id="clip0_423_1009">
<rect width="80" height="80" fill="white"/>
</clipPath>
</defs>
</svg>
