<svg width="80" height="80" viewBox="0 0 80 80" fill="none" xmlns="http://www.w3.org/2000/svg">
<g clip-path="url(#clip0_423_997)">
<path d="M79.3698 28.9198C78.0798 27.2298 76.8098 25.5298 75.5298 23.8298C74.2498 22.1298 73.0498 20.5198 71.7998 18.8298C71.538 18.5102 71.3524 18.1353 71.2571 17.7333C71.1618 17.3313 71.1593 16.9129 71.2498 16.5098C71.287 16.3349 71.3137 16.1579 71.3298 15.9798C71.3298 15.7698 71.3898 15.5598 71.4298 15.3498C71.4997 15.0705 71.4899 14.7773 71.4015 14.5033C71.3131 14.2293 71.1497 13.9856 70.9298 13.7998L66.7998 9.66981L66.4498 9.32978L66.1299 8.97981L65.2798 8.04982L67.5198 5.82978C68.6898 4.68978 69.8498 3.54977 70.9798 2.37977C71.1761 2.19753 71.3197 1.96574 71.3953 1.70881C71.471 1.45188 71.476 1.17935 71.4099 0.91981C71.3422 0.690206 71.2135 0.483293 71.0373 0.321238C70.8612 0.159184 70.6443 0.048043 70.4099 -0.000233807C70.1502 -0.0646398 69.8773 -0.0516106 69.625 0.0372418C69.3727 0.126094 69.1519 0.286881 68.9898 0.499766L64.9898 4.49977L64.5898 4.89979L64.1798 5.28981L63.2298 6.18977L61.2098 4.10981C60.0698 2.96981 58.9398 1.83977 57.8198 0.689769C57.5825 0.423835 57.2785 0.226142 56.9392 0.117137C56.5999 0.00813184 56.2376 -0.00821963 55.8898 0.0697735C47.3898 1.31977 40.4098 2.30977 33.9398 3.18977C32.7996 3.30969 31.7378 3.82648 30.9398 4.64979C21.9398 13.7798 12.8498 22.8198 4.08984 31.5098C2.16984 33.4198 0.539844 35.2098 0.0898438 37.6898V39.7598C0.499844 42.2998 2.15984 44.1198 3.95984 45.9198C8.80984 50.7098 13.6298 55.5398 18.4498 60.3598C21.2298 63.1531 24.0165 65.9398 26.8098 68.7198C27.0286 68.9199 27.259 69.1069 27.4998 69.2798C28.104 69.6525 28.6112 70.1631 28.9798 70.7698C29.2677 71.4238 29.3979 72.1363 29.3598 72.8498C29.3545 73.144 29.3712 73.4381 29.4098 73.7298C29.7171 75.2471 30.4672 76.6392 31.5654 77.7302C32.6636 78.8213 34.0606 79.5624 35.5798 79.8598C35.7493 79.8959 35.9163 79.9426 36.0798 79.9998H73.2098L73.5798 79.9098L74.5798 79.6298C76.157 79.134 77.5348 78.1482 78.5132 76.8156C79.4915 75.4829 80.0193 73.873 80.0198 72.2198C80.0198 68.6998 80.0198 65.2198 80.0198 61.6498V51.1498C80.0198 44.3698 80.0198 37.5898 80.0198 30.8098C80.0314 30.1231 79.8013 29.4542 79.3698 28.9198ZM29.1098 67.2098C20.8298 58.9498 12.5598 50.6798 4.29984 42.3998C3.80971 41.9328 3.41953 41.3712 3.15292 40.7489C2.88632 40.1267 2.74884 39.4568 2.74884 38.7798C2.74884 38.1028 2.88632 37.4329 3.15292 36.8107C3.41953 36.1884 3.80971 35.6268 4.29984 35.1598C13.7865 25.6531 23.2865 16.1565 32.7998 6.66981C33.1561 6.30818 33.6186 6.06992 34.1198 5.98982C41.0932 4.96982 48.0665 3.96982 55.0398 2.98982C55.3176 2.95294 55.6 2.97478 55.8687 3.05403C56.1375 3.13327 56.3866 3.26811 56.5999 3.44978C57.5999 4.44978 58.6499 5.44978 59.5999 6.44978L61.2198 8.06977L56.3398 12.9498L55.2098 11.7398C54.8798 11.3898 54.5398 11.0398 54.2098 10.7398C54.0857 10.6002 53.9346 10.4871 53.7657 10.4072C53.5968 10.3273 53.4135 10.2822 53.2268 10.2747C53.0401 10.2673 52.8539 10.2976 52.6791 10.3637C52.5044 10.4299 52.3448 10.5306 52.2098 10.6598C52.0799 10.7794 51.9763 10.9247 51.9057 11.0866C51.8352 11.2484 51.7991 11.4232 51.7998 11.5998C51.8152 11.9787 51.9765 12.337 52.2498 12.5998C54.6198 14.9998 56.8198 17.1998 58.9798 19.3198C59.1058 19.4514 59.2572 19.5561 59.4248 19.6276C59.5923 19.6992 59.7726 19.736 59.9548 19.736C60.137 19.736 60.3173 19.6992 60.4849 19.6276C60.6525 19.5561 60.8038 19.4514 60.9298 19.3198C61.0629 19.1894 61.1686 19.0338 61.2407 18.8621C61.3129 18.6904 61.35 18.506 61.35 18.3198C61.35 18.1335 61.3129 17.9491 61.2407 17.7774C61.1686 17.6057 61.0629 17.4501 60.9298 17.3198C60.5898 16.9598 60.2298 16.6098 59.9298 16.3198L58.7298 15.1498L63.6098 10.2798L65.1498 11.8198C66.1498 12.8198 67.1498 13.8198 68.2198 14.9398C68.3972 15.1587 68.5263 15.4126 68.5987 15.6849C68.671 15.9572 68.6851 16.2417 68.6398 16.5198C67.6598 23.4398 66.6598 30.3598 65.6398 37.2798C65.5547 37.8328 65.2955 38.3443 64.8998 38.7398C55.4198 48.2465 45.9265 57.7465 36.4198 67.2398C35.9575 67.7249 35.4022 68.1121 34.7872 68.3784C34.1722 68.6446 33.51 68.7845 32.8398 68.7898C32.1432 68.7952 31.4528 68.6577 30.8112 68.386C30.1697 68.1143 29.5907 67.714 29.1098 67.2098ZM72.1098 77.2098H37.1098C35.8296 77.2474 34.5837 76.7922 33.6292 75.9381C32.6747 75.0841 32.0843 73.8963 31.9798 72.6198L31.8198 71.4798H32.9698C35.5798 71.4198 37.4798 70.0298 39.5398 67.9598C47.9698 59.4598 56.5399 50.8698 64.9099 42.5598L67.2098 40.2098C67.7222 39.72 68.0446 39.0646 68.1198 38.3598C68.5998 34.8098 69.1198 31.2698 69.6198 27.7298L70.0498 24.7298C70.076 24.5493 70.13 24.3738 70.2098 24.2098L70.8598 22.5098L72.1398 23.9698C72.2698 24.1098 72.3798 24.2298 72.4798 24.3598L73.2498 25.3598C74.3898 26.8698 75.5298 28.3598 76.6498 29.9198C76.9865 30.3937 77.1713 30.9586 77.1798 31.5398C77.1798 45.0198 77.1798 58.5031 77.1798 71.9898C77.2101 72.6732 77.0998 73.3555 76.8558 73.9946C76.6117 74.6336 76.2392 75.2158 75.7611 75.7051C75.2831 76.1944 74.7097 76.5804 74.0765 76.8392C73.4433 77.098 72.7637 77.2241 72.0798 77.2098H72.1098Z" fill="#023ED4"/>
<path d="M28.0396 52.94C27.9576 53.1706 27.9303 53.4171 27.9598 53.66C27.9893 53.903 28.0748 54.1358 28.2096 54.34C28.3359 54.5064 28.4993 54.641 28.6868 54.733C28.8743 54.8251 29.0808 54.872 29.2896 54.87C29.7996 54.87 30.2896 54.7801 30.7196 53.6101L39.4496 27.44C40.263 25.02 41.0696 22.6 41.8696 20.18C41.9567 19.9565 41.9955 19.7171 41.9834 19.4776C41.9713 19.238 41.9087 19.0037 41.7996 18.7901C41.7032 18.622 41.5706 18.4774 41.4115 18.3667C41.2524 18.256 41.0708 18.182 40.8796 18.15C39.8796 17.93 39.3596 18.98 39.2096 19.44L29.6196 48.21C29.093 49.77 28.5663 51.3467 28.0396 52.94Z" fill="#023ED4"/>
<path d="M48.5799 30.3101C46.9399 30.3233 45.3716 30.9848 44.2176 32.1501C43.0635 33.3154 42.4172 34.89 42.4199 36.5301C42.4304 38.1597 43.0831 39.7194 44.2364 40.8707C45.3896 42.0221 46.9503 42.6722 48.5799 42.6801C49.3932 42.6814 50.1987 42.5222 50.9503 42.2116C51.7019 41.901 52.3848 41.4451 52.9599 40.87C53.5349 40.2949 53.9908 39.6121 54.3014 38.8605C54.612 38.1089 54.7712 37.3034 54.7699 36.4901C54.7594 34.8526 54.1036 33.2852 52.9447 32.1282C51.7858 30.9712 50.2175 30.3179 48.5799 30.3101ZM48.5799 39.9201C47.904 39.9129 47.2453 39.7056 46.6871 39.3243C46.129 38.9431 45.6963 38.4049 45.4437 37.7779C45.1912 37.1509 45.1302 36.463 45.2683 35.8013C45.4065 35.1396 45.7376 34.5337 46.2199 34.0601C46.6996 33.5818 47.3111 33.2578 47.9762 33.1295C48.6412 33.0011 49.3295 33.0743 49.9527 33.3397C50.5758 33.605 51.1055 34.0505 51.4739 34.619C51.8422 35.1874 52.0323 35.8529 52.0199 36.5301C52.0094 37.4381 51.6392 38.3048 50.9906 38.9402C50.342 39.5757 49.4679 39.9281 48.5599 39.9201H48.5799Z" fill="#023ED4"/>
<path d="M21.4004 30.3198C20.1823 30.3265 18.9932 30.6924 17.982 31.3718C16.9709 32.0511 16.1827 33.0137 15.7161 34.139C15.2496 35.2643 15.1254 36.5022 15.3592 37.6977C15.593 38.8932 16.1743 39.9932 17.0304 40.8599C17.5986 41.4393 18.2772 41.8988 19.0261 42.2114C19.775 42.524 20.5789 42.6833 21.3904 42.6798C23.0294 42.6798 24.6014 42.0287 25.7603 40.8698C26.9193 39.7108 27.5704 38.1389 27.5704 36.4998C27.5704 34.8608 26.9193 33.2889 25.7603 32.1299C24.6014 30.971 23.0294 30.3198 21.3904 30.3198H21.4004ZM21.4004 39.9199H21.3404C20.4351 39.9015 19.574 39.5247 18.946 38.8724C18.318 38.22 17.9743 37.3452 17.9904 36.4398C18.0003 35.7628 18.2103 35.1039 18.5941 34.546C18.9778 33.9882 19.5181 33.5563 20.1468 33.305C20.7755 33.0536 21.4645 32.994 22.1271 33.1335C22.7896 33.2731 23.3961 33.6057 23.8699 34.0893C24.3438 34.5729 24.664 35.1859 24.7901 35.8512C24.9161 36.5164 24.8425 37.2042 24.5784 37.8276C24.3144 38.4511 23.8717 38.9825 23.3061 39.3548C22.7406 39.7271 22.0775 39.9237 21.4004 39.9199Z" fill="#023ED4"/>
</g>
<defs>
<clipPath id="clip0_423_997">
<rect width="80" height="80" fill="white"/>
</clipPath>
</defs>
</svg>
