<svg width="506" height="160" viewBox="0 0 506 160" fill="none" xmlns="http://www.w3.org/2000/svg">
<g clip-path="url(#clip0_423_931)">
<path d="M0 0.5C8.16 0.5 8.15995 4.5 16.3199 4.5C24.4799 4.5 24.48 0.5 32.64 0.5C40.8 0.5 40.8 4.5 48.96 4.5C57.12 4.5 57.12 0.5 65.28 0.5C73.44 0.5 73.44 4.5 81.6 4.5C89.76 4.5 89.76 0.5 97.92 0.5C106.08 0.5 106.08 4.5 114.24 4.5C122.4 4.5 122.4 0.5 130.56 0.5C138.72 0.5 138.72 4.5 146.88 4.5C155.04 4.5 155.04 0.5 163.21 0.5C171.38 0.5 171.37 4.5 179.53 4.5C187.69 4.5 187.69 0.5 195.85 0.5C204.01 0.5 204.01 4.5 212.17 4.5C220.33 4.5 220.33 0.5 228.49 0.5C236.65 0.5 236.65 4.5 244.81 4.5C252.97 4.5 252.98 0.5 261.14 0.5C269.3 0.5 269.3 4.5 277.46 4.5C285.62 4.5 285.62 0.5 293.78 0.5C301.94 0.5 301.94 4.5 310.1 4.5C318.26 4.5 318.26 0.5 326.42 0.5C334.58 0.5 334.58 4.5 342.74 4.5C350.9 4.5 350.91 0.5 359.07 0.5C367.23 0.5 367.23 4.5 375.39 4.5C383.55 4.5 383.55 0.5 391.71 0.5C399.87 0.5 399.88 4.5 408.04 4.5C416.2 4.5 416.2 0.5 424.36 0.5C432.52 0.5 432.52 4.5 440.69 4.5C448.86 4.5 448.85 0.5 457.01 0.5C465.17 0.5 465.18 4.5 473.34 4.5C481.5 4.5 481.5 0.5 489.67 0.5C497.84 0.5 497.83 4.5 506 4.5" stroke="#D9D9D9" stroke-miterlimit="10"/>
<path d="M0 5.5C8.16 5.5 8.15995 9.5 16.3199 9.5C24.4799 9.5 24.48 5.5 32.64 5.5C40.8 5.5 40.8 9.5 48.96 9.5C57.12 9.5 57.12 5.5 65.28 5.5C73.44 5.5 73.44 9.5 81.6 9.5C89.76 9.5 89.76 5.5 97.92 5.5C106.08 5.5 106.08 9.5 114.24 9.5C122.4 9.5 122.4 5.5 130.56 5.5C138.72 5.5 138.72 9.5 146.88 9.5C155.04 9.5 155.04 5.5 163.21 5.5C171.38 5.5 171.37 9.5 179.53 9.5C187.69 9.5 187.69 5.5 195.85 5.5C204.01 5.5 204.01 9.5 212.17 9.5C220.33 9.5 220.33 5.5 228.49 5.5C236.65 5.5 236.65 9.5 244.81 9.5C252.97 9.5 252.98 5.5 261.14 5.5C269.3 5.5 269.3 9.5 277.46 9.5C285.62 9.5 285.62 5.5 293.78 5.5C301.94 5.5 301.94 9.5 310.1 9.5C318.26 9.5 318.26 5.5 326.42 5.5C334.58 5.5 334.58 9.5 342.74 9.5C350.9 9.5 350.91 5.5 359.07 5.5C367.23 5.5 367.23 9.5 375.39 9.5C383.55 9.5 383.55 5.5 391.71 5.5C399.87 5.5 399.88 9.5 408.04 9.5C416.2 9.5 416.2 5.5 424.36 5.5C432.52 5.5 432.52 9.5 440.69 9.5C448.86 9.5 448.85 5.5 457.01 5.5C465.17 5.5 465.18 9.5 473.34 9.5C481.5 9.5 481.5 5.5 489.67 5.5C497.84 5.5 497.83 9.5 506 9.5" stroke="#D9D9D9" stroke-miterlimit="10"/>
<path d="M0 10.5C8.16 10.5 8.15995 14.5 16.3199 14.5C24.4799 14.5 24.48 10.5 32.64 10.5C40.8 10.5 40.8 14.5 48.96 14.5C57.12 14.5 57.12 10.5 65.28 10.5C73.44 10.5 73.44 14.5 81.6 14.5C89.76 14.5 89.76 10.5 97.92 10.5C106.08 10.5 106.08 14.5 114.24 14.5C122.4 14.5 122.4 10.5 130.56 10.5C138.72 10.5 138.72 14.5 146.88 14.5C155.04 14.5 155.04 10.5 163.21 10.5C171.38 10.5 171.37 14.5 179.53 14.5C187.69 14.5 187.69 10.5 195.85 10.5C204.01 10.5 204.01 14.5 212.17 14.5C220.33 14.5 220.33 10.5 228.49 10.5C236.65 10.5 236.65 14.5 244.81 14.5C252.97 14.5 252.98 10.5 261.14 10.5C269.3 10.5 269.3 14.5 277.46 14.5C285.62 14.5 285.62 10.5 293.78 10.5C301.94 10.5 301.94 14.5 310.1 14.5C318.26 14.5 318.26 10.5 326.42 10.5C334.58 10.5 334.58 14.5 342.74 14.5C350.9 14.5 350.91 10.5 359.07 10.5C367.23 10.5 367.23 14.5 375.39 14.5C383.55 14.5 383.55 10.5 391.71 10.5C399.87 10.5 399.88 14.5 408.04 14.5C416.2 14.5 416.2 10.5 424.36 10.5C432.52 10.5 432.52 14.5 440.69 14.5C448.86 14.5 448.85 10.5 457.01 10.5C465.17 10.5 465.18 14.5 473.34 14.5C481.5 14.5 481.5 10.5 489.67 10.5C497.84 10.5 497.83 14.5 506 14.5" stroke="#D9D9D9" stroke-miterlimit="10"/>
<path d="M0 15.5C8.16 15.5 8.15995 19.5 16.3199 19.5C24.4799 19.5 24.48 15.5 32.64 15.5C40.8 15.5 40.8 19.5 48.96 19.5C57.12 19.5 57.12 15.5 65.28 15.5C73.44 15.5 73.44 19.5 81.6 19.5C89.76 19.5 89.76 15.5 97.92 15.5C106.08 15.5 106.08 19.5 114.24 19.5C122.4 19.5 122.4 15.5 130.56 15.5C138.72 15.5 138.72 19.5 146.88 19.5C155.04 19.5 155.04 15.5 163.21 15.5C171.38 15.5 171.37 19.5 179.53 19.5C187.69 19.5 187.69 15.5 195.85 15.5C204.01 15.5 204.01 19.5 212.17 19.5C220.33 19.5 220.33 15.5 228.49 15.5C236.65 15.5 236.65 19.5 244.81 19.5C252.97 19.5 252.98 15.5 261.14 15.5C269.3 15.5 269.3 19.5 277.46 19.5C285.62 19.5 285.62 15.5 293.78 15.5C301.94 15.5 301.94 19.5 310.1 19.5C318.26 19.5 318.26 15.5 326.42 15.5C334.58 15.5 334.58 19.5 342.74 19.5C350.9 19.5 350.91 15.5 359.07 15.5C367.23 15.5 367.23 19.5 375.39 19.5C383.55 19.5 383.55 15.5 391.71 15.5C399.87 15.5 399.88 19.5 408.04 19.5C416.2 19.5 416.2 15.5 424.36 15.5C432.52 15.5 432.52 19.5 440.69 19.5C448.86 19.5 448.85 15.5 457.01 15.5C465.17 15.5 465.18 19.5 473.34 19.5C481.5 19.5 481.5 15.5 489.67 15.5C497.84 15.5 497.83 19.5 506 19.5" stroke="#D9D9D9" stroke-miterlimit="10"/>
<path d="M0 20.5C8.16 20.5 8.15995 24.5 16.3199 24.5C24.4799 24.5 24.48 20.5 32.64 20.5C40.8 20.5 40.8 24.5 48.96 24.5C57.12 24.5 57.12 20.5 65.28 20.5C73.44 20.5 73.44 24.5 81.6 24.5C89.76 24.5 89.76 20.5 97.92 20.5C106.08 20.5 106.08 24.5 114.24 24.5C122.4 24.5 122.4 20.5 130.56 20.5C138.72 20.5 138.72 24.5 146.88 24.5C155.04 24.5 155.04 20.5 163.21 20.5C171.38 20.5 171.37 24.5 179.53 24.5C187.69 24.5 187.69 20.5 195.85 20.5C204.01 20.5 204.01 24.5 212.17 24.5C220.33 24.5 220.33 20.5 228.49 20.5C236.65 20.5 236.65 24.5 244.81 24.5C252.97 24.5 252.98 20.5 261.14 20.5C269.3 20.5 269.3 24.5 277.46 24.5C285.62 24.5 285.62 20.5 293.78 20.5C301.94 20.5 301.94 24.5 310.1 24.5C318.26 24.5 318.26 20.5 326.42 20.5C334.58 20.5 334.58 24.5 342.74 24.5C350.9 24.5 350.91 20.5 359.07 20.5C367.23 20.5 367.23 24.5 375.39 24.5C383.55 24.5 383.55 20.5 391.71 20.5C399.87 20.5 399.88 24.5 408.04 24.5C416.2 24.5 416.2 20.5 424.36 20.5C432.52 20.5 432.52 24.5 440.69 24.5C448.86 24.5 448.85 20.5 457.01 20.5C465.17 20.5 465.18 24.5 473.34 24.5C481.5 24.5 481.5 20.5 489.67 20.5C497.84 20.5 497.83 24.5 506 24.5" stroke="#D9D9D9" stroke-miterlimit="10"/>
<path d="M0 25.5C8.16 25.5 8.15995 29.5 16.3199 29.5C24.4799 29.5 24.48 25.5 32.64 25.5C40.8 25.5 40.8 29.5 48.96 29.5C57.12 29.5 57.12 25.5 65.28 25.5C73.44 25.5 73.44 29.5 81.6 29.5C89.76 29.5 89.76 25.5 97.92 25.5C106.08 25.5 106.08 29.5 114.24 29.5C122.4 29.5 122.4 25.5 130.56 25.5C138.72 25.5 138.72 29.5 146.88 29.5C155.04 29.5 155.04 25.5 163.21 25.5C171.38 25.5 171.37 29.5 179.53 29.5C187.69 29.5 187.69 25.5 195.85 25.5C204.01 25.5 204.01 29.5 212.17 29.5C220.33 29.5 220.33 25.5 228.49 25.5C236.65 25.5 236.65 29.5 244.81 29.5C252.97 29.5 252.98 25.5 261.14 25.5C269.3 25.5 269.3 29.5 277.46 29.5C285.62 29.5 285.62 25.5 293.78 25.5C301.94 25.5 301.94 29.5 310.1 29.5C318.26 29.5 318.26 25.5 326.42 25.5C334.58 25.5 334.58 29.5 342.74 29.5C350.9 29.5 350.91 25.5 359.07 25.5C367.23 25.5 367.23 29.5 375.39 29.5C383.55 29.5 383.55 25.5 391.71 25.5C399.87 25.5 399.88 29.5 408.04 29.5C416.2 29.5 416.2 25.5 424.36 25.5C432.52 25.5 432.52 29.5 440.69 29.5C448.86 29.5 448.85 25.5 457.01 25.5C465.17 25.5 465.18 29.5 473.34 29.5C481.5 29.5 481.5 25.5 489.67 25.5C497.84 25.5 497.83 29.5 506 29.5" stroke="#D9D9D9" stroke-miterlimit="10"/>
<path d="M0 30.5C8.16 30.5 8.15995 34.5 16.3199 34.5C24.4799 34.5 24.48 30.5 32.64 30.5C40.8 30.5 40.8 34.5 48.96 34.5C57.12 34.5 57.12 30.5 65.28 30.5C73.44 30.5 73.44 34.5 81.6 34.5C89.76 34.5 89.76 30.5 97.92 30.5C106.08 30.5 106.08 34.5 114.24 34.5C122.4 34.5 122.4 30.5 130.56 30.5C138.72 30.5 138.72 34.5 146.88 34.5C155.04 34.5 155.04 30.5 163.21 30.5C171.38 30.5 171.37 34.5 179.53 34.5C187.69 34.5 187.69 30.5 195.85 30.5C204.01 30.5 204.01 34.5 212.17 34.5C220.33 34.5 220.33 30.5 228.49 30.5C236.65 30.5 236.65 34.5 244.81 34.5C252.97 34.5 252.98 30.5 261.14 30.5C269.3 30.5 269.3 34.5 277.46 34.5C285.62 34.5 285.62 30.5 293.78 30.5C301.94 30.5 301.94 34.5 310.1 34.5C318.26 34.5 318.26 30.5 326.42 30.5C334.58 30.5 334.58 34.5 342.74 34.5C350.9 34.5 350.91 30.5 359.07 30.5C367.23 30.5 367.23 34.5 375.39 34.5C383.55 34.5 383.55 30.5 391.71 30.5C399.87 30.5 399.88 34.5 408.04 34.5C416.2 34.5 416.2 30.5 424.36 30.5C432.52 30.5 432.52 34.5 440.69 34.5C448.86 34.5 448.85 30.5 457.01 30.5C465.17 30.5 465.18 34.5 473.34 34.5C481.5 34.5 481.5 30.5 489.67 30.5C497.84 30.5 497.83 34.5 506 34.5" stroke="#D9D9D9" stroke-miterlimit="10"/>
<path d="M0 35.5C8.16 35.5 8.15995 39.5 16.3199 39.5C24.4799 39.5 24.48 35.5 32.64 35.5C40.8 35.5 40.8 39.5 48.96 39.5C57.12 39.5 57.12 35.5 65.28 35.5C73.44 35.5 73.44 39.5 81.6 39.5C89.76 39.5 89.76 35.5 97.92 35.5C106.08 35.5 106.08 39.5 114.24 39.5C122.4 39.5 122.4 35.5 130.56 35.5C138.72 35.5 138.72 39.5 146.88 39.5C155.04 39.5 155.04 35.5 163.21 35.5C171.38 35.5 171.37 39.5 179.53 39.5C187.69 39.5 187.69 35.5 195.85 35.5C204.01 35.5 204.01 39.5 212.17 39.5C220.33 39.5 220.33 35.5 228.49 35.5C236.65 35.5 236.65 39.5 244.81 39.5C252.97 39.5 252.98 35.5 261.14 35.5C269.3 35.5 269.3 39.5 277.46 39.5C285.62 39.5 285.62 35.5 293.78 35.5C301.94 35.5 301.94 39.5 310.1 39.5C318.26 39.5 318.26 35.5 326.42 35.5C334.58 35.5 334.58 39.5 342.74 39.5C350.9 39.5 350.91 35.5 359.07 35.5C367.23 35.5 367.23 39.5 375.39 39.5C383.55 39.5 383.55 35.5 391.71 35.5C399.87 35.5 399.88 39.5 408.04 39.5C416.2 39.5 416.2 35.5 424.36 35.5C432.52 35.5 432.52 39.5 440.69 39.5C448.86 39.5 448.85 35.5 457.01 35.5C465.17 35.5 465.18 39.5 473.34 39.5C481.5 39.5 481.5 35.5 489.67 35.5C497.84 35.5 497.83 39.5 506 39.5" stroke="#D9D9D9" stroke-miterlimit="10"/>
<path d="M0 40.5C8.16 40.5 8.15995 44.5 16.3199 44.5C24.4799 44.5 24.48 40.5 32.64 40.5C40.8 40.5 40.8 44.5 48.96 44.5C57.12 44.5 57.12 40.5 65.28 40.5C73.44 40.5 73.44 44.5 81.6 44.5C89.76 44.5 89.76 40.5 97.92 40.5C106.08 40.5 106.08 44.5 114.24 44.5C122.4 44.5 122.4 40.5 130.56 40.5C138.72 40.5 138.72 44.5 146.88 44.5C155.04 44.5 155.04 40.5 163.21 40.5C171.38 40.5 171.37 44.5 179.53 44.5C187.69 44.5 187.69 40.5 195.85 40.5C204.01 40.5 204.01 44.5 212.17 44.5C220.33 44.5 220.33 40.5 228.49 40.5C236.65 40.5 236.65 44.5 244.81 44.5C252.97 44.5 252.98 40.5 261.14 40.5C269.3 40.5 269.3 44.5 277.46 44.5C285.62 44.5 285.62 40.5 293.78 40.5C301.94 40.5 301.94 44.5 310.1 44.5C318.26 44.5 318.26 40.5 326.42 40.5C334.58 40.5 334.58 44.5 342.74 44.5C350.9 44.5 350.91 40.5 359.07 40.5C367.23 40.5 367.23 44.5 375.39 44.5C383.55 44.5 383.55 40.5 391.71 40.5C399.87 40.5 399.88 44.5 408.04 44.5C416.2 44.5 416.2 40.5 424.36 40.5C432.52 40.5 432.52 44.5 440.69 44.5C448.86 44.5 448.85 40.5 457.01 40.5C465.17 40.5 465.18 44.5 473.34 44.5C481.5 44.5 481.5 40.5 489.67 40.5C497.84 40.5 497.83 44.5 506 44.5" stroke="#D9D9D9" stroke-miterlimit="10"/>
<path d="M0 45.5C8.16 45.5 8.15995 49.5 16.3199 49.5C24.4799 49.5 24.48 45.5 32.64 45.5C40.8 45.5 40.8 49.5 48.96 49.5C57.12 49.5 57.12 45.5 65.28 45.5C73.44 45.5 73.44 49.5 81.6 49.5C89.76 49.5 89.76 45.5 97.92 45.5C106.08 45.5 106.08 49.5 114.24 49.5C122.4 49.5 122.4 45.5 130.56 45.5C138.72 45.5 138.72 49.5 146.88 49.5C155.04 49.5 155.04 45.5 163.21 45.5C171.38 45.5 171.37 49.5 179.53 49.5C187.69 49.5 187.69 45.5 195.85 45.5C204.01 45.5 204.01 49.5 212.17 49.5C220.33 49.5 220.33 45.5 228.49 45.5C236.65 45.5 236.65 49.5 244.81 49.5C252.97 49.5 252.98 45.5 261.14 45.5C269.3 45.5 269.3 49.5 277.46 49.5C285.62 49.5 285.62 45.5 293.78 45.5C301.94 45.5 301.94 49.5 310.1 49.5C318.26 49.5 318.26 45.5 326.42 45.5C334.58 45.5 334.58 49.5 342.74 49.5C350.9 49.5 350.91 45.5 359.07 45.5C367.23 45.5 367.23 49.5 375.39 49.5C383.55 49.5 383.55 45.5 391.71 45.5C399.87 45.5 399.88 49.5 408.04 49.5C416.2 49.5 416.2 45.5 424.36 45.5C432.52 45.5 432.52 49.5 440.69 49.5C448.86 49.5 448.85 45.5 457.01 45.5C465.17 45.5 465.18 49.5 473.34 49.5C481.5 49.5 481.5 45.5 489.67 45.5C497.84 45.5 497.83 49.5 506 49.5" stroke="#D9D9D9" stroke-miterlimit="10"/>
<path d="M0 50.5C8.16 50.5 8.15995 54.5 16.3199 54.5C24.4799 54.5 24.48 50.5 32.64 50.5C40.8 50.5 40.8 54.5 48.96 54.5C57.12 54.5 57.12 50.5 65.28 50.5C73.44 50.5 73.44 54.5 81.6 54.5C89.76 54.5 89.76 50.5 97.92 50.5C106.08 50.5 106.08 54.5 114.24 54.5C122.4 54.5 122.4 50.5 130.56 50.5C138.72 50.5 138.72 54.5 146.88 54.5C155.04 54.5 155.04 50.5 163.21 50.5C171.38 50.5 171.37 54.5 179.53 54.5C187.69 54.5 187.69 50.5 195.85 50.5C204.01 50.5 204.01 54.5 212.17 54.5C220.33 54.5 220.33 50.5 228.49 50.5C236.65 50.5 236.65 54.5 244.81 54.5C252.97 54.5 252.98 50.5 261.14 50.5C269.3 50.5 269.3 54.5 277.46 54.5C285.62 54.5 285.62 50.5 293.78 50.5C301.94 50.5 301.94 54.5 310.1 54.5C318.26 54.5 318.26 50.5 326.42 50.5C334.58 50.5 334.58 54.5 342.74 54.5C350.9 54.5 350.91 50.5 359.07 50.5C367.23 50.5 367.23 54.5 375.39 54.5C383.55 54.5 383.55 50.5 391.71 50.5C399.87 50.5 399.88 54.5 408.04 54.5C416.2 54.5 416.2 50.5 424.36 50.5C432.52 50.5 432.52 54.5 440.69 54.5C448.86 54.5 448.85 50.5 457.01 50.5C465.17 50.5 465.18 54.5 473.34 54.5C481.5 54.5 481.5 50.5 489.67 50.5C497.84 50.5 497.83 54.5 506 54.5" stroke="#D9D9D9" stroke-miterlimit="10"/>
<path d="M0 55.5C8.16 55.5 8.15995 59.5 16.3199 59.5C24.4799 59.5 24.48 55.5 32.64 55.5C40.8 55.5 40.8 59.5 48.96 59.5C57.12 59.5 57.12 55.5 65.28 55.5C73.44 55.5 73.44 59.5 81.6 59.5C89.76 59.5 89.76 55.5 97.92 55.5C106.08 55.5 106.08 59.5 114.24 59.5C122.4 59.5 122.4 55.5 130.56 55.5C138.72 55.5 138.72 59.5 146.88 59.5C155.04 59.5 155.04 55.5 163.21 55.5C171.38 55.5 171.37 59.5 179.53 59.5C187.69 59.5 187.69 55.5 195.85 55.5C204.01 55.5 204.01 59.5 212.17 59.5C220.33 59.5 220.33 55.5 228.49 55.5C236.65 55.5 236.65 59.5 244.81 59.5C252.97 59.5 252.98 55.5 261.14 55.5C269.3 55.5 269.3 59.5 277.46 59.5C285.62 59.5 285.62 55.5 293.78 55.5C301.94 55.5 301.94 59.5 310.1 59.5C318.26 59.5 318.26 55.5 326.42 55.5C334.58 55.5 334.58 59.5 342.74 59.5C350.9 59.5 350.91 55.5 359.07 55.5C367.23 55.5 367.23 59.5 375.39 59.5C383.55 59.5 383.55 55.5 391.71 55.5C399.87 55.5 399.88 59.5 408.04 59.5C416.2 59.5 416.2 55.5 424.36 55.5C432.52 55.5 432.52 59.5 440.69 59.5C448.86 59.5 448.85 55.5 457.01 55.5C465.17 55.5 465.18 59.5 473.34 59.5C481.5 59.5 481.5 55.5 489.67 55.5C497.84 55.5 497.83 59.5 506 59.5" stroke="#D9D9D9" stroke-miterlimit="10"/>
<path d="M0 60.5C8.16 60.5 8.15995 64.5 16.3199 64.5C24.4799 64.5 24.48 60.5 32.64 60.5C40.8 60.5 40.8 64.5 48.96 64.5C57.12 64.5 57.12 60.5 65.28 60.5C73.44 60.5 73.44 64.5 81.6 64.5C89.76 64.5 89.76 60.5 97.92 60.5C106.08 60.5 106.08 64.5 114.24 64.5C122.4 64.5 122.4 60.5 130.56 60.5C138.72 60.5 138.72 64.5 146.88 64.5C155.04 64.5 155.04 60.5 163.21 60.5C171.38 60.5 171.37 64.5 179.53 64.5C187.69 64.5 187.69 60.5 195.85 60.5C204.01 60.5 204.01 64.5 212.17 64.5C220.33 64.5 220.33 60.5 228.49 60.5C236.65 60.5 236.65 64.5 244.81 64.5C252.97 64.5 252.98 60.5 261.14 60.5C269.3 60.5 269.3 64.5 277.46 64.5C285.62 64.5 285.62 60.5 293.78 60.5C301.94 60.5 301.94 64.5 310.1 64.5C318.26 64.5 318.26 60.5 326.42 60.5C334.58 60.5 334.58 64.5 342.74 64.5C350.9 64.5 350.91 60.5 359.07 60.5C367.23 60.5 367.23 64.5 375.39 64.5C383.55 64.5 383.55 60.5 391.71 60.5C399.87 60.5 399.88 64.5 408.04 64.5C416.2 64.5 416.2 60.5 424.36 60.5C432.52 60.5 432.52 64.5 440.69 64.5C448.86 64.5 448.85 60.5 457.01 60.5C465.17 60.5 465.18 64.5 473.34 64.5C481.5 64.5 481.5 60.5 489.67 60.5C497.84 60.5 497.83 64.5 506 64.5" stroke="#D9D9D9" stroke-miterlimit="10"/>
<path d="M0 65.5C8.16 65.5 8.15995 69.5 16.3199 69.5C24.4799 69.5 24.48 65.5 32.64 65.5C40.8 65.5 40.8 69.5 48.96 69.5C57.12 69.5 57.12 65.5 65.28 65.5C73.44 65.5 73.44 69.5 81.6 69.5C89.76 69.5 89.76 65.5 97.92 65.5C106.08 65.5 106.08 69.5 114.24 69.5C122.4 69.5 122.4 65.5 130.56 65.5C138.72 65.5 138.72 69.5 146.88 69.5C155.04 69.5 155.04 65.5 163.21 65.5C171.38 65.5 171.37 69.5 179.53 69.5C187.69 69.5 187.69 65.5 195.85 65.5C204.01 65.5 204.01 69.5 212.17 69.5C220.33 69.5 220.33 65.5 228.49 65.5C236.65 65.5 236.65 69.5 244.81 69.5C252.97 69.5 252.98 65.5 261.14 65.5C269.3 65.5 269.3 69.5 277.46 69.5C285.62 69.5 285.62 65.5 293.78 65.5C301.94 65.5 301.94 69.5 310.1 69.5C318.26 69.5 318.26 65.5 326.42 65.5C334.58 65.5 334.58 69.5 342.74 69.5C350.9 69.5 350.91 65.5 359.07 65.5C367.23 65.5 367.23 69.5 375.39 69.5C383.55 69.5 383.55 65.5 391.71 65.5C399.87 65.5 399.88 69.5 408.04 69.5C416.2 69.5 416.2 65.5 424.36 65.5C432.52 65.5 432.52 69.5 440.69 69.5C448.86 69.5 448.85 65.5 457.01 65.5C465.17 65.5 465.18 69.5 473.34 69.5C481.5 69.5 481.5 65.5 489.67 65.5C497.84 65.5 497.83 69.5 506 69.5" stroke="#D9D9D9" stroke-miterlimit="10"/>
<path d="M0 70.5C8.16 70.5 8.15995 74.5 16.3199 74.5C24.4799 74.5 24.48 70.5 32.64 70.5C40.8 70.5 40.8 74.5 48.96 74.5C57.12 74.5 57.12 70.5 65.28 70.5C73.44 70.5 73.44 74.5 81.6 74.5C89.76 74.5 89.76 70.5 97.92 70.5C106.08 70.5 106.08 74.5 114.24 74.5C122.4 74.5 122.4 70.5 130.56 70.5C138.72 70.5 138.72 74.5 146.88 74.5C155.04 74.5 155.04 70.5 163.21 70.5C171.38 70.5 171.37 74.5 179.53 74.5C187.69 74.5 187.69 70.5 195.85 70.5C204.01 70.5 204.01 74.5 212.17 74.5C220.33 74.5 220.33 70.5 228.49 70.5C236.65 70.5 236.65 74.5 244.81 74.5C252.97 74.5 252.98 70.5 261.14 70.5C269.3 70.5 269.3 74.5 277.46 74.5C285.62 74.5 285.62 70.5 293.78 70.5C301.94 70.5 301.94 74.5 310.1 74.5C318.26 74.5 318.26 70.5 326.42 70.5C334.58 70.5 334.58 74.5 342.74 74.5C350.9 74.5 350.91 70.5 359.07 70.5C367.23 70.5 367.23 74.5 375.39 74.5C383.55 74.5 383.55 70.5 391.71 70.5C399.87 70.5 399.88 74.5 408.04 74.5C416.2 74.5 416.2 70.5 424.36 70.5C432.52 70.5 432.52 74.5 440.69 74.5C448.86 74.5 448.85 70.5 457.01 70.5C465.17 70.5 465.18 74.5 473.34 74.5C481.5 74.5 481.5 70.5 489.67 70.5C497.84 70.5 497.83 74.5 506 74.5" stroke="#D9D9D9" stroke-miterlimit="10"/>
<path d="M0 75.5C8.16 75.5 8.15995 79.5 16.3199 79.5C24.4799 79.5 24.48 75.5 32.64 75.5C40.8 75.5 40.8 79.5 48.96 79.5C57.12 79.5 57.12 75.5 65.28 75.5C73.44 75.5 73.44 79.5 81.6 79.5C89.76 79.5 89.76 75.5 97.92 75.5C106.08 75.5 106.08 79.5 114.24 79.5C122.4 79.5 122.4 75.5 130.56 75.5C138.72 75.5 138.72 79.5 146.88 79.5C155.04 79.5 155.04 75.5 163.21 75.5C171.38 75.5 171.37 79.5 179.53 79.5C187.69 79.5 187.69 75.5 195.85 75.5C204.01 75.5 204.01 79.5 212.17 79.5C220.33 79.5 220.33 75.5 228.49 75.5C236.65 75.5 236.65 79.5 244.81 79.5C252.97 79.5 252.98 75.5 261.14 75.5C269.3 75.5 269.3 79.5 277.46 79.5C285.62 79.5 285.62 75.5 293.78 75.5C301.94 75.5 301.94 79.5 310.1 79.5C318.26 79.5 318.26 75.5 326.42 75.5C334.58 75.5 334.58 79.5 342.74 79.5C350.9 79.5 350.91 75.5 359.07 75.5C367.23 75.5 367.23 79.5 375.39 79.5C383.55 79.5 383.55 75.5 391.71 75.5C399.87 75.5 399.88 79.5 408.04 79.5C416.2 79.5 416.2 75.5 424.36 75.5C432.52 75.5 432.52 79.5 440.69 79.5C448.86 79.5 448.85 75.5 457.01 75.5C465.17 75.5 465.18 79.5 473.34 79.5C481.5 79.5 481.5 75.5 489.67 75.5C497.84 75.5 497.83 79.5 506 79.5" stroke="#D9D9D9" stroke-miterlimit="10"/>
<path d="M0 80.5C8.16 80.5 8.15995 84.5 16.3199 84.5C24.4799 84.5 24.48 80.5 32.64 80.5C40.8 80.5 40.8 84.5 48.96 84.5C57.12 84.5 57.12 80.5 65.28 80.5C73.44 80.5 73.44 84.5 81.6 84.5C89.76 84.5 89.76 80.5 97.92 80.5C106.08 80.5 106.08 84.5 114.24 84.5C122.4 84.5 122.4 80.5 130.56 80.5C138.72 80.5 138.72 84.5 146.88 84.5C155.04 84.5 155.04 80.5 163.21 80.5C171.38 80.5 171.37 84.5 179.53 84.5C187.69 84.5 187.69 80.5 195.85 80.5C204.01 80.5 204.01 84.5 212.17 84.5C220.33 84.5 220.33 80.5 228.49 80.5C236.65 80.5 236.65 84.5 244.81 84.5C252.97 84.5 252.98 80.5 261.14 80.5C269.3 80.5 269.3 84.5 277.46 84.5C285.62 84.5 285.62 80.5 293.78 80.5C301.94 80.5 301.94 84.5 310.1 84.5C318.26 84.5 318.26 80.5 326.42 80.5C334.58 80.5 334.58 84.5 342.74 84.5C350.9 84.5 350.91 80.5 359.07 80.5C367.23 80.5 367.23 84.5 375.39 84.5C383.55 84.5 383.55 80.5 391.71 80.5C399.87 80.5 399.88 84.5 408.04 84.5C416.2 84.5 416.2 80.5 424.36 80.5C432.52 80.5 432.52 84.5 440.69 84.5C448.86 84.5 448.85 80.5 457.01 80.5C465.17 80.5 465.18 84.5 473.34 84.5C481.5 84.5 481.5 80.5 489.67 80.5C497.84 80.5 497.83 84.5 506 84.5" stroke="#D9D9D9" stroke-miterlimit="10"/>
<path d="M0 85.5C8.16 85.5 8.15995 89.5 16.3199 89.5C24.4799 89.5 24.48 85.5 32.64 85.5C40.8 85.5 40.8 89.5 48.96 89.5C57.12 89.5 57.12 85.5 65.28 85.5C73.44 85.5 73.44 89.5 81.6 89.5C89.76 89.5 89.76 85.5 97.92 85.5C106.08 85.5 106.08 89.5 114.24 89.5C122.4 89.5 122.4 85.5 130.56 85.5C138.72 85.5 138.72 89.5 146.88 89.5C155.04 89.5 155.04 85.5 163.21 85.5C171.38 85.5 171.37 89.5 179.53 89.5C187.69 89.5 187.69 85.5 195.85 85.5C204.01 85.5 204.01 89.5 212.17 89.5C220.33 89.5 220.33 85.5 228.49 85.5C236.65 85.5 236.65 89.5 244.81 89.5C252.97 89.5 252.98 85.5 261.14 85.5C269.3 85.5 269.3 89.5 277.46 89.5C285.62 89.5 285.62 85.5 293.78 85.5C301.94 85.5 301.94 89.5 310.1 89.5C318.26 89.5 318.26 85.5 326.42 85.5C334.58 85.5 334.58 89.5 342.74 89.5C350.9 89.5 350.91 85.5 359.07 85.5C367.23 85.5 367.23 89.5 375.39 89.5C383.55 89.5 383.55 85.5 391.71 85.5C399.87 85.5 399.88 89.5 408.04 89.5C416.2 89.5 416.2 85.5 424.36 85.5C432.52 85.5 432.52 89.5 440.69 89.5C448.86 89.5 448.85 85.5 457.01 85.5C465.17 85.5 465.18 89.5 473.34 89.5C481.5 89.5 481.5 85.5 489.67 85.5C497.84 85.5 497.83 89.5 506 89.5" stroke="#D9D9D9" stroke-miterlimit="10"/>
<path d="M0 90.5C8.16 90.5 8.15995 94.5 16.3199 94.5C24.4799 94.5 24.48 90.5 32.64 90.5C40.8 90.5 40.8 94.5 48.96 94.5C57.12 94.5 57.12 90.5 65.28 90.5C73.44 90.5 73.44 94.5 81.6 94.5C89.76 94.5 89.76 90.5 97.92 90.5C106.08 90.5 106.08 94.5 114.24 94.5C122.4 94.5 122.4 90.5 130.56 90.5C138.72 90.5 138.72 94.5 146.88 94.5C155.04 94.5 155.04 90.5 163.21 90.5C171.38 90.5 171.37 94.5 179.53 94.5C187.69 94.5 187.69 90.5 195.85 90.5C204.01 90.5 204.01 94.5 212.17 94.5C220.33 94.5 220.33 90.5 228.49 90.5C236.65 90.5 236.65 94.5 244.81 94.5C252.97 94.5 252.98 90.5 261.14 90.5C269.3 90.5 269.3 94.5 277.46 94.5C285.62 94.5 285.62 90.5 293.78 90.5C301.94 90.5 301.94 94.5 310.1 94.5C318.26 94.5 318.26 90.5 326.42 90.5C334.58 90.5 334.58 94.5 342.74 94.5C350.9 94.5 350.91 90.5 359.07 90.5C367.23 90.5 367.23 94.5 375.39 94.5C383.55 94.5 383.55 90.5 391.71 90.5C399.87 90.5 399.88 94.5 408.04 94.5C416.2 94.5 416.2 90.5 424.36 90.5C432.52 90.5 432.52 94.5 440.69 94.5C448.86 94.5 448.85 90.5 457.01 90.5C465.17 90.5 465.18 94.5 473.34 94.5C481.5 94.5 481.5 90.5 489.67 90.5C497.84 90.5 497.83 94.5 506 94.5" stroke="#D9D9D9" stroke-miterlimit="10"/>
<path d="M0 95.5C8.16 95.5 8.15995 99.5 16.3199 99.5C24.4799 99.5 24.48 95.5 32.64 95.5C40.8 95.5 40.8 99.5 48.96 99.5C57.12 99.5 57.12 95.5 65.28 95.5C73.44 95.5 73.44 99.5 81.6 99.5C89.76 99.5 89.76 95.5 97.92 95.5C106.08 95.5 106.08 99.5 114.24 99.5C122.4 99.5 122.4 95.5 130.56 95.5C138.72 95.5 138.72 99.5 146.88 99.5C155.04 99.5 155.04 95.5 163.21 95.5C171.38 95.5 171.37 99.5 179.53 99.5C187.69 99.5 187.69 95.5 195.85 95.5C204.01 95.5 204.01 99.5 212.17 99.5C220.33 99.5 220.33 95.5 228.49 95.5C236.65 95.5 236.65 99.5 244.81 99.5C252.97 99.5 252.98 95.5 261.14 95.5C269.3 95.5 269.3 99.5 277.46 99.5C285.62 99.5 285.62 95.5 293.78 95.5C301.94 95.5 301.94 99.5 310.1 99.5C318.26 99.5 318.26 95.5 326.42 95.5C334.58 95.5 334.58 99.5 342.74 99.5C350.9 99.5 350.91 95.5 359.07 95.5C367.23 95.5 367.23 99.5 375.39 99.5C383.55 99.5 383.55 95.5 391.71 95.5C399.87 95.5 399.88 99.5 408.04 99.5C416.2 99.5 416.2 95.5 424.36 95.5C432.52 95.5 432.52 99.5 440.69 99.5C448.86 99.5 448.85 95.5 457.01 95.5C465.17 95.5 465.18 99.5 473.34 99.5C481.5 99.5 481.5 95.5 489.67 95.5C497.84 95.5 497.83 99.5 506 99.5" stroke="#D9D9D9" stroke-miterlimit="10"/>
<path d="M0 100.5C8.16 100.5 8.15995 104.5 16.3199 104.5C24.4799 104.5 24.48 100.5 32.64 100.5C40.8 100.5 40.8 104.5 48.96 104.5C57.12 104.5 57.12 100.5 65.28 100.5C73.44 100.5 73.44 104.5 81.6 104.5C89.76 104.5 89.76 100.5 97.92 100.5C106.08 100.5 106.08 104.5 114.24 104.5C122.4 104.5 122.4 100.5 130.56 100.5C138.72 100.5 138.72 104.5 146.88 104.5C155.04 104.5 155.04 100.5 163.21 100.5C171.38 100.5 171.37 104.5 179.53 104.5C187.69 104.5 187.69 100.5 195.85 100.5C204.01 100.5 204.01 104.5 212.17 104.5C220.33 104.5 220.33 100.5 228.49 100.5C236.65 100.5 236.65 104.5 244.81 104.5C252.97 104.5 252.98 100.5 261.14 100.5C269.3 100.5 269.3 104.5 277.46 104.5C285.62 104.5 285.62 100.5 293.78 100.5C301.94 100.5 301.94 104.5 310.1 104.5C318.26 104.5 318.26 100.5 326.42 100.5C334.58 100.5 334.58 104.5 342.74 104.5C350.9 104.5 350.91 100.5 359.07 100.5C367.23 100.5 367.23 104.5 375.39 104.5C383.55 104.5 383.55 100.5 391.71 100.5C399.87 100.5 399.88 104.5 408.04 104.5C416.2 104.5 416.2 100.5 424.36 100.5C432.52 100.5 432.52 104.5 440.69 104.5C448.86 104.5 448.85 100.5 457.01 100.5C465.17 100.5 465.18 104.5 473.34 104.5C481.5 104.5 481.5 100.5 489.67 100.5C497.84 100.5 497.83 104.5 506 104.5" stroke="#D9D9D9" stroke-miterlimit="10"/>
<path d="M0 105.5C8.16 105.5 8.15995 109.5 16.3199 109.5C24.4799 109.5 24.48 105.5 32.64 105.5C40.8 105.5 40.8 109.5 48.96 109.5C57.12 109.5 57.12 105.5 65.28 105.5C73.44 105.5 73.44 109.5 81.6 109.5C89.76 109.5 89.76 105.5 97.92 105.5C106.08 105.5 106.08 109.5 114.24 109.5C122.4 109.5 122.4 105.5 130.56 105.5C138.72 105.5 138.72 109.5 146.88 109.5C155.04 109.5 155.04 105.5 163.21 105.5C171.38 105.5 171.37 109.5 179.53 109.5C187.69 109.5 187.69 105.5 195.85 105.5C204.01 105.5 204.01 109.5 212.17 109.5C220.33 109.5 220.33 105.5 228.49 105.5C236.65 105.5 236.65 109.5 244.81 109.5C252.97 109.5 252.98 105.5 261.14 105.5C269.3 105.5 269.3 109.5 277.46 109.5C285.62 109.5 285.62 105.5 293.78 105.5C301.94 105.5 301.94 109.5 310.1 109.5C318.26 109.5 318.26 105.5 326.42 105.5C334.58 105.5 334.58 109.5 342.74 109.5C350.9 109.5 350.91 105.5 359.07 105.5C367.23 105.5 367.23 109.5 375.39 109.5C383.55 109.5 383.55 105.5 391.71 105.5C399.87 105.5 399.88 109.5 408.04 109.5C416.2 109.5 416.2 105.5 424.36 105.5C432.52 105.5 432.52 109.5 440.69 109.5C448.86 109.5 448.85 105.5 457.01 105.5C465.17 105.5 465.18 109.5 473.34 109.5C481.5 109.5 481.5 105.5 489.67 105.5C497.84 105.5 497.83 109.5 506 109.5" stroke="#D9D9D9" stroke-miterlimit="10"/>
<path d="M0 110.5C8.16 110.5 8.15995 114.5 16.3199 114.5C24.4799 114.5 24.48 110.5 32.64 110.5C40.8 110.5 40.8 114.5 48.96 114.5C57.12 114.5 57.12 110.5 65.28 110.5C73.44 110.5 73.44 114.5 81.6 114.5C89.76 114.5 89.76 110.5 97.92 110.5C106.08 110.5 106.08 114.5 114.24 114.5C122.4 114.5 122.4 110.5 130.56 110.5C138.72 110.5 138.72 114.5 146.88 114.5C155.04 114.5 155.04 110.5 163.21 110.5C171.38 110.5 171.37 114.5 179.53 114.5C187.69 114.5 187.69 110.5 195.85 110.5C204.01 110.5 204.01 114.5 212.17 114.5C220.33 114.5 220.33 110.5 228.49 110.5C236.65 110.5 236.65 114.5 244.81 114.5C252.97 114.5 252.98 110.5 261.14 110.5C269.3 110.5 269.3 114.5 277.46 114.5C285.62 114.5 285.62 110.5 293.78 110.5C301.94 110.5 301.94 114.5 310.1 114.5C318.26 114.5 318.26 110.5 326.42 110.5C334.58 110.5 334.58 114.5 342.74 114.5C350.9 114.5 350.91 110.5 359.07 110.5C367.23 110.5 367.23 114.5 375.39 114.5C383.55 114.5 383.55 110.5 391.71 110.5C399.87 110.5 399.88 114.5 408.04 114.5C416.2 114.5 416.2 110.5 424.36 110.5C432.52 110.5 432.52 114.5 440.69 114.5C448.86 114.5 448.85 110.5 457.01 110.5C465.17 110.5 465.18 114.5 473.34 114.5C481.5 114.5 481.5 110.5 489.67 110.5C497.84 110.5 497.83 114.5 506 114.5" stroke="#D9D9D9" stroke-miterlimit="10"/>
<path d="M0 115.5C8.16 115.5 8.15995 119.5 16.3199 119.5C24.4799 119.5 24.48 115.5 32.64 115.5C40.8 115.5 40.8 119.5 48.96 119.5C57.12 119.5 57.12 115.5 65.28 115.5C73.44 115.5 73.44 119.5 81.6 119.5C89.76 119.5 89.76 115.5 97.92 115.5C106.08 115.5 106.08 119.5 114.24 119.5C122.4 119.5 122.4 115.5 130.56 115.5C138.72 115.5 138.72 119.5 146.88 119.5C155.04 119.5 155.04 115.5 163.21 115.5C171.38 115.5 171.37 119.5 179.53 119.5C187.69 119.5 187.69 115.5 195.85 115.5C204.01 115.5 204.01 119.5 212.17 119.5C220.33 119.5 220.33 115.5 228.49 115.5C236.65 115.5 236.65 119.5 244.81 119.5C252.97 119.5 252.98 115.5 261.14 115.5C269.3 115.5 269.3 119.5 277.46 119.5C285.62 119.5 285.62 115.5 293.78 115.5C301.94 115.5 301.94 119.5 310.1 119.5C318.26 119.5 318.26 115.5 326.42 115.5C334.58 115.5 334.58 119.5 342.74 119.5C350.9 119.5 350.91 115.5 359.07 115.5C367.23 115.5 367.23 119.5 375.39 119.5C383.55 119.5 383.55 115.5 391.71 115.5C399.87 115.5 399.88 119.5 408.04 119.5C416.2 119.5 416.2 115.5 424.36 115.5C432.52 115.5 432.52 119.5 440.69 119.5C448.86 119.5 448.85 115.5 457.01 115.5C465.17 115.5 465.18 119.5 473.34 119.5C481.5 119.5 481.5 115.5 489.67 115.5C497.84 115.5 497.83 119.5 506 119.5" stroke="#D9D9D9" stroke-miterlimit="10"/>
<path d="M0 120.5C8.16 120.5 8.15995 124.5 16.3199 124.5C24.4799 124.5 24.48 120.5 32.64 120.5C40.8 120.5 40.8 124.5 48.96 124.5C57.12 124.5 57.12 120.5 65.28 120.5C73.44 120.5 73.44 124.5 81.6 124.5C89.76 124.5 89.76 120.5 97.92 120.5C106.08 120.5 106.08 124.5 114.24 124.5C122.4 124.5 122.4 120.5 130.56 120.5C138.72 120.5 138.72 124.5 146.88 124.5C155.04 124.5 155.04 120.5 163.21 120.5C171.38 120.5 171.37 124.5 179.53 124.5C187.69 124.5 187.69 120.5 195.85 120.5C204.01 120.5 204.01 124.5 212.17 124.5C220.33 124.5 220.33 120.5 228.49 120.5C236.65 120.5 236.65 124.5 244.81 124.5C252.97 124.5 252.98 120.5 261.14 120.5C269.3 120.5 269.3 124.5 277.46 124.5C285.62 124.5 285.62 120.5 293.78 120.5C301.94 120.5 301.94 124.5 310.1 124.5C318.26 124.5 318.26 120.5 326.42 120.5C334.58 120.5 334.58 124.5 342.74 124.5C350.9 124.5 350.91 120.5 359.07 120.5C367.23 120.5 367.23 124.5 375.39 124.5C383.55 124.5 383.55 120.5 391.71 120.5C399.87 120.5 399.88 124.5 408.04 124.5C416.2 124.5 416.2 120.5 424.36 120.5C432.52 120.5 432.52 124.5 440.69 124.5C448.86 124.5 448.85 120.5 457.01 120.5C465.17 120.5 465.18 124.5 473.34 124.5C481.5 124.5 481.5 120.5 489.67 120.5C497.84 120.5 497.83 124.5 506 124.5" stroke="#D9D9D9" stroke-miterlimit="10"/>
<path d="M0 125.5C8.16 125.5 8.15995 129.5 16.3199 129.5C24.4799 129.5 24.48 125.5 32.64 125.5C40.8 125.5 40.8 129.5 48.96 129.5C57.12 129.5 57.12 125.5 65.28 125.5C73.44 125.5 73.44 129.5 81.6 129.5C89.76 129.5 89.76 125.5 97.92 125.5C106.08 125.5 106.08 129.5 114.24 129.5C122.4 129.5 122.4 125.5 130.56 125.5C138.72 125.5 138.72 129.5 146.88 129.5C155.04 129.5 155.04 125.5 163.21 125.5C171.38 125.5 171.37 129.5 179.53 129.5C187.69 129.5 187.69 125.5 195.85 125.5C204.01 125.5 204.01 129.5 212.17 129.5C220.33 129.5 220.33 125.5 228.49 125.5C236.65 125.5 236.65 129.5 244.81 129.5C252.97 129.5 252.98 125.5 261.14 125.5C269.3 125.5 269.3 129.5 277.46 129.5C285.62 129.5 285.62 125.5 293.78 125.5C301.94 125.5 301.94 129.5 310.1 129.5C318.26 129.5 318.26 125.5 326.42 125.5C334.58 125.5 334.58 129.5 342.74 129.5C350.9 129.5 350.91 125.5 359.07 125.5C367.23 125.5 367.23 129.5 375.39 129.5C383.55 129.5 383.55 125.5 391.71 125.5C399.87 125.5 399.88 129.5 408.04 129.5C416.2 129.5 416.2 125.5 424.36 125.5C432.52 125.5 432.52 129.5 440.69 129.5C448.86 129.5 448.85 125.5 457.01 125.5C465.17 125.5 465.18 129.5 473.34 129.5C481.5 129.5 481.5 125.5 489.67 125.5C497.84 125.5 497.83 129.5 506 129.5" stroke="#D9D9D9" stroke-miterlimit="10"/>
<path d="M0 130.5C8.16 130.5 8.15995 134.5 16.3199 134.5C24.4799 134.5 24.48 130.5 32.64 130.5C40.8 130.5 40.8 134.5 48.96 134.5C57.12 134.5 57.12 130.5 65.28 130.5C73.44 130.5 73.44 134.5 81.6 134.5C89.76 134.5 89.76 130.5 97.92 130.5C106.08 130.5 106.08 134.5 114.24 134.5C122.4 134.5 122.4 130.5 130.56 130.5C138.72 130.5 138.72 134.5 146.88 134.5C155.04 134.5 155.04 130.5 163.21 130.5C171.38 130.5 171.37 134.5 179.53 134.5C187.69 134.5 187.69 130.5 195.85 130.5C204.01 130.5 204.01 134.5 212.17 134.5C220.33 134.5 220.33 130.5 228.49 130.5C236.65 130.5 236.65 134.5 244.81 134.5C252.97 134.5 252.98 130.5 261.14 130.5C269.3 130.5 269.3 134.5 277.46 134.5C285.62 134.5 285.62 130.5 293.78 130.5C301.94 130.5 301.94 134.5 310.1 134.5C318.26 134.5 318.26 130.5 326.42 130.5C334.58 130.5 334.58 134.5 342.74 134.5C350.9 134.5 350.91 130.5 359.07 130.5C367.23 130.5 367.23 134.5 375.39 134.5C383.55 134.5 383.55 130.5 391.71 130.5C399.87 130.5 399.88 134.5 408.04 134.5C416.2 134.5 416.2 130.5 424.36 130.5C432.52 130.5 432.52 134.5 440.69 134.5C448.86 134.5 448.85 130.5 457.01 130.5C465.17 130.5 465.18 134.5 473.34 134.5C481.5 134.5 481.5 130.5 489.67 130.5C497.84 130.5 497.83 134.5 506 134.5" stroke="#D9D9D9" stroke-miterlimit="10"/>
<path d="M0 135.5C8.16 135.5 8.15995 139.5 16.3199 139.5C24.4799 139.5 24.48 135.5 32.64 135.5C40.8 135.5 40.8 139.5 48.96 139.5C57.12 139.5 57.12 135.5 65.28 135.5C73.44 135.5 73.44 139.5 81.6 139.5C89.76 139.5 89.76 135.5 97.92 135.5C106.08 135.5 106.08 139.5 114.24 139.5C122.4 139.5 122.4 135.5 130.56 135.5C138.72 135.5 138.72 139.5 146.88 139.5C155.04 139.5 155.04 135.5 163.21 135.5C171.38 135.5 171.37 139.5 179.53 139.5C187.69 139.5 187.69 135.5 195.85 135.5C204.01 135.5 204.01 139.5 212.17 139.5C220.33 139.5 220.33 135.5 228.49 135.5C236.65 135.5 236.65 139.5 244.81 139.5C252.97 139.5 252.98 135.5 261.14 135.5C269.3 135.5 269.3 139.5 277.46 139.5C285.62 139.5 285.62 135.5 293.78 135.5C301.94 135.5 301.94 139.5 310.1 139.5C318.26 139.5 318.26 135.5 326.42 135.5C334.58 135.5 334.58 139.5 342.74 139.5C350.9 139.5 350.91 135.5 359.07 135.5C367.23 135.5 367.23 139.5 375.39 139.5C383.55 139.5 383.55 135.5 391.71 135.5C399.87 135.5 399.88 139.5 408.04 139.5C416.2 139.5 416.2 135.5 424.36 135.5C432.52 135.5 432.52 139.5 440.69 139.5C448.86 139.5 448.85 135.5 457.01 135.5C465.17 135.5 465.18 139.5 473.34 139.5C481.5 139.5 481.5 135.5 489.67 135.5C497.84 135.5 497.83 139.5 506 139.5" stroke="#D9D9D9" stroke-miterlimit="10"/>
<path d="M0 140.5C8.16 140.5 8.15995 144.5 16.3199 144.5C24.4799 144.5 24.48 140.5 32.64 140.5C40.8 140.5 40.8 144.5 48.96 144.5C57.12 144.5 57.12 140.5 65.28 140.5C73.44 140.5 73.44 144.5 81.6 144.5C89.76 144.5 89.76 140.5 97.92 140.5C106.08 140.5 106.08 144.5 114.24 144.5C122.4 144.5 122.4 140.5 130.56 140.5C138.72 140.5 138.72 144.5 146.88 144.5C155.04 144.5 155.04 140.5 163.21 140.5C171.38 140.5 171.37 144.5 179.53 144.5C187.69 144.5 187.69 140.5 195.85 140.5C204.01 140.5 204.01 144.5 212.17 144.5C220.33 144.5 220.33 140.5 228.49 140.5C236.65 140.5 236.65 144.5 244.81 144.5C252.97 144.5 252.98 140.5 261.14 140.5C269.3 140.5 269.3 144.5 277.46 144.5C285.62 144.5 285.62 140.5 293.78 140.5C301.94 140.5 301.94 144.5 310.1 144.5C318.26 144.5 318.26 140.5 326.42 140.5C334.58 140.5 334.58 144.5 342.74 144.5C350.9 144.5 350.91 140.5 359.07 140.5C367.23 140.5 367.23 144.5 375.39 144.5C383.55 144.5 383.55 140.5 391.71 140.5C399.87 140.5 399.88 144.5 408.04 144.5C416.2 144.5 416.2 140.5 424.36 140.5C432.52 140.5 432.52 144.5 440.69 144.5C448.86 144.5 448.85 140.5 457.01 140.5C465.17 140.5 465.18 144.5 473.34 144.5C481.5 144.5 481.5 140.5 489.67 140.5C497.84 140.5 497.83 144.5 506 144.5" stroke="#D9D9D9" stroke-miterlimit="10"/>
<path d="M0 145.5C8.16 145.5 8.15995 149.5 16.3199 149.5C24.4799 149.5 24.48 145.5 32.64 145.5C40.8 145.5 40.8 149.5 48.96 149.5C57.12 149.5 57.12 145.5 65.28 145.5C73.44 145.5 73.44 149.5 81.6 149.5C89.76 149.5 89.76 145.5 97.92 145.5C106.08 145.5 106.08 149.5 114.24 149.5C122.4 149.5 122.4 145.5 130.56 145.5C138.72 145.5 138.72 149.5 146.88 149.5C155.04 149.5 155.04 145.5 163.21 145.5C171.38 145.5 171.37 149.5 179.53 149.5C187.69 149.5 187.69 145.5 195.85 145.5C204.01 145.5 204.01 149.5 212.17 149.5C220.33 149.5 220.33 145.5 228.49 145.5C236.65 145.5 236.65 149.5 244.81 149.5C252.97 149.5 252.98 145.5 261.14 145.5C269.3 145.5 269.3 149.5 277.46 149.5C285.62 149.5 285.62 145.5 293.78 145.5C301.94 145.5 301.94 149.5 310.1 149.5C318.26 149.5 318.26 145.5 326.42 145.5C334.58 145.5 334.58 149.5 342.74 149.5C350.9 149.5 350.91 145.5 359.07 145.5C367.23 145.5 367.23 149.5 375.39 149.5C383.55 149.5 383.55 145.5 391.71 145.5C399.87 145.5 399.88 149.5 408.04 149.5C416.2 149.5 416.2 145.5 424.36 145.5C432.52 145.5 432.52 149.5 440.69 149.5C448.86 149.5 448.85 145.5 457.01 145.5C465.17 145.5 465.18 149.5 473.34 149.5C481.5 149.5 481.5 145.5 489.67 145.5C497.84 145.5 497.83 149.5 506 149.5" stroke="#D9D9D9" stroke-miterlimit="10"/>
<path d="M0 150.5C8.16 150.5 8.15995 154.5 16.3199 154.5C24.4799 154.5 24.48 150.5 32.64 150.5C40.8 150.5 40.8 154.5 48.96 154.5C57.12 154.5 57.12 150.5 65.28 150.5C73.44 150.5 73.44 154.5 81.6 154.5C89.76 154.5 89.76 150.5 97.92 150.5C106.08 150.5 106.08 154.5 114.24 154.5C122.4 154.5 122.4 150.5 130.56 150.5C138.72 150.5 138.72 154.5 146.88 154.5C155.04 154.5 155.04 150.5 163.21 150.5C171.38 150.5 171.37 154.5 179.53 154.5C187.69 154.5 187.69 150.5 195.85 150.5C204.01 150.5 204.01 154.5 212.17 154.5C220.33 154.5 220.33 150.5 228.49 150.5C236.65 150.5 236.65 154.5 244.81 154.5C252.97 154.5 252.98 150.5 261.14 150.5C269.3 150.5 269.3 154.5 277.46 154.5C285.62 154.5 285.62 150.5 293.78 150.5C301.94 150.5 301.94 154.5 310.1 154.5C318.26 154.5 318.26 150.5 326.42 150.5C334.58 150.5 334.58 154.5 342.74 154.5C350.9 154.5 350.91 150.5 359.07 150.5C367.23 150.5 367.23 154.5 375.39 154.5C383.55 154.5 383.55 150.5 391.71 150.5C399.87 150.5 399.88 154.5 408.04 154.5C416.2 154.5 416.2 150.5 424.36 150.5C432.52 150.5 432.52 154.5 440.69 154.5C448.86 154.5 448.85 150.5 457.01 150.5C465.17 150.5 465.18 154.5 473.34 154.5C481.5 154.5 481.5 150.5 489.67 150.5C497.84 150.5 497.83 154.5 506 154.5" stroke="#D9D9D9" stroke-miterlimit="10"/>
<path d="M0 155.5C8.16 155.5 8.15995 159.5 16.3199 159.5C24.4799 159.5 24.48 155.5 32.64 155.5C40.8 155.5 40.8 159.5 48.96 159.5C57.12 159.5 57.12 155.5 65.28 155.5C73.44 155.5 73.44 159.5 81.6 159.5C89.76 159.5 89.76 155.5 97.92 155.5C106.08 155.5 106.08 159.5 114.24 159.5C122.4 159.5 122.4 155.5 130.56 155.5C138.72 155.5 138.72 159.5 146.88 159.5C155.04 159.5 155.04 155.5 163.21 155.5C171.38 155.5 171.37 159.5 179.53 159.5C187.69 159.5 187.69 155.5 195.85 155.5C204.01 155.5 204.01 159.5 212.17 159.5C220.33 159.5 220.33 155.5 228.49 155.5C236.65 155.5 236.65 159.5 244.81 159.5C252.97 159.5 252.98 155.5 261.14 155.5C269.3 155.5 269.3 159.5 277.46 159.5C285.62 159.5 285.62 155.5 293.78 155.5C301.94 155.5 301.94 159.5 310.1 159.5C318.26 159.5 318.26 155.5 326.42 155.5C334.58 155.5 334.58 159.5 342.74 159.5C350.9 159.5 350.91 155.5 359.07 155.5C367.23 155.5 367.23 159.5 375.39 159.5C383.55 159.5 383.55 155.5 391.71 155.5C399.87 155.5 399.88 159.5 408.04 159.5C416.2 159.5 416.2 155.5 424.36 155.5C432.52 155.5 432.52 159.5 440.69 159.5C448.86 159.5 448.85 155.5 457.01 155.5C465.17 155.5 465.18 159.5 473.34 159.5C481.5 159.5 481.5 155.5 489.67 155.5C497.84 155.5 497.83 159.5 506 159.5" stroke="#D9D9D9" stroke-miterlimit="10"/>
</g>
<defs>
<clipPath id="clip0_423_931">
<rect width="506" height="160" fill="white"/>
</clipPath>
</defs>
</svg>
