<svg width="64" height="85" viewBox="0 0 64 85" fill="none" xmlns="http://www.w3.org/2000/svg">
<path d="M-262 3C-253.84 3 -253.84 7 -245.68 7C-237.52 7 -237.52 3 -229.36 3C-221.2 3 -221.2 7 -213.04 7C-204.88 7 -204.88 3 -196.72 3C-188.56 3 -188.56 7 -180.4 7C-172.24 7 -172.24 3 -164.08 3C-155.92 3 -155.92 7 -147.76 7C-139.6 7 -139.6 3 -131.44 3C-123.28 3 -123.28 7 -115.12 7C-106.96 7 -106.96 3 -98.79 3C-90.62 3 -90.63 7 -82.47 7C-74.31 7 -74.31 3 -66.15 3C-57.99 3 -57.99 7 -49.83 7C-41.67 7 -41.67 3 -33.51 3C-25.35 3 -25.3499 7 -17.1899 7C-9.02994 7 -9.01999 3 -0.859985 3C7.30001 3 7.29996 7 15.46 7C23.62 7 23.62 3 31.78 3C39.94 3 39.94 7 48.1 7C56.26 7 56.26 3 64.42 3C72.58 3 72.58 7 80.74 7C88.9 7 88.9099 3 97.0699 3C105.23 3 105.23 7 113.39 7C121.55 7 121.55 3 129.71 3C137.87 3 137.88 7 146.04 7C154.2 7 154.2 3 162.36 3C170.52 3 170.52 7 178.69 7C186.86 7 186.85 3 195.01 3C203.17 3 203.18 7 211.34 7C219.5 7 219.5 3 227.67 3C235.84 3 235.83 7 244 7" stroke="#D9D9D9" stroke-miterlimit="10"/>
<path d="M-262 8C-253.84 8 -253.84 12 -245.68 12C-237.52 12 -237.52 8 -229.36 8C-221.2 8 -221.2 12 -213.04 12C-204.88 12 -204.88 8 -196.72 8C-188.56 8 -188.56 12 -180.4 12C-172.24 12 -172.24 8 -164.08 8C-155.92 8 -155.92 12 -147.76 12C-139.6 12 -139.6 8 -131.44 8C-123.28 8 -123.28 12 -115.12 12C-106.96 12 -106.96 8 -98.79 8C-90.62 8 -90.63 12 -82.47 12C-74.31 12 -74.31 8 -66.15 8C-57.99 8 -57.99 12 -49.83 12C-41.67 12 -41.67 8 -33.51 8C-25.35 8 -25.3499 12 -17.1899 12C-9.02994 12 -9.01999 8 -0.859985 8C7.30001 8 7.29996 12 15.46 12C23.62 12 23.62 8 31.78 8C39.94 8 39.94 12 48.1 12C56.26 12 56.26 8 64.42 8C72.58 8 72.58 12 80.74 12C88.9 12 88.9099 8 97.0699 8C105.23 8 105.23 12 113.39 12C121.55 12 121.55 8 129.71 8C137.87 8 137.88 12 146.04 12C154.2 12 154.2 8 162.36 8C170.52 8 170.52 12 178.69 12C186.86 12 186.85 8 195.01 8C203.17 8 203.18 12 211.34 12C219.5 12 219.5 8 227.67 8C235.84 8 235.83 12 244 12" stroke="#D9D9D9" stroke-miterlimit="10"/>
<path d="M-262 13C-253.84 13 -253.84 17 -245.68 17C-237.52 17 -237.52 13 -229.36 13C-221.2 13 -221.2 17 -213.04 17C-204.88 17 -204.88 13 -196.72 13C-188.56 13 -188.56 17 -180.4 17C-172.24 17 -172.24 13 -164.08 13C-155.92 13 -155.92 17 -147.76 17C-139.6 17 -139.6 13 -131.44 13C-123.28 13 -123.28 17 -115.12 17C-106.96 17 -106.96 13 -98.79 13C-90.62 13 -90.63 17 -82.47 17C-74.31 17 -74.31 13 -66.15 13C-57.99 13 -57.99 17 -49.83 17C-41.67 17 -41.67 13 -33.51 13C-25.35 13 -25.3499 17 -17.1899 17C-9.02994 17 -9.01999 13 -0.859985 13C7.30001 13 7.29996 17 15.46 17C23.62 17 23.62 13 31.78 13C39.94 13 39.94 17 48.1 17C56.26 17 56.26 13 64.42 13C72.58 13 72.58 17 80.74 17C88.9 17 88.9099 13 97.0699 13C105.23 13 105.23 17 113.39 17C121.55 17 121.55 13 129.71 13C137.87 13 137.88 17 146.04 17C154.2 17 154.2 13 162.36 13C170.52 13 170.52 17 178.69 17C186.86 17 186.85 13 195.01 13C203.17 13 203.18 17 211.34 17C219.5 17 219.5 13 227.67 13C235.84 13 235.83 17 244 17" stroke="#D9D9D9" stroke-miterlimit="10"/>
<path d="M-262 18C-253.84 18 -253.84 22 -245.68 22C-237.52 22 -237.52 18 -229.36 18C-221.2 18 -221.2 22 -213.04 22C-204.88 22 -204.88 18 -196.72 18C-188.56 18 -188.56 22 -180.4 22C-172.24 22 -172.24 18 -164.08 18C-155.92 18 -155.92 22 -147.76 22C-139.6 22 -139.6 18 -131.44 18C-123.28 18 -123.28 22 -115.12 22C-106.96 22 -106.96 18 -98.79 18C-90.62 18 -90.63 22 -82.47 22C-74.31 22 -74.31 18 -66.15 18C-57.99 18 -57.99 22 -49.83 22C-41.67 22 -41.67 18 -33.51 18C-25.35 18 -25.3499 22 -17.1899 22C-9.02994 22 -9.01999 18 -0.859985 18C7.30001 18 7.29996 22 15.46 22C23.62 22 23.62 18 31.78 18C39.94 18 39.94 22 48.1 22C56.26 22 56.26 18 64.42 18C72.58 18 72.58 22 80.74 22C88.9 22 88.9099 18 97.0699 18C105.23 18 105.23 22 113.39 22C121.55 22 121.55 18 129.71 18C137.87 18 137.88 22 146.04 22C154.2 22 154.2 18 162.36 18C170.52 18 170.52 22 178.69 22C186.86 22 186.85 18 195.01 18C203.17 18 203.18 22 211.34 22C219.5 22 219.5 18 227.67 18C235.84 18 235.83 22 244 22" stroke="#D9D9D9" stroke-miterlimit="10"/>
<path d="M-262 23C-253.84 23 -253.84 27 -245.68 27C-237.52 27 -237.52 23 -229.36 23C-221.2 23 -221.2 27 -213.04 27C-204.88 27 -204.88 23 -196.72 23C-188.56 23 -188.56 27 -180.4 27C-172.24 27 -172.24 23 -164.08 23C-155.92 23 -155.92 27 -147.76 27C-139.6 27 -139.6 23 -131.44 23C-123.28 23 -123.28 27 -115.12 27C-106.96 27 -106.96 23 -98.79 23C-90.62 23 -90.63 27 -82.47 27C-74.31 27 -74.31 23 -66.15 23C-57.99 23 -57.99 27 -49.83 27C-41.67 27 -41.67 23 -33.51 23C-25.35 23 -25.3499 27 -17.1899 27C-9.02994 27 -9.01999 23 -0.859985 23C7.30001 23 7.29996 27 15.46 27C23.62 27 23.62 23 31.78 23C39.94 23 39.94 27 48.1 27C56.26 27 56.26 23 64.42 23C72.58 23 72.58 27 80.74 27C88.9 27 88.9099 23 97.0699 23C105.23 23 105.23 27 113.39 27C121.55 27 121.55 23 129.71 23C137.87 23 137.88 27 146.04 27C154.2 27 154.2 23 162.36 23C170.52 23 170.52 27 178.69 27C186.86 27 186.85 23 195.01 23C203.17 23 203.18 27 211.34 27C219.5 27 219.5 23 227.67 23C235.84 23 235.83 27 244 27" stroke="#D9D9D9" stroke-miterlimit="10"/>
<path d="M-262 28C-253.84 28 -253.84 32 -245.68 32C-237.52 32 -237.52 28 -229.36 28C-221.2 28 -221.2 32 -213.04 32C-204.88 32 -204.88 28 -196.72 28C-188.56 28 -188.56 32 -180.4 32C-172.24 32 -172.24 28 -164.08 28C-155.92 28 -155.92 32 -147.76 32C-139.6 32 -139.6 28 -131.44 28C-123.28 28 -123.28 32 -115.12 32C-106.96 32 -106.96 28 -98.79 28C-90.62 28 -90.63 32 -82.47 32C-74.31 32 -74.31 28 -66.15 28C-57.99 28 -57.99 32 -49.83 32C-41.67 32 -41.67 28 -33.51 28C-25.35 28 -25.3499 32 -17.1899 32C-9.02994 32 -9.01999 28 -0.859985 28C7.30001 28 7.29996 32 15.46 32C23.62 32 23.62 28 31.78 28C39.94 28 39.94 32 48.1 32C56.26 32 56.26 28 64.42 28C72.58 28 72.58 32 80.74 32C88.9 32 88.9099 28 97.0699 28C105.23 28 105.23 32 113.39 32C121.55 32 121.55 28 129.71 28C137.87 28 137.88 32 146.04 32C154.2 32 154.2 28 162.36 28C170.52 28 170.52 32 178.69 32C186.86 32 186.85 28 195.01 28C203.17 28 203.18 32 211.34 32C219.5 32 219.5 28 227.67 28C235.84 28 235.83 32 244 32" stroke="#D9D9D9" stroke-miterlimit="10"/>
<path d="M-262 33C-253.84 33 -253.84 37 -245.68 37C-237.52 37 -237.52 33 -229.36 33C-221.2 33 -221.2 37 -213.04 37C-204.88 37 -204.88 33 -196.72 33C-188.56 33 -188.56 37 -180.4 37C-172.24 37 -172.24 33 -164.08 33C-155.92 33 -155.92 37 -147.76 37C-139.6 37 -139.6 33 -131.44 33C-123.28 33 -123.28 37 -115.12 37C-106.96 37 -106.96 33 -98.79 33C-90.62 33 -90.63 37 -82.47 37C-74.31 37 -74.31 33 -66.15 33C-57.99 33 -57.99 37 -49.83 37C-41.67 37 -41.67 33 -33.51 33C-25.35 33 -25.3499 37 -17.1899 37C-9.02994 37 -9.01999 33 -0.859985 33C7.30001 33 7.29996 37 15.46 37C23.62 37 23.62 33 31.78 33C39.94 33 39.94 37 48.1 37C56.26 37 56.26 33 64.42 33C72.58 33 72.58 37 80.74 37C88.9 37 88.9099 33 97.0699 33C105.23 33 105.23 37 113.39 37C121.55 37 121.55 33 129.71 33C137.87 33 137.88 37 146.04 37C154.2 37 154.2 33 162.36 33C170.52 33 170.52 37 178.69 37C186.86 37 186.85 33 195.01 33C203.17 33 203.18 37 211.34 37C219.5 37 219.5 33 227.67 33C235.84 33 235.83 37 244 37" stroke="#D9D9D9" stroke-miterlimit="10"/>
<path d="M-262 38C-253.84 38 -253.84 42 -245.68 42C-237.52 42 -237.52 38 -229.36 38C-221.2 38 -221.2 42 -213.04 42C-204.88 42 -204.88 38 -196.72 38C-188.56 38 -188.56 42 -180.4 42C-172.24 42 -172.24 38 -164.08 38C-155.92 38 -155.92 42 -147.76 42C-139.6 42 -139.6 38 -131.44 38C-123.28 38 -123.28 42 -115.12 42C-106.96 42 -106.96 38 -98.79 38C-90.62 38 -90.63 42 -82.47 42C-74.31 42 -74.31 38 -66.15 38C-57.99 38 -57.99 42 -49.83 42C-41.67 42 -41.67 38 -33.51 38C-25.35 38 -25.3499 42 -17.1899 42C-9.02994 42 -9.01999 38 -0.859985 38C7.30001 38 7.29996 42 15.46 42C23.62 42 23.62 38 31.78 38C39.94 38 39.94 42 48.1 42C56.26 42 56.26 38 64.42 38C72.58 38 72.58 42 80.74 42C88.9 42 88.9099 38 97.0699 38C105.23 38 105.23 42 113.39 42C121.55 42 121.55 38 129.71 38C137.87 38 137.88 42 146.04 42C154.2 42 154.2 38 162.36 38C170.52 38 170.52 42 178.69 42C186.86 42 186.85 38 195.01 38C203.17 38 203.18 42 211.34 42C219.5 42 219.5 38 227.67 38C235.84 38 235.83 42 244 42" stroke="#D9D9D9" stroke-miterlimit="10"/>
<path d="M-262 43C-253.84 43 -253.84 47 -245.68 47C-237.52 47 -237.52 43 -229.36 43C-221.2 43 -221.2 47 -213.04 47C-204.88 47 -204.88 43 -196.72 43C-188.56 43 -188.56 47 -180.4 47C-172.24 47 -172.24 43 -164.08 43C-155.92 43 -155.92 47 -147.76 47C-139.6 47 -139.6 43 -131.44 43C-123.28 43 -123.28 47 -115.12 47C-106.96 47 -106.96 43 -98.79 43C-90.62 43 -90.63 47 -82.47 47C-74.31 47 -74.31 43 -66.15 43C-57.99 43 -57.99 47 -49.83 47C-41.67 47 -41.67 43 -33.51 43C-25.35 43 -25.3499 47 -17.1899 47C-9.02994 47 -9.01999 43 -0.859985 43C7.30001 43 7.29996 47 15.46 47C23.62 47 23.62 43 31.78 43C39.94 43 39.94 47 48.1 47C56.26 47 56.26 43 64.42 43C72.58 43 72.58 47 80.74 47C88.9 47 88.9099 43 97.0699 43C105.23 43 105.23 47 113.39 47C121.55 47 121.55 43 129.71 43C137.87 43 137.88 47 146.04 47C154.2 47 154.2 43 162.36 43C170.52 43 170.52 47 178.69 47C186.86 47 186.85 43 195.01 43C203.17 43 203.18 47 211.34 47C219.5 47 219.5 43 227.67 43C235.84 43 235.83 47 244 47" stroke="#D9D9D9" stroke-miterlimit="10"/>
<path d="M-262 48C-253.84 48 -253.84 52 -245.68 52C-237.52 52 -237.52 48 -229.36 48C-221.2 48 -221.2 52 -213.04 52C-204.88 52 -204.88 48 -196.72 48C-188.56 48 -188.56 52 -180.4 52C-172.24 52 -172.24 48 -164.08 48C-155.92 48 -155.92 52 -147.76 52C-139.6 52 -139.6 48 -131.44 48C-123.28 48 -123.28 52 -115.12 52C-106.96 52 -106.96 48 -98.79 48C-90.62 48 -90.63 52 -82.47 52C-74.31 52 -74.31 48 -66.15 48C-57.99 48 -57.99 52 -49.83 52C-41.67 52 -41.67 48 -33.51 48C-25.35 48 -25.3499 52 -17.1899 52C-9.02994 52 -9.01999 48 -0.859985 48C7.30001 48 7.29996 52 15.46 52C23.62 52 23.62 48 31.78 48C39.94 48 39.94 52 48.1 52C56.26 52 56.26 48 64.42 48C72.58 48 72.58 52 80.74 52C88.9 52 88.9099 48 97.0699 48C105.23 48 105.23 52 113.39 52C121.55 52 121.55 48 129.71 48C137.87 48 137.88 52 146.04 52C154.2 52 154.2 48 162.36 48C170.52 48 170.52 52 178.69 52C186.86 52 186.85 48 195.01 48C203.17 48 203.18 52 211.34 52C219.5 52 219.5 48 227.67 48C235.84 48 235.83 52 244 52" stroke="#D9D9D9" stroke-miterlimit="10"/>
<path d="M-262 53C-253.84 53 -253.84 57 -245.68 57C-237.52 57 -237.52 53 -229.36 53C-221.2 53 -221.2 57 -213.04 57C-204.88 57 -204.88 53 -196.72 53C-188.56 53 -188.56 57 -180.4 57C-172.24 57 -172.24 53 -164.08 53C-155.92 53 -155.92 57 -147.76 57C-139.6 57 -139.6 53 -131.44 53C-123.28 53 -123.28 57 -115.12 57C-106.96 57 -106.96 53 -98.79 53C-90.62 53 -90.63 57 -82.47 57C-74.31 57 -74.31 53 -66.15 53C-57.99 53 -57.99 57 -49.83 57C-41.67 57 -41.67 53 -33.51 53C-25.35 53 -25.3499 57 -17.1899 57C-9.02994 57 -9.01999 53 -0.859985 53C7.30001 53 7.29996 57 15.46 57C23.62 57 23.62 53 31.78 53C39.94 53 39.94 57 48.1 57C56.26 57 56.26 53 64.42 53C72.58 53 72.58 57 80.74 57C88.9 57 88.9099 53 97.0699 53C105.23 53 105.23 57 113.39 57C121.55 57 121.55 53 129.71 53C137.87 53 137.88 57 146.04 57C154.2 57 154.2 53 162.36 53C170.52 53 170.52 57 178.69 57C186.86 57 186.85 53 195.01 53C203.17 53 203.18 57 211.34 57C219.5 57 219.5 53 227.67 53C235.84 53 235.83 57 244 57" stroke="#D9D9D9" stroke-miterlimit="10"/>
<path d="M-262 58C-253.84 58 -253.84 62 -245.68 62C-237.52 62 -237.52 58 -229.36 58C-221.2 58 -221.2 62 -213.04 62C-204.88 62 -204.88 58 -196.72 58C-188.56 58 -188.56 62 -180.4 62C-172.24 62 -172.24 58 -164.08 58C-155.92 58 -155.92 62 -147.76 62C-139.6 62 -139.6 58 -131.44 58C-123.28 58 -123.28 62 -115.12 62C-106.96 62 -106.96 58 -98.79 58C-90.62 58 -90.63 62 -82.47 62C-74.31 62 -74.31 58 -66.15 58C-57.99 58 -57.99 62 -49.83 62C-41.67 62 -41.67 58 -33.51 58C-25.35 58 -25.3499 62 -17.1899 62C-9.02994 62 -9.01999 58 -0.859985 58C7.30001 58 7.29996 62 15.46 62C23.62 62 23.62 58 31.78 58C39.94 58 39.94 62 48.1 62C56.26 62 56.26 58 64.42 58C72.58 58 72.58 62 80.74 62C88.9 62 88.9099 58 97.0699 58C105.23 58 105.23 62 113.39 62C121.55 62 121.55 58 129.71 58C137.87 58 137.88 62 146.04 62C154.2 62 154.2 58 162.36 58C170.52 58 170.52 62 178.69 62C186.86 62 186.85 58 195.01 58C203.17 58 203.18 62 211.34 62C219.5 62 219.5 58 227.67 58C235.84 58 235.83 62 244 62" stroke="#D9D9D9" stroke-miterlimit="10"/>
<path d="M-262 63C-253.84 63 -253.84 67 -245.68 67C-237.52 67 -237.52 63 -229.36 63C-221.2 63 -221.2 67 -213.04 67C-204.88 67 -204.88 63 -196.72 63C-188.56 63 -188.56 67 -180.4 67C-172.24 67 -172.24 63 -164.08 63C-155.92 63 -155.92 67 -147.76 67C-139.6 67 -139.6 63 -131.44 63C-123.28 63 -123.28 67 -115.12 67C-106.96 67 -106.96 63 -98.79 63C-90.62 63 -90.63 67 -82.47 67C-74.31 67 -74.31 63 -66.15 63C-57.99 63 -57.99 67 -49.83 67C-41.67 67 -41.67 63 -33.51 63C-25.35 63 -25.3499 67 -17.1899 67C-9.02994 67 -9.01999 63 -0.859985 63C7.30001 63 7.29996 67 15.46 67C23.62 67 23.62 63 31.78 63C39.94 63 39.94 67 48.1 67C56.26 67 56.26 63 64.42 63C72.58 63 72.58 67 80.74 67C88.9 67 88.9099 63 97.0699 63C105.23 63 105.23 67 113.39 67C121.55 67 121.55 63 129.71 63C137.87 63 137.88 67 146.04 67C154.2 67 154.2 63 162.36 63C170.52 63 170.52 67 178.69 67C186.86 67 186.85 63 195.01 63C203.17 63 203.18 67 211.34 67C219.5 67 219.5 63 227.67 63C235.84 63 235.83 67 244 67" stroke="#D9D9D9" stroke-miterlimit="10"/>
<path d="M-262 68C-253.84 68 -253.84 72 -245.68 72C-237.52 72 -237.52 68 -229.36 68C-221.2 68 -221.2 72 -213.04 72C-204.88 72 -204.88 68 -196.72 68C-188.56 68 -188.56 72 -180.4 72C-172.24 72 -172.24 68 -164.08 68C-155.92 68 -155.92 72 -147.76 72C-139.6 72 -139.6 68 -131.44 68C-123.28 68 -123.28 72 -115.12 72C-106.96 72 -106.96 68 -98.79 68C-90.62 68 -90.63 72 -82.47 72C-74.31 72 -74.31 68 -66.15 68C-57.99 68 -57.99 72 -49.83 72C-41.67 72 -41.67 68 -33.51 68C-25.35 68 -25.3499 72 -17.1899 72C-9.02994 72 -9.01999 68 -0.859985 68C7.30001 68 7.29996 72 15.46 72C23.62 72 23.62 68 31.78 68C39.94 68 39.94 72 48.1 72C56.26 72 56.26 68 64.42 68C72.58 68 72.58 72 80.74 72C88.9 72 88.9099 68 97.0699 68C105.23 68 105.23 72 113.39 72C121.55 72 121.55 68 129.71 68C137.87 68 137.88 72 146.04 72C154.2 72 154.2 68 162.36 68C170.52 68 170.52 72 178.69 72C186.86 72 186.85 68 195.01 68C203.17 68 203.18 72 211.34 72C219.5 72 219.5 68 227.67 68C235.84 68 235.83 72 244 72" stroke="#D9D9D9" stroke-miterlimit="10"/>
<path d="M-262 73C-253.84 73 -253.84 77 -245.68 77C-237.52 77 -237.52 73 -229.36 73C-221.2 73 -221.2 77 -213.04 77C-204.88 77 -204.88 73 -196.72 73C-188.56 73 -188.56 77 -180.4 77C-172.24 77 -172.24 73 -164.08 73C-155.92 73 -155.92 77 -147.76 77C-139.6 77 -139.6 73 -131.44 73C-123.28 73 -123.28 77 -115.12 77C-106.96 77 -106.96 73 -98.79 73C-90.62 73 -90.63 77 -82.47 77C-74.31 77 -74.31 73 -66.15 73C-57.99 73 -57.99 77 -49.83 77C-41.67 77 -41.67 73 -33.51 73C-25.35 73 -25.3499 77 -17.1899 77C-9.02994 77 -9.01999 73 -0.859985 73C7.30001 73 7.29996 77 15.46 77C23.62 77 23.62 73 31.78 73C39.94 73 39.94 77 48.1 77C56.26 77 56.26 73 64.42 73C72.58 73 72.58 77 80.74 77C88.9 77 88.9099 73 97.0699 73C105.23 73 105.23 77 113.39 77C121.55 77 121.55 73 129.71 73C137.87 73 137.88 77 146.04 77C154.2 77 154.2 73 162.36 73C170.52 73 170.52 77 178.69 77C186.86 77 186.85 73 195.01 73C203.17 73 203.18 77 211.34 77C219.5 77 219.5 73 227.67 73C235.84 73 235.83 77 244 77" stroke="#D9D9D9" stroke-miterlimit="10"/>
<path d="M-262 78C-253.84 78 -253.84 82 -245.68 82C-237.52 82 -237.52 78 -229.36 78C-221.2 78 -221.2 82 -213.04 82C-204.88 82 -204.88 78 -196.72 78C-188.56 78 -188.56 82 -180.4 82C-172.24 82 -172.24 78 -164.08 78C-155.92 78 -155.92 82 -147.76 82C-139.6 82 -139.6 78 -131.44 78C-123.28 78 -123.28 82 -115.12 82C-106.96 82 -106.96 78 -98.79 78C-90.62 78 -90.63 82 -82.47 82C-74.31 82 -74.31 78 -66.15 78C-57.99 78 -57.99 82 -49.83 82C-41.67 82 -41.67 78 -33.51 78C-25.35 78 -25.3499 82 -17.1899 82C-9.02994 82 -9.01999 78 -0.859985 78C7.30001 78 7.29996 82 15.46 82C23.62 82 23.62 78 31.78 78C39.94 78 39.94 82 48.1 82C56.26 82 56.26 78 64.42 78C72.58 78 72.58 82 80.74 82C88.9 82 88.9099 78 97.0699 78C105.23 78 105.23 82 113.39 82C121.55 82 121.55 78 129.71 78C137.87 78 137.88 82 146.04 82C154.2 82 154.2 78 162.36 78C170.52 78 170.52 82 178.69 82C186.86 82 186.85 78 195.01 78C203.17 78 203.18 82 211.34 82C219.5 82 219.5 78 227.67 78C235.84 78 235.83 82 244 82" stroke="#D9D9D9" stroke-miterlimit="10"/>
</svg>
