<svg width="127" height="12" viewBox="0 0 127 12" fill="none" xmlns="http://www.w3.org/2000/svg">
<g clip-path="url(#clip0_0_1)">
<path d="M-538 4C-530.09 4 -530.09 8 -522.18 8C-514.27 8 -514.27 4 -506.36 4C-498.45 4 -498.44 8 -490.53 8C-482.62 8 -482.62 4 -474.71 4C-466.8 4 -466.8 8 -458.89 8C-450.98 8 -450.98 4 -443.07 4C-435.16 4 -435.16 8 -427.25 8C-419.34 8 -419.33 4 -411.42 4C-403.51 4 -403.51 8 -395.6 8C-387.69 8 -387.69 4 -379.78 4C-371.87 4 -371.87 8 -363.96 8C-356.05 8 -356.05 4 -348.14 4C-340.23 4 -340.22 8 -332.31 8C-324.4 8 -324.4 4 -316.49 4C-308.58 4 -308.58 8 -300.67 8C-292.76 8 -292.76 4 -284.85 4C-276.94 4 -276.93 8 -269.02 8C-261.11 8 -261.11 4 -253.2 4C-245.29 4 -245.29 8 -237.38 8C-229.47 8 -229.47 4 -221.55 4C-213.63 4 -213.64 8 -205.73 8C-197.82 8 -197.82 4 -189.91 4C-182 4 -182 8 -174.09 8C-166.18 8 -166.17 4 -158.26 4C-150.35 4 -150.35 8 -142.44 8C-134.53 8 -134.53 4 -126.62 4C-118.71 4 -118.7 8 -110.79 8C-102.88 8 -102.88 4 -94.97 4C-87.06 4 -87.06 8 -79.15 8C-71.24 8 -71.23 4 -63.32 4C-55.41 4 -55.41 8 -47.5 8C-39.59 8 -39.59 4 -31.68 4C-23.77 4 -23.76 8 -15.85 8C-7.93998 8 -7.94003 4 -0.0300293 4C7.87997 4 7.87998 8 15.79 8C23.7 8 23.71 4 31.62 4C39.53 4 39.53 8 47.44 8C55.35 8 55.35 4 63.27 4C71.19 4 71.18 8 79.09 8C87 8 87 4 94.91 4C102.82 4 102.83 8 110.74 8C118.65 8 118.65 4 126.56 4C134.47 4 134.47 8 142.38 8C150.29 8 150.29 4 158.21 4C166.13 4 166.12 8 174.03 8C181.94 8 181.94 4 189.85 4C197.76 4 197.76 8 205.67 8C213.58 8 213.58 4 221.49 4C229.4 4 229.4 8 237.31 8C245.22 8 245.22 4 253.13 4C261.04 4 261.04 8 268.95 8C276.86 8 276.87 4 284.78 4C292.69 4 292.69 8 300.6 8C308.51 8 308.51 4 316.42 4C324.33 4 324.33 8 332.25 8C340.17 8 340.16 4 348.07 4C355.98 4 355.98 8 363.89 8C371.8 8 371.8 4 379.71 4C387.62 4 387.63 8 395.54 8C403.45 8 403.45 4 411.36 4C419.27 4 419.27 8 427.18 8C435.09 8 435.1 4 443.01 4C450.92 4 450.92 8 458.83 8C466.74 8 466.75 4 474.66 4C482.57 4 482.57 8 490.48 8C498.39 8 498.4 4 506.31 4C514.22 4 514.22 8 522.14 8C530.06 8 530.05 4 537.96 4C545.87 4 545.87 8 553.79 8C561.71 8 561.7 4 569.61 4C577.52 4 577.53 8 585.44 8C593.35 8 593.35 4 601.26 4C609.17 4 609.18 8 617.09 8C625 8 625 4 632.92 4C640.84 4 640.83 8 648.74 8C656.65 8 656.66 4 664.57 4C672.48 4 672.48 8 680.4 8C688.32 8 688.31 4 696.22 4C704.13 4 704.14 8 712.05 8C719.96 8 719.96 4 727.87 4C735.78 4 735.79 8 743.7 8C751.61 8 751.61 4 759.53 4C767.45 4 767.44 8 775.35 8C783.26 8 783.27 4 791.18 4C799.09 4 799.1 8 807.01 8C814.92 8 814.93 4 822.84 4C830.75 4 830.75 8 838.67 8C846.59 8 846.58 4 854.5 4C862.42 4 862.41 8 870.33 8C878.25 8 878.25 4 886.17 4C894.09 4 894.08 8 902 8" stroke="#F0F2F7" stroke-width="8" stroke-miterlimit="10"/>
</g>
<defs>
<clipPath id="clip0_0_1">
<rect width="1440" height="12" fill="white" transform="translate(-538)"/>
</clipPath>
</defs>
</svg>
