<svg width="30" height="30" viewBox="0 0 30 30" fill="none" xmlns="http://www.w3.org/2000/svg">
<g clip-path="url(#clip0_298_3284)">
<path d="M29.9996 6.52999C30.0085 6.3366 29.9694 6.14402 29.8856 5.96949C29.8018 5.79496 29.6761 5.64395 29.5196 5.52999C29.356 5.42762 29.1688 5.36923 28.9761 5.36047C28.7834 5.35171 28.5917 5.39288 28.4196 5.47999C24.1196 7.35999 19.8696 9.16999 16.6496 10.54C16.3773 10.626 16.1431 10.8033 15.9864 11.0419C15.8297 11.2806 15.7602 11.566 15.7896 11.85C15.7896 14.71 15.7896 17.61 15.7896 20.43V23.37L15.6596 23.31C14.8075 22.8763 13.852 22.687 12.8989 22.7628C11.9458 22.8387 11.0323 23.1769 10.2596 23.74C9.71145 24.0693 9.28291 24.5652 9.03646 25.1552C8.79001 25.7453 8.73854 26.3986 8.88955 27.02C9.01485 27.5668 9.27158 28.0748 9.63751 28.4999C10.0034 28.9251 10.4675 29.2547 10.9896 29.46C11.3807 29.6225 11.7857 29.7497 12.1996 29.84L12.7396 29.98H13.8496L14.2696 29.88C14.5846 29.8166 14.8952 29.7331 15.1996 29.63C15.9814 29.3993 16.6626 28.9113 17.1326 28.2453C17.6027 27.5792 17.8342 26.774 17.7896 25.96V23.96C17.7896 21.29 17.7896 18.61 17.7896 15.96C17.7774 15.8926 17.7912 15.8231 17.8284 15.7655C17.8655 15.7079 17.9231 15.6667 17.9896 15.65L25.4796 12.45L27.8496 11.45L27.9896 11.39V18.18H27.8896C27.0353 17.7495 26.0796 17.5611 25.126 17.6352C24.1723 17.7092 23.2571 18.0429 22.4796 18.6C22.0626 18.8708 21.7145 19.235 21.4628 19.6637C21.2111 20.0925 21.0628 20.5739 21.0296 21.07C21.0309 21.5687 21.1449 22.0607 21.3631 22.5092C21.5813 22.9577 21.898 23.3511 22.2896 23.66C23.1027 24.2955 24.0833 24.6802 25.1116 24.7672C26.1399 24.8543 27.1712 24.6398 28.0796 24.15C28.6972 23.8561 29.2156 23.3882 29.5709 22.8037C29.9262 22.2192 30.103 21.5436 30.0796 20.86C29.9696 16.14 29.9696 11.33 29.9996 6.52999ZM27.9996 8.05999C27.9996 8.41999 27.9996 8.75999 27.9996 9.05999C27.9996 9.05999 27.9096 9.17999 27.8396 9.21999L24.5196 10.66L17.9096 13.49H17.7896V13.28C17.7896 12.93 17.7896 12.6 17.7896 12.28C17.7896 12.28 17.8696 12.15 17.9396 12.12L22.7396 10.06L27.7896 7.88999L27.9896 7.80999L27.9996 8.05999ZM22.9996 21.16C23.012 20.9458 23.0758 20.7377 23.1854 20.5532C23.295 20.3688 23.4473 20.2133 23.6296 20.1C24.163 19.7282 24.7994 19.5324 25.4496 19.54C26.1136 19.5234 26.7666 19.712 27.3196 20.08C27.5057 20.1932 27.6619 20.3495 27.775 20.5357C27.8881 20.722 27.9548 20.9326 27.9696 21.15C27.9551 21.3676 27.8896 21.5787 27.7784 21.7664C27.6672 21.954 27.5135 22.1128 27.3296 22.23C26.7785 22.5918 26.1337 22.7845 25.4746 22.7845C24.8154 22.7845 24.1706 22.5918 23.6196 22.23C23.4422 22.1117 23.2953 21.9531 23.191 21.7671C23.0867 21.5811 23.028 21.3731 23.0196 21.16H22.9996ZM15.7896 26.39C15.7748 26.6074 15.7081 26.818 15.595 27.0042C15.4819 27.1904 15.3257 27.3467 15.1396 27.46C14.6002 27.8341 13.9557 28.0267 13.2996 28.01C12.6306 28.0188 11.9761 27.8158 11.4296 27.43C11.2583 27.3209 11.1143 27.1741 11.0085 27.0008C10.9028 26.8274 10.8382 26.6322 10.8196 26.43C10.8407 26.2273 10.9075 26.0321 11.0149 25.8589C11.1223 25.6857 11.2674 25.5391 11.4396 25.43C11.9705 25.0191 12.6184 24.7879 13.2896 24.77C13.9447 24.7606 14.587 24.9526 15.1296 25.32C15.317 25.4327 15.4747 25.5887 15.5895 25.7748C15.7044 25.961 15.7729 26.1719 15.7896 26.39Z" fill="#1E1E1E"/>
<path d="M8.95094 7.02003C8.95094 5.89003 8.95094 4.76003 8.95094 3.63003C9.10094 3.81003 9.23094 3.97003 9.35094 4.13003C10.3456 5.34965 11.176 6.69445 11.8209 8.13003C12.0958 8.68312 12.2079 9.30291 12.1442 9.91723C12.0804 10.5316 11.8435 11.1151 11.4609 11.6C11.2509 11.89 11.0109 12.19 10.7609 12.48C10.6562 12.5738 10.5724 12.6887 10.515 12.817C10.4577 12.9454 10.428 13.0844 10.428 13.225C10.428 13.3656 10.4577 13.5047 10.515 13.633C10.5724 13.7614 10.6562 13.8762 10.7609 13.97C10.8604 14.061 10.9772 14.1309 11.1044 14.1756C11.2316 14.2203 11.3664 14.2388 11.5009 14.23C11.6425 14.2183 11.7799 14.1766 11.904 14.1076C12.0282 14.0386 12.1362 13.944 12.2209 13.83C12.6959 13.2484 13.1335 12.6372 13.5309 12C14.0938 11.1082 14.2941 10.0348 14.0909 9.00003C13.9797 8.36299 13.7917 7.7418 13.5309 7.15003C13.0875 6.22102 12.5831 5.32238 12.0209 4.46003C11.0574 3.02538 9.95904 1.68597 8.74094 0.460027C8.60839 0.28529 8.42207 0.158978 8.21067 0.100541C7.99928 0.0421045 7.77453 0.0547856 7.57105 0.136632C7.36757 0.218479 7.19664 0.364948 7.08459 0.553487C6.97254 0.742026 6.92558 0.962176 6.95094 1.18003V12.88C5.9438 12.3529 4.79389 12.1636 3.67094 12.34C2.50411 12.4585 1.4287 13.0249 0.67094 13.92C0.331043 14.3755 0.0892836 14.8964 -0.0390625 15.45V16.35C0.0913101 17.1138 0.501244 17.8018 1.11094 18.28C2.00805 19.0253 3.13468 19.4386 4.30094 19.45C5.06887 19.4406 5.82712 19.2773 6.53094 18.97C7.25563 18.7147 7.87722 18.2299 8.30134 17.5892C8.72547 16.9485 8.92896 16.1869 8.88094 15.42C8.94094 12.66 8.95094 9.77003 8.95094 7.02003ZM1.95094 15.82C1.97139 15.6172 2.03787 15.4216 2.14531 15.2483C2.25275 15.075 2.39832 14.9286 2.57094 14.82C3.11998 14.4579 3.76323 14.2649 4.42094 14.2649C5.07865 14.2649 5.7219 14.4579 6.27094 14.82C6.46816 14.9219 6.63355 15.0761 6.74901 15.2657C6.86446 15.4553 6.92553 15.673 6.92553 15.895C6.92553 16.117 6.86446 16.3347 6.74901 16.5243C6.63355 16.7139 6.46816 16.8681 6.27094 16.97C5.7281 17.3368 5.08603 17.5288 4.43094 17.52C3.76543 17.5267 3.11468 17.3238 2.57094 16.94C2.38848 16.8166 2.23982 16.6494 2.13852 16.4538C2.03721 16.2582 1.98648 16.0403 1.99094 15.82H1.95094Z" fill="#1E1E1E"/>
</g>
<defs>
<clipPath id="clip0_298_3284">
<rect width="30" height="30" fill="white"/>
</clipPath>
</defs>
</svg>
