<svg width="310" height="5" viewBox="0 0 310 5" fill="none" xmlns="http://www.w3.org/2000/svg">
<g clip-path="url(#clip0_297_2738)">
<path d="M0 0.5C6.2 0.5 6.19999 4.5 12.4 4.5C18.6 4.5 18.6 0.5 24.8 0.5C31 0.5 31 4.5 37.19 4.5C43.38 4.5 43.39 0.5 49.59 0.5C55.79 0.5 55.79 4.5 61.99 4.5C68.19 4.5 68.19 0.5 74.39 0.5C80.59 0.5 80.59 4.5 86.79 4.5C92.99 4.5 92.99 0.5 99.18 0.5C105.37 0.5 105.38 4.5 111.58 4.5C117.78 4.5 117.78 0.5 123.98 0.5C130.18 0.5 130.18 4.5 136.38 4.5C142.58 4.5 142.58 0.5 148.78 0.5C154.98 0.5 154.97 4.5 161.17 4.5C167.37 4.5 167.37 0.5 173.57 0.5C179.77 0.5 179.77 4.5 185.97 4.5C192.17 4.5 192.17 0.5 198.37 0.5C204.57 0.5 204.57 4.5 210.77 4.5C216.97 4.5 216.97 0.5 223.18 0.5C229.39 0.5 229.38 4.5 235.58 4.5C241.78 4.5 241.78 0.5 247.97 0.5C254.16 0.5 254.17 4.5 260.37 4.5C266.57 4.5 266.58 0.5 272.78 0.5C278.98 0.5 278.98 4.5 285.18 4.5C291.38 4.5 291.39 0.5 297.59 0.5C303.79 0.5 303.8 4.5 310 4.5" stroke="#E6E8ED" stroke-miterlimit="10"/>
</g>
<defs>
<clipPath id="clip0_297_2738">
<rect width="310" height="5" fill="white"/>
</clipPath>
</defs>
</svg>
