<svg width="16" height="16" viewBox="0 0 16 16" fill="none" xmlns="http://www.w3.org/2000/svg">
<g clip-path="url(#clip0_390_984)">
<path d="M14 3.5C14.1326 3.5 14.2598 3.55268 14.3536 3.64645C14.4473 3.74021 14.5 3.86739 14.5 4V14C14.5 14.1326 14.4473 14.2598 14.3536 14.3536C14.2598 14.4473 14.1326 14.5 14 14.5H2C1.86739 14.5 1.74021 14.4473 1.64645 14.3536C1.55268 14.2598 1.5 14.1326 1.5 14V4C1.5 3.86739 1.55268 3.74021 1.64645 3.64645C1.74021 3.55268 1.86739 3.5 2 3.5H14ZM14 2H2C1.46957 2 0.960859 2.21071 0.585786 2.58579C0.210714 2.96086 0 3.46957 0 4V14C0 14.5304 0.210714 15.0391 0.585786 15.4142C0.960859 15.7893 1.46957 16 2 16H14C14.5304 16 15.0391 15.7893 15.4142 15.4142C15.7893 15.0391 16 14.5304 16 14V4C16 3.46957 15.7893 2.96086 15.4142 2.58579C15.0391 2.21071 14.5304 2 14 2Z" fill="#1E1E1E"/>
<path d="M3.75 0C3.55189 0.00258996 3.36263 0.0824392 3.22253 0.222534C3.08244 0.362629 3.00259 0.551893 3 0.75V4.25C3 4.44891 3.07902 4.63968 3.21967 4.78033C3.36032 4.92098 3.55109 5 3.75 5C3.94891 5 4.13968 4.92098 4.28033 4.78033C4.42098 4.63968 4.5 4.44891 4.5 4.25V0.75C4.49741 0.551893 4.41756 0.362629 4.27747 0.222534C4.13737 0.0824392 3.94811 0.00258996 3.75 0Z" fill="#1E1E1E"/>
<path d="M12.25 0C12.0519 0.00258996 11.8626 0.0824392 11.7225 0.222534C11.5824 0.362629 11.5026 0.551893 11.5 0.75V4.25C11.5 4.44891 11.579 4.63968 11.7197 4.78033C11.8603 4.92098 12.0511 5 12.25 5C12.4489 5 12.6397 4.92098 12.7803 4.78033C12.921 4.63968 13 4.44891 13 4.25V0.75C12.9974 0.551893 12.9176 0.362629 12.7775 0.222534C12.6374 0.0824392 12.4481 0.00258996 12.25 0Z" fill="#1E1E1E"/>
<path d="M11.25 8.5H4.75C4.55109 8.5 4.36032 8.57902 4.21967 8.71967C4.07902 8.86032 4 9.05109 4 9.25C4 9.44891 4.07902 9.63968 4.21967 9.78033C4.36032 9.92098 4.55109 10 4.75 10H11.25C11.4489 10 11.6397 9.92098 11.7803 9.78033C11.921 9.63968 12 9.44891 12 9.25C12 9.05109 11.921 8.86032 11.7803 8.71967C11.6397 8.57902 11.4489 8.5 11.25 8.5Z" fill="#1E1E1E"/>
</g>
<defs>
<clipPath id="clip0_390_984">
<rect width="16" height="16" fill="white"/>
</clipPath>
</defs>
</svg>
