<svg width="30" height="25" viewBox="0 0 30 25" fill="none" xmlns="http://www.w3.org/2000/svg">
<g clip-path="url(#clip0_298_3278)">
<path d="M29.9996 2.03003C30.0161 1.50549 29.8257 0.995496 29.4696 0.610031C29.2847 0.423873 29.0628 0.278697 28.8181 0.18394C28.5735 0.0891834 28.3116 0.0469635 28.0496 0.0600275C24.8796 0.0600275 21.7096 0.0600275 18.5296 0.0600275H1.8796C1.62324 0.0360188 1.36476 0.0695379 1.12301 0.158134C0.881252 0.24673 0.662322 0.388169 0.482184 0.572139C0.302046 0.75611 0.16525 0.977971 0.0817626 1.22154C-0.00172478 1.4651 -0.0298057 1.72424 -0.000405981 1.98003V9.83003C-0.0153861 10.0531 -0.0153861 10.2769 -0.000405981 10.5C0.116375 11.3631 0.553477 12.1508 1.2241 12.7065C1.89472 13.2623 2.74982 13.5455 3.6196 13.5H26.3196C26.5656 13.5252 26.8136 13.5252 27.0596 13.5C27.8894 13.365 28.6423 12.9341 29.179 12.2871C29.7158 11.64 30.0002 10.8205 29.9796 9.98003V6.98003C29.9896 5.31003 29.9796 3.64003 29.9996 2.03003ZM28.3196 5.03003C28.3196 6.66003 28.3196 8.30003 28.3196 9.93003C28.3453 10.372 28.2109 10.8084 27.9409 11.1592C27.6709 11.51 27.2834 11.7518 26.8496 11.84V11.31C26.8725 10.9757 26.8245 10.6403 26.7087 10.3258C26.593 10.0113 26.4122 9.72478 26.178 9.48501C25.9439 9.24523 25.6618 9.05759 25.3502 8.93438C25.0385 8.81117 24.7044 8.75517 24.3696 8.77003H5.6296C5.29529 8.75544 4.96165 8.8112 4.65026 8.93373C4.33887 9.05625 4.05669 9.24279 3.82197 9.48129C3.58724 9.71978 3.40523 10.0049 3.28768 10.3182C3.17013 10.6315 3.11969 10.966 3.13961 11.3V11.84C2.84698 11.7864 2.57413 11.6552 2.3496 11.46C2.13485 11.2898 1.96255 11.072 1.84629 10.8239C1.73002 10.5757 1.67296 10.304 1.6796 10.03C1.6796 7.63003 1.6796 5.24003 1.6796 2.84003V1.94003C1.6796 1.85003 1.6796 1.80003 1.7596 1.79003H3.1496V4.83003C3.12145 5.24818 3.18121 5.66759 3.32505 6.06123C3.46889 6.45487 3.69361 6.81401 3.98473 7.11549C4.27585 7.41698 4.62691 7.65412 5.01528 7.81164C5.40365 7.96915 5.82072 8.04355 6.2396 8.03003H23.7496C24.1648 8.04441 24.5786 7.97238 24.9645 7.8185C25.3504 7.66462 25.7002 7.43225 25.9917 7.13611C26.2831 6.83997 26.5099 6.48652 26.6575 6.09816C26.8052 5.7098 26.8706 5.29499 26.8496 4.88003V1.73003H28.3196C28.3196 1.73003 28.3196 1.73003 28.3196 1.85003C28.3196 2.12003 28.3196 2.39003 28.3196 2.66003V4.96003V5.03003ZM25.1696 4.85003C25.1952 5.05003 25.1749 5.25323 25.1104 5.44426C25.0458 5.63529 24.9387 5.80914 24.7971 5.95267C24.6555 6.09621 24.4831 6.20567 24.293 6.27277C24.1028 6.33988 23.8999 6.36288 23.6996 6.34003H6.3196C6.11665 6.3628 5.91118 6.33924 5.71865 6.2711C5.52612 6.20296 5.35157 6.09203 5.20812 5.94666C5.06468 5.80129 4.95607 5.62527 4.89051 5.43185C4.82494 5.23843 4.80412 5.03266 4.8296 4.83003V1.82003H25.1796V2.32003C25.1696 3.14003 25.1796 3.96003 25.1696 4.78003V4.85003ZM4.8696 10.94C4.90029 10.8193 4.96781 10.7111 5.06278 10.6304C5.15775 10.5498 5.27547 10.5007 5.3996 10.49H24.5896C24.7182 10.4999 24.8401 10.551 24.9374 10.6357C25.0346 10.7203 25.102 10.8341 25.1296 10.96C25.1446 11.2465 25.1446 11.5336 25.1296 11.82V11.87H4.8296V11.82C4.81917 11.5028 4.83255 11.1853 4.8696 10.87V10.94Z" fill="#1E1E1E"/>
<path d="M8.25939 20.61C8.73915 20.507 9.19223 20.3053 9.5899 20.0178C9.98756 19.7303 10.3211 19.3633 10.5694 18.94C11.2278 17.916 11.6733 16.7699 11.8794 15.57C11.9127 15.4571 11.923 15.3386 11.9097 15.2216C11.8964 15.1046 11.8598 14.9915 11.802 14.8889C11.7442 14.7863 11.6663 14.6964 11.5731 14.6245C11.4799 14.5525 11.3733 14.5 11.2594 14.47C11.1448 14.4502 11.0274 14.4538 10.9143 14.4806C10.8011 14.5074 10.6946 14.5569 10.6011 14.6261C10.5076 14.6953 10.4291 14.7827 10.3704 14.883C10.3117 14.9834 10.2739 15.0946 10.2594 15.21L10.2094 15.43C10.1494 15.69 10.0894 15.96 10.0094 16.22C9.79369 17.0184 9.40443 17.7594 8.86939 18.39C8.7071 18.5837 8.5007 18.7357 8.26754 18.8331C8.03438 18.9305 7.78126 18.9706 7.5294 18.95C7.37704 18.9403 7.2336 18.8748 7.12658 18.7659C7.01956 18.657 6.95648 18.5125 6.9494 18.36C6.94583 18.2211 6.99399 18.0859 7.08454 17.9806C7.17509 17.8752 7.30156 17.8073 7.43939 17.79C7.59342 17.7941 7.74563 17.8245 7.8894 17.88C8.08911 17.9524 8.30867 17.9474 8.50486 17.8659C8.70105 17.7845 8.85964 17.6325 8.9494 17.44C9.04126 17.2315 9.04767 16.9953 8.96726 16.7822C8.88686 16.569 8.72605 16.3959 8.51939 16.3C8.06669 16.0661 7.54514 16.0022 7.04939 16.12C6.49772 16.2582 6.01643 16.5951 5.69769 17.0661C5.37894 17.5371 5.24515 18.1091 5.32194 18.6726C5.39873 19.2362 5.6807 19.7515 6.11384 20.1201C6.54698 20.4886 7.10086 20.6844 7.6694 20.67H7.86939L8.25939 20.61Z" fill="#1E1E1E"/>
<path d="M21.58 16.26C21.4375 16.326 21.3125 16.4247 21.2152 16.5481C21.1179 16.6714 21.0511 16.816 21.02 16.97C21.0002 17.1061 21.0145 17.2449 21.0617 17.3741C21.1088 17.5032 21.1873 17.6187 21.29 17.71C21.4233 17.8324 21.5922 17.909 21.772 17.9288C21.9519 17.9486 22.1334 17.9105 22.29 17.82C22.3944 17.773 22.5105 17.7584 22.6232 17.7782C22.7359 17.7981 22.84 17.8514 22.922 17.9312C23.004 18.0111 23.0601 18.1137 23.0829 18.2259C23.1058 18.338 23.0943 18.4545 23.05 18.56C23.0107 18.6811 22.9326 18.7859 22.8277 18.8582C22.7229 18.9305 22.5972 18.9662 22.47 18.96C22.2275 18.9716 21.9854 18.9281 21.762 18.8328C21.5386 18.7376 21.3397 18.593 21.18 18.41C20.7311 17.939 20.3899 17.376 20.18 16.76C20.05 16.38 19.95 16 19.85 15.61L19.74 15.16C19.694 14.9385 19.5644 14.7432 19.3782 14.6147C19.192 14.4863 18.9635 14.4344 18.74 14.47C18.5247 14.5225 18.3375 14.6552 18.2167 14.8411C18.0959 15.0269 18.0506 15.2519 18.0901 15.47C18.3086 16.7791 18.8103 18.0248 19.5601 19.12C19.8598 19.5869 20.2665 19.9756 20.7465 20.2538C21.2265 20.5321 21.7659 20.6919 22.32 20.72H22.3701H22.43L22.72 20.66C22.9709 20.6144 23.2158 20.5406 23.4501 20.44C23.7195 20.3129 23.9608 20.1334 24.16 19.9119C24.3592 19.6904 24.5122 19.4314 24.61 19.15C24.8142 18.5788 24.7855 17.9502 24.5301 17.4C24.4119 17.1309 24.2417 16.8878 24.0292 16.6847C23.8167 16.4816 23.5662 16.3225 23.2921 16.2166C23.0179 16.1106 22.7256 16.0599 22.4317 16.0674C22.1379 16.0748 21.8485 16.1403 21.58 16.26Z" fill="#1E1E1E"/>
<path d="M21.5098 23.3C20.5425 23.0453 19.6918 22.4664 19.0998 21.66C18.2857 20.5511 17.7227 19.2783 17.4498 17.93C17.3098 17.31 17.2198 16.65 17.1198 16.02L17.0198 15.3C16.9098 14.65 16.5298 14.53 16.3098 14.52C16.1668 14.5135 16.024 14.5379 15.8912 14.5913C15.7583 14.6448 15.6385 14.7262 15.5398 14.83C15.4131 14.9817 15.3425 15.1724 15.3398 15.37C15.3448 15.4099 15.3448 15.4502 15.3398 15.49V15.59C15.4773 17.1237 15.8135 18.633 16.3398 20.08C16.8391 21.6326 17.781 23.0055 19.0498 24.03C19.6616 24.5115 20.3717 24.8529 21.1298 25.03C21.2062 25.0395 21.2835 25.0395 21.3598 25.03C21.559 25.0399 21.7548 24.976 21.9098 24.8506C22.0648 24.7251 22.1681 24.5469 22.1998 24.35C22.2291 24.2354 22.2342 24.116 22.2147 23.9994C22.1952 23.8828 22.1516 23.7715 22.0867 23.6727C22.0217 23.5738 21.9369 23.4896 21.8376 23.4255C21.7382 23.3613 21.6266 23.3186 21.5098 23.3Z" fill="#1E1E1E"/>
<path d="M13.8903 14.46C13.7003 14.46 13.0603 14.46 12.9703 15.46C12.8491 16.88 12.5328 18.2764 12.0303 19.61C11.7351 20.4009 11.3166 21.14 10.7903 21.8C10.2181 22.5421 9.41057 23.0675 8.5003 23.29C8.3855 23.3043 8.27487 23.3421 8.17535 23.401C8.07583 23.46 7.98958 23.5389 7.92198 23.6328C7.85438 23.7267 7.80691 23.8335 7.78253 23.9466C7.75815 24.0597 7.7574 24.1766 7.78032 24.29C7.80767 24.5012 7.91325 24.6944 8.0762 24.8314C8.23915 24.9684 8.4476 25.0393 8.66031 25.03H8.7503C8.84344 25.0387 8.93719 25.0387 9.03032 25.03C9.82301 24.8034 10.5627 24.4215 11.2065 23.9065C11.8503 23.3915 12.3853 22.7536 12.7803 22.03C13.8649 20.0925 14.5005 17.9361 14.6403 15.72C14.6903 14.64 14.1303 14.48 13.8903 14.46Z" fill="#1E1E1E"/>
</g>
<defs>
<clipPath id="clip0_298_3278">
<rect width="30" height="25" fill="white"/>
</clipPath>
</defs>
</svg>
