<svg width="16" height="16" viewBox="0 0 16 16" fill="none" xmlns="http://www.w3.org/2000/svg">
<path d="M14 16H7.25C6.71957 16 6.21086 15.7893 5.83579 15.4142C5.46071 15.0391 5.25 14.5304 5.25 14V7.25C5.25 6.71957 5.46071 6.21086 5.83579 5.83579C6.21086 5.46071 6.71957 5.25 7.25 5.25H14C14.5304 5.25 15.0391 5.46071 15.4142 5.83579C15.7893 6.21086 16 6.71957 16 7.25V14C16 14.5304 15.7893 15.0391 15.4142 15.4142C15.0391 15.7893 14.5304 16 14 16ZM7.25 6.25C6.98478 6.25 6.73043 6.35536 6.54289 6.54289C6.35536 6.73043 6.25 6.98478 6.25 7.25V14C6.25 14.2652 6.35536 14.5196 6.54289 14.7071C6.73043 14.8946 6.98478 15 7.25 15H14C14.2652 15 14.5196 14.8946 14.7071 14.7071C14.8946 14.5196 15 14.2652 15 14V7.25C15 6.98478 14.8946 6.73043 14.7071 6.54289C14.5196 6.35536 14.2652 6.25 14 6.25H7.25Z" fill="#8E8B81"/>
<path d="M2.75 10.75H2C1.46957 10.75 0.960859 10.5393 0.585786 10.1642C0.210714 9.78914 0 9.28043 0 8.75V2C0 1.46957 0.210714 0.960859 0.585786 0.585786C0.960859 0.210714 1.46957 0 2 0H8.75C9.28043 0 9.78914 0.210714 10.1642 0.585786C10.5393 0.960859 10.75 1.46957 10.75 2V2.75C10.75 2.88261 10.6973 3.00979 10.6036 3.10355C10.5098 3.19732 10.3826 3.25 10.25 3.25C10.1174 3.25 9.99021 3.19732 9.89645 3.10355C9.80268 3.00979 9.75 2.88261 9.75 2.75V2C9.75 1.73478 9.64464 1.48043 9.45711 1.29289C9.26957 1.10536 9.01522 1 8.75 1H2C1.73478 1 1.48043 1.10536 1.29289 1.29289C1.10536 1.48043 1 1.73478 1 2V8.75C1 9.01522 1.10536 9.26957 1.29289 9.45711C1.48043 9.64464 1.73478 9.75 2 9.75H2.75C2.88261 9.75 3.00979 9.80268 3.10355 9.89645C3.19732 9.99021 3.25 10.1174 3.25 10.25C3.25 10.3826 3.19732 10.5098 3.10355 10.6036C3.00979 10.6973 2.88261 10.75 2.75 10.75Z" fill="#8E8B81"/>
</svg>
