<svg width="30" height="30" viewBox="0 0 30 30" fill="none" xmlns="http://www.w3.org/2000/svg">
<g clip-path="url(#clip0_246_2044)">
<path d="M27 6C27.2652 6 27.5196 6.10536 27.7071 6.29289C27.8946 6.48043 28 6.73478 28 7V27C28 27.2652 27.8946 27.5196 27.7071 27.7071C27.5196 27.8946 27.2652 28 27 28H3C2.73478 28 2.48043 27.8946 2.29289 27.7071C2.10536 27.5196 2 27.2652 2 27V7C2 6.73478 2.10536 6.48043 2.29289 6.29289C2.48043 6.10536 2.73478 6 3 6H27ZM27 4H3C2.20435 4 1.44129 4.31607 0.878677 4.87868C0.316068 5.44129 0 6.20435 0 7V27C0 27.7956 0.316068 28.5587 0.878677 29.1213C1.44129 29.6839 2.20435 30 3 30H27C27.7956 30 28.5587 29.6839 29.1213 29.1213C29.6839 28.5587 30 27.7956 30 27V7C30 6.20435 29.6839 5.44129 29.1213 4.87868C28.5587 4.31607 27.7956 4 27 4Z" fill="#1E1E1E"/>
<path d="M6 0C5.73478 0 5.48043 0.105356 5.29289 0.292892C5.10536 0.480429 5 0.734784 5 1V7C5 7.26522 5.10536 7.51957 5.29289 7.70711C5.48043 7.89464 5.73478 8 6 8C6.26522 8 6.51957 7.89464 6.70711 7.70711C6.89464 7.51957 7 7.26522 7 7V1C7 0.734784 6.89464 0.480429 6.70711 0.292892C6.51957 0.105356 6.26522 0 6 0Z" fill="#1E1E1E"/>
<path d="M24 14H12C11.7348 14 11.4804 14.1054 11.2929 14.2929C11.1054 14.4804 11 14.7348 11 15C11 15.2652 11.1054 15.5196 11.2929 15.7071C11.4804 15.8946 11.7348 16 12 16H24C24.2652 16 24.5196 15.8946 24.7071 15.7071C24.8946 15.5196 25 15.2652 25 15C25 14.7348 24.8946 14.4804 24.7071 14.2929C24.5196 14.1054 24.2652 14 24 14Z" fill="#1E1E1E"/>
<path d="M18 21H6C5.73478 21 5.48043 21.1054 5.29289 21.2929C5.10536 21.4804 5 21.7348 5 22C5 22.2652 5.10536 22.5196 5.29289 22.7071C5.48043 22.8946 5.73478 23 6 23H18C18.2652 23 18.5196 22.8946 18.7071 22.7071C18.8946 22.5196 19 22.2652 19 22C19 21.7348 18.8946 21.4804 18.7071 21.2929C18.5196 21.1054 18.2652 21 18 21Z" fill="#1E1E1E"/>
<path d="M24 0C23.7348 0 23.4804 0.105356 23.2929 0.292892C23.1054 0.480429 23 0.734784 23 1V7C23 7.26522 23.1054 7.51957 23.2929 7.70711C23.4804 7.89464 23.7348 8 24 8C24.2652 8 24.5196 7.89464 24.7071 7.70711C24.8946 7.51957 25 7.26522 25 7V1C25 0.734784 24.8946 0.480429 24.7071 0.292892C24.5196 0.105356 24.2652 0 24 0Z" fill="#1E1E1E"/>
</g>
<defs>
<clipPath id="clip0_246_2044">
<rect width="30" height="30" fill="white"/>
</clipPath>
</defs>
</svg>
