<svg width="30" height="30" viewBox="0 0 30 30" fill="none" xmlns="http://www.w3.org/2000/svg">
<g clip-path="url(#clip0_246_2031)">
<path d="M15.0003 7.62C16.46 7.62 17.8868 8.05283 19.1005 8.86375C20.3141 9.67468 21.26 10.8273 21.8186 12.1758C22.3772 13.5243 22.5233 15.0082 22.2385 16.4398C21.9538 17.8713 21.2509 19.1863 20.2188 20.2184C19.1867 21.2506 17.8717 21.9534 16.4401 22.2382C15.0085 22.523 13.5247 22.3768 12.1762 21.8182C10.8276 21.2597 9.67503 20.3137 8.86411 19.1001C8.05318 17.8865 7.62033 16.4596 7.62033 15C7.62298 13.0435 8.40138 11.1679 9.78482 9.78447C11.1683 8.40103 13.0439 7.62265 15.0003 7.62ZM15.0003 5.62C13.1447 5.61802 11.3302 6.16647 9.78638 7.19595C8.24253 8.22544 7.03873 9.6897 6.32724 11.4035C5.61576 13.1173 5.42857 15.0036 5.78937 16.8238C6.15017 18.644 7.04274 20.3163 8.35416 21.6291C9.66558 22.9419 11.3369 23.8363 13.1567 24.199C14.9765 24.5618 16.8631 24.3766 18.5776 23.6669C20.2922 22.9573 21.7577 21.755 22.7888 20.2123C23.82 18.6695 24.3703 16.8556 24.3703 15C24.3703 12.514 23.3835 10.1297 21.6266 8.37087C19.8696 6.61207 17.4863 5.62265 15.0003 5.62Z" fill="#1E1E1E"/>
<path d="M16 1C16 0.447715 15.5523 0 15 0C14.4477 0 14 0.447715 14 1V6.5C14 7.05228 14.4477 7.5 15 7.5C15.5523 7.5 16 7.05228 16 6.5V1Z" fill="#1E1E1E"/>
<path d="M16 23.5C16 22.9477 15.5523 22.5 15 22.5C14.4477 22.5 14 22.9477 14 23.5V29C14 29.5523 14.4477 30 15 30C15.5523 30 16 29.5523 16 29V23.5Z" fill="#1E1E1E"/>
<path d="M29 16C29.5523 16 30 15.5523 30 15C30 14.4477 29.5523 14 29 14H23.5C22.9477 14 22.5 14.4477 22.5 15C22.5 15.5523 22.9477 16 23.5 16H29Z" fill="#1E1E1E"/>
<path d="M6.5 16C7.05228 16 7.5 15.5523 7.5 15C7.5 14.4477 7.05228 14 6.5 14H1C0.447715 14 0 14.4477 0 15C0 15.5523 0.447715 16 1 16H6.5Z" fill="#1E1E1E"/>
<path d="M5.80394 4.39836C5.41341 4.00784 4.78025 4.00784 4.38972 4.39836C3.9992 4.78889 3.9992 5.42205 4.38972 5.81258L8.27881 9.70166C8.66934 10.0922 9.3025 10.0922 9.69302 9.70166C10.0835 9.31114 10.0835 8.67797 9.69302 8.28745L5.80394 4.39836Z" fill="#1E1E1E"/>
<path d="M21.7141 20.3084C21.3236 19.9179 20.6904 19.9179 20.2999 20.3084C19.9094 20.6989 19.9094 21.3321 20.2999 21.7226L24.189 25.6117C24.5795 26.0022 25.2127 26.0022 25.6032 25.6117C25.9937 25.2212 25.9937 24.588 25.6032 24.1975L21.7141 20.3084Z" fill="#1E1E1E"/>
<path d="M25.6016 5.80394C25.9922 5.41341 25.9922 4.78025 25.6016 4.38972C25.2111 3.9992 24.5779 3.9992 24.1874 4.38972L20.2983 8.27881C19.9078 8.66934 19.9078 9.3025 20.2983 9.69302C20.6889 10.0835 21.322 10.0835 21.7126 9.69302L25.6016 5.80394Z" fill="#1E1E1E"/>
<path d="M9.69148 21.7139C10.082 21.3234 10.082 20.6902 9.69148 20.2997C9.30096 19.9092 8.66779 19.9092 8.27727 20.2997L4.38818 24.1888C3.99766 24.5793 3.99766 25.2125 4.38818 25.603C4.77871 25.9935 5.41187 25.9935 5.80239 25.603L9.69148 21.7139Z" fill="#1E1E1E"/>
</g>
<defs>
<clipPath id="clip0_246_2031">
<rect width="30" height="30" fill="white"/>
</clipPath>
</defs>
</svg>
