<svg width="23" height="30" viewBox="0 0 23 30" fill="none" xmlns="http://www.w3.org/2000/svg">
<g clip-path="url(#clip0_246_2041)">
<path d="M11.2504 2C13.7268 2.02639 16.0914 3.03412 17.8256 4.80203C19.5598 6.56995 20.5218 8.95363 20.5004 11.43C20.5004 17.58 14.0704 24.52 11.2504 27.26C8.42044 24.51 2.00044 17.58 2.00044 11.43C1.97911 8.95363 2.94108 6.56995 4.67525 4.80203C6.40942 3.03412 8.77412 2.02639 11.2504 2ZM11.2504 0C9.76086 0.0104597 8.28796 0.314556 6.91603 0.894886C5.5441 1.47522 4.30007 2.32039 3.25514 3.38204C2.21022 4.44369 1.38488 5.70097 0.826402 7.08193C0.26792 8.4629 -0.0127405 9.94044 0.000443848 11.43C0.000443848 20.31 11.2504 30 11.2504 30C11.2504 30 22.5004 20.31 22.5004 11.43C22.5123 9.9408 22.2307 8.46384 21.6718 7.08347C21.1128 5.70309 20.2874 4.44633 19.2428 3.38494C18.1981 2.32356 16.9546 1.47834 15.5833 0.897552C14.2119 0.316761 12.7396 0.0117722 11.2504 0Z" fill="#1E1E1E"/>
<path d="M11.25 8.25C11.8434 8.25 12.4233 8.42595 12.9167 8.75559C13.41 9.08524 13.7946 9.55377 14.0216 10.102C14.2487 10.6501 14.3081 11.2533 14.1924 11.8353C14.0766 12.4172 13.7909 12.9518 13.3713 13.3713C12.9518 13.7909 12.4172 14.0766 11.8353 14.1924C11.2533 14.3081 10.6501 14.2487 10.1019 14.0216C9.55376 13.7946 9.08524 13.4101 8.75559 12.9167C8.42595 12.4234 8.25001 11.8433 8.25001 11.25C8.25001 10.4544 8.56606 9.69129 9.12867 9.12868C9.69128 8.56607 10.4544 8.25 11.25 8.25ZM11.25 6.25C10.2611 6.25 9.29439 6.54325 8.47215 7.09266C7.6499 7.64206 7.00903 8.42296 6.63059 9.33659C6.25216 10.2502 6.15315 11.2555 6.34608 12.2255C6.53901 13.1954 7.01519 14.0863 7.71446 14.7855C8.41372 15.4848 9.30464 15.961 10.2745 16.1539C11.2445 16.3469 12.2498 16.2478 13.1634 15.8694C14.077 15.491 14.858 14.8501 15.4074 14.0279C15.9568 13.2056 16.25 12.2389 16.25 11.25C16.25 9.92392 15.7232 8.65215 14.7855 7.71447C13.8478 6.77678 12.5761 6.25 11.25 6.25Z" fill="#1E1E1E"/>
</g>
<defs>
<clipPath id="clip0_246_2041">
<rect width="22.5" height="30" fill="white"/>
</clipPath>
</defs>
</svg>
