<svg width="30" height="30" viewBox="0 0 30 30" fill="none" xmlns="http://www.w3.org/2000/svg">
<g clip-path="url(#clip0_246_2024)">
<path d="M15 2C17.5712 2 20.0846 2.76244 22.2224 4.1909C24.3603 5.61935 26.0265 7.64968 27.0105 10.0251C27.9944 12.4006 28.2518 15.0144 27.7502 17.5362C27.2486 20.0579 26.0105 22.3743 24.1924 24.1924C22.3743 26.0105 20.0579 27.2486 17.5362 27.7502C15.0144 28.2518 12.4006 27.9944 10.0251 27.0104C7.64969 26.0265 5.61936 24.3603 4.1909 22.2224C2.76244 20.0846 2.00001 17.5712 2.00001 15C2.00001 11.5522 3.36966 8.24558 5.80763 5.80761C8.2456 3.36964 11.5522 2 15 2ZM15 0C12.0333 0 9.13319 0.879733 6.66646 2.52795C4.19972 4.17618 2.27714 6.51886 1.14183 9.25975C0.00651479 12.0006 -0.290556 15.0166 0.288222 17.9264C0.867 20.8361 2.29563 23.5088 4.39342 25.6066C6.4912 27.7044 9.16394 29.133 12.0737 29.7118C14.9834 30.2906 17.9994 29.9935 20.7403 28.8582C23.4812 27.7229 25.8238 25.8003 27.4721 23.3336C29.1203 20.8668 30 17.9667 30 15C30 11.0218 28.4197 7.20644 25.6066 4.39339C22.7936 1.58035 18.9783 0 15 0Z" fill="#1E1E1E"/>
<path d="M15 5C14.7348 5 14.4804 5.10536 14.2929 5.29289C14.1054 5.48043 14 5.73478 14 6V15C14 15.2652 14.1054 15.5196 14.2929 15.7071C14.4804 15.8946 14.7348 16 15 16H21C21.2652 16 21.5196 15.8946 21.7071 15.7071C21.8946 15.5196 22 15.2652 22 15C22 14.7348 21.8946 14.4804 21.7071 14.2929C21.5196 14.1054 21.2652 14 21 14H16V6C16 5.73478 15.8946 5.48043 15.7071 5.29289C15.5196 5.10536 15.2652 5 15 5Z" fill="#1E1E1E"/>
</g>
<defs>
<clipPath id="clip0_246_2024">
<rect width="30" height="30" fill="white"/>
</clipPath>
</defs>
</svg>
