<svg width="22" height="30" viewBox="0 0 22 30" fill="none" xmlns="http://www.w3.org/2000/svg">
<g clip-path="url(#clip0_298_3304)">
<path d="M2.94979 10.47H1.14979C1.01024 10.4795 0.870222 10.461 0.737926 10.4156C0.605631 10.3702 0.483739 10.2988 0.379406 10.2056C0.275073 10.1125 0.190403 9.99943 0.130367 9.8731C0.0703317 9.74677 0.0361362 9.60972 0.0297966 9.47C0.0201764 9.33291 0.0389211 9.19531 0.0848503 9.06579C0.13078 8.93626 0.202899 8.8176 0.296734 8.71719C0.390569 8.61679 0.504105 8.5368 0.63023 8.48223C0.756355 8.42766 0.892371 8.39966 1.0298 8.4C1.5598 8.4 2.08979 8.4 2.61979 8.4H2.94979C3.06979 7.7 3.1898 7.03 3.2998 6.4C3.38091 5.79934 3.68092 5.24977 4.14228 4.85669C4.60365 4.46361 5.19389 4.25469 5.7998 4.27H9.94979V2.63C9.9285 2.27783 9.98319 1.92521 10.1102 1.59605C10.2372 1.26688 10.4335 0.968886 10.6858 0.722274C10.9381 0.475663 11.2405 0.286209 11.5724 0.166763C11.9044 0.047316 12.2582 0.000670921 12.6098 0.0299981C13.2298 0.0299981 13.8598 0.0299981 14.4798 0.0299981C14.6216 0.0114004 14.7658 0.0234343 14.9025 0.0652916C15.0393 0.107149 15.1654 0.177855 15.2725 0.272636C15.3797 0.367417 15.4652 0.484071 15.5234 0.614722C15.5815 0.745374 15.611 0.886984 15.6098 1.03C15.6102 1.17619 15.5804 1.3209 15.5222 1.45501C15.464 1.58912 15.3787 1.70974 15.2716 1.80929C15.1645 1.90885 15.038 1.98518 14.9001 2.03348C14.7621 2.08179 14.6156 2.10103 14.4698 2.09H12.5398C12.1698 2.09 12.0698 2.2 12.0698 2.56C12.0698 3.09 12.0698 3.56 12.0698 4.19H16.0698C16.704 4.14506 17.3308 4.34839 17.8178 4.75704C18.3048 5.16569 18.6139 5.74766 18.6798 6.38C18.7798 7.04 18.8998 7.69 19.0198 8.38C19.6798 8.38 20.3198 8.38 20.9598 8.38C21.1098 8.37696 21.2585 8.4077 21.395 8.46995C21.5315 8.5322 21.6522 8.62436 21.7483 8.73961C21.8443 8.85485 21.9132 8.99022 21.9498 9.1357C21.9864 9.28117 21.9898 9.43303 21.9598 9.58C21.9138 9.83678 21.7757 10.0679 21.5713 10.23C21.3668 10.392 21.1103 10.4738 20.8498 10.46H19.0598C18.9798 11.56 18.9098 12.62 18.8298 13.68C18.6398 16.31 18.4398 18.94 18.2498 21.57C18.1098 23.57 17.9498 25.49 17.8298 27.44C17.8394 27.7882 17.7755 28.1346 17.6423 28.4564C17.5091 28.7783 17.3096 29.0685 17.0567 29.3082C16.8039 29.5478 16.5034 29.7315 16.1748 29.8472C15.8463 29.963 15.497 30.0082 15.1498 29.98C12.3598 29.98 9.57979 29.98 6.78979 29.98C6.44634 30.0063 6.10116 29.961 5.77609 29.8471C5.45102 29.7332 5.15312 29.553 4.90124 29.318C4.64936 29.0831 4.44897 28.7984 4.31274 28.482C4.17651 28.1657 4.10741 27.8244 4.1098 27.48C3.9398 24.84 3.72979 22.22 3.53979 19.58C3.36646 17.3067 3.20313 15.0367 3.0498 12.77C3.0198 12.03 2.94979 11.28 2.94979 10.47ZM11.0398 10.47H5.5498C5.1498 10.47 5.0598 10.56 5.0798 10.96C5.0798 11.05 5.0798 11.13 5.0798 11.22L5.58979 18.07C5.81979 21.2 6.0398 24.33 6.2698 27.46C6.26453 27.5204 6.27307 27.5813 6.29478 27.6379C6.31649 27.6946 6.3508 27.7455 6.39512 27.787C6.43944 27.8284 6.49261 27.8592 6.55059 27.8771C6.60857 27.8949 6.66985 27.8993 6.72979 27.89H15.2498C15.5498 27.89 15.6998 27.77 15.7198 27.47C15.8298 25.88 15.9398 24.3 16.0598 22.71C16.1998 20.71 16.3498 18.71 16.4898 16.78L16.9498 11.03C16.9498 10.57 16.8998 10.5 16.4298 10.5L11.0398 10.47ZM16.8598 8.32C16.7798 7.79 16.6998 7.32 16.6198 6.81C16.5398 6.3 16.4798 6.27 15.9698 6.27H6.08979C5.99374 6.25466 5.89586 6.25466 5.7998 6.27C5.6898 6.27 5.5398 6.41 5.5198 6.5C5.3898 7.1 5.2998 7.69 5.1898 8.31L16.8598 8.32Z" fill="#1E1E1E"/>
</g>
<defs>
<clipPath id="clip0_298_3304">
<rect width="22" height="30" fill="white"/>
</clipPath>
</defs>
</svg>
