<svg width="15" height="8" viewBox="0 0 15 8" fill="none" xmlns="http://www.w3.org/2000/svg">
<g clip-path="url(#clip0_390_998)">
<path d="M8.10977 7.76C7.94357 7.9132 7.72583 7.99826 7.49979 7.99826C7.27375 7.99826 7.056 7.9132 6.8898 7.76L0.269775 1.51C0.184173 1.42787 0.116079 1.32928 0.0695496 1.22016C0.0230202 1.11103 -0.000976562 0.993633 -0.000976562 0.875004C-0.000976562 0.756374 0.0230202 0.638966 0.0695496 0.529842C0.116079 0.420719 0.184173 0.322131 0.269775 0.240002C0.437617 0.0861051 0.657079 0.000728607 0.884796 0.000728607C1.11251 0.000728607 1.33194 0.0861051 1.49979 0.240002L7.49979 5.91L13.4998 0.240002C13.6676 0.0861051 13.8871 0.000728607 14.1148 0.000728607C14.3425 0.000728607 14.562 0.0861051 14.7298 0.240002C14.8154 0.322131 14.8835 0.420719 14.93 0.529842C14.9766 0.638966 15.0005 0.756374 15.0005 0.875004C15.0005 0.993633 14.9766 1.11103 14.93 1.22016C14.8835 1.32928 14.8154 1.42787 14.7298 1.51L8.10977 7.76Z" fill="#1E1E1E"/>
</g>
<defs>
<clipPath id="clip0_390_998">
<rect width="15" height="8" fill="white"/>
</clipPath>
</defs>
</svg>
