<svg width="64" height="64" viewBox="0 0 64 64" fill="none" xmlns="http://www.w3.org/2000/svg">
<g clip-path="url(#clip0_603_99)">
<path d="M4.08151 10.8795C3.11492 12.0577 2.19771 13.169 1.25933 14.2802C0.923858 14.6275 0.705403 15.0709 0.634553 15.5485C0.563703 16.0261 0.644008 16.5139 0.86423 16.9436C1.22208 17.7098 1.65832 18.4369 2.16596 19.1132C4.9934 22.7823 8.5151 25.8593 12.5304 28.1689C13.7792 28.8956 15.0739 29.6505 16.5873 29.9151C17.0211 30.0135 17.4741 29.9854 17.8924 29.834C18.3108 29.6827 18.6769 29.4145 18.9474 29.0614C19.7693 28.0489 20.623 27.0294 21.445 26.0416L21.9812 25.4031C22.0976 25.262 22.207 25.1033 22.3128 24.9516C22.5139 24.6588 22.7432 24.3272 22.9337 24.2813C23.2333 24.29 23.5254 24.3776 23.7803 24.5353C23.9848 24.6361 24.1958 24.7234 24.4118 24.7964C24.6411 24.8634 24.6975 24.9234 24.694 25.2162C24.694 26.0558 24.694 26.8989 24.694 27.742C24.694 28.4475 24.694 29.1531 24.694 29.8586C24.6873 30.1247 24.6335 30.3874 24.5353 30.6347C24.3624 31.0933 24.1825 31.5519 23.9955 32.007C23.7662 32.5715 23.5334 33.1571 23.3217 33.7391C23.1948 34.0702 23.1481 34.4266 23.1855 34.7792C23.2229 35.1318 23.3433 35.4705 23.5369 35.7676C23.7406 36.0691 24.0125 36.3183 24.3307 36.4949C24.6488 36.6714 25.0042 36.7703 25.3678 36.7836C25.4983 36.7836 25.6253 36.7836 25.7559 36.7836H26.2533C27.2481 36.7836 28.0595 36.392 28.4828 35.7252C28.6807 35.3768 28.7848 34.983 28.7848 34.5823C28.7848 34.1815 28.6807 33.7877 28.4828 33.4393C27.4478 31.328 27.0157 28.9719 27.234 26.6308C27.2427 26.4898 27.2427 26.3484 27.234 26.2074C27.234 26.1157 27.234 26.024 27.234 25.9358V25.9146L28.0171 26.2215C29.1107 26.6519 30.1338 27.0576 31.2133 27.4351C31.6607 27.5816 32.147 27.5539 32.575 27.3575C32.7016 27.2978 32.8139 27.2114 32.904 27.1042C32.9941 26.9971 33.06 26.8716 33.0971 26.7366C33.1406 26.5034 33.1348 26.2636 33.0802 26.0327C33.0255 25.8019 32.9231 25.585 32.7796 25.396L31.4038 23.2371C28.2958 18.3653 25.0821 13.3277 21.9036 8.38183C21.636 7.986 21.2565 7.67894 20.8135 7.4999C15.4584 5.40443 10.0046 3.29134 4.73061 1.24878L2.07072 0.218671C1.11118 -0.15174 0.72312 -0.0458981 0.0916573 0.758423L0.0175781 0.853679V1.69328L5.12572 9.6483L4.08151 10.8795ZM27.2551 21.5014L28.6662 23.7239C28.1829 23.5369 27.7032 23.35 27.2234 23.156C27.2234 22.6268 27.2234 22.0553 27.2551 21.5014ZM25.8441 34.1695L25.9322 33.9473L26.024 34.1695H25.8441ZM19.406 9.70826C19.6545 9.80917 19.868 9.98092 20.0198 10.2022C21.5402 12.5375 23.043 14.9046 24.44 17.1165C24.5559 17.2791 24.6288 17.4684 24.6517 17.6668C24.6693 18.9297 24.6517 20.2174 24.6517 21.4591V22.1647C24.1049 22.0024 23.8015 21.8366 23.678 21.2722C23.4766 20.5908 23.1354 19.9588 22.6762 19.4166C19.2876 15.0223 14.9656 11.4353 10.0222 8.91452C9.44676 8.65221 8.83958 8.46603 8.21601 8.36067C7.93379 8.3007 7.64452 8.2372 7.37289 8.16312H7.33055C7.26908 8.14792 7.20893 8.12787 7.15064 8.10315C6.28987 6.78025 5.43969 5.45029 4.54012 4.0392L4.44135 3.88398C5.05517 4.11681 5.61961 4.32848 6.18052 4.5472L7.76799 5.16455C11.5885 6.63561 15.5325 8.16665 19.406 9.70826ZM15.7336 24.3448C15.5952 24.4392 15.4779 24.5612 15.389 24.7031C15.3001 24.8451 15.2416 25.0039 15.217 25.1696C15.1925 25.3353 15.2026 25.5042 15.2465 25.6659C15.2905 25.8275 15.3675 25.9782 15.4725 26.1087C15.6877 26.4403 15.9065 26.7684 16.1358 27.1141C12.6715 25.9146 5.48555 19.9422 3.56294 16.6297C3.78166 16.6896 3.9898 16.7496 4.18735 16.8237C6.1523 17.5504 7.78563 18.8027 8.99211 19.8152C9.72235 20.429 10.4491 21.0781 11.1511 21.7061C11.4298 21.9601 11.712 22.214 11.9977 22.4645C12.9502 23.3112 13.6205 22.8702 13.938 22.5315C14.0533 22.4153 14.144 22.2769 14.2047 22.1248C14.2653 21.9726 14.2946 21.8098 14.2908 21.6461C14.2698 21.44 14.2078 21.2402 14.1085 21.0584C14.0091 20.8767 13.8744 20.7167 13.7122 20.5878C11.3663 18.45 8.8122 16.2381 5.70427 14.7882C5.3515 14.633 5.02694 14.4954 4.66359 14.3507L4.54718 14.3049L4.63184 14.1955C4.90347 13.8674 5.17864 13.5394 5.4538 13.2148C6.06057 12.5093 6.68498 11.7508 7.27058 10.9924C7.52458 10.6678 7.69038 10.6713 7.94438 10.8018C8.27951 10.9712 8.6217 11.137 8.96036 11.3028C9.83705 11.7069 10.6877 12.1652 11.5074 12.6751C14.845 14.7833 17.8147 17.4241 20.2985 20.4925C20.8841 21.2263 21.2368 21.6708 21.2333 21.9742C21.2298 22.2776 20.8982 22.6797 20.2914 23.41C19.6846 24.1402 19.1096 24.8775 18.4887 25.583L18.3512 25.7453L18.263 25.6183C18.0125 25.2655 17.7761 24.9128 17.5186 24.5917C17.4239 24.4508 17.3008 24.3311 17.1571 24.2405C17.0135 24.1498 16.8526 24.0901 16.6845 24.0652C16.5165 24.0403 16.3452 24.0507 16.1814 24.0958C16.0177 24.141 15.8652 24.2197 15.7336 24.3272V24.3448Z" fill="#023ED4"/>
<path d="M52.2353 38.2018C52.1294 37.849 51.7555 37.6091 51.4274 37.4151L51.2651 37.3199C51.0982 37.2292 50.9053 37.1981 50.7183 37.2317H50.5984L46.0688 37.14C40.5373 37.0341 35.0047 36.9224 29.4708 36.8048C28.8842 36.7852 28.3078 36.9628 27.834 37.3093C25.3575 39.0637 22.8752 40.81 20.387 42.548L16.764 45.0914C14.6074 46.6037 12.4507 48.1147 10.2941 49.6246C10.0375 49.7659 9.83777 49.9919 9.72906 50.264C9.62035 50.5361 9.60935 50.8375 9.69795 51.1168C9.77863 51.3996 9.95498 51.6457 10.1969 51.813C10.4388 51.9802 10.7313 52.0584 11.0244 52.034C11.3419 52.034 11.6347 52.034 11.9416 52.0587C12.2485 52.0834 12.4813 52.0799 12.7494 52.0799C13.395 52.0799 14.0406 52.0799 14.7038 52.0799H15.2294C15.2294 52.2386 15.2294 52.3974 15.2294 52.5491C15.2033 53.0888 15.2127 53.6298 15.2576 54.1683C15.4795 56.3197 15.0597 58.4886 14.0512 60.4018C13.6455 61.2096 13.5467 61.8834 13.7548 62.462C13.963 63.0405 14.5098 63.5485 15.4376 63.9612L15.5046 63.9895H17.653L17.7376 63.9401C19.3674 62.9488 19.6673 62.0351 18.9124 60.3312C18.0365 58.4118 17.6487 56.3056 17.7835 54.2C17.8117 53.7838 17.8011 53.3675 17.7835 52.9618C17.7835 52.7501 17.7835 52.5349 17.7835 52.3233C17.7835 52.2951 17.7835 52.2668 17.7835 52.2351H18.3373C19.0429 52.2351 19.7484 52.2351 20.4258 52.2351C20.6233 52.2351 20.648 52.2351 20.715 52.4679C21.1489 53.9355 21.604 55.4206 22.045 56.8564L22.493 58.3134C22.9057 59.6539 23.1068 59.8162 24.465 59.8973C32.2048 60.3594 39.1827 58.1864 45.2045 53.4486C45.5132 53.246 45.7416 52.9421 45.8504 52.5893C45.9592 52.2365 45.9417 51.8567 45.8007 51.5154C45.4938 50.5629 45.2045 49.6034 44.9117 48.6474C44.6189 47.6914 44.2979 46.6295 43.9733 45.6241C43.8499 45.2361 43.8851 45.1232 44.2026 44.9186C45.7019 43.8991 47.2118 42.8372 48.6687 41.8071L50.2315 40.71C50.3797 40.6042 50.5278 40.5054 50.6795 40.4066C51.0842 40.1556 51.4656 39.8687 51.819 39.5494C51.9901 39.3738 52.1171 39.16 52.1894 38.9257C52.2618 38.6915 52.2775 38.4433 52.2353 38.2018ZM16.577 61.4036H16.3583L16.4747 61.1214L16.577 61.4036ZM39.0698 45.4054C38.9357 45.4971 38.7946 45.5959 38.657 45.7053C38.3979 45.9046 38.2271 46.1974 38.1809 46.521C38.1348 46.8447 38.217 47.1736 38.4101 47.4374C38.4999 47.5739 38.6162 47.6911 38.7522 47.7818C38.8881 47.8726 39.0409 47.9351 39.2014 47.9657C39.362 47.9963 39.5271 47.9944 39.6869 47.96C39.8466 47.9256 39.9979 47.8594 40.1316 47.7655C40.5691 47.4832 40.9889 47.1869 41.4334 46.8729L41.6344 46.7318L41.9449 47.7372C42.273 48.7955 42.594 49.8539 42.915 50.9122C43.0318 51.1831 43.0942 51.4744 43.0985 51.7694C43.0561 51.8964 42.7951 52.0799 42.4317 52.3374C37.3948 55.983 31.245 57.7593 25.04 57.3609C24.9726 57.3534 24.9069 57.3343 24.846 57.3044C24.3874 55.8651 23.957 54.447 23.5019 52.9442L23.3079 52.3056H23.6325L25.9255 52.355C28.1303 52.4044 30.4127 52.4573 32.6564 52.4856C33.1229 52.4706 33.577 52.3318 33.9722 52.0834C34.5543 51.7306 35.1081 51.3285 35.6408 50.9404L35.976 50.697C36.9673 49.9915 36.6815 49.233 36.4169 48.852C35.9654 48.1958 35.2422 48.1147 34.4767 48.6368C34.4417 48.657 34.4096 48.6819 34.3814 48.7109C33.2702 49.808 31.9438 49.9915 30.2928 49.928C26.5287 49.7868 22.7011 49.7198 19.0041 49.6528L14.9084 49.5752L15.1024 49.4164C15.6845 48.9472 16.2313 48.4992 16.9721 48.3581C20.3728 47.7749 23.7724 47.1869 27.1708 46.5943L30.9631 45.9346C32.2648 45.7053 32.2789 44.8233 32.2225 44.4529C32.2055 44.2885 32.1548 44.1294 32.0735 43.9855C31.9921 43.8416 31.8819 43.7161 31.7498 43.6169C31.5663 43.5016 31.3613 43.4246 31.1473 43.3907C30.9333 43.3567 30.7146 43.3665 30.5045 43.4193L21.2936 45.0244C23.8806 43.2018 26.4805 41.3803 29.0934 39.56C29.2449 39.452 29.4229 39.3873 29.6084 39.373C35.0341 39.4718 40.4621 39.58 45.8924 39.6976L47.1448 39.7222L39.218 45.2961L39.0698 45.4054Z" fill="#023ED4"/>
<path d="M41.2569 61.5659C41.1199 61.5892 40.9893 61.6408 40.8733 61.7173C40.7573 61.7938 40.6585 61.8936 40.5831 62.0104C40.4983 62.1502 40.443 62.3059 40.4205 62.4679C40.3981 62.6298 40.409 62.7947 40.4526 62.9523C40.5293 63.2017 40.6552 63.4333 40.823 63.6332C40.8759 63.7072 40.9324 63.7813 40.9782 63.8554L41.0805 64.0177H42.1671L42.2729 63.9048C42.3054 63.8713 42.3395 63.8395 42.3752 63.8095C42.4622 63.7515 42.5366 63.6767 42.5941 63.5894C42.6517 63.5022 42.6912 63.4043 42.7103 63.3015V63.1851C42.7943 62.7718 42.7424 62.3424 42.5622 61.961C42.3294 61.5659 41.652 61.4707 41.2569 61.5659Z" fill="#023ED4"/>
<path d="M1.67567 24.934C1.02657 24.7012 0.476248 24.934 0.0493933 25.6395L0 25.7242V26.5391L0.0493933 26.6238C0.42686 27.2341 0.821963 27.4175 1.16062 27.4175C1.30011 27.4163 1.43798 27.3876 1.56631 27.3329C1.767 27.2349 1.94598 27.0976 2.09263 26.9291C2.23927 26.7606 2.3506 26.5644 2.42003 26.3522C2.46727 26.2103 2.48538 26.0603 2.47328 25.9113C2.46119 25.7622 2.41913 25.6171 2.34963 25.4847C2.28013 25.3523 2.18461 25.2352 2.0688 25.1406C1.953 25.046 1.81928 24.9757 1.67567 24.934Z" fill="#023ED4"/>
<path d="M62.9238 33.6968C62.9238 33.4428 62.9238 33.1888 62.8991 32.9348V32.6914C62.9011 32.2956 62.8056 31.9055 62.621 31.5554C62.4365 31.2053 62.1685 30.9061 61.8408 30.6841C61.4931 30.4887 61.1027 30.382 60.704 30.3734C60.3053 30.3648 59.9106 30.4545 59.5548 30.6347L58.2672 31.2274C57.7416 31.4708 57.2089 31.7142 56.6868 31.9329C56.5255 32.0171 56.3466 32.0619 56.1647 32.0635C55.5266 32.0092 54.8934 31.9078 54.2703 31.7601C52.2771 31.2239 51.0953 30.0774 50.7002 28.25C50.6598 28.1554 50.6583 28.0487 50.6959 27.953C50.7336 27.8573 50.8073 27.7802 50.9013 27.7385C52.9897 26.2639 54.9088 24.8775 56.7679 23.5052C57.1365 23.2398 57.4187 22.8717 57.5793 22.4469C58.9245 18.3618 60.2592 14.2743 61.5833 10.1845L63.8904 3.09378C64.0101 2.81966 64.0352 2.51349 63.9618 2.22352C63.8883 1.93355 63.7205 1.67627 63.4847 1.4922C62.7509 0.906598 62.0524 1.4181 61.8231 1.58743C61.1176 2.11659 60.3697 2.64576 59.643 3.16434L54.5984 6.79083L53.3037 5.8454C52.136 4.99169 50.9295 4.1133 49.776 3.21373C48.767 2.42352 47.7299 2.35295 46.6963 2.99853C45.825 3.51563 45.0134 4.12729 44.2762 4.82237C41.1229 8.01071 38.4139 11.6096 36.2224 15.522C35.6702 16.5629 35.2462 17.6669 34.9595 18.8098C34.7862 19.3563 34.8015 19.9452 35.003 20.4819C35.2046 21.0187 35.5806 21.4722 36.0707 21.7696C36.8927 22.3446 37.7147 22.9549 38.5084 23.5334C39.2139 24.0661 39.9654 24.6164 40.7062 25.1421C40.999 25.3502 41.0272 25.4419 40.9037 25.8017C40.3534 27.4527 39.8066 29.1354 39.281 30.7617C38.9635 31.7495 38.6436 32.7361 38.3214 33.7215C38.205 34.0743 37.9334 34.8998 38.7095 35.4466C39.4856 35.9934 40.177 35.4748 40.4733 35.2525C40.8261 34.9809 41.2071 34.7128 41.5705 34.4553L42.0679 34.1025L48.4178 29.5376C49.4197 32.3598 51.5645 34.0143 54.8065 34.4482C56.307 34.6854 57.7821 35.0622 59.2126 35.5736C59.3079 35.6018 59.3996 35.6371 59.4948 35.6688C59.6959 35.7394 59.9005 35.8134 60.1157 35.8664C60.309 35.9181 60.5083 35.9442 60.7084 35.944C61.2051 35.947 61.6884 35.783 62.0807 35.4783C62.3458 35.2636 62.5592 34.9919 62.7051 34.6836C62.8511 34.3752 62.9258 34.038 62.9238 33.6968ZM60.3309 33.083V33.2805L60.0769 33.1959L60.3309 33.083ZM37.7217 18.8521C38.5578 15.4902 44.3115 7.69393 47.4512 5.68665C46.5657 8.93569 41.0942 16.6755 37.7217 18.8521ZM53.5965 9.57774L53.4095 10.0716C53.1092 10.9373 52.7497 11.7812 52.3336 12.5975C50.3465 16.3993 47.6968 19.816 44.5091 22.6868C43.8212 23.2935 43.4507 23.611 43.1791 23.6216C42.9075 23.6322 42.5124 23.3429 41.7857 22.8067L39.288 20.9582C43.9093 17.0422 47.5545 12.1034 49.9347 6.53331L50.4815 6.93548C51.5081 7.69041 52.5664 8.47356 53.5718 9.24613C53.616 9.35076 53.6283 9.46615 53.6071 9.57774H53.5965ZM42.0926 30.3243L42.3219 29.6187C42.6499 28.6063 42.9886 27.555 43.3343 26.5285C43.378 26.4025 43.4578 26.2921 43.5636 26.211C43.86 26.0205 44.1845 25.8582 44.4985 25.6712C45.1286 25.3569 45.7205 24.971 46.2623 24.5212C50.2267 20.9796 53.3918 16.6348 55.5473 11.7755C55.7826 11.1707 55.9426 10.5392 56.0236 9.89525C56.0765 9.59186 56.1294 9.27788 56.1964 8.98156C56.2113 8.89253 56.2463 8.80806 56.2987 8.73461C57.5264 7.83504 58.7681 6.94252 60.084 5.99356L60.3062 5.83483L59.4737 8.39947C58.1367 12.5304 56.7503 16.799 55.3674 20.997C55.2452 21.3229 55.0322 21.6069 54.7536 21.8154C51.1835 24.4083 47.5429 27.0294 44.0222 29.5764L41.8421 31.1427L42.0926 30.3243Z" fill="#023ED4"/>
<path d="M22.352 2.54346H22.4296C22.5925 2.53502 22.7521 2.49401 22.8988 2.42284C23.0456 2.35168 23.1767 2.2518 23.2842 2.12913C23.3918 2.00646 23.4736 1.86349 23.525 1.70864C23.5763 1.5538 23.5961 1.39025 23.5831 1.22763C23.5822 1.06414 23.5488 0.902464 23.4847 0.752041C23.4207 0.601618 23.3273 0.465464 23.2101 0.351512C23.0929 0.23756 22.9541 0.148081 22.8019 0.0883321C22.6497 0.0285827 22.4872 -0.000252245 22.3237 0.00349783C22.1601 0.00562639 21.9985 0.0408524 21.8488 0.107043C21.6991 0.173233 21.5643 0.269021 21.4526 0.388654C21.3409 0.508286 21.2545 0.649277 21.1987 0.803157C21.1429 0.957037 21.1188 1.12063 21.1278 1.28406C21.1251 1.45952 21.1584 1.63367 21.2258 1.7957C21.2932 1.95772 21.3931 2.10417 21.5194 2.22596C21.7461 2.43446 22.044 2.5481 22.352 2.54346Z" fill="#023ED4"/>
<path d="M30.3987 13.5359H30.4234C30.5867 13.5332 30.7479 13.4979 30.8974 13.4322C31.047 13.3664 31.1819 13.2714 31.2943 13.1528C31.4066 13.0342 31.4942 12.8943 31.5518 12.7414C31.6094 12.5886 31.636 12.4257 31.6298 12.2624C31.6395 12.0987 31.6154 11.9346 31.559 11.7806C31.5026 11.6265 31.4151 11.4857 31.3019 11.3669C31.1887 11.2481 31.0524 11.1539 30.9012 11.0901C30.7501 11.0263 30.5874 10.9942 30.4234 10.996C30.26 10.9907 30.0973 11.0186 29.9451 11.078C29.7928 11.1373 29.6541 11.2269 29.5374 11.3413C29.4207 11.4557 29.3284 11.5925 29.2661 11.7435C29.2037 11.8946 29.1726 12.0567 29.1745 12.2201C29.1656 12.3966 29.1922 12.5732 29.2528 12.7392C29.3134 12.9052 29.4068 13.0574 29.5273 13.1867C29.6418 13.3002 29.778 13.3896 29.9276 13.4495C30.0773 13.5095 30.2375 13.5389 30.3987 13.5359Z" fill="#023ED4"/>
<path d="M16.5379 34.2402C16.3741 34.2366 16.2113 34.2668 16.0596 34.3289C15.908 34.391 15.7708 34.4837 15.6566 34.6012C15.5424 34.7188 15.4537 34.8585 15.3959 35.0119C15.3381 35.1652 15.3126 35.3289 15.3209 35.4925C15.3175 35.6693 15.3501 35.8449 15.4168 36.0087C15.4835 36.1725 15.5829 36.3209 15.7089 36.445C15.9338 36.6601 16.2338 36.7791 16.545 36.7766H16.6085C16.7716 36.7699 16.9318 36.7306 17.0795 36.6609C17.2272 36.5912 17.3594 36.4925 17.4683 36.3708C17.5772 36.2491 17.6605 36.1068 17.7134 35.9523C17.7663 35.7978 17.7876 35.6343 17.7762 35.4714C17.7821 35.3088 17.7545 35.1469 17.6951 34.9955C17.6357 34.8441 17.5458 34.7065 17.431 34.5914C17.3162 34.4763 17.1789 34.386 17.0277 34.3262C16.8765 34.2663 16.7146 34.2383 16.552 34.2437L16.5379 34.2402Z" fill="#023ED4"/>
<path d="M62.7548 56.3765C62.5909 56.3736 62.4282 56.404 62.2765 56.466C62.1248 56.528 61.9874 56.6202 61.8725 56.737C61.7576 56.8539 61.6677 56.9929 61.6084 57.1456C61.549 57.2984 61.5213 57.4616 61.5271 57.6254C61.5221 57.802 61.5529 57.9778 61.6178 58.1421C61.6827 58.3064 61.7802 58.4559 61.9046 58.5814C62.0154 58.6932 62.1473 58.7819 62.2926 58.8424C62.4379 58.903 62.5938 58.9341 62.7512 58.9341H62.8042C63.1332 58.9186 63.4429 58.774 63.6661 58.5316C63.8893 58.2893 64.008 57.9687 63.9965 57.6395C64.0013 57.4741 63.9726 57.3095 63.9121 57.1555C63.8517 57.0015 63.7608 56.8614 63.6448 56.7434C63.5288 56.6254 63.3902 56.5321 63.2372 56.4691C63.0843 56.4061 62.9202 56.3746 62.7548 56.3765Z" fill="#023ED4"/>
<path d="M38.1378 6.5334H38.1837C38.3427 6.53747 38.501 6.50994 38.6494 6.45242C38.7978 6.39489 38.9332 6.30851 39.048 6.19826C39.1676 6.07343 39.2606 5.92556 39.3213 5.76362C39.3819 5.60169 39.409 5.42909 39.4007 5.25636C39.4076 5.09312 39.3807 4.93022 39.3218 4.77782C39.2629 4.62543 39.1732 4.48681 39.0584 4.37062C38.9435 4.25443 38.8059 4.16315 38.6542 4.10251C38.5025 4.04186 38.3399 4.01313 38.1766 4.01813C38.0135 4.01264 37.851 4.04091 37.6993 4.10115C37.5475 4.1614 37.4099 4.25233 37.295 4.36825C37.1801 4.48417 37.0903 4.62257 37.0314 4.77479C36.9725 4.927 36.9456 5.08975 36.9525 5.25283C36.9404 5.41608 36.962 5.58008 37.016 5.7346C37.0701 5.88912 37.1553 6.03086 37.2665 6.151C37.3777 6.27113 37.5125 6.36708 37.6624 6.43287C37.8123 6.49866 37.9741 6.53288 38.1378 6.5334Z" fill="#023ED4"/>
<path d="M34.307 32.2646H34.3493C34.6708 32.2716 34.9823 32.1526 35.2171 31.933C35.3363 31.8078 35.4289 31.6599 35.4896 31.498C35.5502 31.3362 35.5775 31.1638 35.5699 30.9911C35.5768 30.8276 35.5498 30.6643 35.4907 30.5117C35.4316 30.3591 35.3416 30.2203 35.2264 30.104C35.1111 29.9878 34.9731 29.8966 34.821 29.8361C34.6688 29.7757 34.5058 29.7474 34.3422 29.7529C34.179 29.7474 34.0163 29.7757 33.8644 29.8359C33.7125 29.8961 33.5747 29.987 33.4595 30.1028C33.3443 30.2187 33.2542 30.357 33.1949 30.5093C33.1355 30.6615 33.1082 30.8243 33.1146 30.9876C33.1024 31.1512 33.1243 31.3157 33.1788 31.4705C33.2332 31.6253 33.3192 31.7672 33.4312 31.8871C33.5432 32.0071 33.6789 32.1026 33.8296 32.1675C33.9803 32.2325 34.1428 32.2655 34.307 32.2646Z" fill="#023ED4"/>
<path d="M58.4618 39.2706C58.2985 39.2656 58.1359 39.2943 57.9842 39.355C57.8325 39.4156 57.6949 39.5069 57.58 39.6231C57.4651 39.7393 57.3755 39.8779 57.3166 40.0303C57.2576 40.1827 57.2308 40.3456 57.2377 40.5088C57.2255 40.6719 57.2472 40.8357 57.3012 40.9901C57.3553 41.1444 57.4406 41.2859 57.5519 41.4058C57.6631 41.5256 57.7979 41.6213 57.9478 41.6866C58.0977 41.752 58.2594 41.7858 58.423 41.7858H58.4653C58.7841 41.7935 59.0932 41.6757 59.3261 41.4578C59.4452 41.3326 59.5379 41.1846 59.5985 41.0228C59.6591 40.8609 59.6865 40.6885 59.6788 40.5159C59.6866 40.3527 59.6607 40.1896 59.6027 40.0368C59.5447 39.8841 59.4558 39.745 59.3416 39.6281C59.2274 39.5113 59.0903 39.4192 58.9389 39.3577C58.7875 39.2962 58.6251 39.2665 58.4618 39.2706Z" fill="#023ED4"/>
<path d="M5.78872 41.4966C5.62521 41.4931 5.46271 41.5232 5.31132 41.5851C5.15994 41.647 5.02291 41.7394 4.90876 41.8565C4.79461 41.9736 4.70578 42.113 4.64779 42.2659C4.58979 42.4189 4.56388 42.5821 4.57166 42.7455C4.56433 42.9176 4.59179 43.0894 4.65241 43.2506C4.71302 43.4118 4.80554 43.5592 4.92444 43.6838C5.1579 43.9008 5.46657 44.0184 5.7852 44.0119H5.83812C6.00156 44.01 6.16287 43.9745 6.31202 43.9077C6.46118 43.8408 6.59499 43.744 6.70516 43.6233C6.81532 43.5025 6.89948 43.3604 6.95241 43.2057C7.00535 43.0511 7.02591 42.8872 7.01284 42.7243C7.01874 42.5618 6.99114 42.3998 6.93176 42.2484C6.87237 42.097 6.78248 41.9595 6.66766 41.8443C6.55284 41.7292 6.41556 41.6389 6.26435 41.5791C6.11315 41.5193 5.95124 41.4912 5.78872 41.4966Z" fill="#023ED4"/>
<path d="M52.9761 48.2946C52.6478 48.2879 52.3301 48.4107 52.0918 48.6365C51.8534 48.8623 51.7136 49.1729 51.7025 49.501C51.6945 49.6738 51.7216 49.8463 51.7823 50.0082C51.8429 50.1701 51.9358 50.318 52.0553 50.4429C52.1722 50.5629 52.3122 50.6578 52.4668 50.7221C52.6214 50.7864 52.7874 50.8186 52.9549 50.8169C53.1187 50.8194 53.2814 50.7886 53.433 50.7265C53.5847 50.6644 53.7222 50.5722 53.8372 50.4555C53.9523 50.3388 54.0425 50.2 54.1024 50.0475C54.1624 49.895 54.1908 49.7319 54.1861 49.5681C54.1937 49.4042 54.1681 49.2404 54.1108 49.0866C54.0534 48.9329 53.9657 48.7923 53.8526 48.6733C53.7396 48.5543 53.6037 48.4595 53.453 48.3944C53.3024 48.3293 53.1401 48.2953 52.9761 48.2946Z" fill="#023ED4"/>
<path d="M3.8768 56.8316C3.71317 56.8335 3.55168 56.869 3.40243 56.9362C3.25319 57.0033 3.11942 57.1005 3.00947 57.2217C2.89953 57.3429 2.8158 57.4855 2.76351 57.6405C2.71122 57.7956 2.6915 57.9597 2.70559 58.1228C2.70059 58.2856 2.72922 58.4477 2.78969 58.599C2.85016 58.7503 2.94117 58.8875 3.05704 59.0021C3.1729 59.1166 3.31113 59.206 3.4631 59.2647C3.61507 59.3235 3.77751 59.3502 3.94029 59.3434C4.10382 59.3465 4.26625 59.3159 4.41746 59.2536C4.56868 59.1912 4.70545 59.0984 4.81927 58.981C4.9331 58.8635 5.02154 58.7239 5.07909 58.5708C5.13665 58.4177 5.16209 58.2544 5.15383 58.091C5.16069 57.9195 5.13299 57.7484 5.07239 57.5878C5.01179 57.4272 4.91951 57.2804 4.80106 57.1562C4.67864 57.0399 4.53298 56.9509 4.37368 56.8949C4.21437 56.839 4.04504 56.8174 3.8768 56.8316Z" fill="#023ED4"/>
</g>
<defs>
<clipPath id="clip0_603_99">
<rect width="64" height="64" fill="white"/>
</clipPath>
</defs>
</svg>
