<svg width="30" height="26" viewBox="0 0 30 26" fill="none" xmlns="http://www.w3.org/2000/svg">
<g clip-path="url(#clip0_298_3306)">
<path d="M30 12.6V13.38L29.44 14.76L30 16.15V16.9C29.923 17.3439 29.7338 17.7607 29.4502 18.1108C29.1666 18.4609 28.7982 18.7326 28.38 18.9C28.3 18.9 28.25 19.05 28.23 19.14C28.09 19.69 28.01 20.26 27.82 20.79C27.2629 22.3307 26.2412 23.6604 24.8959 24.5954C23.5506 25.5305 21.9482 26.0248 20.31 26.01C16.86 26.01 13.42 26.01 9.96997 26.01C9.4514 26.0086 8.93354 25.9718 8.41997 25.9C6.75988 25.6314 5.22905 24.8394 4.05077 23.6395C2.87249 22.4396 2.10841 20.8947 1.86997 19.23C1.87033 19.1464 1.84447 19.0648 1.79604 18.9966C1.74761 18.9284 1.67904 18.8772 1.59997 18.85C1.04391 18.619 0.588946 18.1965 0.317462 17.659C0.0459787 17.1216 -0.0240789 16.5046 0.119968 15.92C0.263673 15.4933 0.440891 15.0787 0.649967 14.68C0.383859 14.3695 0.19567 14.0001 0.101032 13.6023C0.00639345 13.2045 0.00803982 12.7898 0.10583 12.3928C0.203621 11.9958 0.394734 11.6278 0.663295 11.3195C0.931857 11.0112 1.27011 10.7714 1.64997 10.62C1.69431 10.5927 1.73237 10.5562 1.76166 10.5131C1.79096 10.4701 1.81083 10.4213 1.81996 10.37C1.87996 9.91 1.90996 9.45 1.97996 8.99C2.25291 6.86165 3.23177 4.88632 4.75997 3.38C6.35918 1.91067 8.33666 0.916734 10.47 0.510004C12.5725 0.0657056 14.7291 -0.065711 16.87 0.120005C18.7129 0.226451 20.5232 0.652806 22.22 1.38C23.4331 1.88015 24.5294 2.62617 25.4398 3.57105C26.3503 4.51594 27.0552 5.6392 27.51 6.87001C27.9053 7.92494 28.1347 9.03478 28.19 10.16C28.1784 10.2866 28.2095 10.4135 28.2784 10.5204C28.3473 10.6273 28.4499 10.7081 28.57 10.75C29.0978 10.9858 29.5186 11.4102 29.75 11.94C29.85 12.13 29.92 12.38 30 12.6ZM26.46 10.38C26.46 10.09 26.46 9.83 26.37 9.57C26.2375 8.03583 25.6651 6.57248 24.7214 5.35563C23.7777 4.13878 22.5029 3.22015 21.05 2.71C19.4763 2.10785 17.8139 1.76996 16.13 1.71C13.8676 1.5519 11.5955 1.81641 9.42997 2.49C8.22909 2.83603 7.12598 3.45858 6.20906 4.30776C5.29215 5.15695 4.58694 6.20915 4.14997 7.38C3.78985 8.3408 3.59051 9.35438 3.55997 10.38H26.46ZM3.62997 19.08C3.62997 19.13 3.62997 19.17 3.62997 19.21C3.89272 20.611 4.63553 21.8767 5.73059 22.7892C6.82566 23.7018 8.20452 24.2042 9.62997 24.21C13.2166 24.21 16.8 24.21 20.38 24.21C21.6533 24.2032 22.8933 23.8026 23.9299 23.0632C24.9665 22.3237 25.749 21.2817 26.17 20.08C26.28 19.75 26.35 19.39 26.45 19.08C26.0425 18.9869 25.6171 19.0108 25.2226 19.1487C24.8281 19.2867 24.4806 19.5333 24.22 19.86C23.8546 20.275 23.3768 20.5752 22.8444 20.7243C22.3119 20.8734 21.7477 20.865 21.22 20.7C20.524 20.4963 19.9132 20.0715 19.48 19.49C19.3617 19.3509 19.2146 19.2391 19.0488 19.1624C18.883 19.0858 18.7026 19.0461 18.52 19.0461C18.3373 19.0461 18.1569 19.0858 17.9911 19.1624C17.8254 19.2391 17.6783 19.3509 17.56 19.49C17.44 19.61 17.33 19.74 17.22 19.86C16.8403 20.2703 16.3536 20.5663 15.8147 20.7147C15.2758 20.8631 14.7061 20.858 14.17 20.7C13.5475 20.534 13.0027 20.1555 12.63 19.63C12.5062 19.4546 12.3422 19.3115 12.1517 19.2127C11.9611 19.1139 11.7496 19.0624 11.535 19.0624C11.3203 19.0624 11.1088 19.1139 10.9183 19.2127C10.7277 19.3115 10.5637 19.4546 10.44 19.63C10.3651 19.7182 10.285 19.8016 10.2 19.88C9.92336 20.1752 9.58992 20.4113 9.2197 20.5743C8.84947 20.7373 8.45011 20.8237 8.04563 20.8284C7.64114 20.833 7.2399 20.7559 6.86601 20.6015C6.49212 20.4471 6.15332 20.2187 5.86997 19.93C5.7118 19.7452 5.53781 19.5745 5.34997 19.42C5.15789 19.2613 4.93218 19.1484 4.68997 19.09C4.33759 19.0559 3.98292 19.0526 3.62997 19.08ZM15.04 15.6H2.72996C2.60642 15.583 2.48066 15.5924 2.36104 15.6277C2.24141 15.6629 2.13065 15.7232 2.03609 15.8046C1.94154 15.8859 1.86534 15.9864 1.81257 16.0994C1.75979 16.2124 1.73163 16.3353 1.72996 16.46C1.73197 16.5854 1.76017 16.709 1.81275 16.8229C1.86533 16.9367 1.94113 17.0384 2.03529 17.1212C2.12944 17.2041 2.23988 17.2664 2.35951 17.304C2.47914 17.3417 2.60532 17.354 2.72996 17.34C3.31996 17.34 3.91997 17.34 4.51997 17.34C5.26623 17.3315 5.98542 17.6192 6.51997 18.14C6.71997 18.33 6.90997 18.54 7.10997 18.73C7.34914 18.9639 7.67041 19.0949 8.00497 19.0949C8.33953 19.0949 8.66079 18.9639 8.89997 18.73C9.01997 18.61 9.12997 18.5 9.23997 18.37C9.52776 18.0524 9.87886 17.7986 10.2707 17.6248C10.6625 17.4511 11.0864 17.3614 11.515 17.3614C11.9436 17.3614 12.3674 17.4511 12.7592 17.6248C13.1511 17.7986 13.5022 18.0524 13.79 18.37C13.9 18.51 14.02 18.63 14.14 18.76C14.3791 18.9939 14.7004 19.1249 15.035 19.1249C15.3695 19.1249 15.6908 18.9939 15.93 18.76C16.11 18.57 16.28 18.37 16.47 18.19C17.0284 17.6552 17.7718 17.3567 18.545 17.3567C19.3182 17.3567 20.0615 17.6552 20.62 18.19C20.83 18.38 21.01 18.6 21.21 18.79C21.4422 19.0102 21.75 19.1329 22.07 19.1329C22.3899 19.1329 22.6978 19.0102 22.93 18.79C23.06 18.67 23.17 18.54 23.29 18.41C23.5801 18.0765 23.9402 17.8113 24.3448 17.6332C24.7493 17.4552 25.1881 17.3687 25.63 17.38C26.22 17.38 26.81 17.38 27.39 17.38C27.6098 17.3886 27.8246 17.3126 27.9901 17.1676C28.1556 17.0227 28.2593 16.8198 28.2798 16.6008C28.3003 16.3817 28.2361 16.1631 28.1003 15.99C27.9645 15.8169 27.7676 15.7023 27.55 15.67C27.4335 15.6598 27.3164 15.6598 27.2 15.67L15.04 15.6ZM15.04 12.14H2.86997C2.16997 12.14 1.75997 12.45 1.75997 13C1.75997 13.55 2.16997 13.87 2.86997 13.87H27.41C27.6246 13.8583 27.8275 13.7684 27.9804 13.6173C28.1333 13.4663 28.2256 13.2645 28.24 13.05C28.2504 12.8406 28.1841 12.6346 28.0533 12.4707C27.9226 12.3068 27.7365 12.1963 27.53 12.16C27.4037 12.1451 27.2762 12.1451 27.15 12.16L15.04 12.14Z" fill="#1E1E1E"/>
<path d="M13.2494 3.46997C13.4218 3.472 13.5898 3.52525 13.732 3.62296C13.8741 3.72066 13.984 3.85841 14.0477 4.01871C14.1114 4.179 14.1259 4.35461 14.0896 4.52322C14.0533 4.69184 13.9676 4.84584 13.8436 4.96567C13.7195 5.0855 13.5626 5.16575 13.3929 5.19623C13.2231 5.2267 13.0481 5.20603 12.8901 5.13683C12.7321 5.06762 12.5982 4.95302 12.5055 4.80757C12.4128 4.66213 12.3654 4.49241 12.3694 4.31998C12.3772 4.09183 12.4733 3.87562 12.6375 3.71703C12.8017 3.55843 13.0211 3.46984 13.2494 3.46997Z" fill="#1E1E1E"/>
<path d="M16.7691 5.21002C16.9411 5.21402 17.1081 5.26892 17.2489 5.3678C17.3897 5.46668 17.498 5.60509 17.5602 5.76552C17.6223 5.92595 17.6355 6.10121 17.5981 6.26914C17.5606 6.43706 17.4742 6.59011 17.3498 6.70894C17.2254 6.82777 17.0685 6.90705 16.899 6.93674C16.7296 6.96643 16.5551 6.94521 16.3977 6.87575C16.2403 6.80629 16.107 6.69172 16.0147 6.54653C15.9224 6.40133 15.8752 6.23202 15.8791 6.06001C15.887 5.83012 15.9845 5.61244 16.1508 5.45357C16.3172 5.2947 16.5391 5.20728 16.7691 5.21002Z" fill="#1E1E1E"/>
<path d="M9.72908 8.66999C9.55703 8.668 9.38943 8.61504 9.24748 8.5178C9.10552 8.42056 8.99559 8.28343 8.93158 8.12371C8.86757 7.964 8.85236 7.78888 8.88787 7.62052C8.92338 7.45216 9.00801 7.29811 9.13107 7.17785C9.25413 7.05759 9.41008 6.97651 9.57922 6.94488C9.74835 6.91325 9.92306 6.93248 10.0813 7.00015C10.2395 7.06781 10.3741 7.18087 10.468 7.32502C10.562 7.46917 10.611 7.63794 10.6091 7.80999C10.6014 8.03908 10.5056 8.25635 10.3416 8.41656C10.1777 8.57676 9.95828 8.66755 9.72908 8.66999Z" fill="#1E1E1E"/>
<path d="M20.2902 8.66999C20.1177 8.67197 19.9485 8.62265 19.8041 8.52827C19.6597 8.43388 19.5467 8.2987 19.4793 8.13992C19.4119 7.98113 19.3932 7.8059 19.4257 7.63648C19.4581 7.46707 19.5402 7.31111 19.6614 7.18844C19.7827 7.06576 19.9377 6.98191 20.1067 6.94752C20.2757 6.91313 20.4512 6.92976 20.6107 6.99531C20.7703 7.06085 20.9068 7.17234 21.0028 7.31562C21.0989 7.4589 21.1501 7.6275 21.1502 7.8C21.1476 8.02823 21.0565 8.24654 20.8961 8.40887C20.7356 8.57119 20.5183 8.66482 20.2902 8.66999Z" fill="#1E1E1E"/>
</g>
<defs>
<clipPath id="clip0_298_3306">
<rect width="30" height="26" fill="white"/>
</clipPath>
</defs>
</svg>
