<svg width="198" height="28" viewBox="0 0 198 28" fill="none" xmlns="http://www.w3.org/2000/svg">
<g clip-path="url(#clip0_390_1661)">
<path d="M42.2081 0H2.37792C1.06463 0 0 1.06463 0 2.37792V25.6221C0 26.9354 1.06463 28 2.37792 28H42.2081C43.5214 28 44.586 26.9354 44.586 25.6221V2.37792C44.586 1.06463 43.5214 0 42.2081 0Z" fill="#0E4595"/>
<path d="M16.5381 19.8691L18.5213 8.23145H21.6934L19.7088 19.8691H16.5381Z" fill="white"/>
<path d="M31.1686 8.48292C30.5401 8.24715 29.5554 7.99414 28.3256 7.99414C25.1913 7.99414 22.9834 9.57254 22.9646 11.8347C22.947 13.5069 24.5408 14.4398 25.744 14.9965C26.9787 15.5669 27.3938 15.9307 27.388 16.44C27.3801 17.2201 26.4019 17.5765 25.4902 17.5765C24.2206 17.5765 23.5461 17.4001 22.5044 16.9656L22.0956 16.7806L21.6504 19.3859C22.3913 19.7107 23.7613 19.9922 25.1839 20.0067C28.5182 20.0067 30.6829 18.4464 30.7075 16.0307C30.7194 14.7069 29.8743 13.6994 28.0443 12.8688C26.9355 12.3305 26.2565 11.9712 26.2637 11.4261C26.2637 10.9423 26.8384 10.4251 28.0802 10.4251C29.1175 10.409 29.8689 10.6352 30.4543 10.8709L30.7386 11.0052L31.1686 8.48292Z" fill="white"/>
<path d="M39.3319 8.23145H36.8808C36.1215 8.23145 35.5532 8.43868 35.2197 9.19652L30.5088 19.8617H33.8397C33.8397 19.8617 34.3844 18.4277 34.5076 18.1128C34.8716 18.1128 38.1074 18.1178 38.57 18.1178C38.6649 18.5252 38.9559 19.8617 38.9559 19.8617H41.8993L39.3319 8.23145ZM35.443 15.7461C35.7053 15.0756 36.7068 12.4929 36.7068 12.4929C36.688 12.5239 36.9672 11.8191 37.1274 11.3822L37.3418 12.3856C37.3418 12.3856 37.9492 15.1635 38.0761 15.746H35.443V15.7461Z" fill="white"/>
<path d="M2.72705 8.23145L2.68652 8.47365C3.94034 8.77716 5.06023 9.21636 6.04069 9.76281L8.8553 19.8506L12.2114 19.8467L17.2053 8.23145H13.8452L10.7396 16.1675L10.4087 14.5548C10.3934 14.5055 10.3768 14.4561 10.3598 14.4067L9.27991 9.21396C9.08789 8.47705 8.53095 8.25713 7.84201 8.23145H2.72705Z" fill="white"/>
</g>
<g clip-path="url(#clip1_390_1661)">
<path d="M75.1279 27.9383V26.0779C75.1279 25.3644 74.6937 24.8995 73.981 24.8995C73.6066 24.8995 73.2061 25.0237 72.9268 25.4235C72.7097 25.0821 72.4028 24.8995 71.9349 24.8995C71.7609 24.8919 71.5878 24.9277 71.431 25.0034C71.2742 25.0792 71.1387 25.1927 71.0365 25.3337V24.9594H70.4473V27.936H71.0365V26.2328C71.0365 25.7088 71.3464 25.458 71.7806 25.458C72.2149 25.458 72.4627 25.7372 72.4627 26.2328V27.9383H73.0519V26.2328C73.0519 25.7088 73.3618 25.458 73.796 25.458C74.2303 25.458 74.4781 25.7372 74.4781 26.2328V27.9383H75.1279ZM84.8021 24.9923H83.7166V24.0939H83.1289V24.9923H82.509V25.5164H83.1289V26.9149C83.1289 27.5969 83.3767 28.0004 84.1208 28.0004C84.4028 27.9945 84.679 27.92 84.9257 27.7833L84.7392 27.2592C84.572 27.3638 84.378 27.4176 84.1807 27.4142C83.8708 27.4142 83.7158 27.2278 83.7158 26.9179V25.4924H84.8014V24.996L84.8021 24.9923ZM90.3213 24.8995C90.1608 24.8959 90.0021 24.934 89.8608 25.0101C89.7195 25.0862 89.6003 25.1977 89.515 25.3337V24.9594H88.9258V27.936H89.515V26.2643C89.515 25.7679 89.7628 25.458 90.1663 25.458C90.3025 25.4635 90.4376 25.4843 90.5691 25.5201L90.7555 24.9616C90.6133 24.9258 90.4678 24.9049 90.3213 24.8995ZM81.9804 25.2094C81.6705 24.9923 81.2363 24.8995 80.7713 24.8995C80.0272 24.8995 79.5622 25.2408 79.5622 25.83C79.5622 26.3264 79.9036 26.6049 80.5542 26.6985L80.8642 26.7292C81.2056 26.7913 81.4227 26.9156 81.4227 27.0706C81.4227 27.2877 81.1749 27.4449 80.7092 27.4449C80.3536 27.4522 80.0054 27.3434 79.7172 27.135L79.4073 27.5999C79.8415 27.9098 80.3686 27.9742 80.68 27.9742C81.5484 27.9742 82.0134 27.5714 82.0134 27.0129C82.0134 26.4889 81.639 26.2381 80.9899 26.1445L80.68 26.1138C80.4007 26.0831 80.1559 25.9895 80.1559 25.8038C80.1559 25.5867 80.4037 25.4295 80.7451 25.4295C81.1195 25.4295 81.4893 25.5845 81.6757 25.6773L81.9804 25.2094ZM90.9726 26.4499C90.9726 27.3483 91.5618 28.0004 92.5231 28.0004C92.9573 28.0004 93.2673 27.9076 93.5772 27.659L93.2673 27.1941C93.0478 27.3718 92.7748 27.4702 92.4924 27.4734C91.9683 27.4734 91.5618 27.0706 91.5618 26.4814C91.5618 25.8922 91.9631 25.4924 92.4924 25.4924C92.7748 25.4955 93.0478 25.5939 93.2673 25.7717L93.5772 25.3067C93.2673 25.0589 92.9573 24.9653 92.5231 24.9653C91.5925 24.9032 90.9726 25.5545 90.9726 26.4537V26.4499ZM86.8175 24.8995C85.9491 24.8995 85.3599 25.5194 85.3599 26.4499C85.3599 27.3805 85.9798 28.0004 86.8789 28.0004C87.3164 28.0097 87.7435 27.8674 88.088 27.5976L87.7781 27.1634C87.5289 27.3565 87.2247 27.4651 86.9096 27.4734C86.5068 27.4734 86.0726 27.2256 86.0112 26.6985H88.213V26.4507C88.213 25.5201 87.6545 24.9002 86.8175 24.9002V24.8995ZM86.7868 25.458C87.2211 25.458 87.531 25.7372 87.5617 26.2021H85.9498C86.0427 25.7679 86.3242 25.458 86.7868 25.458ZM78.7559 26.4499V24.9616H78.1667V25.3359C77.9496 25.0567 77.6427 24.9017 77.2054 24.9017C76.3684 24.9017 75.7478 25.553 75.7478 26.4522C75.7478 27.3513 76.3677 28.0027 77.2054 28.0027C77.6397 28.0027 77.9496 27.8477 78.1667 27.5684V27.9428H78.7559V26.4499ZM76.3684 26.4499C76.3684 25.8914 76.7098 25.458 77.299 25.458C77.8575 25.458 78.1974 25.8922 78.1974 26.4499C78.1974 27.0391 77.8231 27.4419 77.299 27.4419C76.7098 27.4726 76.3684 27.0077 76.3684 26.4499ZM99.2835 24.8995C99.123 24.8959 98.9644 24.934 98.823 25.0101C98.6817 25.0862 98.5626 25.1977 98.4772 25.3337V24.9594H97.888V27.936H98.4765V26.2643C98.4765 25.7679 98.7243 25.458 99.1278 25.458C99.264 25.4635 99.3991 25.4843 99.5306 25.5201L99.717 24.9616C99.5748 24.9258 99.4293 24.9049 99.2828 24.8995H99.2835ZM96.9889 26.4499V24.9616H96.3997V25.3359C96.1826 25.0567 95.8756 24.9017 95.4384 24.9017C94.6014 24.9017 93.9807 25.553 93.9807 26.4522C93.9807 27.3513 94.6006 28.0027 95.4384 28.0027C95.8726 28.0027 96.1826 27.8477 96.3997 27.5684V27.9428H96.9889V26.4499ZM94.6014 26.4499C94.6014 25.8914 94.9428 25.458 95.532 25.458C96.0905 25.458 96.4304 25.8922 96.4304 26.4499C96.4304 27.0391 96.056 27.4419 95.532 27.4419C94.9428 27.4726 94.6014 27.0077 94.6014 26.4499ZM102.974 26.4499V23.7832H102.384V25.3337C102.167 25.0544 101.86 24.8995 101.423 24.8995C100.586 24.8995 99.9656 25.5508 99.9656 26.4499C99.9656 27.3491 100.585 28.0004 101.423 28.0004C101.857 28.0004 102.167 27.8454 102.384 27.5662V27.9405H102.974V26.4499ZM100.586 26.4499C100.586 25.8914 100.928 25.458 101.517 25.458C102.075 25.458 102.415 25.8922 102.415 26.4499C102.415 27.0391 102.041 27.4419 101.517 27.4419C100.927 27.4734 100.585 27.0084 100.585 26.4499H100.586Z" fill="black"/>
<path d="M92.0586 2.3877H81.2988V19.9379H92.0586V2.3877Z" fill="#FF5F00"/>
<path d="M82.3843 11.1626C82.3847 9.47424 82.767 7.80786 83.5026 6.28822C84.2383 4.76858 85.3082 3.43505 86.6322 2.38749C84.9856 1.09284 83.0079 0.287618 80.9252 0.0638722C78.8426 -0.159874 76.739 0.206885 74.8549 1.12222C72.9709 2.03756 71.3824 3.46455 70.271 5.24005C69.1597 7.01555 68.5703 9.06793 68.5703 11.1626C68.5703 13.2572 69.1597 15.3096 70.271 17.0851C71.3824 18.8606 72.9709 20.2876 74.8549 21.2029C76.739 22.1183 78.8426 22.485 80.9252 22.2613C83.0079 22.0375 84.9856 21.2323 86.6322 19.9377C85.3082 18.8901 84.2383 17.5566 83.5026 16.0369C82.767 14.5173 82.3847 12.8509 82.3843 11.1626Z" fill="#EB001B"/>
<path d="M104.71 11.1624C104.711 13.2555 104.124 15.3068 103.014 17.0816C101.905 18.8565 100.318 20.2832 98.4356 21.1987C96.5533 22.1141 94.4514 22.4813 92.3702 22.2583C90.289 22.0352 88.3126 21.231 86.667 19.9374C87.9913 18.8901 89.0615 17.5567 89.7972 16.037C90.5329 14.5173 90.915 12.8508 90.915 11.1624C90.915 9.47394 90.5329 7.80743 89.7972 6.28773C89.0615 4.76803 87.9913 3.43456 86.667 2.38727C88.3126 1.09374 90.289 0.289463 92.3702 0.0664254C94.4514 -0.156612 96.5533 0.210598 98.4356 1.12606C100.318 2.04151 101.905 3.46826 103.014 5.2431C104.124 7.01795 104.711 9.06924 104.71 11.1624Z" fill="#F79E1B"/>
</g>
<g clip-path="url(#clip2_390_1661)">
<path fill-rule="evenodd" clip-rule="evenodd" d="M190.853 4H177.567C177.995 6.3093 179.184 8.40865 180.945 9.96248C182.706 11.5163 184.937 12.4349 187.282 12.5714H197.853C197.971 12.1049 198.019 11.6235 197.996 11.1429C197.996 9.24845 197.243 7.43164 195.904 6.09209C194.564 4.75255 192.748 4 190.853 4V4Z" fill="url(#paint0_linear_390_1661)"/>
<path fill-rule="evenodd" clip-rule="evenodd" d="M178.71 13.2861V24.0004H185.139V18.2861H190.853C192.356 18.2651 193.814 17.7706 195.019 16.8729C196.225 15.9751 197.116 14.72 197.567 13.2861H178.71Z" fill="#4DB45F"/>
<path fill-rule="evenodd" clip-rule="evenodd" d="M155.853 4V24H161.567C162.019 23.9742 162.456 23.8282 162.832 23.5771C163.209 23.3259 163.512 22.9788 163.71 22.5714L168.71 12.5714H169.424V24H175.853V4H170.138C169.697 4.06212 169.275 4.22277 168.904 4.47007C168.533 4.71736 168.223 5.04495 167.995 5.42857L162.995 15.4286H162.281V4H155.853Z" fill="#4DB45F"/>
<path fill-rule="evenodd" clip-rule="evenodd" d="M128.71 24V4H135.139C135.139 4 136.996 4 137.996 6.85714C140.567 14.4286 140.853 15.4286 140.853 15.4286C140.853 15.4286 141.424 13.5714 143.71 6.85714C144.71 4 146.567 4 146.567 4H152.996V24H146.567V13.2857H145.853L142.281 24H139.424L135.853 13.2857H135.139V24H128.71Z" fill="#4DB45F"/>
</g>
<defs>
<linearGradient id="paint0_linear_390_1661" x1="177.525" y1="8.28571" x2="197.996" y2="8.28571" gradientUnits="userSpaceOnUse">
<stop stop-color="#00B4E6"/>
<stop offset="1" stop-color="#088CCB"/>
</linearGradient>
<clipPath id="clip0_390_1661">
<rect width="44.586" height="28" fill="white"/>
</clipPath>
<clipPath id="clip1_390_1661">
<rect width="36.1237" height="28" fill="white" transform="translate(68.5859)"/>
</clipPath>
<clipPath id="clip2_390_1661">
<rect width="69.2857" height="20" fill="white" transform="translate(128.71 4)"/>
</clipPath>
</defs>
</svg>
