<svg width="30" height="26" viewBox="0 0 30 26" fill="none" xmlns="http://www.w3.org/2000/svg">
<g clip-path="url(#clip0_298_3287)">
<path d="M0.0892759 13.37C0.151792 13.5447 0.267327 13.6954 0.419728 13.8012C0.572129 13.907 0.753775 13.9625 0.939274 13.96H5.29927L5.10928 14.29C4.97928 14.52 4.84928 14.73 4.71928 14.95C4.40928 15.48 4.11927 15.95 3.84927 16.49C3.72007 16.7254 3.65782 16.9917 3.66928 17.26C3.69157 17.4505 3.77622 17.6284 3.91005 17.7658C4.04388 17.9033 4.21939 17.9926 4.40928 18.02C4.61289 18.0615 4.82438 18.0385 5.01435 17.9543C5.20432 17.8701 5.36333 17.7288 5.46928 17.55C5.73928 17.1 6.00928 16.64 6.26928 16.18L6.63928 15.54C6.63928 15.54 6.70928 15.44 6.73928 15.38L7.00927 14.96L9.29928 18.96H6.36927C6.21268 18.9463 6.055 18.968 5.90789 19.0233C5.76077 19.0787 5.62797 19.1664 5.51928 19.28C5.39718 19.4123 5.31612 19.5773 5.28594 19.7548C5.25576 19.9323 5.27776 20.1148 5.34927 20.28C5.42107 20.4619 5.54897 20.6162 5.7144 20.7205C5.87983 20.8248 6.07419 20.8737 6.26928 20.86H8.79928H9.25927L8.44928 22.28L7.20927 24.41C7.10904 24.5549 7.04885 24.7236 7.03481 24.8992C7.02076 25.0748 7.05335 25.251 7.12928 25.41C7.20838 25.5594 7.32629 25.6846 7.4706 25.7726C7.61491 25.8606 7.78027 25.9081 7.94928 25.91C8.1315 25.9078 8.31027 25.86 8.46925 25.7709C8.62822 25.6818 8.76232 25.5543 8.85928 25.4C9.26928 24.71 9.66928 24.02 10.0693 23.33L10.6293 22.33C10.6643 22.2637 10.7044 22.2001 10.7493 22.14L11.0093 21.72L11.6093 22.72C11.9093 23.23 12.1893 23.72 12.4793 24.2C12.5376 24.3214 12.6199 24.4297 12.7211 24.5185C12.8224 24.6073 12.9405 24.6747 13.0685 24.7167C13.1964 24.7588 13.3315 24.7745 13.4657 24.763C13.5998 24.7516 13.7303 24.7131 13.8493 24.65C13.9592 24.5917 14.0564 24.5122 14.1354 24.4161C14.2144 24.32 14.2735 24.2091 14.3093 24.09C14.3786 23.8006 14.3319 23.4955 14.1793 23.24L13.4493 22.1L13.0493 21.43L12.9493 21.24L12.7493 20.84H17.2993L16.7393 21.84C16.4293 22.37 16.1293 22.84 15.8593 23.38C15.7356 23.5994 15.6734 23.8482 15.6793 24.1C15.6949 24.2997 15.7774 24.4883 15.9135 24.6353C16.0496 24.7823 16.2313 24.8791 16.4293 24.91C16.6217 24.9405 16.8188 24.9142 16.9965 24.8343C17.1741 24.7544 17.3245 24.6243 17.4293 24.46L18.2293 23.1L18.5993 22.45L18.7193 22.27L18.9793 21.85L20.1893 23.92C20.4893 24.45 20.7993 24.92 21.1093 25.49C21.1796 25.6137 21.2744 25.7219 21.3879 25.8078C21.5014 25.8938 21.6311 25.9557 21.7693 25.99C22.0261 26.0386 22.2917 25.9848 22.5093 25.84C22.7159 25.6926 22.8588 25.4722 22.909 25.2233C22.9591 24.9745 22.9127 24.7159 22.7793 24.5C22.3926 23.8333 21.9926 23.1433 21.5793 22.43L21.0893 21.48C21.0598 21.4179 21.0264 21.3578 20.9893 21.3L20.7493 20.85H23.7493C23.9818 20.8552 24.2089 20.7791 24.3914 20.6349C24.5739 20.4907 24.7005 20.2874 24.7493 20.06C24.7747 19.9224 24.7709 19.7809 24.7381 19.6448C24.7054 19.5087 24.6445 19.3811 24.5593 19.27C24.45 19.1554 24.3179 19.065 24.1715 19.0047C24.025 18.9444 23.8676 18.9155 23.7093 18.92H20.7093L23.0093 14.92L23.2693 15.33L23.3793 15.51L23.7693 16.19C24.0193 16.61 24.2593 17.03 24.5093 17.44C24.5685 17.5605 24.6515 17.6678 24.7531 17.7556C24.8547 17.8434 24.973 17.9098 25.1009 17.9508C25.2287 17.9919 25.3635 18.0068 25.4973 17.9946C25.631 17.9825 25.7609 17.9435 25.8793 17.88C25.9888 17.8252 26.0854 17.7478 26.163 17.653C26.2405 17.5583 26.2972 17.4482 26.3293 17.33C26.366 17.1852 26.3735 17.0346 26.3512 16.8869C26.3288 16.7392 26.2772 16.5974 26.1993 16.47L25.4793 15.24L25.0693 14.54L24.9693 14.35L24.7593 13.92H26.2193C27.0793 13.92 27.8993 13.92 28.7293 13.92C29.0002 13.9739 29.2815 13.9249 29.5182 13.7825C29.7549 13.6401 29.93 13.4146 30.0093 13.15V12.75C29.9243 12.4891 29.7481 12.2676 29.513 12.1262C29.2778 11.9847 28.9996 11.9328 28.7293 11.98C27.9393 11.98 27.1393 11.98 26.3593 11.98H25.2093H24.7293L24.9093 11.67L25.2793 11.03C25.5993 10.51 25.8893 10.03 26.1593 9.49C26.2848 9.25321 26.3469 8.98792 26.3393 8.72001C26.3159 8.53151 26.2322 8.35564 26.1006 8.21866C25.969 8.08167 25.7967 7.99094 25.6093 7.96C25.4005 7.91577 25.1831 7.93946 24.9888 8.02762C24.7945 8.11578 24.6335 8.26379 24.5293 8.45C24.2593 8.89 24.0093 9.33 23.7493 9.78L23.3793 10.41C23.3443 10.4763 23.3041 10.5399 23.2593 10.6L22.9993 11.02L20.6993 7.02H23.5693C23.7767 7.02055 23.9828 6.98676 24.1793 6.92C24.3728 6.82392 24.53 6.66775 24.6273 6.47487C24.7247 6.28198 24.7569 6.06275 24.7193 5.85C24.6645 5.62813 24.5354 5.4317 24.3535 5.29342C24.1715 5.15514 23.9477 5.08335 23.7193 5.09H21.2093H20.7293L22.2093 2.54001C22.4293 2.18001 22.6393 1.81 22.8493 1.43C22.9032 1.30749 22.932 1.17539 22.934 1.04154C22.9359 0.907685 22.911 0.774803 22.8606 0.650769C22.8103 0.526735 22.7355 0.41407 22.6408 0.319463C22.5461 0.224855 22.4334 0.150228 22.3093 0.100003C22.0815 0.0308547 21.8365 0.0452352 21.6184 0.140553C21.4002 0.235871 21.2233 0.405871 21.1193 0.62C20.7193 1.29 20.3393 1.96 19.9493 2.62L19.3593 3.62L19.2493 3.79001L18.9993 4.17L18.7493 3.77C18.7042 3.70653 18.6641 3.63967 18.6293 3.57C18.2593 2.95 17.8993 2.33 17.5393 1.71C17.4693 1.55497 17.361 1.42035 17.2245 1.31886C17.088 1.21737 16.9279 1.15237 16.7593 1.13C16.5838 1.10299 16.4043 1.12622 16.2415 1.19701C16.0786 1.2678 15.9392 1.38325 15.8393 1.53C15.7245 1.66845 15.6561 1.83937 15.6435 2.01875C15.631 2.19813 15.6749 2.37692 15.7693 2.53C16.0293 3.01 16.3093 3.53001 16.5893 3.97001L17.2793 5.1H12.7193L13.3293 4.1C13.6393 3.56 13.9493 3.03 14.2393 2.49C14.3529 2.27661 14.3799 2.02767 14.3147 1.79489C14.2495 1.56211 14.0972 1.36338 13.8893 1.24C13.6792 1.11993 13.4327 1.0801 13.1955 1.12791C12.9583 1.17572 12.7464 1.30793 12.5993 1.5C12.4644 1.68918 12.3408 1.88618 12.2293 2.09L10.9993 4.19L10.1393 2.74L8.95928 0.740002C8.88729 0.612507 8.8036 0.491987 8.70928 0.380002C8.59467 0.263237 8.45317 0.176378 8.29718 0.127034C8.1412 0.0776904 7.97548 0.0673751 7.81458 0.0969894C7.65367 0.126604 7.50249 0.195239 7.37429 0.296887C7.2461 0.398535 7.1448 0.53009 7.07928 0.680005C7.03145 0.827377 7.01652 0.983444 7.03552 1.13721C7.05453 1.29098 7.10701 1.43871 7.18927 1.57C7.57927 2.25 7.96927 2.93 8.36928 3.57L8.91928 4.57L9.02927 4.77L9.25927 5.19H8.78928H6.28928C6.10606 5.19084 5.9266 5.24201 5.77048 5.33791C5.61436 5.43381 5.48759 5.57075 5.40401 5.73379C5.32042 5.89683 5.28324 6.0797 5.29651 6.26244C5.30979 6.44518 5.37301 6.62075 5.47928 6.77C5.58396 6.88234 5.711 6.97152 5.85223 7.0318C5.99345 7.09208 6.14574 7.12213 6.29927 7.12H8.78928H9.27927L7.00927 11.01L6.73928 10.6C6.73928 10.52 6.64927 10.46 6.61927 10.4L5.51928 8.51001C5.45131 8.36504 5.34954 8.23851 5.2225 8.14106C5.09547 8.04362 4.9469 7.97809 4.78928 7.95C4.60275 7.90218 4.40591 7.91408 4.22651 7.98405C4.0471 8.05402 3.89418 8.17852 3.78928 8.34C3.67589 8.47911 3.6083 8.64988 3.59577 8.82891C3.58324 9.00793 3.62638 9.18645 3.71928 9.34C3.97928 9.81 4.24928 10.27 4.51928 10.74L4.89928 11.38L4.99928 11.58L5.21928 12.01H1.08928C0.938083 12.0001 0.786604 12.0246 0.646283 12.0818C0.505961 12.1389 0.380466 12.2272 0.279275 12.34C0.142778 12.4695 0.0508584 12.639 0.0167204 12.8241C-0.0174176 13.0092 0.0079843 13.2003 0.0892759 13.37ZM8.30928 12.67C9.32928 10.93 10.3459 9.18334 11.3593 7.43001C11.4137 7.32194 11.4986 7.23217 11.6034 7.17175C11.7083 7.11133 11.8285 7.08292 11.9493 7.09C13.9493 7.09 15.9759 7.09 18.0293 7.09C18.1537 7.08398 18.2771 7.11497 18.3838 7.17904C18.4906 7.24312 18.576 7.33741 18.6293 7.45C19.6293 9.19 20.6293 10.93 21.6293 12.67C21.6947 12.7695 21.7295 12.8859 21.7295 13.005C21.7295 13.1241 21.6947 13.2405 21.6293 13.34C20.6093 15.08 19.6093 16.82 18.6293 18.56C18.5746 18.6707 18.4885 18.7629 18.3819 18.8252C18.2752 18.8874 18.1526 18.9169 18.0293 18.91H11.9793C11.8543 18.918 11.7297 18.8902 11.6199 18.83C11.5101 18.7698 11.4197 18.6796 11.3593 18.57C10.3593 16.81 9.35928 15.07 8.30928 13.32C8.24563 13.2236 8.21169 13.1106 8.21169 12.995C8.21169 12.8794 8.24563 12.7664 8.30928 12.67Z" fill="#1E1E1E"/>
</g>
<defs>
<clipPath id="clip0_298_3287">
<rect width="30" height="26" fill="white"/>
</clipPath>
</defs>
</svg>
