<svg width="16" height="16" viewBox="0 0 16 16" fill="none" xmlns="http://www.w3.org/2000/svg">
<g clip-path="url(#clip0_390_1016)">
<path d="M15.5 8C15.5 12.1421 12.1421 15.5 8 15.5C3.85786 15.5 0.5 12.1421 0.5 8C0.5 3.85786 3.85786 0.5 8 0.5C12.1421 0.5 15.5 3.85786 15.5 8Z" stroke="#A0A2A7"/>
<path d="M8.75 7.75C8.75 7.33579 8.41421 7 8 7C7.58579 7 7.25 7.33579 7.25 7.75V11.25C7.25 11.6642 7.58579 12 8 12C8.41421 12 8.75 11.6642 8.75 11.25V7.75Z" fill="#A0A2A7"/>
<path d="M8.75 4.75C8.75 4.33579 8.41421 4 8 4C7.58579 4 7.25 4.33579 7.25 4.75C7.25 5.16421 7.58579 5.5 8 5.5C8.41421 5.5 8.75 5.16421 8.75 4.75Z" fill="#A0A2A7"/>
</g>
<defs>
<clipPath id="clip0_390_1016">
<rect width="16" height="16" fill="white"/>
</clipPath>
</defs>
</svg>
