<svg width="24" height="24" viewBox="0 0 24 24" fill="none" xmlns="http://www.w3.org/2000/svg">
<g clip-path="url(#clip0_269_2184)">
<path d="M12 1.5C14.784 1.50265 17.4531 2.60974 19.4217 4.5783C21.3903 6.54686 22.4974 9.21604 22.5 12C22.4974 14.784 21.3903 17.4531 19.4217 19.4217C17.4531 21.3903 14.784 22.4974 12 22.5C9.21604 22.4974 6.54686 21.3903 4.5783 19.4217C2.60974 17.4531 1.50265 14.784 1.5 12C1.50265 9.21604 2.60974 6.54686 4.5783 4.5783C6.54686 2.60974 9.21604 1.50265 12 1.5ZM12 0C8.8174 0 5.76515 1.26428 3.51472 3.51472C1.26428 5.76515 0 8.8174 0 12C0 15.1826 1.26428 18.2348 3.51472 20.4853C5.76515 22.7357 8.8174 24 12 24C15.1826 24 18.2348 22.7357 20.4853 20.4853C22.7357 18.2348 24 15.1826 24 12C24 8.8174 22.7357 5.76515 20.4853 3.51472C18.2348 1.26428 15.1826 0 12 0Z" fill="#DD5A3D"/>
<path d="M11.4004 14.55C11.4004 14.9643 11.7362 15.3 12.1504 15.3C12.5646 15.3 12.9004 14.9643 12.9004 14.55L12.9004 6.05005C12.9004 5.63584 12.5646 5.30005 12.1504 5.30005C11.7362 5.30005 11.4004 5.63584 11.4004 6.05005L11.4004 14.55Z" fill="#DD5A3D"/>
<path d="M11.4004 18.05C11.4004 18.4643 11.7362 18.8 12.1504 18.8C12.5646 18.8 12.9004 18.4643 12.9004 18.05C12.9004 17.6358 12.5646 17.3 12.1504 17.3C11.7362 17.3 11.4004 17.6358 11.4004 18.05Z" fill="#DD5A3D"/>
</g>
<defs>
<clipPath id="clip0_269_2184">
<rect width="24" height="24" fill="white"/>
</clipPath>
</defs>
</svg>
