<svg width="16" height="16" viewBox="0 0 16 16" fill="none" xmlns="http://www.w3.org/2000/svg">
<g clip-path="url(#clip0_390_1048)">
<path d="M8 4.5C8.69224 4.5 9.36895 4.70527 9.94452 5.08986C10.5201 5.47444 10.9687 6.02107 11.2336 6.66061C11.4985 7.30015 11.5678 8.00389 11.4328 8.68282C11.2977 9.36175 10.9644 9.98539 10.4749 10.4749C9.9854 10.9644 9.36177 11.2977 8.68283 11.4328C8.0039 11.5678 7.30016 11.4985 6.66062 11.2336C6.02107 10.9687 5.47446 10.5201 5.08988 9.9445C4.70529 9.36892 4.5 8.69223 4.5 8C4.5 7.07174 4.86877 6.1815 5.52515 5.52513C6.18153 4.86875 7.07174 4.5 8 4.5ZM8 3C7.0111 3 6.04442 3.29325 5.22217 3.84266C4.39992 4.39206 3.75906 5.17296 3.38062 6.08659C3.00218 7.00022 2.90315 8.00555 3.09607 8.97545C3.289 9.94536 3.76522 10.8363 4.46448 11.5355C5.16374 12.2348 6.05466 12.711 7.02457 12.9039C7.99447 13.0969 8.99979 12.9978 9.91342 12.6194C10.8271 12.241 11.6079 11.6001 12.1574 10.7779C12.7068 9.95561 13 8.98891 13 8C13 6.67392 12.4732 5.40215 11.5356 4.46447C10.5979 3.52678 9.32608 3 8 3Z" fill="#1E1E1E"/>
<path d="M8.75 0.75C8.75 0.335786 8.41421 0 8 0C7.58579 0 7.25 0.335786 7.25 0.75V3.25C7.25 3.66421 7.58579 4 8 4C8.41421 4 8.75 3.66421 8.75 3.25V0.75Z" fill="#1E1E1E"/>
<path d="M8.75 12.75C8.75 12.3358 8.41421 12 8 12C7.58579 12 7.25 12.3358 7.25 12.75V15.25C7.25 15.6642 7.58579 16 8 16C8.41421 16 8.75 15.6642 8.75 15.25V12.75Z" fill="#1E1E1E"/>
<path d="M15.25 8.75C15.6642 8.75 16 8.41421 16 8C16 7.58579 15.6642 7.25 15.25 7.25H12.75C12.3358 7.25 12 7.58579 12 8C12 8.41421 12.3358 8.75 12.75 8.75H15.25Z" fill="#1E1E1E"/>
<path d="M3.25 8.75C3.66421 8.75 4 8.41421 4 8C4 7.58579 3.66421 7.25 3.25 7.25H0.75C0.335786 7.25 0 7.58579 0 8C0 8.41421 0.335786 8.75 0.75 8.75H3.25Z" fill="#1E1E1E"/>
<path d="M3.40154 2.33869C3.10864 2.0458 2.63377 2.0458 2.34088 2.33869C2.04798 2.63158 2.04798 3.10646 2.34088 3.39935L4.10864 5.16712C4.40154 5.46001 4.87641 5.46001 5.1693 5.16712C5.4622 4.87422 5.4622 4.39935 5.1693 4.10646L3.40154 2.33869Z" fill="#1E1E1E"/>
<path d="M11.8908 10.8257C11.5979 10.5329 11.123 10.5329 10.8301 10.8257C10.5372 11.1186 10.5372 11.5935 10.8301 11.8864L12.5979 13.6542C12.8908 13.9471 13.3657 13.9471 13.6586 13.6542C13.9515 13.3613 13.9515 12.8864 13.6586 12.5935L11.8908 10.8257Z" fill="#1E1E1E"/>
<path d="M13.6573 3.39775C13.9502 3.10486 13.9502 2.62999 13.6573 2.33709C13.3644 2.0442 12.8895 2.0442 12.5966 2.33709L10.8289 4.10486C10.536 4.39775 10.536 4.87263 10.8289 5.16552C11.1217 5.45841 11.5966 5.45841 11.8895 5.16552L13.6573 3.39775Z" fill="#1E1E1E"/>
<path d="M5.17779 11.8948C5.47068 11.6019 5.47068 11.1271 5.17779 10.8342C4.8849 10.5413 4.41002 10.5413 4.11713 10.8342L2.34936 12.6019C2.05647 12.8948 2.05647 13.3697 2.34936 13.6626C2.64226 13.9555 3.11713 13.9555 3.41002 13.6626L5.17779 11.8948Z" fill="#1E1E1E"/>
</g>
<defs>
<clipPath id="clip0_390_1048">
<rect width="16" height="16" fill="white"/>
</clipPath>
</defs>
</svg>
