<svg width="16" height="16" viewBox="0 0 16 16" fill="none" xmlns="http://www.w3.org/2000/svg">
<g clip-path="url(#clip0_492_57)">
<path d="M7.88032 16C7.71624 15.9533 7.57444 15.8482 7.48237 15.7045C7.3903 15.5609 7.35429 15.3886 7.38032 15.22C7.38032 15.06 7.38032 14.91 7.38032 14.75C7.38533 14.5872 7.45212 14.4323 7.56733 14.3171C7.68253 14.2019 7.8371 14.135 7.99995 14.13C8.16531 14.13 8.32398 14.195 8.44184 14.311C8.5597 14.427 8.62769 14.5847 8.63032 14.75C8.63032 14.9 8.63032 15.06 8.63032 15.22C8.65634 15.3886 8.61985 15.5609 8.52778 15.7045C8.43571 15.8482 8.2944 15.9533 8.13032 16H7.88032Z" fill="#1E1E1E"/>
<path d="M0 7.86999C0.0427422 7.70349 0.147277 7.55938 0.291992 7.46661C0.436707 7.37384 0.611137 7.33931 0.780273 7.36999C0.940273 7.36999 1.09 7.36999 1.25 7.36999C1.41285 7.375 1.5679 7.44192 1.68311 7.55712C1.79831 7.67233 1.8651 7.82714 1.87012 7.98999C1.87014 8.15535 1.80496 8.31408 1.68896 8.43194C1.57297 8.54981 1.41535 8.61737 1.25 8.61999H0.780273C0.611661 8.64602 0.439042 8.60958 0.29541 8.51751C0.151778 8.42544 0.0467484 8.28407 0 8.11999V7.86999Z" fill="#1E1E1E"/>
<path d="M8.01026 3.07001C8.98575 3.07001 9.93906 3.3594 10.75 3.90155C11.561 4.44371 12.1931 5.21424 12.5659 6.11567C12.9388 7.01709 13.0358 8.00886 12.8447 8.96546C12.6537 9.92206 12.1832 10.8005 11.4927 11.4896C10.8022 12.1786 9.92281 12.6474 8.96583 12.8365C8.00885 13.0256 7.01737 12.9265 6.11671 12.5518C5.21605 12.1771 4.44677 11.5437 3.90626 10.7317C3.36575 9.91964 3.07811 8.96548 3.08009 7.98999C3.08537 6.68502 3.60707 5.43513 4.53077 4.51331C5.45447 3.59149 6.70529 3.07264 8.01026 3.07001ZM6.91017 4.5C6.30554 4.68542 5.75903 5.02395 5.32374 5.48273C4.88846 5.94151 4.57919 6.505 4.42579 7.11853C4.27239 7.73207 4.28011 8.37478 4.44825 8.98444C4.61639 9.5941 4.93905 10.15 5.38526 10.5981C5.83148 11.0463 6.38621 11.3716 6.99513 11.5424C7.60405 11.7132 8.24666 11.7237 8.86085 11.5729C9.47504 11.4222 10.0398 11.1154 10.5005 10.6821C10.9612 10.2488 11.3022 9.70379 11.4902 9.09998C10.8602 9.59006 10.0725 9.83276 9.27589 9.78229C8.47924 9.73183 7.72826 9.39173 7.16505 8.82605C6.60183 8.26038 6.26527 7.50823 6.21827 6.71137C6.17128 5.91451 6.41734 5.12796 6.91017 4.5ZM9.64015 8.5C9.9434 8.49635 10.2394 8.40709 10.4942 8.24256C10.7489 8.07802 10.952 7.84492 11.0801 7.57001C11.2384 7.28653 11.3096 6.9626 11.2847 6.63886C11.2598 6.31511 11.1398 6.00594 10.94 5.75C10.7331 5.46986 10.4873 5.22069 10.21 5.01001C9.97434 4.8383 9.69976 4.72851 9.41065 4.6908C9.12154 4.65309 8.82746 4.68866 8.55567 4.79419C8.28388 4.89972 8.0429 5.07188 7.85499 5.2948C7.66708 5.51773 7.538 5.78428 7.47999 6.07001C7.42656 6.38084 7.44306 6.69964 7.52784 7.00342C7.61262 7.3072 7.76356 7.58836 7.97022 7.8266C8.17689 8.06484 8.4339 8.25422 8.72267 8.38105C9.01143 8.50788 9.32489 8.569 9.64015 8.56V8.5Z" fill="#1E1E1E"/>
<path d="M13.8501 2.87C13.796 2.99656 13.7293 3.11718 13.6504 3.22998C13.5238 3.37639 13.3866 3.51345 13.2402 3.64002C13.1832 3.70087 13.1141 3.74937 13.0376 3.78253C12.9611 3.81569 12.8783 3.83276 12.7949 3.83276C12.7115 3.83276 12.6293 3.81569 12.5527 3.78253C12.4762 3.74937 12.4072 3.70087 12.3501 3.64002C12.2902 3.58136 12.2429 3.51135 12.2104 3.43408C12.178 3.35681 12.1611 3.27382 12.1611 3.19C12.1611 3.10619 12.178 3.02319 12.2104 2.94592C12.2429 2.86865 12.2902 2.79865 12.3501 2.73999C12.4901 2.58999 12.6403 2.42998 12.8003 2.28998C12.8882 2.20651 12.9993 2.15217 13.1191 2.13428C13.239 2.11639 13.3618 2.13583 13.4702 2.19C13.5947 2.25189 13.6973 2.34992 13.7651 2.47125C13.8329 2.59259 13.8626 2.73156 13.8501 2.87Z" fill="#1E1E1E"/>
<path d="M3.85986 12.86C3.81356 12.982 3.74911 13.0966 3.66943 13.2C3.53236 13.3655 3.38214 13.5193 3.21973 13.66C3.1621 13.718 3.09358 13.7642 3.01807 13.7956C2.94255 13.827 2.86158 13.8432 2.77979 13.8432C2.69799 13.8432 2.61702 13.827 2.5415 13.7956C2.46599 13.7642 2.39747 13.718 2.33984 13.66C2.28209 13.6032 2.2359 13.5355 2.20459 13.4608C2.17328 13.3861 2.15723 13.306 2.15723 13.225C2.15723 13.144 2.17328 13.0638 2.20459 12.9891C2.2359 12.9145 2.28209 12.8468 2.33984 12.79C2.47968 12.6302 2.62972 12.4799 2.78955 12.34C2.87788 12.2541 2.99064 12.1974 3.1123 12.1777C3.23397 12.158 3.35881 12.1763 3.46973 12.23C3.58949 12.285 3.6904 12.3742 3.75977 12.4862C3.82914 12.5983 3.86403 12.7283 3.85986 12.86Z" fill="#1E1E1E"/>
<path d="M3.85033 3.15001C3.86132 3.2766 3.8337 3.4035 3.77123 3.51415C3.70877 3.6248 3.61429 3.71401 3.50024 3.77001C3.40031 3.82694 3.28564 3.85167 3.17114 3.84093C3.05663 3.8302 2.9482 3.78452 2.86059 3.71001C2.65836 3.53622 2.46762 3.34914 2.29028 3.15001C2.19757 3.03073 2.15195 2.88167 2.16137 2.73089C2.17079 2.5801 2.23472 2.43793 2.34155 2.33111C2.44837 2.22428 2.59067 2.16016 2.74145 2.15075C2.89223 2.14133 3.04111 2.18725 3.16039 2.27996C3.36519 2.45818 3.55559 2.65211 3.73022 2.85998C3.78619 2.94923 3.82687 3.04731 3.85033 3.15001Z" fill="#1E1E1E"/>
<path d="M12.1599 12.85C12.1482 12.722 12.1756 12.5935 12.238 12.4811C12.3004 12.3687 12.3951 12.2777 12.51 12.22C12.6131 12.1598 12.7325 12.1341 12.8513 12.1467C12.97 12.1593 13.0814 12.2095 13.1696 12.29C13.3643 12.4547 13.545 12.6353 13.7097 12.83C13.8066 12.9503 13.8546 13.1028 13.8435 13.2569C13.8323 13.4109 13.7633 13.5549 13.6501 13.66C13.5373 13.7647 13.389 13.823 13.2351 13.823C13.0811 13.823 12.9328 13.7647 12.82 13.66C12.6376 13.4993 12.4669 13.3255 12.3098 13.14C12.2442 13.0522 12.1936 12.9542 12.1599 12.85Z" fill="#1E1E1E"/>
<path d="M15.0698 8.62H14.7598C14.6076 8.60071 14.4676 8.52657 14.3662 8.4115C14.2648 8.29644 14.209 8.14837 14.209 7.995C14.209 7.84163 14.2648 7.69356 14.3662 7.5785C14.4676 7.46343 14.6076 7.38928 14.7598 7.37H15.3999C15.5521 7.38928 15.6916 7.46343 15.793 7.5785C15.8944 7.69356 15.9507 7.84163 15.9507 7.995C15.9507 8.14837 15.8944 8.29644 15.793 8.4115C15.6916 8.52657 15.5521 8.60071 15.3999 8.62H15.0698Z" fill="#1E1E1E"/>
<path d="M7.37988 0.909977V0.619999C7.39917 0.467849 7.47332 0.327966 7.58838 0.226566C7.70344 0.125166 7.85152 0.0692177 8.00488 0.0692177C8.15825 0.0692177 8.30632 0.125166 8.42139 0.226566C8.53645 0.327966 8.6106 0.467849 8.62988 0.619999C8.62988 0.829999 8.62988 1.05001 8.62988 1.26001C8.62469 1.42361 8.55558 1.57877 8.43799 1.69263C8.3204 1.80649 8.16319 1.87008 7.99951 1.87C7.83508 1.87 7.67731 1.80469 7.56104 1.68842C7.44476 1.57215 7.37988 1.41444 7.37988 1.25V0.909977Z" fill="#1E1E1E"/>
</g>
<defs>
<clipPath id="clip0_492_57">
<rect width="16" height="16" fill="white"/>
</clipPath>
</defs>
</svg>
