<svg width="73" height="3" viewBox="0 0 73 3" fill="none" xmlns="http://www.w3.org/2000/svg">
<g clip-path="url(#clip0_390_1454)">
<path d="M0 0.5C4.05 0.5 4.05002 2.5 8.11002 2.5C12.17 2.5 12.11 0.5 16.21 0.5C20.31 0.5 20.27 2.5 24.32 2.5C28.37 2.5 28.38 0.5 32.43 0.5C36.48 0.5 36.49 2.5 40.54 2.5C44.59 2.5 44.6 0.5 48.65 0.5C52.7 0.5 52.71 2.5 56.76 2.5C60.81 2.5 60.82 0.5 64.88 0.5C68.94 0.5 68.94 2.5 73 2.5" stroke="#023ED4" stroke-miterlimit="10"/>
</g>
<defs>
<clipPath id="clip0_390_1454">
<rect width="73" height="3" fill="white"/>
</clipPath>
</defs>
</svg>
