<svg width="53" height="15" viewBox="0 0 53 15" fill="none" xmlns="http://www.w3.org/2000/svg">
<g clip-path="url(#clip0_0_1)">
<path d="M199.96 10.9901C197.49 11.0445 195.065 10.3203 193.03 8.92005C191.127 7.66173 188.896 6.99082 186.615 6.99082C184.334 6.99082 182.103 7.66173 180.2 8.92005C178.143 10.2703 175.736 10.9898 173.275 10.9898C170.814 10.9898 168.407 10.2703 166.35 8.92005C164.449 7.66135 162.22 6.99015 159.94 6.99015C157.66 6.99015 155.431 7.66135 153.53 8.92005C151.473 10.2703 149.066 10.9898 146.605 10.9898C144.144 10.9898 141.737 10.2703 139.68 8.92005C137.779 7.66135 135.55 6.99015 133.27 6.99015C130.99 6.99015 128.761 7.66135 126.86 8.92005C124.803 10.2703 122.396 10.9898 119.935 10.9898C117.474 10.9898 115.067 10.2703 113.01 8.92005C111.109 7.66135 108.88 6.99015 106.6 6.99015C104.32 6.99015 102.091 7.66135 100.19 8.92005C98.1348 10.2707 95.7292 10.9904 93.27 10.9904C90.8107 10.9904 88.4052 10.2707 86.35 8.92005C84.4491 7.66135 82.2198 6.99015 79.94 6.99015C77.6602 6.99015 75.4308 7.66135 73.53 8.92005C71.4728 10.2703 69.0657 10.9898 66.6049 10.9898C64.1442 10.9898 61.7371 10.2703 59.68 8.92005C57.7791 7.66135 55.5498 6.99015 53.27 6.99015C50.9902 6.99015 48.7608 7.66135 46.86 8.92005C44.8028 10.2703 42.3957 10.9898 39.935 10.9898C37.4742 10.9898 35.0671 10.2703 33.01 8.92005C31.1111 7.66097 28.8833 6.98945 26.605 6.98945C24.3266 6.98945 22.0988 7.66097 20.2 8.92005C18.1428 10.2703 15.7357 10.9898 13.275 10.9898C10.8142 10.9898 8.40714 10.2703 6.34996 8.92005C4.45113 7.66097 2.22331 6.98945 -0.0550385 6.98945C-2.33339 6.98945 -4.5612 7.66097 -6.46004 8.92005C-8.51722 10.2703 -10.9243 10.9898 -13.385 10.9898C-15.8458 10.9898 -18.2529 10.2703 -20.31 8.92005C-22.2089 7.66097 -24.4367 6.98945 -26.715 6.98945C-28.9934 6.98945 -31.2212 7.66097 -33.12 8.92005C-35.1772 10.2703 -37.5843 10.9898 -40.045 10.9898C-42.5058 10.9898 -44.9128 10.2703 -46.97 8.92005C-48.8709 7.66135 -51.1002 6.99015 -53.38 6.99015C-55.6598 6.99015 -57.8892 7.66135 -59.79 8.92005C-61.8452 10.2707 -64.2508 10.9904 -66.71 10.9904C-69.1693 10.9904 -71.5748 10.2707 -73.63 8.92005C-75.5096 7.61656 -77.7533 6.94101 -80.04 6.99006V5.99006C-77.574 5.94178 -75.1545 6.66554 -73.12 8.06007C-71.2192 9.31877 -68.9898 9.98997 -66.71 9.98997C-64.4302 9.98997 -62.2009 9.31877 -60.3 8.06007C-58.2448 6.70941 -55.8393 5.98972 -53.38 5.98972C-50.9208 5.98972 -48.5152 6.70941 -46.46 8.06007C-44.5592 9.31877 -42.3298 9.98997 -40.05 9.98997C-37.7702 9.98997 -35.5409 9.31877 -33.64 8.06007C-31.5829 6.70977 -29.1758 5.99037 -26.715 5.99037C-24.2543 5.99037 -21.8472 6.70977 -19.79 8.06007C-17.8912 9.31916 -15.6634 9.99067 -13.385 9.99067C-11.1067 9.99067 -8.87888 9.31916 -6.98004 8.06007C-4.92485 6.70941 -2.51933 5.98972 -0.0600433 5.98972C2.39924 5.98972 4.80476 6.70941 6.85995 8.06007C8.76079 9.31877 10.9902 9.98997 13.27 9.98997C15.5498 9.98997 17.7791 9.31877 19.68 8.06007C21.7371 6.70977 24.1442 5.99037 26.605 5.99037C29.0657 5.99037 31.4728 6.70977 33.53 8.06007C35.4308 9.31877 37.6601 9.98997 39.94 9.98997C42.2198 9.98997 44.4491 9.31877 46.35 8.06007C48.4052 6.70941 50.8107 5.98972 53.27 5.98972C55.7292 5.98972 58.1348 6.70941 60.19 8.06007C62.0908 9.31877 64.3202 9.98997 66.6 9.98997C68.8798 9.98997 71.1091 9.31877 73.0099 8.06007C75.0671 6.70977 77.4742 5.99037 79.935 5.99037C82.3957 5.99037 84.8028 6.70977 86.86 8.06007C88.7608 9.31877 90.9902 9.98997 93.27 9.98997C95.5498 9.98997 97.7791 9.31877 99.68 8.06007C101.737 6.70977 104.144 5.99037 106.605 5.99037C109.066 5.99037 111.473 6.70977 113.53 8.06007C115.429 9.31916 117.657 9.99067 119.935 9.99067C122.213 9.99067 124.441 9.31916 126.34 8.06007C128.397 6.70977 130.804 5.99037 133.265 5.99037C135.726 5.99037 138.133 6.70977 140.19 8.06007C142.091 9.31877 144.32 9.98997 146.6 9.98997C148.88 9.98997 151.109 9.31877 153.01 8.06007C155.067 6.70977 157.474 5.99037 159.935 5.99037C162.396 5.99037 164.803 6.70977 166.86 8.06007C168.763 9.31839 170.994 9.9893 173.275 9.9893C175.556 9.9893 177.787 9.31839 179.69 8.06007C181.747 6.70977 184.154 5.99037 186.615 5.99037C189.076 5.99037 191.483 6.70977 193.54 8.06007C195.42 9.36937 197.669 10.0454 199.96 9.99006V10.9901Z" fill="#E6E8ED"/>
</g>
<defs>
<clipPath id="clip0_0_1">
<rect width="280" height="5" fill="white" transform="translate(-80 6)"/>
</clipPath>
</defs>
</svg>
