<svg width="280" height="5" viewBox="0 0 280 5" fill="none" xmlns="http://www.w3.org/2000/svg">
<g clip-path="url(#clip0_650_206)">
<path d="M279.96 4.98957C277.49 5.044 275.065 4.31979 273.03 2.91956C271.127 1.66124 268.896 0.990335 266.615 0.990335C264.334 0.990335 262.103 1.66124 260.2 2.91956C258.143 4.26986 255.736 4.98927 253.275 4.98927C250.814 4.98927 248.407 4.26986 246.35 2.91956C244.449 1.66086 242.22 0.989663 239.94 0.989663C237.66 0.989663 235.431 1.66086 233.53 2.91956C231.473 4.26986 229.066 4.98927 226.605 4.98927C224.144 4.98927 221.737 4.26986 219.68 2.91956C217.779 1.66086 215.55 0.989663 213.27 0.989663C210.99 0.989663 208.761 1.66086 206.86 2.91956C204.803 4.26986 202.396 4.98927 199.935 4.98927C197.474 4.98927 195.067 4.26986 193.01 2.91956C191.109 1.66086 188.88 0.989663 186.6 0.989663C184.32 0.989663 182.091 1.66086 180.19 2.91956C178.135 4.27022 175.729 4.98991 173.27 4.98991C170.811 4.98991 168.405 4.27022 166.35 2.91956C164.449 1.66086 162.22 0.989663 159.94 0.989663C157.66 0.989663 155.431 1.66086 153.53 2.91956C151.473 4.26986 149.066 4.98927 146.605 4.98927C144.144 4.98927 141.737 4.26986 139.68 2.91956C137.779 1.66086 135.55 0.989663 133.27 0.989663C130.99 0.989663 128.761 1.66086 126.86 2.91956C124.803 4.26986 122.396 4.98927 119.935 4.98927C117.474 4.98927 115.067 4.26986 113.01 2.91956C111.111 1.66048 108.883 0.988961 106.605 0.988961C104.327 0.988961 102.099 1.66048 100.2 2.91956C98.1428 4.26986 95.7357 4.98927 93.275 4.98927C90.8142 4.98927 88.4071 4.26986 86.35 2.91956C84.4511 1.66048 82.2233 0.988961 79.945 0.988961C77.6666 0.988961 75.4388 1.66048 73.54 2.91956C71.4828 4.26986 69.0757 4.98927 66.615 4.98927C64.1542 4.98927 61.7471 4.26986 59.69 2.91956C57.7911 1.66048 55.5633 0.988961 53.285 0.988961C51.0066 0.988961 48.7788 1.66048 46.88 2.91956C44.8228 4.26986 42.4157 4.98927 39.955 4.98927C37.4942 4.98927 35.0872 4.26986 33.03 2.91956C31.1291 1.66086 28.8998 0.989663 26.62 0.989663C24.3402 0.989663 22.1108 1.66086 20.21 2.91956C18.1548 4.27022 15.7492 4.98991 13.29 4.98991C10.8307 4.98991 8.42516 4.27022 6.36996 2.91956C4.49043 1.61607 2.24674 0.94052 -0.0400391 0.989572V-0.0104282C2.42602 -0.0587033 4.84549 0.665049 6.87996 2.05958C8.7808 3.31828 11.0102 3.98948 13.29 3.98948C15.5698 3.98948 17.7991 3.31828 19.7 2.05958C21.7552 0.708925 24.1607 -0.0107639 26.62 -0.0107639C29.0792 -0.0107639 31.4848 0.708925 33.54 2.05958C35.4408 3.31828 37.6702 3.98948 39.95 3.98948C42.2298 3.98948 44.4591 3.31828 46.36 2.05958C48.4171 0.709286 50.8242 -0.010123 53.285 -0.010123C55.7457 -0.010123 58.1528 0.709286 60.21 2.05958C62.1088 3.31867 64.3366 3.99018 66.615 3.99018C68.8933 3.99018 71.1211 3.31867 73.02 2.05958C75.0751 0.708925 77.4807 -0.0107639 79.94 -0.0107639C82.3992 -0.0107639 84.8048 0.708925 86.86 2.05958C88.7608 3.31828 90.9902 3.98948 93.27 3.98948C95.5498 3.98948 97.7791 3.31828 99.68 2.05958C101.737 0.709286 104.144 -0.010123 106.605 -0.010123C109.066 -0.010123 111.473 0.709286 113.53 2.05958C115.431 3.31828 117.66 3.98948 119.94 3.98948C122.22 3.98948 124.449 3.31828 126.35 2.05958C128.405 0.708925 130.811 -0.0107639 133.27 -0.0107639C135.729 -0.0107639 138.135 0.708925 140.19 2.05958C142.091 3.31828 144.32 3.98948 146.6 3.98948C148.88 3.98948 151.109 3.31828 153.01 2.05958C155.067 0.709286 157.474 -0.010123 159.935 -0.010123C162.396 -0.010123 164.803 0.709286 166.86 2.05958C168.761 3.31828 170.99 3.98948 173.27 3.98948C175.55 3.98948 177.779 3.31828 179.68 2.05958C181.737 0.709286 184.144 -0.010123 186.605 -0.010123C189.066 -0.010123 191.473 0.709286 193.53 2.05958C195.429 3.31867 197.657 3.99018 199.935 3.99018C202.213 3.99018 204.441 3.31867 206.34 2.05958C208.397 0.709286 210.804 -0.010123 213.265 -0.010123C215.726 -0.010123 218.133 0.709286 220.19 2.05958C222.091 3.31828 224.32 3.98948 226.6 3.98948C228.88 3.98948 231.109 3.31828 233.01 2.05958C235.067 0.709286 237.474 -0.010123 239.935 -0.010123C242.396 -0.010123 244.803 0.709286 246.86 2.05958C248.763 3.31791 250.994 3.98881 253.275 3.98881C255.556 3.98881 257.787 3.31791 259.69 2.05958C261.747 0.709286 264.154 -0.010123 266.615 -0.010123C269.076 -0.010123 271.483 0.709286 273.54 2.05958C275.42 3.36888 277.669 4.04491 279.96 3.98957V4.98957Z" fill="#D9D9D9"/>
</g>
<defs>
<clipPath id="clip0_650_206">
<rect width="280" height="5" fill="white"/>
</clipPath>
</defs>
</svg>
