<svg width="74" height="6" viewBox="0 0 74 6" fill="none" xmlns="http://www.w3.org/2000/svg">
<g clip-path="url(#clip0_0_1)">
<path d="M-74 1C-67.82 1 -67.82 5 -61.65 5C-55.48 5 -55.47 1 -49.3 1C-43.13 1 -43.13 5 -36.95 5C-30.77 5 -30.77 1 -24.6 1C-18.43 1 -18.42 5 -12.25 5C-6.08 5 -6.06999 1 0.100006 1C6.27001 1 6.28001 5 12.46 5C18.64 5 18.63 1 24.81 1C30.99 1 30.98 5 37.16 5C43.34 5 43.34 1 49.51 1C55.68 1 55.69 5 61.87 5C68.05 5 68.04 1 74.22 1C80.4 1 80.39 5 86.57 5C92.75 5 92.75 1 98.93 1C105.11 1 105.1 5 111.28 5C117.46 5 117.46 1 123.64 1C129.82 1 129.82 5 136 5" stroke="#023ED4" stroke-width="2" stroke-miterlimit="10"/>
</g>
<defs>
<clipPath id="clip0_0_1">
<rect width="210" height="6" fill="white" transform="translate(-74)"/>
</clipPath>
</defs>
</svg>
