<svg width="770" height="5" viewBox="0 0 770 5" fill="none" xmlns="http://www.w3.org/2000/svg">
<g clip-path="url(#clip0_253_2087)">
<path d="M0 0.5C6.3 0.5 6.3 4.5 12.61 4.5C18.92 4.5 18.92 0.5 25.23 0.5C31.54 0.5 31.54 4.5 37.85 4.5C44.16 4.5 44.16 0.5 50.47 0.5C56.78 0.5 56.78 4.5 63.09 4.5C69.4 4.5 69.4 0.5 75.71 0.5C82.02 0.5 82.01 4.5 88.32 4.5C94.63 4.5 94.63 0.5 100.94 0.5C107.25 0.5 107.25 4.5 113.56 4.5C119.87 4.5 119.87 0.5 126.18 0.5C132.49 0.5 132.49 4.5 138.8 4.5C145.11 4.5 145.11 0.5 151.42 0.5C157.73 0.5 157.73 4.5 164.04 4.5C170.35 4.5 170.35 0.5 176.66 0.5C182.97 0.5 182.97 4.5 189.28 4.5C195.59 4.5 195.59 0.5 201.9 0.5C208.21 0.5 208.21 4.5 214.52 4.5C220.83 4.5 220.83 0.5 227.15 0.5C233.47 0.5 233.46 4.5 239.77 4.5C246.08 4.5 246.08 0.5 252.39 0.5C258.7 0.5 258.7 4.5 265.01 4.5C271.32 4.5 271.32 0.5 277.63 0.5C283.94 0.5 283.94 4.5 290.25 4.5C296.56 4.5 296.56 0.5 302.87 0.5C309.18 0.5 309.18 4.5 315.5 4.5C321.82 4.5 321.81 0.5 328.12 0.5C334.43 0.5 334.43 4.5 340.74 4.5C347.05 4.5 347.05 0.5 353.36 0.5C359.67 0.5 359.67 4.5 365.98 4.5C372.29 4.5 372.3 0.5 378.61 0.5C384.92 0.5 384.92 4.5 391.23 4.5C397.54 4.5 397.54 0.5 403.86 0.5C410.18 0.5 410.17 4.5 416.48 4.5C422.79 4.5 422.79 0.5 429.1 0.5C435.41 0.5 435.41 4.5 441.73 4.5C448.05 4.5 448.04 0.5 454.35 0.5C460.66 0.5 460.66 4.5 466.97 4.5C473.28 4.5 473.29 0.5 479.6 0.5C485.91 0.5 485.91 4.5 492.22 4.5C498.53 4.5 498.53 0.5 504.85 0.5C511.17 0.5 511.16 4.5 517.47 4.5C523.78 4.5 523.78 0.5 530.1 0.5C536.42 0.5 536.41 4.5 542.72 4.5C549.03 4.5 549.03 0.5 555.34 0.5C561.65 0.5 561.65 4.5 567.96 4.5C574.27 4.5 574.27 0.5 580.59 0.5C586.91 0.5 586.9 4.5 593.21 4.5C599.52 4.5 599.52 0.5 605.84 0.5C612.16 0.5 612.15 4.5 618.46 4.5C624.77 4.5 624.77 0.5 631.08 0.5C637.39 0.5 637.4 4.5 643.71 4.5C650.02 4.5 650.02 0.5 656.34 0.5C662.66 0.5 662.65 4.5 668.96 4.5C675.27 4.5 675.28 0.5 681.59 0.5C687.9 0.5 687.9 4.5 694.22 4.5C700.54 4.5 700.53 0.5 706.84 0.5C713.15 0.5 713.15 4.5 719.47 4.5C725.79 4.5 725.78 0.5 732.1 0.5C738.42 0.5 738.41 4.5 744.73 4.5C751.05 4.5 751.04 0.5 757.36 0.5C763.68 0.5 763.68 4.5 770 4.5" stroke="#E6E8ED" stroke-miterlimit="10"/>
</g>
<defs>
<clipPath id="clip0_253_2087">
<rect width="770" height="5" fill="white"/>
</clipPath>
</defs>
</svg>
