<svg width="241" height="5" viewBox="0 0 241 5" fill="none" xmlns="http://www.w3.org/2000/svg">
<g clip-path="url(#clip0_390_1058)">
<path d="M0 0.5C5.73 0.5 5.72999 4.5 11.47 4.5C17.21 4.5 17.21 0.5 22.95 0.5C28.69 0.5 28.68 4.5 34.42 4.5C40.16 4.5 40.15 0.5 45.89 0.5C51.63 0.5 51.63 4.5 57.36 4.5C63.09 4.5 63.1 0.5 68.83 0.5C74.56 0.5 74.57 4.5 80.31 4.5C86.05 4.5 86.05 0.5 91.78 0.5C97.51 0.5 97.52 4.5 103.26 4.5C109 4.5 109 0.5 114.73 0.5C120.46 0.5 120.47 4.5 126.21 4.5C131.95 4.5 131.95 0.5 137.69 0.5C143.43 0.5 143.43 4.5 149.16 4.5C154.89 4.5 154.9 0.5 160.64 0.5C166.38 0.5 166.38 4.5 172.12 4.5C177.86 4.5 177.86 0.5 183.59 0.5C189.32 0.5 189.33 4.5 195.07 4.5C200.81 4.5 200.81 0.5 206.55 0.5C212.29 0.5 212.29 4.5 218.03 4.5C223.77 4.5 223.77 0.5 229.51 0.5C235.25 0.5 235.25 4.5 241 4.5" stroke="#E6E8ED" stroke-miterlimit="10"/>
</g>
<defs>
<clipPath id="clip0_390_1058">
<rect width="241" height="5" fill="white"/>
</clipPath>
</defs>
</svg>
