<svg width="87" height="3" viewBox="0 0 87 3" fill="none" xmlns="http://www.w3.org/2000/svg">
<g clip-path="url(#clip0_390_1465)">
<path d="M0 0.5C3.95 0.5 3.95002 2.5 7.90002 2.5C11.85 2.5 11.9 0.5 15.81 0.5C19.72 0.5 19.81 2.5 23.72 2.5C27.63 2.5 27.72 0.5 31.63 0.5C35.54 0.5 35.58 2.5 39.53 2.5C43.48 2.5 43.53 0.5 47.44 0.5C51.35 0.5 51.39 2.5 55.35 2.5C59.31 2.5 59.35 0.5 63.26 0.5C67.17 0.5 67.21 2.5 71.17 2.5C75.13 2.5 75.17 0.5 79.08 0.5C82.99 0.5 83.08 2.5 87 2.5" stroke="#023ED4" stroke-miterlimit="10"/>
</g>
<defs>
<clipPath id="clip0_390_1465">
<rect width="87" height="3" fill="white"/>
</clipPath>
</defs>
</svg>
