<svg width="63" height="12" viewBox="0 0 63 12" fill="none" xmlns="http://www.w3.org/2000/svg">
<g clip-path="url(#clip0_710_4)">
<path d="M-380 4C-372.09 4 -372.09 8 -364.18 8C-356.27 8 -356.27 4 -348.36 4C-340.45 4 -340.44 8 -332.53 8C-324.62 8 -324.62 4 -316.71 4C-308.8 4 -308.8 8 -300.89 8C-292.98 8 -292.98 4 -285.07 4C-277.16 4 -277.16 8 -269.25 8C-261.34 8 -261.33 4 -253.42 4C-245.51 4 -245.51 8 -237.6 8C-229.69 8 -229.69 4 -221.78 4C-213.87 4 -213.87 8 -205.96 8C-198.05 8 -198.05 4 -190.14 4C-182.23 4 -182.22 8 -174.31 8C-166.4 8 -166.4 4 -158.49 4C-150.58 4 -150.58 8 -142.67 8C-134.76 8 -134.76 4 -126.85 4C-118.94 4 -118.93 8 -111.02 8C-103.11 8 -103.11 4 -95.2 4C-87.29 4 -87.29 8 -79.38 8C-71.47 8 -71.47 4 -63.55 4C-55.63 4 -55.64 8 -47.73 8C-39.82 8 -39.82 4 -31.91 4C-24 4 -24 8 -16.09 8C-8.18 8 -8.17001 4 -0.26001 4C7.64999 4 7.65 8 15.56 8C23.47 8 23.47 4 31.38 4C39.29 4 39.3 8 47.21 8C55.12 8 55.12 4 63.03 4C70.94 4 70.94 8 78.85 8C86.76 8 86.77 4 94.68 4C102.59 4 102.59 8 110.5 8C118.41 8 118.41 4 126.32 4C134.23 4 134.24 8 142.15 8C150.06 8 150.06 4 157.97 4C165.88 4 165.88 8 173.79 8C181.7 8 181.71 4 189.62 4C197.53 4 197.53 8 205.44 8C213.35 8 213.35 4 221.27 4C229.19 4 229.18 8 237.09 8C245 8 245 4 252.91 4C260.82 4 260.83 8 268.74 8C276.65 8 276.65 4 284.56 4C292.47 4 292.47 8 300.38 8C308.29 8 308.29 4 316.21 4C324.13 4 324.12 8 332.03 8C339.94 8 339.94 4 347.85 4C355.76 4 355.76 8 363.67 8C371.58 8 371.58 4 379.49 4C387.4 4 387.4 8 395.31 8C403.22 8 403.22 4 411.13 4C419.04 4 419.04 8 426.95 8C434.86 8 434.87 4 442.78 4C450.69 4 450.69 8 458.6 8C466.51 8 466.51 4 474.42 4C482.33 4 482.33 8 490.25 8C498.17 8 498.16 4 506.07 4C513.98 4 513.98 8 521.89 8C529.8 8 529.8 4 537.71 4C545.62 4 545.63 8 553.54 8C561.45 8 561.45 4 569.36 4C577.27 4 577.27 8 585.18 8C593.09 8 593.1 4 601.01 4C608.92 4 608.92 8 616.83 8C624.74 8 624.75 4 632.66 4C640.57 4 640.57 8 648.48 8C656.39 8 656.4 4 664.31 4C672.22 4 672.22 8 680.14 8C688.06 8 688.05 4 695.96 4C703.87 4 703.87 8 711.79 8C719.71 8 719.7 4 727.61 4C735.52 4 735.53 8 743.44 8C751.35 8 751.35 4 759.26 4C767.17 4 767.18 8 775.09 8C783 8 783 4 790.92 4C798.84 4 798.83 8 806.74 8C814.65 8 814.66 4 822.57 4C830.48 4 830.48 8 838.4 8C846.32 8 846.31 4 854.22 4C862.13 4 862.14 8 870.05 8C877.96 8 877.96 4 885.87 4C893.78 4 893.79 8 901.7 8C909.61 8 909.61 4 917.53 4C925.45 4 925.44 8 933.35 8C941.26 8 941.27 4 949.18 4C957.09 4 957.1 8 965.01 8C972.92 8 972.93 4 980.84 4C988.75 4 988.75 8 996.67 8C1004.59 8 1004.58 4 1012.5 4C1020.42 4 1020.41 8 1028.33 8C1036.25 8 1036.25 4 1044.17 4C1052.09 4 1052.08 8 1060 8" stroke="#023ED4" stroke-width="8" stroke-miterlimit="10"/>
</g>
<defs>
<clipPath id="clip0_710_4">
<rect width="1440" height="12" fill="white" transform="translate(-380)"/>
</clipPath>
</defs>
</svg>
