<svg width="1170" height="6" viewBox="0 0 1170 6" fill="none" xmlns="http://www.w3.org/2000/svg">
<g clip-path="url(#clip0_390_971)">
<path d="M0 1C6.43 1 6.43001 5 12.85 5C19.27 5 19.28 1 25.71 1C32.14 1 32.14 5 38.57 5C45 5 44.99 1 51.42 1C57.85 1 57.85 5 64.28 5C70.71 5 70.7 1 77.13 1C83.56 1 83.56 5 89.99 5C96.42 5 96.42 1 102.84 1C109.26 1 109.27 5 115.7 5C122.13 5 122.13 1 128.55 1C134.97 1 134.98 5 141.41 5C147.84 5 147.84 1 154.27 1C160.7 1 160.69 5 167.12 5C173.55 5 173.55 1 179.98 1C186.41 1 186.41 5 192.83 5C199.25 5 199.26 1 205.69 1C212.12 1 212.12 5 218.55 5C224.98 5 224.97 1 231.4 1C237.83 1 237.83 5 244.26 5C250.69 5 250.68 1 257.11 1C263.54 1 263.54 5 269.97 5C276.4 5 276.4 1 282.83 1C289.26 1 289.25 5 295.68 5C302.11 5 302.11 1 308.54 1C314.97 1 314.97 5 321.39 5C327.81 5 327.82 1 334.25 1C340.68 1 340.68 5 347.11 5C353.54 5 353.53 1 359.96 1C366.39 1 366.39 5 372.82 5C379.25 5 379.25 1 385.68 1C392.11 1 392.1 5 398.53 5C404.96 5 404.96 1 411.38 1C417.8 1 417.81 5 424.23 5C430.65 5 430.66 1 437.09 1C443.52 1 443.52 5 449.95 5C456.38 5 456.37 1 462.8 1C469.23 1 469.22 5 475.65 5C482.08 5 482.08 1 488.5 1C494.92 1 494.93 5 501.36 5C507.79 5 507.79 1 514.21 1C520.63 1 520.64 5 527.07 5C533.5 5 533.49 1 539.92 1C546.35 1 546.35 5 552.77 5C559.19 5 559.2 1 565.63 1C572.06 1 572.06 5 578.49 5C584.92 5 584.91 1 591.34 1C597.77 1 597.77 5 604.2 5C610.63 5 610.63 1 617.05 1C623.47 1 623.48 5 629.91 5C636.34 5 636.34 1 642.76 1C649.18 1 649.19 5 655.62 5C662.05 5 662.05 1 668.48 1C674.91 1 674.91 5 681.33 5C687.75 5 687.76 1 694.19 1C700.62 1 700.62 5 707.05 5C713.48 5 713.48 1 719.9 1C726.32 1 726.33 5 732.76 5C739.19 5 739.19 1 745.62 1C752.05 1 752.05 5 758.47 5C764.89 5 764.9 1 771.33 1C777.76 1 777.76 5 784.19 5C790.62 5 790.62 1 797.05 1C803.48 1 803.48 5 809.91 5C816.34 5 816.34 1 822.77 1C829.2 1 829.2 5 835.62 5C842.04 5 842.05 1 848.48 1C854.91 1 854.91 5 861.34 5C867.77 5 867.77 1 874.2 1C880.63 1 880.63 5 887.06 5C893.49 5 893.49 1 899.92 1C906.35 1 906.35 5 912.78 5C919.21 5 919.21 1 925.64 1C932.07 1 932.07 5 938.5 5C944.93 5 944.93 1 951.36 1C957.79 1 957.79 5 964.22 5C970.65 5 970.64 1 977.07 1C983.5 1 983.5 5 989.93 5C996.36 5 996.36 1 1002.79 1C1009.22 1 1009.22 5 1015.65 5C1022.08 5 1022.08 1 1028.51 1C1034.94 1 1034.94 5 1041.37 5C1047.8 5 1047.8 1 1054.23 1C1060.66 1 1060.66 5 1067.09 5C1073.52 5 1073.52 1 1079.95 1C1086.38 1 1086.38 5 1092.81 5C1099.24 5 1099.24 1 1105.67 1C1112.1 1 1112.1 5 1118.53 5C1124.96 5 1124.97 1 1131.4 1C1137.83 1 1137.83 5 1144.26 5C1150.69 5 1150.69 1 1157.13 1C1163.57 1 1163.56 5 1170 5" stroke="#023ED4" stroke-miterlimit="10"/>
</g>
<defs>
<clipPath id="clip0_390_971">
<rect width="1170" height="6" fill="white"/>
</clipPath>
</defs>
</svg>
