<svg width="23" height="30" viewBox="0 0 23 30" fill="none" xmlns="http://www.w3.org/2000/svg">
<g clip-path="url(#clip0_650_240)">
<path d="M11.5 30L10.8101 29.33C10.3701 28.9 0 18.62 0 11.33C0 8.27998 1.21198 5.35493 3.36865 3.19826C5.52532 1.04159 8.45001 -0.170029 11.5 -0.170029C14.55 -0.170029 17.4752 1.04159 19.6318 3.19826C21.7885 5.35493 23 8.27998 23 11.33C23 18.61 12.6202 28.89 12.1802 29.33L11.5 30ZM11.5 1.84999C8.97062 1.83935 6.54058 2.83261 4.74268 4.61177C2.94477 6.39093 1.92603 8.81063 1.91016 11.34C1.91016 16.87 9.2 24.93 11.5 27.34C13.79 24.93 21.0801 16.87 21.0801 11.34C21.0642 8.81237 20.0472 6.39418 18.2515 4.61531C16.4557 2.83644 14.0276 1.842 11.5 1.84999Z" fill="#FEFEFF"/>
<path d="M11.4998 15.73C10.6322 15.7162 9.78853 15.4462 9.07401 14.9539C8.35949 14.4617 7.80618 13.7692 7.48416 12.9635C7.16215 12.1578 7.08554 11.2749 7.26395 10.4258C7.44236 9.57669 7.86805 8.79927 8.48709 8.19131C9.10613 7.58335 9.89075 7.17199 10.743 7.00894C11.5952 6.84589 12.4769 6.93848 13.2766 7.27499C14.0764 7.6115 14.7588 8.17694 15.2381 8.90023C15.7173 9.62352 15.9719 10.4723 15.97 11.34C15.9568 12.5141 15.4791 13.6352 14.6414 14.4579C13.8037 15.2806 12.6739 15.738 11.4998 15.73ZM11.4998 8.79C10.9954 8.79 10.5026 8.93955 10.0833 9.21975C9.66394 9.49995 9.33683 9.89821 9.14383 10.3642C8.95083 10.8301 8.90042 11.3428 8.99881 11.8375C9.0972 12.3321 9.34043 12.7865 9.69705 13.1432C10.0537 13.4998 10.5081 13.7426 11.0027 13.841C11.4974 13.9394 12.0099 13.8889 12.4759 13.6959C12.9418 13.5029 13.3402 13.1761 13.6204 12.7567C13.9006 12.3374 14.0501 11.8443 14.0501 11.34C14.0474 10.6645 13.7777 10.0175 13.3001 9.53982C12.8224 9.06217 12.1753 8.79264 11.4998 8.79Z" fill="#FEFEFF"/>
</g>
<defs>
<clipPath id="clip0_650_240">
<rect width="23" height="30" fill="white"/>
</clipPath>
</defs>
</svg>
