<svg width="24" height="12" viewBox="0 0 24 12" fill="none" xmlns="http://www.w3.org/2000/svg">
<g clip-path="url(#clip0_613_136)">
<path d="M24 4.03002C22.4444 4.06227 20.9083 3.6791 19.55 2.92002C18.4578 2.33615 17.2385 2.03068 16 2.03068C14.7615 2.03068 13.5422 2.33615 12.45 2.92002C11.0798 3.64844 9.55177 4.02937 8 4.02937C6.44823 4.02937 4.92019 3.64844 3.55 2.92002C2.47082 2.30306 1.2426 1.99514 0 2.03002V0.0300238C1.55478 -0.00575585 3.09095 0.373978 4.45 1.13003C5.53999 1.72081 6.7602 2.03022 8 2.03022C9.2398 2.03022 10.46 1.72081 11.55 1.13003C12.922 0.407475 14.4493 0.0298712 16 0.0298712C17.5507 0.0298712 19.078 0.407475 20.45 1.13003C21.528 1.75096 22.7564 2.06239 24 2.03002V4.03002Z" fill="#023ED4"/>
<path d="M24 12.03C22.4444 12.0623 20.9083 11.6791 19.55 10.92C18.4578 10.3362 17.2385 10.0307 16 10.0307C14.7615 10.0307 13.5422 10.3362 12.45 10.92C11.0798 11.6484 9.55177 12.0294 8 12.0294C6.44823 12.0294 4.92019 11.6484 3.55 10.92C2.47082 10.3031 1.2426 9.99514 0 10.03V8.03002C1.55478 7.99424 3.09095 8.37398 4.45 9.13003C5.53999 9.72081 6.7602 10.0302 8 10.0302C9.2398 10.0302 10.46 9.72081 11.55 9.13003C12.922 8.40747 14.4493 8.02987 16 8.02987C17.5507 8.02987 19.078 8.40747 20.45 9.13003C21.528 9.75096 22.7564 10.0624 24 10.03V12.03Z" fill="#023ED4"/>
</g>
<defs>
<clipPath id="clip0_613_136">
<rect width="24" height="12" fill="white"/>
</clipPath>
</defs>
</svg>
