<svg width="360" height="80" viewBox="0 0 360 80" fill="none" xmlns="http://www.w3.org/2000/svg">
<path d="M-73 1C-64.84 1 -64.8401 5 -56.6801 5C-48.5201 5 -48.52 1 -40.36 1C-32.2 1 -32.2 5 -24.04 5C-15.88 5 -15.88 1 -7.71997 1C0.440029 1 0.439976 5 8.59998 5C16.76 5 16.76 1 24.92 1C33.08 1 33.08 5 41.24 5C49.4 5 49.4001 1 57.5601 1C65.7201 1 65.72 5 73.88 5C82.04 5 82.04 1 90.21 1C98.38 1 98.37 5 106.53 5C114.69 5 114.69 1 122.85 1C131.01 1 131.01 5 139.17 5C147.33 5 147.33 1 155.49 1C163.65 1 163.65 5 171.81 5C179.97 5 179.98 1 188.14 1C196.3 1 196.3 5 204.46 5C212.62 5 212.62 1 220.78 1C228.94 1 228.94 5 237.1 5C245.26 5 245.26 1 253.42 1C261.58 1 261.58 5 269.74 5C277.9 5 277.91 1 286.07 1C294.23 1 294.23 5 302.39 5C310.55 5 310.55 1 318.71 1C326.87 1 326.88 5 335.04 5C343.2 5 343.2 1 351.36 1C359.52 1 359.52 5 367.69 5C375.86 5 375.85 1 384.01 1C392.17 1 392.18 5 400.34 5C408.5 5 408.5 1 416.67 1C424.84 1 424.83 5 433 5" stroke="#D9D9D9" stroke-miterlimit="10"/>
<path d="M-73 6C-64.84 6 -64.8401 10 -56.6801 10C-48.5201 10 -48.52 6 -40.36 6C-32.2 6 -32.2 10 -24.04 10C-15.88 10 -15.88 6 -7.71997 6C0.440029 6 0.439976 10 8.59998 10C16.76 10 16.76 6 24.92 6C33.08 6 33.08 10 41.24 10C49.4 10 49.4001 6 57.5601 6C65.7201 6 65.72 10 73.88 10C82.04 10 82.04 6 90.21 6C98.38 6 98.37 10 106.53 10C114.69 10 114.69 6 122.85 6C131.01 6 131.01 10 139.17 10C147.33 10 147.33 6 155.49 6C163.65 6 163.65 10 171.81 10C179.97 10 179.98 6 188.14 6C196.3 6 196.3 10 204.46 10C212.62 10 212.62 6 220.78 6C228.94 6 228.94 10 237.1 10C245.26 10 245.26 6 253.42 6C261.58 6 261.58 10 269.74 10C277.9 10 277.91 6 286.07 6C294.23 6 294.23 10 302.39 10C310.55 10 310.55 6 318.71 6C326.87 6 326.88 10 335.04 10C343.2 10 343.2 6 351.36 6C359.52 6 359.52 10 367.69 10C375.86 10 375.85 6 384.01 6C392.17 6 392.18 10 400.34 10C408.5 10 408.5 6 416.67 6C424.84 6 424.83 10 433 10" stroke="#D9D9D9" stroke-miterlimit="10"/>
<path d="M-73 11C-64.84 11 -64.8401 15 -56.6801 15C-48.5201 15 -48.52 11 -40.36 11C-32.2 11 -32.2 15 -24.04 15C-15.88 15 -15.88 11 -7.71997 11C0.440029 11 0.439976 15 8.59998 15C16.76 15 16.76 11 24.92 11C33.08 11 33.08 15 41.24 15C49.4 15 49.4001 11 57.5601 11C65.7201 11 65.72 15 73.88 15C82.04 15 82.04 11 90.21 11C98.38 11 98.37 15 106.53 15C114.69 15 114.69 11 122.85 11C131.01 11 131.01 15 139.17 15C147.33 15 147.33 11 155.49 11C163.65 11 163.65 15 171.81 15C179.97 15 179.98 11 188.14 11C196.3 11 196.3 15 204.46 15C212.62 15 212.62 11 220.78 11C228.94 11 228.94 15 237.1 15C245.26 15 245.26 11 253.42 11C261.58 11 261.58 15 269.74 15C277.9 15 277.91 11 286.07 11C294.23 11 294.23 15 302.39 15C310.55 15 310.55 11 318.71 11C326.87 11 326.88 15 335.04 15C343.2 15 343.2 11 351.36 11C359.52 11 359.52 15 367.69 15C375.86 15 375.85 11 384.01 11C392.17 11 392.18 15 400.34 15C408.5 15 408.5 11 416.67 11C424.84 11 424.83 15 433 15" stroke="#D9D9D9" stroke-miterlimit="10"/>
<path d="M-73 16C-64.84 16 -64.8401 20 -56.6801 20C-48.5201 20 -48.52 16 -40.36 16C-32.2 16 -32.2 20 -24.04 20C-15.88 20 -15.88 16 -7.71997 16C0.440029 16 0.439976 20 8.59998 20C16.76 20 16.76 16 24.92 16C33.08 16 33.08 20 41.24 20C49.4 20 49.4001 16 57.5601 16C65.7201 16 65.72 20 73.88 20C82.04 20 82.04 16 90.21 16C98.38 16 98.37 20 106.53 20C114.69 20 114.69 16 122.85 16C131.01 16 131.01 20 139.17 20C147.33 20 147.33 16 155.49 16C163.65 16 163.65 20 171.81 20C179.97 20 179.98 16 188.14 16C196.3 16 196.3 20 204.46 20C212.62 20 212.62 16 220.78 16C228.94 16 228.94 20 237.1 20C245.26 20 245.26 16 253.42 16C261.58 16 261.58 20 269.74 20C277.9 20 277.91 16 286.07 16C294.23 16 294.23 20 302.39 20C310.55 20 310.55 16 318.71 16C326.87 16 326.88 20 335.04 20C343.2 20 343.2 16 351.36 16C359.52 16 359.52 20 367.69 20C375.86 20 375.85 16 384.01 16C392.17 16 392.18 20 400.34 20C408.5 20 408.5 16 416.67 16C424.84 16 424.83 20 433 20" stroke="#D9D9D9" stroke-miterlimit="10"/>
<path d="M-73 21C-64.84 21 -64.8401 25 -56.6801 25C-48.5201 25 -48.52 21 -40.36 21C-32.2 21 -32.2 25 -24.04 25C-15.88 25 -15.88 21 -7.71997 21C0.440029 21 0.439976 25 8.59998 25C16.76 25 16.76 21 24.92 21C33.08 21 33.08 25 41.24 25C49.4 25 49.4001 21 57.5601 21C65.7201 21 65.72 25 73.88 25C82.04 25 82.04 21 90.21 21C98.38 21 98.37 25 106.53 25C114.69 25 114.69 21 122.85 21C131.01 21 131.01 25 139.17 25C147.33 25 147.33 21 155.49 21C163.65 21 163.65 25 171.81 25C179.97 25 179.98 21 188.14 21C196.3 21 196.3 25 204.46 25C212.62 25 212.62 21 220.78 21C228.94 21 228.94 25 237.1 25C245.26 25 245.26 21 253.42 21C261.58 21 261.58 25 269.74 25C277.9 25 277.91 21 286.07 21C294.23 21 294.23 25 302.39 25C310.55 25 310.55 21 318.71 21C326.87 21 326.88 25 335.04 25C343.2 25 343.2 21 351.36 21C359.52 21 359.52 25 367.69 25C375.86 25 375.85 21 384.01 21C392.17 21 392.18 25 400.34 25C408.5 25 408.5 21 416.67 21C424.84 21 424.83 25 433 25" stroke="#D9D9D9" stroke-miterlimit="10"/>
<path d="M-73 26C-64.84 26 -64.8401 30 -56.6801 30C-48.5201 30 -48.52 26 -40.36 26C-32.2 26 -32.2 30 -24.04 30C-15.88 30 -15.88 26 -7.71997 26C0.440029 26 0.439976 30 8.59998 30C16.76 30 16.76 26 24.92 26C33.08 26 33.08 30 41.24 30C49.4 30 49.4001 26 57.5601 26C65.7201 26 65.72 30 73.88 30C82.04 30 82.04 26 90.21 26C98.38 26 98.37 30 106.53 30C114.69 30 114.69 26 122.85 26C131.01 26 131.01 30 139.17 30C147.33 30 147.33 26 155.49 26C163.65 26 163.65 30 171.81 30C179.97 30 179.98 26 188.14 26C196.3 26 196.3 30 204.46 30C212.62 30 212.62 26 220.78 26C228.94 26 228.94 30 237.1 30C245.26 30 245.26 26 253.42 26C261.58 26 261.58 30 269.74 30C277.9 30 277.91 26 286.07 26C294.23 26 294.23 30 302.39 30C310.55 30 310.55 26 318.71 26C326.87 26 326.88 30 335.04 30C343.2 30 343.2 26 351.36 26C359.52 26 359.52 30 367.69 30C375.86 30 375.85 26 384.01 26C392.17 26 392.18 30 400.34 30C408.5 30 408.5 26 416.67 26C424.84 26 424.83 30 433 30" stroke="#D9D9D9" stroke-miterlimit="10"/>
<path d="M-73 31C-64.84 31 -64.8401 35 -56.6801 35C-48.5201 35 -48.52 31 -40.36 31C-32.2 31 -32.2 35 -24.04 35C-15.88 35 -15.88 31 -7.71997 31C0.440029 31 0.439976 35 8.59998 35C16.76 35 16.76 31 24.92 31C33.08 31 33.08 35 41.24 35C49.4 35 49.4001 31 57.5601 31C65.7201 31 65.72 35 73.88 35C82.04 35 82.04 31 90.21 31C98.38 31 98.37 35 106.53 35C114.69 35 114.69 31 122.85 31C131.01 31 131.01 35 139.17 35C147.33 35 147.33 31 155.49 31C163.65 31 163.65 35 171.81 35C179.97 35 179.98 31 188.14 31C196.3 31 196.3 35 204.46 35C212.62 35 212.62 31 220.78 31C228.94 31 228.94 35 237.1 35C245.26 35 245.26 31 253.42 31C261.58 31 261.58 35 269.74 35C277.9 35 277.91 31 286.07 31C294.23 31 294.23 35 302.39 35C310.55 35 310.55 31 318.71 31C326.87 31 326.88 35 335.04 35C343.2 35 343.2 31 351.36 31C359.52 31 359.52 35 367.69 35C375.86 35 375.85 31 384.01 31C392.17 31 392.18 35 400.34 35C408.5 35 408.5 31 416.67 31C424.84 31 424.83 35 433 35" stroke="#D9D9D9" stroke-miterlimit="10"/>
<path d="M-73 36C-64.84 36 -64.8401 40 -56.6801 40C-48.5201 40 -48.52 36 -40.36 36C-32.2 36 -32.2 40 -24.04 40C-15.88 40 -15.88 36 -7.71997 36C0.440029 36 0.439976 40 8.59998 40C16.76 40 16.76 36 24.92 36C33.08 36 33.08 40 41.24 40C49.4 40 49.4001 36 57.5601 36C65.7201 36 65.72 40 73.88 40C82.04 40 82.04 36 90.21 36C98.38 36 98.37 40 106.53 40C114.69 40 114.69 36 122.85 36C131.01 36 131.01 40 139.17 40C147.33 40 147.33 36 155.49 36C163.65 36 163.65 40 171.81 40C179.97 40 179.98 36 188.14 36C196.3 36 196.3 40 204.46 40C212.62 40 212.62 36 220.78 36C228.94 36 228.94 40 237.1 40C245.26 40 245.26 36 253.42 36C261.58 36 261.58 40 269.74 40C277.9 40 277.91 36 286.07 36C294.23 36 294.23 40 302.39 40C310.55 40 310.55 36 318.71 36C326.87 36 326.88 40 335.04 40C343.2 40 343.2 36 351.36 36C359.52 36 359.52 40 367.69 40C375.86 40 375.85 36 384.01 36C392.17 36 392.18 40 400.34 40C408.5 40 408.5 36 416.67 36C424.84 36 424.83 40 433 40" stroke="#D9D9D9" stroke-miterlimit="10"/>
<path d="M-73 41C-64.84 41 -64.8401 45 -56.6801 45C-48.5201 45 -48.52 41 -40.36 41C-32.2 41 -32.2 45 -24.04 45C-15.88 45 -15.88 41 -7.71997 41C0.440029 41 0.439976 45 8.59998 45C16.76 45 16.76 41 24.92 41C33.08 41 33.08 45 41.24 45C49.4 45 49.4001 41 57.5601 41C65.7201 41 65.72 45 73.88 45C82.04 45 82.04 41 90.21 41C98.38 41 98.37 45 106.53 45C114.69 45 114.69 41 122.85 41C131.01 41 131.01 45 139.17 45C147.33 45 147.33 41 155.49 41C163.65 41 163.65 45 171.81 45C179.97 45 179.98 41 188.14 41C196.3 41 196.3 45 204.46 45C212.62 45 212.62 41 220.78 41C228.94 41 228.94 45 237.1 45C245.26 45 245.26 41 253.42 41C261.58 41 261.58 45 269.74 45C277.9 45 277.91 41 286.07 41C294.23 41 294.23 45 302.39 45C310.55 45 310.55 41 318.71 41C326.87 41 326.88 45 335.04 45C343.2 45 343.2 41 351.36 41C359.52 41 359.52 45 367.69 45C375.86 45 375.85 41 384.01 41C392.17 41 392.18 45 400.34 45C408.5 45 408.5 41 416.67 41C424.84 41 424.83 45 433 45" stroke="#D9D9D9" stroke-miterlimit="10"/>
<path d="M-73 46C-64.84 46 -64.8401 50 -56.6801 50C-48.5201 50 -48.52 46 -40.36 46C-32.2 46 -32.2 50 -24.04 50C-15.88 50 -15.88 46 -7.71997 46C0.440029 46 0.439976 50 8.59998 50C16.76 50 16.76 46 24.92 46C33.08 46 33.08 50 41.24 50C49.4 50 49.4001 46 57.5601 46C65.7201 46 65.72 50 73.88 50C82.04 50 82.04 46 90.21 46C98.38 46 98.37 50 106.53 50C114.69 50 114.69 46 122.85 46C131.01 46 131.01 50 139.17 50C147.33 50 147.33 46 155.49 46C163.65 46 163.65 50 171.81 50C179.97 50 179.98 46 188.14 46C196.3 46 196.3 50 204.46 50C212.62 50 212.62 46 220.78 46C228.94 46 228.94 50 237.1 50C245.26 50 245.26 46 253.42 46C261.58 46 261.58 50 269.74 50C277.9 50 277.91 46 286.07 46C294.23 46 294.23 50 302.39 50C310.55 50 310.55 46 318.71 46C326.87 46 326.88 50 335.04 50C343.2 50 343.2 46 351.36 46C359.52 46 359.52 50 367.69 50C375.86 50 375.85 46 384.01 46C392.17 46 392.18 50 400.34 50C408.5 50 408.5 46 416.67 46C424.84 46 424.83 50 433 50" stroke="#D9D9D9" stroke-miterlimit="10"/>
<path d="M-73 51C-64.84 51 -64.8401 55 -56.6801 55C-48.5201 55 -48.52 51 -40.36 51C-32.2 51 -32.2 55 -24.04 55C-15.88 55 -15.88 51 -7.71997 51C0.440029 51 0.439976 55 8.59998 55C16.76 55 16.76 51 24.92 51C33.08 51 33.08 55 41.24 55C49.4 55 49.4001 51 57.5601 51C65.7201 51 65.72 55 73.88 55C82.04 55 82.04 51 90.21 51C98.38 51 98.37 55 106.53 55C114.69 55 114.69 51 122.85 51C131.01 51 131.01 55 139.17 55C147.33 55 147.33 51 155.49 51C163.65 51 163.65 55 171.81 55C179.97 55 179.98 51 188.14 51C196.3 51 196.3 55 204.46 55C212.62 55 212.62 51 220.78 51C228.94 51 228.94 55 237.1 55C245.26 55 245.26 51 253.42 51C261.58 51 261.58 55 269.74 55C277.9 55 277.91 51 286.07 51C294.23 51 294.23 55 302.39 55C310.55 55 310.55 51 318.71 51C326.87 51 326.88 55 335.04 55C343.2 55 343.2 51 351.36 51C359.52 51 359.52 55 367.69 55C375.86 55 375.85 51 384.01 51C392.17 51 392.18 55 400.34 55C408.5 55 408.5 51 416.67 51C424.84 51 424.83 55 433 55" stroke="#D9D9D9" stroke-miterlimit="10"/>
<path d="M-73 56C-64.84 56 -64.8401 60 -56.6801 60C-48.5201 60 -48.52 56 -40.36 56C-32.2 56 -32.2 60 -24.04 60C-15.88 60 -15.88 56 -7.71997 56C0.440029 56 0.439976 60 8.59998 60C16.76 60 16.76 56 24.92 56C33.08 56 33.08 60 41.24 60C49.4 60 49.4001 56 57.5601 56C65.7201 56 65.72 60 73.88 60C82.04 60 82.04 56 90.21 56C98.38 56 98.37 60 106.53 60C114.69 60 114.69 56 122.85 56C131.01 56 131.01 60 139.17 60C147.33 60 147.33 56 155.49 56C163.65 56 163.65 60 171.81 60C179.97 60 179.98 56 188.14 56C196.3 56 196.3 60 204.46 60C212.62 60 212.62 56 220.78 56C228.94 56 228.94 60 237.1 60C245.26 60 245.26 56 253.42 56C261.58 56 261.58 60 269.74 60C277.9 60 277.91 56 286.07 56C294.23 56 294.23 60 302.39 60C310.55 60 310.55 56 318.71 56C326.87 56 326.88 60 335.04 60C343.2 60 343.2 56 351.36 56C359.52 56 359.52 60 367.69 60C375.86 60 375.85 56 384.01 56C392.17 56 392.18 60 400.34 60C408.5 60 408.5 56 416.67 56C424.84 56 424.83 60 433 60" stroke="#D9D9D9" stroke-miterlimit="10"/>
<path d="M-73 61C-64.84 61 -64.8401 65 -56.6801 65C-48.5201 65 -48.52 61 -40.36 61C-32.2 61 -32.2 65 -24.04 65C-15.88 65 -15.88 61 -7.71997 61C0.440029 61 0.439976 65 8.59998 65C16.76 65 16.76 61 24.92 61C33.08 61 33.08 65 41.24 65C49.4 65 49.4001 61 57.5601 61C65.7201 61 65.72 65 73.88 65C82.04 65 82.04 61 90.21 61C98.38 61 98.37 65 106.53 65C114.69 65 114.69 61 122.85 61C131.01 61 131.01 65 139.17 65C147.33 65 147.33 61 155.49 61C163.65 61 163.65 65 171.81 65C179.97 65 179.98 61 188.14 61C196.3 61 196.3 65 204.46 65C212.62 65 212.62 61 220.78 61C228.94 61 228.94 65 237.1 65C245.26 65 245.26 61 253.42 61C261.58 61 261.58 65 269.74 65C277.9 65 277.91 61 286.07 61C294.23 61 294.23 65 302.39 65C310.55 65 310.55 61 318.71 61C326.87 61 326.88 65 335.04 65C343.2 65 343.2 61 351.36 61C359.52 61 359.52 65 367.69 65C375.86 65 375.85 61 384.01 61C392.17 61 392.18 65 400.34 65C408.5 65 408.5 61 416.67 61C424.84 61 424.83 65 433 65" stroke="#D9D9D9" stroke-miterlimit="10"/>
<path d="M-73 66C-64.84 66 -64.8401 70 -56.6801 70C-48.5201 70 -48.52 66 -40.36 66C-32.2 66 -32.2 70 -24.04 70C-15.88 70 -15.88 66 -7.71997 66C0.440029 66 0.439976 70 8.59998 70C16.76 70 16.76 66 24.92 66C33.08 66 33.08 70 41.24 70C49.4 70 49.4001 66 57.5601 66C65.7201 66 65.72 70 73.88 70C82.04 70 82.04 66 90.21 66C98.38 66 98.37 70 106.53 70C114.69 70 114.69 66 122.85 66C131.01 66 131.01 70 139.17 70C147.33 70 147.33 66 155.49 66C163.65 66 163.65 70 171.81 70C179.97 70 179.98 66 188.14 66C196.3 66 196.3 70 204.46 70C212.62 70 212.62 66 220.78 66C228.94 66 228.94 70 237.1 70C245.26 70 245.26 66 253.42 66C261.58 66 261.58 70 269.74 70C277.9 70 277.91 66 286.07 66C294.23 66 294.23 70 302.39 70C310.55 70 310.55 66 318.71 66C326.87 66 326.88 70 335.04 70C343.2 70 343.2 66 351.36 66C359.52 66 359.52 70 367.69 70C375.86 70 375.85 66 384.01 66C392.17 66 392.18 70 400.34 70C408.5 70 408.5 66 416.67 66C424.84 66 424.83 70 433 70" stroke="#D9D9D9" stroke-miterlimit="10"/>
<path d="M-73 71C-64.84 71 -64.8401 75 -56.6801 75C-48.5201 75 -48.52 71 -40.36 71C-32.2 71 -32.2 75 -24.04 75C-15.88 75 -15.88 71 -7.71997 71C0.440029 71 0.439976 75 8.59998 75C16.76 75 16.76 71 24.92 71C33.08 71 33.08 75 41.24 75C49.4 75 49.4001 71 57.5601 71C65.7201 71 65.72 75 73.88 75C82.04 75 82.04 71 90.21 71C98.38 71 98.37 75 106.53 75C114.69 75 114.69 71 122.85 71C131.01 71 131.01 75 139.17 75C147.33 75 147.33 71 155.49 71C163.65 71 163.65 75 171.81 75C179.97 75 179.98 71 188.14 71C196.3 71 196.3 75 204.46 75C212.62 75 212.62 71 220.78 71C228.94 71 228.94 75 237.1 75C245.26 75 245.26 71 253.42 71C261.58 71 261.58 75 269.74 75C277.9 75 277.91 71 286.07 71C294.23 71 294.23 75 302.39 75C310.55 75 310.55 71 318.71 71C326.87 71 326.88 75 335.04 75C343.2 75 343.2 71 351.36 71C359.52 71 359.52 75 367.69 75C375.86 75 375.85 71 384.01 71C392.17 71 392.18 75 400.34 75C408.5 75 408.5 71 416.67 71C424.84 71 424.83 75 433 75" stroke="#D9D9D9" stroke-miterlimit="10"/>
<path d="M-73 76C-64.84 76 -64.8401 80 -56.6801 80C-48.5201 80 -48.52 76 -40.36 76C-32.2 76 -32.2 80 -24.04 80C-15.88 80 -15.88 76 -7.71997 76C0.440029 76 0.439976 80 8.59998 80C16.76 80 16.76 76 24.92 76C33.08 76 33.08 80 41.24 80C49.4 80 49.4001 76 57.5601 76C65.7201 76 65.72 80 73.88 80C82.04 80 82.04 76 90.21 76C98.38 76 98.37 80 106.53 80C114.69 80 114.69 76 122.85 76C131.01 76 131.01 80 139.17 80C147.33 80 147.33 76 155.49 76C163.65 76 163.65 80 171.81 80C179.97 80 179.98 76 188.14 76C196.3 76 196.3 80 204.46 80C212.62 80 212.62 76 220.78 76C228.94 76 228.94 80 237.1 80C245.26 80 245.26 76 253.42 76C261.58 76 261.58 80 269.74 80C277.9 80 277.91 76 286.07 76C294.23 76 294.23 80 302.39 80C310.55 80 310.55 76 318.71 76C326.87 76 326.88 80 335.04 80C343.2 80 343.2 76 351.36 76C359.52 76 359.52 80 367.69 80C375.86 80 375.85 76 384.01 76C392.17 76 392.18 80 400.34 80C408.5 80 408.5 76 416.67 76C424.84 76 424.83 80 433 80" stroke="#D9D9D9" stroke-miterlimit="10"/>
</svg>
