<svg width="16" height="16" viewBox="0 0 16 16" fill="none" xmlns="http://www.w3.org/2000/svg">
<g clip-path="url(#clip0_390_1428)">
<path d="M8.75 0.75C8.75 0.335786 8.41421 0 8 0C7.58579 0 7.25 0.335786 7.25 0.75V3.25C7.25 3.66421 7.58579 4 8 4C8.41421 4 8.75 3.66421 8.75 3.25V0.75Z" fill="#1E1E1E"/>
<path d="M8.75 12.75C8.75 12.3358 8.41421 12 8 12C7.58579 12 7.25 12.3358 7.25 12.75V15.25C7.25 15.6642 7.58579 16 8 16C8.41421 16 8.75 15.6642 8.75 15.25V12.75Z" fill="#1E1E1E"/>
<path d="M15.25 8.75C15.6642 8.75 16 8.41421 16 8C16 7.58579 15.6642 7.25 15.25 7.25H12.75C12.3358 7.25 12 7.58579 12 8C12 8.41421 12.3358 8.75 12.75 8.75H15.25Z" fill="#1E1E1E"/>
<path d="M3.25 8.75C3.66421 8.75 4 8.41421 4 8C4 7.58579 3.66421 7.25 3.25 7.25H0.75C0.335786 7.25 0 7.58579 0 8C0 8.41421 0.335786 8.75 0.75 8.75H3.25Z" fill="#1E1E1E"/>
<path d="M3.40154 2.33881C3.10864 2.04592 2.63377 2.04592 2.34088 2.33881C2.04798 2.6317 2.04798 3.10658 2.34088 3.39947L4.10864 5.16724C4.40154 5.46013 4.87641 5.46013 5.1693 5.16724C5.4622 4.87434 5.4622 4.39947 5.1693 4.10658L3.40154 2.33881Z" fill="#1E1E1E"/>
<path d="M11.8908 10.8259C11.5979 10.533 11.123 10.533 10.8301 10.8259C10.5372 11.1188 10.5372 11.5936 10.8301 11.8865L12.5979 13.6543C12.8908 13.9472 13.3657 13.9472 13.6586 13.6543C13.9515 13.3614 13.9515 12.8865 13.6586 12.5936L11.8908 10.8259Z" fill="#1E1E1E"/>
<path d="M13.6573 3.39787C13.9502 3.10498 13.9502 2.63011 13.6573 2.33721C13.3644 2.04432 12.8895 2.04432 12.5966 2.33721L10.8289 4.10498C10.536 4.39788 10.536 4.87275 10.8289 5.16564C11.1217 5.45854 11.5966 5.45854 11.8895 5.16564L13.6573 3.39787Z" fill="#1E1E1E"/>
<path d="M5.17779 11.8949C5.47068 11.6021 5.47068 11.1272 5.17779 10.8343C4.8849 10.5414 4.41002 10.5414 4.11713 10.8343L2.34936 12.6021C2.05647 12.8949 2.05647 13.3698 2.34936 13.6627C2.64226 13.9556 3.11713 13.9556 3.41002 13.6627L5.17779 11.8949Z" fill="#1E1E1E"/>
</g>
<defs>
<clipPath id="clip0_390_1428">
<rect width="16" height="16" fill="white"/>
</clipPath>
</defs>
</svg>
