<svg width="18" height="15" viewBox="0 0 18 15" fill="none" xmlns="http://www.w3.org/2000/svg">
<g clip-path="url(#clip0_390_1442)">
<path d="M0.239777 6.9C0.0850482 7.06344 -0.00115967 7.27995 -0.00115967 7.505C-0.00115967 7.73006 0.0850482 7.94657 0.239777 8.11L6.48978 14.73C6.57115 14.8169 6.66952 14.8862 6.77875 14.9335C6.88797 14.9809 7.00574 15.0053 7.12479 15.0053C7.24383 15.0053 7.3616 14.9809 7.47083 14.9335C7.58005 14.8862 7.67842 14.8169 7.7598 14.73C7.913 14.5638 7.99805 14.346 7.99805 14.12C7.99805 13.894 7.913 13.6762 7.7598 13.51L2.08978 7.51L7.7598 1.51C7.913 1.3438 7.99805 1.12604 7.99805 0.900002C7.99805 0.673963 7.913 0.4562 7.7598 0.290001C7.67842 0.20311 7.58005 0.133847 7.47083 0.0864944C7.3616 0.0391418 7.24383 0.0147095 7.12479 0.0147095C7.00574 0.0147095 6.88797 0.0391418 6.77875 0.0864944C6.66952 0.133847 6.57115 0.20311 6.48978 0.290001L0.239777 6.9Z" fill="#1E1E1E"/>
<path d="M1.75 6.75H17.25C17.6642 6.75 18 7.08579 18 7.5C18 7.91421 17.6642 8.25 17.25 8.25H1.75C1.33579 8.25 1 7.91421 1 7.5C1 7.08579 1.33579 6.75 1.75 6.75Z" fill="#1E1E1E"/>
</g>
<defs>
<clipPath id="clip0_390_1442">
<rect width="18" height="15" fill="white" transform="matrix(-1 0 0 1 18 0)"/>
</clipPath>
</defs>
</svg>
