<svg width="16" height="16" viewBox="0 0 16 16" fill="none" xmlns="http://www.w3.org/2000/svg">
<g clip-path="url(#clip0_390_1090)">
<path d="M15.8209 9.03004C15.7382 8.94468 15.6359 8.88092 15.5229 8.84432C15.41 8.80772 15.2898 8.79938 15.173 8.82003C14.9922 8.85635 14.8239 8.93904 14.6845 9.06004C13.8962 9.70437 12.9469 10.1196 11.9398 10.2607C10.9328 10.4017 9.9064 10.2631 8.97233 9.86004C7.73307 9.32647 6.72774 8.36166 6.14155 7.14335C5.55535 5.92503 5.42776 4.53526 5.78229 3.23003C5.96607 2.49874 6.30623 1.8163 6.77917 1.23003C6.88995 1.10493 6.95521 0.945854 6.96426 0.778767C6.97332 0.611681 6.92564 0.44645 6.82904 0.310037C6.73188 0.17519 6.59475 0.0745552 6.43722 0.0224808C6.2797 -0.0295936 6.10981 -0.0304504 5.95177 0.0200356C4.4343 0.456693 3.0744 1.32274 2.03484 2.51452C0.995282 3.7063 0.320095 5.17333 0.0900841 6.74004C0.0603326 6.90873 0.0403638 7.07902 0.0302734 7.25004V8.32003V8.51004C0.0357642 8.6133 0.0357642 8.71677 0.0302734 8.82003C0.0302734 9.05003 0.0801238 9.28004 0.129968 9.50004C0.508972 11.3109 1.48951 12.939 2.91113 14.118C4.33275 15.297 6.11125 15.957 7.95552 15.99C8.74434 15.9856 9.52896 15.8746 10.2882 15.66C11.8004 15.2323 13.1529 14.3661 14.1761 13.17C15.0359 12.1739 15.6414 10.983 15.9405 9.70004C15.9755 9.58691 15.9829 9.46701 15.9621 9.35042C15.9413 9.23383 15.8929 9.12396 15.8209 9.03004ZM13.7275 11.37C12.9904 12.5352 11.9088 13.4403 10.6339 13.9586C9.35894 14.4769 7.95439 14.5826 6.61663 14.2609C5.27886 13.9392 4.07475 13.2061 3.17268 12.1643C2.2706 11.1224 1.71565 9.82381 1.58541 8.45004C1.46581 7.26213 1.67521 6.06416 2.19055 4.98792C2.70588 3.91169 3.50717 2.99892 4.50628 2.35004C4.06597 3.62956 3.99786 5.00838 4.3099 6.32531C4.62194 7.64223 5.30126 8.84284 6.26841 9.78679C7.23556 10.7307 8.45056 11.379 9.77144 11.6558C11.0923 11.9327 12.4645 11.8266 13.7275 11.35V11.37Z" fill="#1E1E1E"/>
</g>
<defs>
<clipPath id="clip0_390_1090">
<rect width="16" height="16" fill="white"/>
</clipPath>
</defs>
</svg>
