<svg width="31" height="16" viewBox="0 0 31 16" fill="none" xmlns="http://www.w3.org/2000/svg">
<g clip-path="url(#clip0_728_5)">
<path d="M7 1.5C7.49446 1.5 7.9778 1.64662 8.38893 1.92133C8.80005 2.19603 9.12048 2.58648 9.3097 3.04329C9.49892 3.50011 9.54843 4.00277 9.45197 4.48773C9.3555 4.97268 9.1174 5.41814 8.76777 5.76777C8.41814 6.1174 7.97268 6.3555 7.48773 6.45196C7.00278 6.54843 6.50011 6.49892 6.04329 6.3097C5.58648 6.12048 5.19603 5.80005 4.92133 5.38893C4.64662 4.9778 4.5 4.49445 4.5 4C4.5 3.33696 4.76339 2.70107 5.23223 2.23223C5.70108 1.76339 6.33696 1.5 7 1.5M7 0C6.20888 0 5.43552 0.234596 4.77772 0.674122C4.11992 1.11365 3.60723 1.73836 3.30448 2.46927C3.00173 3.20017 2.92252 4.00444 3.07686 4.78036C3.2312 5.55629 3.61216 6.26902 4.17157 6.82843C4.73098 7.38784 5.44372 7.7688 6.21964 7.92314C6.99556 8.07748 7.79983 7.99827 8.53074 7.69552C9.26164 7.39277 9.88635 6.88008 10.3259 6.22228C10.7654 5.56448 11 4.79113 11 4C11 2.93913 10.5786 1.92172 9.82843 1.17157C9.07828 0.421427 8.06087 0 7 0Z" fill="#1E1E1E"/>
<path d="M1.5 16V13.5C1.5 12.0413 2.07946 10.6424 3.11091 9.61091C4.14236 8.57946 5.54131 8 7 8C8.45869 8 9.85764 8.57946 10.8891 9.61091C11.9205 10.6424 12.5 12.0413 12.5 13.5V16H14V13.5C14 11.6435 13.2625 9.86301 11.9497 8.55025C10.637 7.2375 8.85652 6.5 7 6.5C5.14348 6.5 3.36301 7.2375 2.05025 8.55025C0.737498 9.86301 2.76642e-08 11.6435 0 13.5V16H1.5Z" fill="#1E1E1E"/>
</g>
<g clip-path="url(#clip1_728_5)">
<path d="M24 1.5C24.4945 1.5 24.9778 1.64662 25.3889 1.92133C25.8001 2.19603 26.1205 2.58648 26.3097 3.04329C26.4989 3.50011 26.5484 4.00277 26.452 4.48773C26.3555 4.97268 26.1174 5.41814 25.7678 5.76777C25.4181 6.1174 24.9727 6.3555 24.4877 6.45196C24.0028 6.54843 23.5001 6.49892 23.0433 6.3097C22.5865 6.12048 22.196 5.80005 21.9213 5.38893C21.6466 4.9778 21.5 4.49445 21.5 4C21.5 3.33696 21.7634 2.70107 22.2322 2.23223C22.7011 1.76339 23.337 1.5 24 1.5M24 0C23.2089 0 22.4355 0.234596 21.7777 0.674122C21.1199 1.11365 20.6072 1.73836 20.3045 2.46927C20.0017 3.20017 19.9225 4.00444 20.0769 4.78036C20.2312 5.55629 20.6122 6.26902 21.1716 6.82843C21.731 7.38784 22.4437 7.7688 23.2196 7.92314C23.9956 8.07748 24.7998 7.99827 25.5307 7.69552C26.2616 7.39277 26.8864 6.88008 27.3259 6.22228C27.7654 5.56448 28 4.79113 28 4C28 2.93913 27.5786 1.92172 26.8284 1.17157C26.0783 0.421427 25.0609 0 24 0Z" fill="#1E1E1E"/>
<path d="M18.5 16V13.5C18.5 12.0413 19.0795 10.6424 20.1109 9.61091C21.1424 8.57946 22.5413 8 24 8C25.4587 8 26.8576 8.57946 27.8891 9.61091C28.9205 10.6424 29.5 12.0413 29.5 13.5V16H31V13.5C31 11.6435 30.2625 9.86301 28.9497 8.55025C27.637 7.2375 25.8565 6.5 24 6.5C22.1435 6.5 20.363 7.2375 19.0503 8.55025C17.7375 9.86301 17 11.6435 17 13.5V16H18.5Z" fill="#1E1E1E"/>
</g>
<defs>
<clipPath id="clip0_728_5">
<rect width="14" height="16" fill="white"/>
</clipPath>
<clipPath id="clip1_728_5">
<rect width="14" height="16" fill="white" transform="translate(17)"/>
</clipPath>
</defs>
</svg>
