<svg width="14" height="16" viewBox="0 0 14 16" fill="none" xmlns="http://www.w3.org/2000/svg">
<g clip-path="url(#clip0_293_2728)">
<path d="M7 1.5C7.49446 1.5 7.9778 1.64662 8.38893 1.92133C8.80005 2.19603 9.12048 2.58648 9.3097 3.04329C9.49892 3.50011 9.54843 4.00277 9.45197 4.48773C9.3555 4.97268 9.1174 5.41814 8.76777 5.76777C8.41814 6.1174 7.97268 6.3555 7.48773 6.45196C7.00278 6.54843 6.50011 6.49892 6.04329 6.3097C5.58648 6.12048 5.19603 5.80005 4.92133 5.38893C4.64662 4.9778 4.5 4.49445 4.5 4C4.5 3.33696 4.76339 2.70107 5.23223 2.23223C5.70108 1.76339 6.33696 1.5 7 1.5M7 0C6.20888 0 5.43552 0.234596 4.77772 0.674122C4.11992 1.11365 3.60723 1.73836 3.30448 2.46927C3.00173 3.20017 2.92252 4.00444 3.07686 4.78036C3.2312 5.55629 3.61216 6.26902 4.17157 6.82843C4.73098 7.38784 5.44372 7.7688 6.21964 7.92314C6.99556 8.07748 7.79983 7.99827 8.53074 7.69552C9.26164 7.39277 9.88635 6.88008 10.3259 6.22228C10.7654 5.56448 11 4.79113 11 4C11 2.93913 10.5786 1.92172 9.82843 1.17157C9.07828 0.421427 8.06087 0 7 0Z" fill="#1E1E1E"/>
<path d="M1.5 16V13.5C1.5 12.0413 2.07946 10.6424 3.11091 9.61091C4.14236 8.57946 5.54131 8 7 8C8.45869 8 9.85764 8.57946 10.8891 9.61091C11.9205 10.6424 12.5 12.0413 12.5 13.5V16H14V13.5C14 11.6435 13.2625 9.86301 11.9497 8.55025C10.637 7.2375 8.85652 6.5 7 6.5C5.14348 6.5 3.36301 7.2375 2.05025 8.55025C0.737498 9.86301 2.76642e-08 11.6435 0 13.5V16H1.5Z" fill="#1E1E1E"/>
</g>
<defs>
<clipPath id="clip0_293_2728">
<rect width="14" height="16" fill="white"/>
</clipPath>
</defs>
</svg>
