<svg width="20" height="20" viewBox="0 0 20 20" fill="none" xmlns="http://www.w3.org/2000/svg">
<g clip-path="url(#clip0_613_156)">
<path d="M19.3898 14.35C18.5698 13.5 17.6798 12.61 16.6598 11.64C16.3203 11.2933 15.8663 11.0818 15.3825 11.045C14.8986 11.0082 14.4179 11.1486 14.0298 11.44C13.8291 11.5828 13.6416 11.7434 13.4698 11.92L12.5598 12.83L12.2798 13.1L12.1398 13.02C11.9198 12.9 11.6998 12.78 11.4898 12.65C10.3695 11.9092 9.35948 11.0136 8.48984 9.99002C7.84796 9.30975 7.32107 8.52956 6.92983 7.68002L7.16984 7.44C7.58984 7.02 8.02983 6.59002 8.43983 6.15002C8.79197 5.77084 8.98768 5.27248 8.98768 4.755C8.98768 4.23753 8.79197 3.7392 8.43983 3.36002C7.97983 2.87002 7.49983 2.36001 7.02983 1.92001L6.18983 1.07001C5.76432 0.557401 5.19197 0.18747 4.54983 0.0100098H3.86983C3.38598 0.106994 2.94105 0.343354 2.58983 0.690002C2.02983 1.24 1.44983 1.81002 0.889834 2.40002C0.665888 2.66227 0.480673 2.95524 0.339835 3.27002C0.000359625 4.12937 -0.0625638 5.0732 0.159835 5.97C0.389179 7.11138 0.776221 8.2153 1.30983 9.25C3.2546 13.0632 6.28085 16.2182 10.0098 18.32C11.4687 19.1955 13.0926 19.7606 14.7798 19.98H15.2398C15.706 19.9951 16.1703 19.9141 16.6038 19.7421C17.0373 19.57 17.4308 19.3106 17.7598 18.98C18.2598 18.48 18.7598 17.98 19.2498 17.46C19.4669 17.2673 19.6432 17.033 19.7681 16.771C19.8931 16.509 19.9642 16.2246 19.9772 15.9346C19.9903 15.6446 19.945 15.355 19.8441 15.0828C19.7432 14.8106 19.5887 14.5614 19.3898 14.35ZM4.26983 1.51001C4.39479 1.53961 4.51118 1.59782 4.60983 1.68002C5.60983 2.68002 6.48984 3.54003 7.23984 4.31003C7.30536 4.36636 7.35795 4.43615 7.394 4.51468C7.43005 4.59321 7.44871 4.67861 7.44871 4.76501C7.44871 4.85142 7.43005 4.93682 7.394 5.01535C7.35795 5.09388 7.30536 5.16367 7.23984 5.22C6.95984 5.53 6.65983 5.83003 6.35983 6.12003L6.03983 6.43002C5.97812 6.49838 5.91126 6.5619 5.83984 6.62003L5.68983 6.77002C5.48994 6.92946 5.35309 7.15465 5.30365 7.40552C5.25421 7.65639 5.29538 7.91665 5.41983 8.14001C5.94842 9.24473 6.65066 10.2576 7.49983 11.14C8.51577 12.2961 9.69885 13.2938 11.0098 14.1C11.2898 14.27 11.5798 14.41 11.8598 14.56C12.071 14.6801 12.3168 14.7246 12.5567 14.6865C12.7965 14.6483 13.0163 14.5296 13.1798 14.35L14.0498 13.49L14.5998 12.94C14.6683 12.8682 14.7418 12.8014 14.8198 12.74C14.876 12.6794 14.9441 12.6311 15.0198 12.5981C15.0955 12.565 15.1772 12.5479 15.2598 12.5479C15.3424 12.5479 15.4242 12.565 15.4999 12.5981C15.5756 12.6311 15.6437 12.6794 15.6998 12.74C16.6998 13.74 17.5198 14.53 18.2798 15.3C18.3609 15.3636 18.4265 15.4449 18.4716 15.5375C18.5167 15.6302 18.5401 15.732 18.5401 15.835C18.5401 15.9381 18.5167 16.0398 18.4716 16.1325C18.4265 16.2252 18.3609 16.3064 18.2798 16.37C17.7398 16.95 17.1998 17.5 16.6698 18.01C16.4555 18.1914 16.2071 18.3281 15.9392 18.4123C15.6714 18.4964 15.3894 18.5262 15.1098 18.5C14.2838 18.4443 13.4727 18.2517 12.7098 17.93C10.6781 17.1049 8.80656 15.9305 7.17983 14.46C5.51328 12.9717 4.10428 11.218 3.00983 9.27002C2.36838 8.16904 1.90277 6.97465 1.62983 5.73001C1.46803 5.14842 1.48546 4.53155 1.67983 3.96002C1.80471 3.68691 1.96988 3.43409 2.16983 3.21002C2.53983 2.81002 2.93983 2.42002 3.32983 2.05002L3.57983 1.80002C3.81983 1.53002 4.00983 1.44001 4.26983 1.51001Z" fill="#023ED4"/>
</g>
<defs>
<clipPath id="clip0_613_156">
<rect width="20" height="20" fill="white"/>
</clipPath>
</defs>
</svg>
