<svg width="25" height="30" viewBox="0 0 25 30" fill="none" xmlns="http://www.w3.org/2000/svg">
<g clip-path="url(#clip0_298_3276)">
<path d="M24.9898 5.59C25.0053 4.23727 24.5227 2.9261 23.6338 1.9063C22.7449 0.886487 21.5119 0.229317 20.1698 0.0599976L20.0798 0.410004V0.0199966L2.84977 0H2.72977C2.15157 0.136876 1.60941 0.396026 1.13977 0.760002C0.48114 1.32742 0.0747006 2.13309 0.00976562 3C0.00976562 3.12 0.00976562 3.25 0.00976562 3.37V21.5C0.00976562 22.5 0.259767 22.75 1.15977 22.79V23.92C1.1546 24.0133 1.1546 24.1067 1.15977 24.2C1.18737 24.4323 1.29555 24.6476 1.46547 24.8083C1.63539 24.9691 1.8563 25.0653 2.08977 25.08C2.21568 25.0881 2.34193 25.0708 2.461 25.0291C2.58007 24.9874 2.68953 24.9221 2.78284 24.8372C2.87616 24.7523 2.95143 24.6494 3.00416 24.5348C3.05689 24.4202 3.086 24.2961 3.08977 24.17C3.08977 23.88 3.08977 23.58 3.08977 23.29V22.82H4.65977V26.59C4.63981 26.7427 4.65537 26.8979 4.70526 27.0436C4.75515 27.1893 4.83801 27.3215 4.94737 27.4299C5.05674 27.5383 5.18966 27.62 5.33578 27.6685C5.4819 27.7171 5.63726 27.7313 5.78976 27.71H6.96976V27.81C6.96976 28.15 6.96976 28.48 6.96976 28.81C6.92405 29.0367 6.94836 29.2719 7.03944 29.4844C7.13053 29.697 7.2841 29.8768 7.47977 30H7.56976H8.10976H8.18977C8.39307 29.8926 8.55915 29.7263 8.66623 29.5229C8.77331 29.3194 8.81637 29.0884 8.78976 28.86C8.78976 28.53 8.78976 28.2 8.78976 27.86V27.78H10.3698V28.52C10.3698 28.66 10.3698 28.8 10.3698 28.94C10.3547 29.1549 10.4024 29.3695 10.5071 29.5577C10.6119 29.746 10.7692 29.8996 10.9598 30H11.0498H11.5898H11.6798C11.8812 29.8912 12.0452 29.7243 12.1505 29.5209C12.2557 29.3176 12.2973 29.0873 12.2698 28.86C12.2698 28.53 12.2698 28.2 12.2698 27.86V27.78H13.8398V28.51C13.8498 28.6532 13.8498 28.7968 13.8398 28.94C13.8263 29.1608 13.8803 29.3804 13.9946 29.5697C14.1089 29.759 14.2781 29.9091 14.4798 30H14.5598H15.1098H15.1898C15.3931 29.8926 15.5592 29.7263 15.6662 29.5229C15.7733 29.3194 15.8164 29.0884 15.7898 28.86C15.7898 28.53 15.7898 28.2 15.7898 27.86V27.78H17.3698V28.51C17.3698 28.65 17.3698 28.8 17.3698 28.94C17.3547 29.1549 17.4024 29.3695 17.5071 29.5577C17.6119 29.746 17.7692 29.8996 17.9598 30H18.0498H18.5898H18.6798C18.8831 29.8926 19.0492 29.7263 19.1562 29.5229C19.2633 29.3194 19.3064 29.0884 19.2798 28.86C19.2798 28.53 19.2798 28.2 19.2798 27.86V27.78H20.8498V28.52C20.8598 28.6598 20.8598 28.8002 20.8498 28.94C20.832 29.1553 20.8786 29.3709 20.9837 29.5597C21.0887 29.7484 21.2475 29.9017 21.4398 30H21.5198H22.0698H22.1498C22.3531 29.8926 22.5192 29.7263 22.6262 29.5229C22.7333 29.3194 22.7764 29.0884 22.7498 28.86C22.7498 28.53 22.7498 28.2 22.7498 27.86V27.77H23.9398C24.0923 27.7913 24.2476 27.7771 24.3938 27.7285C24.5399 27.6799 24.6728 27.5983 24.7822 27.4899C24.8915 27.3815 24.9744 27.2493 25.0243 27.1036C25.0742 26.9579 25.0897 26.8027 25.0698 26.65V21.14C25.0231 15.96 24.9964 10.7767 24.9898 5.59ZM4.61977 20.91H1.88977V3.37C1.87909 3.12652 1.92712 2.88404 2.0298 2.66301C2.13248 2.44198 2.28681 2.24888 2.47977 2.1C2.66265 1.98352 2.87123 1.91352 3.08736 1.89609C3.30348 1.87866 3.52058 1.91433 3.71976 2C3.96654 2.07997 4.18348 2.23249 4.34225 2.43764C4.50102 2.6428 4.59425 2.89105 4.60976 3.15C4.61561 3.25659 4.61561 3.36341 4.60976 3.47L4.61977 20.91ZM6.47977 18.57L6.71976 18.67C7.24526 18.8697 7.81296 18.9322 8.36932 18.8517C8.92569 18.7713 9.45239 18.5504 9.89977 18.21L10.1698 18.01C10.3704 17.8516 10.5846 17.711 10.8098 17.59C11.0512 17.4839 11.3179 17.4492 11.5784 17.4899C11.8389 17.5307 12.0823 17.6452 12.2798 17.82L12.3598 17.88C12.8118 18.2749 13.339 18.5742 13.9098 18.76C14.3982 18.894 14.9104 18.9168 15.4088 18.8268C15.9072 18.7368 16.379 18.5363 16.7898 18.24L17.0998 18.01C17.2955 17.8526 17.5066 17.7152 17.7298 17.6C17.9708 17.4904 18.2382 17.4519 18.5004 17.4891C18.7626 17.5263 19.0087 17.6376 19.2098 17.81L19.4098 17.95C19.7661 18.2251 20.1517 18.4599 20.5598 18.65C20.9569 18.8235 21.387 18.9088 21.8203 18.9002C22.2535 18.8915 22.6798 18.7891 23.0698 18.6V19.79C22.5598 20.23 22.0698 20.55 21.5198 20.41C21.2231 20.331 20.9446 20.1952 20.6998 20.01L20.5298 19.89C20.1201 19.5729 19.6605 19.3262 19.1698 19.16C18.6809 19.0245 18.1677 19.0018 17.6688 19.0937C17.1699 19.1855 16.6984 19.3894 16.2898 19.69L15.9298 19.96L15.7298 20.12C15.4688 20.3337 15.142 20.4504 14.8048 20.4504C14.4675 20.4504 14.1407 20.3337 13.8798 20.12L13.7898 20.05C13.3304 19.6548 12.7966 19.3556 12.2198 19.17C11.736 19.0386 11.229 19.0171 10.7358 19.1071C10.2427 19.197 9.77594 19.3962 9.36977 19.69L9.03976 19.93C8.88803 20.0546 8.72763 20.1682 8.55977 20.27C8.3143 20.4093 8.03289 20.4722 7.75147 20.4509C7.47005 20.4295 7.20139 20.3248 6.97977 20.15C6.47977 19.78 6.47977 19.78 6.47977 19.15V18.57ZM6.47977 22C6.70628 22.0961 6.94042 22.173 7.17976 22.23C7.64551 22.3361 8.12893 22.3383 8.5956 22.2363C9.06228 22.1343 9.50074 21.9307 9.87977 21.64L10.1398 21.45C10.3396 21.2827 10.5576 21.1385 10.7898 21.02C11.0289 20.9109 11.2948 20.8746 11.5543 20.9155C11.8139 20.9564 12.0558 21.0727 12.2498 21.25L12.3398 21.32C12.7963 21.7062 13.3224 22.0015 13.8898 22.19C14.3825 22.3258 14.8996 22.3477 15.402 22.2542C15.9044 22.1606 16.379 21.954 16.7898 21.65L17.0598 21.45C17.2624 21.2893 17.48 21.1487 17.7098 21.03C17.9559 20.9225 18.2276 20.8871 18.4931 20.9278C18.7586 20.9685 19.0071 21.0837 19.2098 21.26L19.3298 21.34C19.7129 21.6316 20.1251 21.883 20.5598 22.09C20.9493 22.2668 21.372 22.3583 21.7998 22.3583C22.2275 22.3583 22.6503 22.2668 23.0398 22.09V25.87H6.52977L6.47977 22ZM22.9998 16.41C22.9198 16.41 22.8398 16.53 22.7598 16.59C22.4893 16.8351 22.1422 16.9791 21.7776 16.9973C21.413 17.0155 21.0534 16.9069 20.7598 16.69L20.6598 16.61C20.1992 16.2111 19.6613 15.9116 19.0798 15.73C18.793 15.6516 18.4971 15.6112 18.1998 15.61C17.5134 15.6184 16.8451 15.8307 16.2798 16.22L15.8798 16.52L15.6498 16.7C15.392 16.9036 15.0732 17.0143 14.7448 17.0143C14.4163 17.0143 14.0975 16.9036 13.8398 16.7L13.7198 16.6C13.2556 16.2009 12.7144 15.9014 12.1298 15.72C11.6557 15.5965 11.1603 15.5781 10.6783 15.6662C10.1964 15.7543 9.73951 15.9467 9.33977 16.23L8.98977 16.49C8.83287 16.6123 8.66928 16.7259 8.49976 16.83C8.25429 16.9693 7.97289 17.0322 7.69147 17.0109C7.41006 16.9895 7.14139 16.8848 6.91977 16.71C6.41977 16.34 6.41977 16.34 6.41977 15.71V12.6C6.41977 9.7 6.41977 6.8 6.41977 3.9C6.46473 3.21776 6.35535 2.53416 6.09977 1.9H19.2398C20.0896 1.87139 20.9225 2.14202 21.5932 2.6647C22.2639 3.18737 22.7299 3.92893 22.9098 4.76C22.973 5.04899 23.0031 5.34421 22.9998 5.64V16.28C23.1098 16.37 23.0998 16.38 23.0498 16.41H22.9998Z" fill="#1E1E1E"/>
</g>
<defs>
<clipPath id="clip0_298_3276">
<rect width="25" height="30" fill="white"/>
</clipPath>
</defs>
</svg>
