<svg width="12" height="16" viewBox="0 0 12 16" fill="none" xmlns="http://www.w3.org/2000/svg">
<g clip-path="url(#clip0_390_1043)">
<path d="M5.9997 1.5C7.20471 1.5132 8.35524 2.00389 9.19889 2.8644C10.0425 3.72492 10.5104 4.88497 10.4997 6.09C10.4997 8.83 7.7897 12.09 5.9997 13.94C4.1997 12.14 1.4997 8.84 1.4997 6.09C1.48903 4.88497 1.95684 3.72492 2.80048 2.8644C3.64412 2.00389 4.79469 1.5132 5.9997 1.5ZM5.9997 3.79761e-08C5.20414 -8.94678e-05 4.41647 0.158039 3.68259 0.465179C2.94871 0.77232 2.28326 1.22234 1.72492 1.78906C1.16657 2.35578 0.726483 3.02788 0.430302 3.76625C0.134121 4.50463 -0.0122348 5.29453 -0.000301361 6.09C-0.000301361 10.83 5.9997 16 5.9997 16C5.9997 16 11.9997 10.83 11.9997 6.09C12.0104 4.48715 11.3845 2.94558 10.2596 1.80376C9.13461 0.661947 7.60253 0.0132116 5.9997 3.79761e-08Z" fill="#1E1E1E"/>
<path d="M6.00001 5C6.19779 5 6.3911 5.05865 6.55555 5.16853C6.72 5.27841 6.84818 5.43459 6.92387 5.61732C6.99956 5.80004 7.01937 6.00111 6.98078 6.19509C6.9422 6.38907 6.84695 6.56726 6.7071 6.70711C6.56725 6.84696 6.38906 6.9422 6.19508 6.98079C6.0011 7.01937 5.80004 6.99957 5.61732 6.92388C5.43459 6.84819 5.27841 6.72002 5.16853 6.55557C5.05865 6.39112 5.00001 6.19778 5.00001 6C5.00001 5.73478 5.10535 5.48043 5.29289 5.2929C5.48042 5.10536 5.73479 5 6.00001 5ZM6.00001 3.5C5.50556 3.5 5.02219 3.64663 4.61106 3.92133C4.19994 4.19603 3.87951 4.58648 3.69029 5.04329C3.50107 5.50011 3.45158 6.00278 3.54804 6.48773C3.64451 6.97268 3.88259 7.41814 4.23222 7.76777C4.58185 8.1174 5.02732 8.3555 5.51228 8.45197C5.99723 8.54843 6.49989 8.49892 6.9567 8.3097C7.41352 8.12048 7.80398 7.80005 8.07868 7.38893C8.35339 6.9778 8.50001 6.49445 8.50001 6C8.50001 5.33696 8.23661 4.70108 7.76777 4.23223C7.29893 3.76339 6.66305 3.5 6.00001 3.5Z" fill="#1E1E1E"/>
</g>
<defs>
<clipPath id="clip0_390_1043">
<rect width="12" height="16" fill="white"/>
</clipPath>
</defs>
</svg>
