<svg width="20" height="20" viewBox="0 0 20 20" fill="none" xmlns="http://www.w3.org/2000/svg">
<g clip-path="url(#clip0_390_982)">
<path d="M19.71 18.29L14.31 12.9C15.4084 11.5032 16.0038 9.77691 16 8C16 6.41775 15.5308 4.87103 14.6518 3.55544C13.7727 2.23984 12.5233 1.21446 11.0615 0.608963C9.59966 0.00346243 7.99113 -0.154964 6.43928 0.153718C4.88743 0.462399 3.46197 1.22433 2.34315 2.34315C1.22433 3.46197 0.462403 4.88743 0.153721 6.43928C-0.15496 7.99113 0.00346625 9.59966 0.608967 11.0615C1.21447 12.5233 2.23985 13.7727 3.55544 14.6518C4.87103 15.5308 6.41775 16 8 16C9.77692 16.0038 11.5032 15.4084 12.9 14.31L18.29 19.71C18.4783 19.8983 18.7337 20.0041 19 20.0041C19.2663 20.0041 19.5217 19.8983 19.71 19.71C19.8983 19.5217 20.0041 19.2663 20.0041 19C20.0041 18.7337 19.8983 18.4783 19.71 18.29ZM2 8C2 6.81331 2.3519 5.65327 3.01119 4.66658C3.67047 3.67988 4.60755 2.91085 5.7039 2.45672C6.80026 2.0026 8.00666 1.88378 9.17055 2.11529C10.3344 2.3468 11.4035 2.91824 12.2426 3.75736C13.0818 4.59647 13.6532 5.66557 13.8847 6.82946C14.1162 7.99334 13.9974 9.19974 13.5433 10.2961C13.0892 11.3925 12.3201 12.3295 11.3334 12.9888C10.3467 13.6481 9.18669 14 8 14C6.4087 14 4.88258 13.3679 3.75736 12.2426C2.63214 11.1174 2 9.5913 2 8Z" fill="white"/>
</g>
<defs>
<clipPath id="clip0_390_982">
<rect width="20" height="20" fill="white"/>
</clipPath>
</defs>
</svg>
