<svg width="27" height="30" viewBox="0 0 27 30" fill="none" xmlns="http://www.w3.org/2000/svg">
<g clip-path="url(#clip0_329_5656)">
<path d="M22.0607 21.18C21.3953 21.1825 20.7391 21.3359 20.1415 21.6286C19.5439 21.9213 19.0205 22.3458 18.6107 22.87L8.36069 16.95C8.65663 16.355 8.81067 15.6995 8.81067 15.035C8.81067 14.3705 8.65663 13.715 8.36069 13.12L18.6307 7.19001C19.0387 7.69698 19.5548 8.10641 20.1413 8.38842C20.7278 8.67042 21.3699 8.81788 22.0207 8.82001C22.8929 8.82001 23.7455 8.56136 24.4708 8.07679C25.196 7.59221 25.7612 6.90347 26.095 6.09765C26.4288 5.29182 26.5161 4.40511 26.3459 3.54966C26.1758 2.6942 25.7558 1.90841 25.139 1.29166C24.5223 0.674912 23.7365 0.254898 22.881 0.0847371C22.0256 -0.0854237 21.1389 0.00191593 20.3331 0.335698C19.5272 0.669481 18.8385 1.23471 18.3539 1.95994C17.8693 2.68516 17.6107 3.53779 17.6107 4.41001C17.6174 4.91496 17.7087 5.41522 17.8807 5.89L7.5007 11.89C7.09336 11.4766 6.60754 11.1486 6.07178 10.9254C5.53602 10.7021 4.96111 10.5881 4.38071 10.59C3.2111 10.59 2.0894 11.0546 1.26236 11.8817C0.435324 12.7087 -0.0292969 13.8304 -0.0292969 15C-0.0292969 16.1696 0.435324 17.2913 1.26236 18.1184C2.0894 18.9454 3.2111 19.41 4.38071 19.41C5.52078 19.4133 6.61636 18.9679 7.43069 18.17L17.8607 24.17C17.7009 24.6197 17.6165 25.0928 17.6107 25.57C17.6087 26.4451 17.8665 27.301 18.3514 28.0294C18.8364 28.7578 19.5265 29.3258 20.3346 29.6616C21.1427 29.9974 22.0322 30.0858 22.8905 29.9155C23.7489 29.7453 24.5373 29.3242 25.1561 28.7054C25.7748 28.0867 26.196 27.2982 26.3662 26.4398C26.5365 25.5815 26.4481 24.692 26.1123 23.8839C25.7765 23.0759 25.2085 22.3857 24.4801 21.9007C23.7517 21.4158 22.8957 21.158 22.0207 21.16L22.0607 21.18ZM22.0607 1.50001C22.6362 1.50001 23.1989 1.67067 23.6774 1.99042C24.1559 2.31018 24.5289 2.76466 24.7492 3.29639C24.9694 3.82812 25.027 4.41323 24.9148 4.97771C24.8025 5.5422 24.5253 6.06072 24.1184 6.46769C23.7114 6.87466 23.1929 7.15181 22.6284 7.26409C22.0639 7.37637 21.4788 7.31875 20.9471 7.0985C20.4153 6.87825 19.9609 6.50526 19.6411 6.02671C19.3214 5.54816 19.1507 4.98555 19.1507 4.41001C19.1533 3.63904 19.4608 2.90039 20.0059 2.35523C20.5511 1.81007 21.2897 1.50264 22.0607 1.50001ZM4.42068 17.91C3.84514 17.91 3.28253 17.7393 2.80399 17.4196C2.32544 17.0998 1.95246 16.6453 1.73221 16.1136C1.51196 15.5819 1.45434 14.9968 1.56662 14.4323C1.6789 13.8678 1.95604 13.3493 2.36301 12.9423C2.76998 12.5354 3.28848 12.2582 3.85297 12.1459C4.41745 12.0336 5.00257 12.0913 5.5343 12.3115C6.06603 12.5318 6.52052 12.9047 6.84027 13.3833C7.16003 13.8618 7.33069 14.4245 7.33069 15C7.33069 15.3822 7.25543 15.7605 7.10919 16.1136C6.96295 16.4667 6.74858 16.7875 6.47836 17.0577C6.20814 17.3279 5.88736 17.5423 5.5343 17.6885C5.18124 17.8347 4.80283 17.91 4.42068 17.91ZM22.0607 28.5C21.4856 28.498 20.9239 28.3257 20.4467 28.0047C19.9695 27.6838 19.5981 27.2286 19.3793 26.6967C19.1606 26.1648 19.1044 25.58 19.2178 25.0162C19.3312 24.4524 19.6092 23.9348 20.0165 23.5288C20.4239 23.1228 20.9424 22.8467 21.5067 22.7352C22.0709 22.6237 22.6554 22.6819 23.1866 22.9025C23.7177 23.123 24.1717 23.496 24.491 23.9743C24.8103 24.4527 24.9807 25.0149 24.9807 25.59C24.978 26.3627 24.6692 27.1028 24.1219 27.6483C23.5746 28.1937 22.8334 28.5 22.0607 28.5Z" fill="#1E1E1E"/>
</g>
<defs>
<clipPath id="clip0_329_5656">
<rect width="26.47" height="30" fill="white"/>
</clipPath>
</defs>
</svg>
