<svg width="16" height="16" viewBox="0 0 16 16" fill="none" xmlns="http://www.w3.org/2000/svg">
<path d="M16 8C16 12.4183 12.4183 16 8 16C3.58172 16 0 12.4183 0 8C0 3.58172 3.58172 0 8 0C12.4183 0 16 3.58172 16 8Z" fill="#8E8B81"/>
<path d="M11.9576 10.1221C11.9479 10.1012 11.9389 10.0839 11.9305 10.07C11.7917 9.82006 11.5264 9.51323 11.1349 9.14945L11.1266 9.14112L11.1225 9.13703L11.1183 9.13285H11.1141C10.9364 8.96345 10.8239 8.84956 10.7768 8.79125C10.6905 8.68017 10.6712 8.56773 10.7183 8.4538C10.7516 8.36773 10.8767 8.18595 11.0932 7.90822C11.2071 7.76103 11.2973 7.64306 11.3639 7.55419C11.8444 6.91548 12.0526 6.50734 11.9887 6.3296L11.9639 6.28807C11.9473 6.26306 11.9042 6.24019 11.8349 6.21933C11.7654 6.19851 11.6765 6.19506 11.5682 6.20894L10.3687 6.21722C10.3492 6.21034 10.3215 6.21098 10.2853 6.21933C10.2492 6.22767 10.2312 6.23186 10.2312 6.23186L10.2103 6.24229L10.1937 6.25482C10.1798 6.26311 10.1645 6.27768 10.1479 6.29851C10.1313 6.31927 10.1174 6.34364 10.1063 6.3714C9.97572 6.7074 9.82723 7.01979 9.66058 7.30857C9.55783 7.48076 9.46347 7.62999 9.37729 7.75635C9.29123 7.88266 9.21903 7.97572 9.16076 8.03538C9.10241 8.09509 9.04974 8.14293 9.00244 8.17906C8.95522 8.21521 8.91917 8.23049 8.89421 8.2249C8.86919 8.21931 8.84563 8.21377 8.82332 8.20823C8.78447 8.18322 8.75322 8.14921 8.72966 8.10618C8.706 8.06314 8.69006 8.00897 8.68173 7.94371C8.67345 7.87841 8.66855 7.82225 8.66714 7.77502C8.66585 7.72785 8.66644 7.66114 8.66926 7.57506C8.67215 7.48895 8.67345 7.43068 8.67345 7.40013C8.67345 7.29459 8.6755 7.18005 8.67963 7.05648C8.68384 6.93292 8.68723 6.83501 8.69008 6.76288C8.69291 6.69068 8.69422 6.61429 8.69422 6.53376C8.69422 6.45323 8.68932 6.39007 8.67963 6.34424C8.67006 6.29846 8.65537 6.25402 8.63601 6.21094C8.61654 6.1679 8.58803 6.13461 8.55062 6.11097C8.51314 6.08737 8.46655 6.06864 8.41109 6.05472C8.26391 6.02141 8.07648 6.00339 7.84873 6.00059C7.33227 5.99505 7.00041 6.0284 6.85324 6.1006C6.79493 6.13111 6.74216 6.17279 6.69498 6.22551C6.64498 6.28662 6.63801 6.31997 6.6741 6.32546C6.84074 6.35042 6.9587 6.41013 7.02813 6.50454L7.05315 6.55457C7.07261 6.59066 7.09205 6.65456 7.11149 6.74618C7.13091 6.8378 7.14344 6.93915 7.14896 7.05017C7.16282 7.25291 7.16282 7.42646 7.14896 7.57083C7.13505 7.71526 7.12192 7.8277 7.10939 7.90823C7.09686 7.98876 7.07813 8.05402 7.05315 8.10399C7.02813 8.15397 7.01149 8.18452 7.00314 8.19561C6.99481 8.20669 6.98787 8.21368 6.98235 8.21642C6.94626 8.23026 6.90872 8.2373 6.86987 8.2373C6.83096 8.2373 6.78378 8.21784 6.72826 8.17895C6.67274 8.14005 6.61513 8.08663 6.55542 8.01858C6.49571 7.95053 6.42836 7.85542 6.35336 7.73325C6.27842 7.61108 6.20066 7.4667 6.12013 7.30009L6.0535 7.17927C6.01185 7.10154 5.95495 6.98835 5.88275 6.83982C5.81051 6.69124 5.74665 6.5475 5.69114 6.40866C5.66895 6.35035 5.63561 6.30595 5.59119 6.27541L5.57034 6.26287C5.55648 6.25179 5.53424 6.24001 5.50372 6.22747C5.47315 6.21493 5.44126 6.20595 5.40791 6.20042L4.26663 6.2087C4.15 6.2087 4.07087 6.23513 4.02921 6.28789L4.01253 6.31286C4.0042 6.32676 4 6.34896 4 6.37953C4 6.41008 4.00833 6.44757 4.02501 6.49196C4.19161 6.88353 4.37279 7.26117 4.56855 7.62493C4.7643 7.98869 4.93441 8.28171 5.07877 8.50373C5.22315 8.7259 5.37033 8.93559 5.52029 9.13269C5.67025 9.32986 5.76951 9.45621 5.81808 9.51172C5.8667 9.56734 5.9049 9.60891 5.93266 9.63668L6.03681 9.73663C6.10345 9.80328 6.20132 9.88311 6.33044 9.97612C6.4596 10.0692 6.60259 10.1608 6.75948 10.2511C6.91639 10.3413 7.09895 10.4149 7.30723 10.4718C7.51549 10.5288 7.71819 10.5516 7.91536 10.5406H8.39437C8.49152 10.5322 8.56512 10.5017 8.61515 10.4489L8.63172 10.4281C8.64287 10.4115 8.6533 10.3857 8.66293 10.3511C8.67267 10.3164 8.67752 10.2781 8.67752 10.2365C8.67467 10.1172 8.68376 10.0096 8.70454 9.91378C8.7253 9.81802 8.74896 9.74582 8.77542 9.69719C8.80187 9.64861 8.83172 9.60762 8.86494 9.57438C8.89823 9.54107 8.92196 9.5209 8.93587 9.51395C8.9497 9.50697 8.96075 9.50222 8.96908 9.49938C9.03572 9.47718 9.11415 9.49868 9.20449 9.56399C9.29475 9.62925 9.37941 9.70983 9.4586 9.80559C9.53774 9.90144 9.63283 10.009 9.74388 10.1284C9.85501 10.2478 9.95217 10.3366 10.0354 10.395L10.1187 10.4449C10.1743 10.4783 10.2465 10.5088 10.3354 10.5366C10.4241 10.5643 10.5019 10.5713 10.5686 10.5574L11.6349 10.5408C11.7403 10.5408 11.8224 10.5233 11.8806 10.4887C11.9389 10.454 11.9736 10.4157 11.9848 10.3741C11.9959 10.3325 11.9965 10.2853 11.9869 10.2324C11.977 10.1798 11.9673 10.1429 11.9576 10.1221Z" fill="white"/>
</svg>
