<svg width="16" height="16" viewBox="0 0 16 16" fill="none" xmlns="http://www.w3.org/2000/svg">
<circle cx="8" cy="8" r="6" fill="white"/>
<path fill-rule="evenodd" clip-rule="evenodd" d="M0 8C0 12.4183 3.58173 16 8 16C12.4183 16 16 12.4183 16 8C16 3.58173 12.4183 0 8 0C3.58173 0 0 3.58173 0 8ZM6.53333 11.6667L6.66943 9.62743L10.379 6.27967C10.5418 6.13517 10.3434 6.0647 10.1273 6.19577L5.5491 9.0841L3.57157 8.4669C3.1445 8.33613 3.14143 8.04267 3.66743 7.8317L11.3734 4.8603C11.7254 4.7005 12.0651 4.94483 11.9307 5.4835L10.6184 11.6677C10.5268 12.1072 10.2612 12.2123 9.89333 12.0093L7.89423 10.5323L6.93333 11.4667C6.9303 11.4696 6.9273 11.4725 6.9243 11.4755C6.81683 11.5801 6.7279 11.6667 6.53333 11.6667Z" fill="#8E8B81"/>
</svg>
