<svg width="30" height="30" viewBox="0 0 30 30" fill="none" xmlns="http://www.w3.org/2000/svg">
<g clip-path="url(#clip0_298_3289)">
<path d="M27 1.5C27.3978 1.5 27.7793 1.65804 28.0607 1.93934C28.342 2.22064 28.5 2.60218 28.5 3V27C28.5 27.3978 28.342 27.7794 28.0607 28.0607C27.7793 28.342 27.3978 28.5 27 28.5H3C2.60218 28.5 2.22065 28.342 1.93935 28.0607C1.65804 27.7794 1.5 27.3978 1.5 27V3C1.5 2.60218 1.65804 2.22064 1.93935 1.93934C2.22065 1.65804 2.60218 1.5 3 1.5H27ZM27 0H3C2.20435 0 1.44129 0.31607 0.878677 0.878679C0.316068 1.44129 0 2.20435 0 3V27C0 27.7956 0.316068 28.5587 0.878677 29.1213C1.44129 29.6839 2.20435 30 3 30H27C27.7956 30 28.5587 29.6839 29.1213 29.1213C29.6839 28.5587 30 27.7956 30 27V3C30 2.20435 29.6839 1.44129 29.1213 0.878679C28.5587 0.31607 27.7956 0 27 0Z" fill="#1E1E1E"/>
<path d="M15 6.5C16.6811 6.5 18.3245 6.99852 19.7224 7.93251C21.1202 8.8665 22.2096 10.194 22.853 11.7472C23.4963 13.3004 23.6646 15.0094 23.3367 16.6583C23.0087 18.3071 22.1992 19.8217 21.0104 21.0104C19.8217 22.1992 18.3071 23.0087 16.6583 23.3367C15.0094 23.6646 13.3004 23.4963 11.7472 22.853C10.194 22.2096 8.8665 21.1202 7.93251 19.7223C6.99852 18.3245 6.5 16.6811 6.5 15C6.50265 12.7465 7.39902 10.586 8.99251 8.99252C10.586 7.39903 12.7465 6.50265 15 6.5ZM15 5C13.0222 5 11.0888 5.58649 9.44429 6.6853C7.7998 7.78412 6.51808 9.34591 5.7612 11.1732C5.00432 13.0004 4.8063 15.0111 5.19215 16.9509C5.57801 18.8907 6.5304 20.6725 7.92893 22.0711C9.32745 23.4696 11.1093 24.422 13.0491 24.8079C14.9889 25.1937 16.9996 24.9957 18.8268 24.2388C20.6541 23.4819 22.2159 22.2002 23.3147 20.5557C24.4135 18.9112 25 16.9778 25 15C25 12.3478 23.9464 9.8043 22.0711 7.92893C20.1957 6.05357 17.6522 5 15 5Z" fill="#1E1E1E"/>
<path d="M11 14C10.8022 14 10.6089 14.0586 10.4444 14.1685C10.28 14.2784 10.1518 14.4346 10.0761 14.6173C10.0004 14.8 9.98063 15.0011 10.0192 15.1951C10.0578 15.3891 10.153 15.5673 10.2929 15.7071C10.4327 15.847 10.6109 15.9422 10.8049 15.9808C10.9989 16.0194 11.2 15.9996 11.3827 15.9239C11.5654 15.8482 11.7216 15.72 11.8315 15.5556C11.9413 15.3911 12 15.1978 12 15C12 14.7348 11.8946 14.4804 11.7071 14.2929C11.5196 14.1054 11.2652 14 11 14Z" fill="#1E1E1E"/>
<path d="M19 14C18.8022 14 18.6089 14.0586 18.4444 14.1685C18.28 14.2784 18.1518 14.4346 18.0761 14.6173C18.0004 14.8 17.9806 15.0011 18.0192 15.1951C18.0578 15.3891 18.153 15.5673 18.2929 15.7071C18.4327 15.847 18.6109 15.9422 18.8049 15.9808C18.9989 16.0194 19.2 15.9996 19.3827 15.9239C19.5654 15.8482 19.7216 15.72 19.8315 15.5556C19.9413 15.3911 20 15.1978 20 15C20 14.7348 19.8946 14.4804 19.7071 14.2929C19.5196 14.1054 19.2652 14 19 14Z" fill="#1E1E1E"/>
</g>
<defs>
<clipPath id="clip0_298_3289">
<rect width="30" height="30" fill="white"/>
</clipPath>
</defs>
</svg>
