<svg width="32" height="31" viewBox="0 0 32 31" fill="none" xmlns="http://www.w3.org/2000/svg">
<path d="M15.1033 0.816984C15.4701 0.0737388 16.5299 0.07374 16.8967 0.816986L21.0574 9.24741C21.2031 9.54255 21.4846 9.74712 21.8103 9.79445L31.1139 11.1463C31.9341 11.2655 32.2616 12.2735 31.6681 12.852L24.936 19.4142C24.7003 19.6439 24.5927 19.9749 24.6484 20.2993L26.2376 29.5652C26.3777 30.3822 25.5203 31.0051 24.7867 30.6194L16.4653 26.2446C16.174 26.0915 15.826 26.0915 15.5347 26.2446L7.21334 30.6194C6.47971 31.0051 5.62228 30.3822 5.76239 29.5652L7.35162 20.2993C7.40726 19.9749 7.29971 19.6439 7.06402 19.4142L0.331932 12.852C-0.261585 12.2735 0.0659258 11.2655 0.886146 11.1463L10.1897 9.79445C10.5154 9.74712 10.7969 9.54255 10.9426 9.24741L15.1033 0.816984Z" fill="#FED262"/>
</svg>
