<svg width="18" height="16" viewBox="0 0 18 16" fill="none" xmlns="http://www.w3.org/2000/svg">
<g clip-path="url(#clip0_390_992)">
<path d="M16.2601 10.5171L14.6301 14.5047H3.38013L1.75013 10.5171H16.2601ZM16.9501 9.02181H1.06013C0.892171 9.01041 0.724044 9.04146 0.571332 9.11209C0.418619 9.18272 0.286265 9.29064 0.186537 9.42584C0.0868098 9.56105 0.0229368 9.71917 0.000839747 9.88554C-0.0212573 10.0519 -0.000864457 10.2212 0.0601297 10.3776L2.06013 15.362C2.13658 15.5609 2.27492 15.7301 2.45487 15.845C2.63483 15.9598 2.84694 16.0141 3.06013 16H14.9201C15.1319 16.0067 15.3408 15.9493 15.5193 15.8354C15.6978 15.7216 15.8375 15.5565 15.9201 15.362L17.9201 10.3776C17.9811 10.2212 18.0015 10.0519 17.9794 9.88554C17.9573 9.71917 17.8934 9.56105 17.7937 9.42584C17.694 9.29064 17.5616 9.18272 17.4089 9.11209C17.2562 9.04146 17.0881 9.01041 16.9201 9.02181H16.9501Z" fill="#1E1E1E"/>
<path d="M7.33008 10.0187V2.2729C8.69008 3.16012 11.0001 5.32336 11.5801 10.0187H13.0601C12.1901 2.33271 7.06008 0.418692 6.83008 0.338941L5.83008 0V10.0187H7.33008Z" fill="#1E1E1E"/>
</g>
<defs>
<clipPath id="clip0_390_992">
<rect width="18" height="16" fill="white"/>
</clipPath>
</defs>
</svg>
