<svg width="16" height="16" viewBox="0 0 16 16" fill="none" xmlns="http://www.w3.org/2000/svg">
<g clip-path="url(#clip0_390_1030)">
<path d="M8.00001 1.5C9.28559 1.5 10.5423 1.88122 11.6112 2.59545C12.6801 3.30968 13.5133 4.32484 14.0052 5.51256C14.4972 6.70028 14.6259 8.00721 14.3751 9.26809C14.1243 10.529 13.5052 11.6872 12.5962 12.5962C11.6872 13.5052 10.529 14.1243 9.26807 14.3751C8.0072 14.6259 6.70027 14.4972 5.51255 14.0052C4.32483 13.5132 3.30967 12.6801 2.59544 11.6112C1.88121 10.5423 1.50001 9.28558 1.50001 8C1.50265 6.27691 2.1883 4.62514 3.40672 3.40673C4.62513 2.18832 6.27691 1.50264 8.00001 1.5ZM8.00001 0C6.41776 0 4.87102 0.469192 3.55543 1.34824C2.23984 2.22729 1.21446 3.47672 0.608956 4.93853C0.00345498 6.40034 -0.154956 8.00888 0.153725 9.56073C0.462407 11.1126 1.22433 12.538 2.34315 13.6569C3.46197 14.7757 4.88743 15.5376 6.43928 15.8463C7.99113 16.155 9.59966 15.9965 11.0615 15.391C12.5233 14.7855 13.7727 13.7602 14.6517 12.4446C15.5308 11.129 16 9.58225 16 8C16 5.87827 15.1571 3.84344 13.6568 2.34315C12.1565 0.842856 10.1217 0 8.00001 0Z" fill="#1E1E1E"/>
<path d="M8.75 7.32996V4.57996C8.74741 4.38185 8.66756 4.19259 8.52747 4.05249C8.38737 3.9124 8.19811 3.83255 8 3.82996C7.80109 3.82996 7.61032 3.90897 7.46967 4.04963C7.32901 4.19028 7.25 4.38104 7.25 4.57996V7.82996C7.25 8.09517 7.35534 8.34953 7.54288 8.53706C7.73041 8.7246 7.98478 8.82996 8.25 8.82996H10.5C10.6981 8.82737 10.8874 8.74752 11.0275 8.60742C11.1676 8.46733 11.2474 8.27806 11.25 8.07996C11.2474 7.88185 11.1676 7.69258 11.0275 7.55249C10.8874 7.4124 10.6981 7.33255 10.5 7.32996H8.75Z" fill="#1E1E1E"/>
</g>
<defs>
<clipPath id="clip0_390_1030">
<rect width="16" height="16" fill="white"/>
</clipPath>
</defs>
</svg>
