<svg width="1072" height="405" viewBox="0 0 1072 405" fill="none" xmlns="http://www.w3.org/2000/svg">
<g clip-path="url(#clip0_659_4)">
<path d="M618.8 191.922L0 207.829V-0.106689L618.8 23.767V191.922Z" fill="#FF002C"/>
<path d="M994.826 404.893L376.026 367.564V218.327L994.826 186.327V404.893Z" fill="#FF002C"/>
<path d="M75.2802 171.512L54.8535 171.965V41.406L118.294 42.6317V170.526L98.1069 170.979V60.6435L75.2802 60.2971V171.512Z" fill="white"/>
<path d="M138 73.6194C138 53.2895 148.373 41.9122 167.147 42.3385C185.92 42.7648 195.733 54.3819 195.733 74.3122V138.979C195.733 158.883 185.707 170.5 167.147 170.953C148.587 171.406 138 159.868 138 139.645V73.6194ZM157.333 140.684C157.333 149.69 161.147 153.047 167.2 152.967C173.253 152.887 177.04 149.397 177.04 140.444V72.82C177.04 63.8674 173.253 60.4036 167.2 60.297C161.147 60.1904 157.333 63.5743 157.333 72.5802V140.684Z" fill="white"/>
<path d="M298.88 76.3106V91.8977C298.88 111.082 290.373 121.58 272.853 121.687H264.506V167.329L246.64 167.729V45.5359L272.853 46.1221C290.373 46.4951 298.88 57.1263 298.88 76.3106ZM264.506 63.2813V104.367H272.853C278.453 104.367 281.493 101.703 281.493 92.9902V74.925C281.493 66.2921 278.453 63.4944 272.853 63.4145L264.506 63.2813Z" fill="white"/>
<path d="M330.133 97.3331H353.12V114.093H330.133V148.731L359.013 148.278V165.197L313.12 166.21V47.0012L359.013 48.0137V64.7733L330.133 64.3203V97.3331Z" fill="white"/>
<path d="M396.373 118.356L391.387 129.014V164.531L375.146 164.878V48.3867L391.387 48.7331V99.1982L412.347 49.1861L428.133 49.5324L406.106 100.371L428.133 163.732L411.92 164.078L396.373 118.356Z" fill="white"/>
<path d="M490.213 162.346L475.04 162.693L472.373 142.389L453.706 142.656L451.04 163.226L436.8 163.519L452.56 50.092L474.906 50.5716L490.213 162.346ZM455.546 127.282H470.24L462.906 70.3687L455.546 127.282Z" fill="white"/>
<path d="M533.493 129.627L543.28 52.0905L563.04 52.5168V160.748L549.707 161.041V82.9984L539.813 161.254L526.16 161.547L515.28 83.7711V161.787L502.427 162.08V51.1846L522.853 51.6375L533.493 129.627Z" fill="white"/>
<path d="M408 287.177H432.213V302.844H408V287.177Z" fill="white"/>
<path d="M464.533 306.201L460.24 316.353V350.538L446.427 350.112V239.803L460.24 239.403V287.763L478.613 238.737L492.88 238.337L473.067 288.962L492.88 351.631L478.213 351.204L464.533 306.201Z" fill="white"/>
<path d="M552.986 353.229L537.68 352.776L535.013 331.727L516.773 331.381L514.24 352.11L500.906 351.71L515.786 237.644L537.573 237.005L552.986 353.229ZM518.693 315.927H533.04L525.84 257.655L518.693 315.927Z" fill="white"/>
<path d="M581.333 354.055L565.733 353.602V236.179L581.333 235.726V286.351H599.333V235.193L615.76 234.714V355.068L599.333 354.588V303.404H581.333V354.055Z" fill="white"/>
<path d="M688.586 357.173L671.146 356.666L668.186 334.205L647.413 333.805L644.506 355.894L629.333 355.441L646.24 233.834L671.04 233.088L688.586 357.173ZM649.546 317.206L665.84 317.365L657.653 255.177L649.546 317.206Z" fill="white"/>
<path d="M698.133 339.747C706.133 339.934 708.8 338.735 709.04 327.038L712 231.809L763.546 230.317V359.278L744.693 358.745V249.208L728.693 249.555L726.72 326.238C726.053 349.392 718.533 358.212 700.773 357.706H698.106L698.133 339.747Z" fill="white"/>
<path d="M848 361.835L827.867 361.249L824.454 337.109L800.454 336.656L797.334 360.343L779.787 359.837L799.254 229.278L827.84 228.425L848 361.835ZM802.987 318.884L821.654 319.071L812.214 252.459L802.987 318.884Z" fill="white"/>
<path d="M908.987 323.734L923.52 225.708L953.787 224.828V365.033L933.147 364.447V264.715L918.267 363.887L898.24 363.301L882.667 266.714V362.848L864.693 362.315V227.439L893.467 226.48L908.987 323.734Z" fill="white"/>
<path d="M742.613 149.211V154.539C742.613 160.801 739.467 164.558 733.44 164.851C727.413 165.144 724.267 161.76 724.267 155.499V135.115C724.267 128.854 727.387 125.097 733.44 124.777C739.493 124.458 742.613 127.895 742.613 134.156V137.966L736.8 138.26V134.076C736.8 131.412 735.573 130.266 733.6 130.373C731.627 130.479 730.427 131.598 730.427 134.396V155.552C730.427 158.216 731.653 159.309 733.6 159.202C735.547 159.096 736.8 158.03 736.8 155.232V149.637L742.613 149.211Z" fill="#023ED4"/>
<path d="M768.506 162.533L762.293 162.853L761.253 155.818L753.68 156.191L752.613 163.359L746.986 163.652L753.253 124.164L762.24 123.685L768.506 162.533ZM754.48 150.836L760.4 150.543L757.333 130.932L754.48 150.836Z" fill="#023ED4"/>
<path d="M779.76 162L773.6 162.32V123.152L779.76 122.832V139.618L786.746 139.245V122.566L793.013 122.246V161.414L786.746 161.76V144.841L779.76 145.214V162Z" fill="#023ED4"/>
<path d="M807.787 144.921L805.893 148.624V160.641L799.733 160.961V121.793L805.893 121.473V138.553L813.893 121.047L820.027 120.727L811.547 138.553L820.08 159.868L813.76 160.188L807.787 144.921Z" fill="#023ED4"/>
<path d="M823.333 120.567L842.346 119.582V125.23L835.92 125.55V159.096L829.76 159.415V125.816L823.333 126.163V120.567Z" fill="#023ED4"/>
<path d="M847.014 136.128L858.187 135.542V141.217L847.014 141.803V136.128Z" fill="#023ED4"/>
<path d="M870.773 157.204L864.613 157.524V118.409L884.027 117.397V156.591L877.76 156.911V123.339L870.773 123.685V157.204Z" fill="#023ED4"/>
<path d="M896.906 133.224L905.333 132.797V138.553L896.906 138.979V150.463L907.573 149.903V155.499L890.8 156.378V117.05L907.573 116.198V121.793L896.906 122.326V133.224Z" fill="#023ED4"/>
<path d="M911.787 115.958L930.8 114.972V120.568L924.374 120.914V154.54L918.214 154.859V121.234L911.787 121.553V115.958Z" fill="#023ED4"/>
<path d="M941.866 130.906L950.32 130.479V136.075L941.866 136.501V147.985L952.533 147.425V153.021L935.76 153.9V114.732L952.533 113.853V119.448L941.866 120.008V130.906Z" fill="#023ED4"/>
<path d="M976.773 122.273V127.362C976.773 133.623 973.76 137.194 967.6 137.513L964.693 137.673V152.381L958.56 152.701V113.533L967.6 113.054C973.76 112.734 976.773 116.011 976.773 122.273ZM964.693 118.809V132.131L967.6 131.971C969.573 131.971 970.64 130.932 970.64 128.135V122.193C970.64 119.528 969.573 118.569 967.6 118.676L964.693 118.809Z" fill="#023ED4"/>
<path d="M981.92 151.502V112.334L999.147 111.428V117.024L988.08 117.61V127.628L991.653 127.442C997.813 127.122 1000.96 130.373 1000.96 136.634V140.817C1000.96 147.106 997.813 150.676 991.653 150.996L981.92 151.502ZM991.653 145.4C993.627 145.4 994.8 144.334 994.8 141.537V136.554C994.8 133.89 993.627 132.931 991.653 133.037L988.08 133.224V145.587L991.653 145.4Z" fill="#023ED4"/>
<path d="M1020.99 139.512C1019.52 146.626 1017.12 150.17 1008.56 150.17V144.681C1011.68 144.681 1013.49 144.095 1013.89 141.217V140.871L1005.41 111.082L1011.49 110.789L1014.85 124.111L1016.75 133.197L1018.21 124.005L1021.01 110.416L1027.44 110.096L1020.99 139.512Z" fill="#023ED4"/>
<path d="M1050.67 118.436V123.525C1050.67 129.786 1047.65 133.357 1041.49 133.677L1038.59 133.836V148.544L1032.45 148.864V109.696L1041.49 109.217C1047.6 108.897 1050.67 112.174 1050.67 118.436ZM1038.59 114.972V128.294L1041.49 128.134C1043.47 128.134 1044.53 127.095 1044.53 124.298V118.356C1044.53 115.558 1043.47 114.732 1041.49 114.812L1038.59 114.972Z" fill="#023ED4"/>
<path d="M1055.76 147.665V108.497L1072 107.645V113.24L1061.92 113.773V147.345L1055.76 147.665Z" fill="#023ED4"/>
</g>
<defs>
<clipPath id="clip0_659_4">
<rect width="1072" height="405" fill="white"/>
</clipPath>
</defs>
</svg>
