<svg width="30" height="23" viewBox="0 0 30 23" fill="none" xmlns="http://www.w3.org/2000/svg">
<g clip-path="url(#clip0_298_3299)">
<path d="M29.9999 21.76C29.9424 22.0176 29.8205 22.2563 29.6456 22.454C29.4707 22.6516 29.2486 22.8016 28.9999 22.89C28.8005 22.9412 28.5957 22.968 28.3899 22.97H17.9999C17.6396 23.0071 17.2783 22.9089 16.9863 22.6946C16.6943 22.4802 16.4924 22.1649 16.4199 21.81C16.36 21.5366 16.36 21.2534 16.4199 20.98C17.1599 18.13 17.8899 15.27 18.6799 12.43C18.9036 11.5423 19.3866 10.7413 20.0673 10.1291C20.748 9.51684 21.5955 9.12117 22.5019 8.99245C23.4083 8.86374 24.3325 9.00779 25.1568 9.40629C25.981 9.80478 26.6679 10.4397 27.1299 11.23C27.3779 11.6733 27.5662 12.1474 27.6899 12.64C28.4499 15.49 29.1899 18.34 29.9499 21.19L29.9999 21.76ZM28.1199 21.2C28.125 21.1602 28.125 21.1198 28.1199 21.08C27.3899 18.32 26.6899 15.54 25.9199 12.79C25.7316 12.0777 25.2702 11.4682 24.6356 11.0938C24.001 10.7195 23.2445 10.6103 22.5299 10.79C21.9876 10.9122 21.4923 11.1887 21.1037 11.5862C20.7151 11.9837 20.4498 12.4851 20.3399 13.03L18.2599 20.96C18.2527 21.0398 18.2527 21.1202 18.2599 21.2H28.1199Z" fill="#1E1E1E"/>
<path d="M0.000701904 10.2C0.0573191 9.94209 0.178901 9.70289 0.353912 9.50513C0.528924 9.30737 0.751561 9.15759 1.0007 9.07003C1.1985 9.01017 1.40405 8.97985 1.6107 8.98003C5.0807 8.98003 8.5607 8.98003 12.0307 8.98003C12.2826 8.95307 12.5371 8.99118 12.77 9.09075C13.0029 9.19031 13.2064 9.34799 13.3609 9.54868C13.5154 9.74937 13.6159 9.98636 13.6526 10.237C13.6893 10.4876 13.6611 10.7434 13.5707 10.98C12.8307 13.82 12.0807 16.66 11.3207 19.5C11.0901 20.5177 10.5218 21.4274 9.70833 22.0809C8.89482 22.7345 7.88404 23.0933 6.84056 23.0991C5.79708 23.1049 4.78237 22.7573 3.96165 22.1129C3.14094 21.4684 2.56257 20.5651 2.32071 19.55C1.54071 16.66 0.790706 13.76 0.0207062 10.86C0.00720479 10.8057 -0.00949401 10.7523 -0.0292969 10.7L0.000701904 10.2ZM1.88071 10.75C1.87558 10.7899 1.87558 10.8302 1.88071 10.87C2.60071 13.62 3.31071 16.39 4.07071 19.13C4.26146 19.8323 4.71719 20.4332 5.34201 20.8062C5.96684 21.1792 6.71201 21.2953 7.4207 21.13C7.97907 21.0098 8.48952 20.7275 8.88802 20.3183C9.28651 19.9091 9.55532 19.3914 9.66071 18.83L11.5807 11.56C11.6607 11.28 11.7207 11 11.8007 10.71L1.88071 10.75Z" fill="#1E1E1E"/>
<path d="M6.83029 0.039992C7.54117 0.0400031 8.23604 0.251072 8.82684 0.646437C9.41764 1.0418 9.87777 1.60366 10.1489 2.26082C10.42 2.91797 10.4899 3.64082 10.3498 4.33775C10.2096 5.03468 9.86572 5.67432 9.36164 6.17558C8.85757 6.67685 8.21602 7.01717 7.51832 7.15343C6.82062 7.28968 6.09816 7.21573 5.44253 6.94095C4.7869 6.66616 4.22762 6.20291 3.83557 5.60991C3.44351 5.01691 3.23633 4.32086 3.24029 3.60998C3.2416 3.13985 3.33549 2.67458 3.51661 2.24074C3.69774 1.80689 3.96255 1.41297 4.29591 1.08147C4.62927 0.74996 5.02466 0.487367 5.45951 0.308669C5.89436 0.129971 6.36015 0.038677 6.83029 0.039992ZM6.83029 1.79999C6.34667 1.79998 5.88271 1.99141 5.5398 2.33244C5.1969 2.67347 5.00293 3.13638 5.00028 3.61999C4.98169 3.87102 5.01508 4.12317 5.09837 4.3607C5.18166 4.59823 5.31305 4.81603 5.48434 5.00047C5.65562 5.18491 5.86311 5.33204 6.09384 5.43265C6.32457 5.53325 6.57357 5.58517 6.82528 5.58517C7.07699 5.58517 7.326 5.53325 7.55673 5.43265C7.78746 5.33204 7.99495 5.18491 8.16624 5.00047C8.33752 4.81603 8.46891 4.59823 8.5522 4.3607C8.63548 4.12317 8.66887 3.87102 8.65028 3.61999C8.65028 3.1373 8.45853 2.67437 8.11721 2.33305C7.7759 1.99174 7.31298 1.79999 6.83029 1.79999Z" fill="#1E1E1E"/>
<path d="M23.1701 7.17C22.4596 7.17 21.7651 6.95919 21.1745 6.56427C20.5839 6.16935 20.1238 5.60808 19.8524 4.95151C19.581 4.29494 19.5105 3.5726 19.6498 2.87593C19.7891 2.17927 20.132 1.53961 20.6351 1.03794C21.1382 0.536266 21.7788 0.195146 22.4758 0.0577567C23.1729 -0.0796328 23.895 -0.0071066 24.5508 0.266146C25.2067 0.539399 25.7666 1.00109 26.1599 1.59278C26.5532 2.18446 26.762 2.87954 26.7601 3.59C26.7574 4.54039 26.378 5.45095 25.705 6.12204C25.0321 6.79314 24.1205 7.17 23.1701 7.17ZM23.1701 5.4C23.4116 5.40134 23.651 5.35459 23.8743 5.26247C24.0976 5.17035 24.3003 5.03471 24.4706 4.86345C24.6409 4.69219 24.7755 4.48873 24.8664 4.26494C24.9573 4.04116 25.0027 3.80153 25.0001 3.56C24.9659 3.09932 24.7588 2.66858 24.4204 2.35423C24.0819 2.03989 23.637 1.86518 23.1751 1.86518C22.7131 1.86518 22.2683 2.03989 21.9298 2.35423C21.5913 2.66858 21.3842 3.09932 21.3501 3.56C21.3474 3.80238 21.3931 4.04284 21.4847 4.26729C21.5762 4.49174 21.7116 4.69564 21.883 4.86704C22.0544 5.03843 22.2583 5.17386 22.4828 5.26538C22.7072 5.3569 22.9477 5.40267 23.1901 5.4H23.1701Z" fill="#1E1E1E"/>
</g>
<defs>
<clipPath id="clip0_298_3299">
<rect width="30" height="23" fill="white"/>
</clipPath>
</defs>
</svg>
