<svg width="370" height="81" viewBox="0 0 370 81" fill="none" xmlns="http://www.w3.org/2000/svg">
<g clip-path="url(#clip0_390_958)">
<path d="M344.49 5.49C338.9 7.91 334.07 9.99999 323.75 9.99999C313.43 9.99999 308.59 7.91 303 5.49C294.985 1.87356 286.293 0.00325479 277.5 0.00325479C268.707 0.00325479 260.015 1.87356 252 5.49C246.41 7.91 241.58 9.99999 231.26 9.99999C220.94 9.99999 216.11 7.91 210.52 5.49C202.505 1.87356 193.813 0.00325479 185.02 0.00325479C176.227 0.00325479 167.535 1.87356 159.52 5.49C153.92 7.91 149.09 9.99999 138.77 9.99999C128.45 9.99999 123.62 7.91 118.03 5.49C110.067 1.68619 101.322 -0.194302 92.5 -1.05882e-05C83.6876 -0.189217 74.9538 1.69114 67 5.49C61.41 7.91 56.58 9.99999 46.26 9.99999C35.94 9.99999 31.11 7.91 25.52 5.49C17.5593 1.69056 8.81883 -0.189746 0 -1.05882e-05V61C0 66.3043 2.10714 71.3914 5.85786 75.1421C9.60859 78.8929 14.6957 81 20 81H350C355.304 81 360.391 78.8929 364.142 75.1421C367.893 71.3914 370 66.3043 370 61V-1.05882e-05C361.185 -0.188178 352.448 1.69209 344.49 5.49Z" fill="#023ED4"/>
</g>
<defs>
<clipPath id="clip0_390_958">
<rect width="370" height="81" fill="white"/>
</clipPath>
</defs>
</svg>
