<svg width="370" height="212" viewBox="0 0 370 212" fill="none" xmlns="http://www.w3.org/2000/svg">
<path d="M344.49 5.50367C338.9 7.92367 334.07 10.0137 323.75 10.0137C313.43 10.0137 308.59 7.92367 303 5.50367C294.985 1.88723 286.293 0.0169267 277.5 0.0169267C268.707 0.0169267 260.015 1.88723 252 5.50367C246.41 7.92367 241.58 10.0137 231.26 10.0137C220.94 10.0137 216.11 7.92367 210.52 5.50367C202.505 1.88723 193.813 0.0169267 185.02 0.0169267C176.227 0.0169267 167.535 1.88723 159.52 5.50367C153.92 7.92367 149.09 10.0137 138.77 10.0137C128.45 10.0137 123.62 7.92367 118.03 5.50367C110.067 1.69987 101.322 -0.18063 92.5 0.0136613C83.6876 -0.175545 74.9538 1.70482 67 5.50367C61.41 7.92367 56.58 10.0137 46.26 10.0137C35.94 10.0137 31.11 7.92367 25.52 5.50367C17.5593 1.70424 8.81883 -0.176075 0 0.0136613V191.014C0 196.318 2.10714 201.405 5.85786 205.156C9.60859 208.907 14.6957 211.014 20 211.014H185H350C355.304 211.014 360.391 208.907 364.142 205.156C367.893 201.405 370 196.318 370 191.014V0.0136613C361.185 -0.174506 352.448 1.70577 344.49 5.50367Z" fill="#023ED4"/>
</svg>
