<svg width="739" height="176" viewBox="0 0 739 176" fill="none" xmlns="http://www.w3.org/2000/svg">
<path d="M3475 135.333C3423.85 135.333 3397.11 119.707 3373.48 106C3351.45 93.1467 3332.44 82 3292.12 82C3251.8 82 3232.79 93.0933 3210.76 106C3187.13 119.76 3160.36 135.333 3109.24 135.333C3058.12 135.333 3031.35 119.707 3007.72 106C2985.69 93.1467 2966.68 82 2926.36 82C2886.04 82 2867.03 93.0933 2845.03 106C2821.4 119.76 2794.63 135.333 2743.51 135.333C2692.39 135.333 2665.61 119.707 2641.99 106C2619.99 93.1467 2600.95 82 2560.65 82C2520.36 82 2501.32 93.0933 2479.29 106C2455.69 119.787 2428.92 135.333 2377.8 135.333C2326.68 135.333 2299.91 119.707 2276.28 106C2254.25 93.1733 2235.24 82 2194.92 82C2154.6 82 2135.59 93.0933 2113.59 106C2089.96 119.76 2063.19 135.333 2012.07 135.333C1960.95 135.333 1934.17 119.707 1910.55 106C1888.55 93.1733 1869.51 82 1829.21 82C1788.92 82 1769.88 93.0933 1747.85 106C1724.23 119.76 1697.48 135.333 1646.36 135.333C1595.24 135.333 1568.47 119.707 1544.84 106C1522.81 93.1733 1503.8 82 1463.51 82C1423.21 82 1404.17 93.0933 1382.15 106C1358.55 119.787 1331.77 135.333 1280.65 135.333C1229.53 135.333 1202.76 119.707 1179.16 106C1157.13 93.1733 1138.12 82 1097.8 82C1057.48 82 1038.49 93.0933 1016.47 106C992.84 119.787 966.093 135.333 914.973 135.333C863.853 135.333 837.08 119.707 813.453 106C791.427 93.1467 772.413 82 732.12 82C691.827 82 672.787 93.0933 650.76 106C627.133 119.76 600.36 135.333 549.24 135.333C498.12 135.333 471.373 119.707 447.747 106C425.72 93.1467 406.707 82 366.387 82C326.067 82 307.08 93.0933 285.053 106C261.427 119.787 234.653 135.333 183.533 135.333C132.413 135.333 105.667 119.707 82.04 106C60.0133 93.1467 41 82 0.679993 82C-39.64 82 -58.6266 93.0933 -80.6533 106C-104.28 119.787 -131.053 135.333 -182.173 135.333C-233.293 135.333 -260.04 119.707 -283.667 106C-305.693 93.1733 -324.707 82 -365 82V42C-313.88 42 -287.133 57.6 -263.507 71.3333C-241.48 84.1867 -222.467 95.3333 -182.173 95.3333C-141.88 95.3333 -122.84 84.24 -100.813 71.3333C-77.1866 57.5467 -50.44 42 0.679993 42C51.8 42 78.5733 57.6 102.2 71.3333C124.227 84.1867 143.24 95.3333 183.533 95.3333C223.827 95.3333 242.867 84.24 264.893 71.3333C288.653 57.6 315.32 42 366.387 42C417.453 42 444.28 57.6 467.907 71.3333C489.933 84.1867 508.947 95.3333 549.24 95.3333C589.533 95.3333 608.573 84.24 630.6 71.3333C654.227 57.5467 680.973 42 732.12 42C783.267 42 809.987 57.6 833.613 71.3333C855.64 84.1867 874.653 95.3333 914.973 95.3333C955.293 95.3333 974.28 84.24 996.307 71.3333C1019.93 57.5467 1046.68 42 1097.8 42C1148.92 42 1175.69 57.6 1199.32 71.3333C1221.32 84.1867 1240.36 95.3333 1280.65 95.3333C1320.95 95.3333 1339.99 84.24 1361.99 71.3333C1385.61 57.5467 1412.39 42 1463.51 42C1514.63 42 1541.37 57.6 1565 71.3333C1587.03 84.1867 1606.04 95.3333 1646.36 95.3333C1686.68 95.3333 1705.67 84.24 1727.69 71.3333C1751.32 57.5467 1778.09 42 1829.21 42C1880.33 42 1907.11 57.6 1930.71 71.3333C1952.73 84.1867 1971.75 95.3333 2012.07 95.3333C2052.39 95.3333 2071.4 84.24 2093.43 71.3333C2117.03 57.5467 2143.8 42 2194.92 42C2246.04 42 2272.81 57.6 2296.44 71.3333C2318.47 84.1867 2337.48 95.3333 2377.8 95.3333C2418.12 95.3333 2437.11 84.24 2459.13 71.3333C2482.76 57.5467 2509.53 42 2560.65 42C2611.77 42 2638.55 57.6 2662.15 71.3333C2684.17 84.1867 2703.19 95.3333 2743.51 95.3333C2783.83 95.3333 2802.84 84.24 2824.87 71.3333C2848.47 57.5467 2875.24 42 2926.36 42C2977.48 42 3004.25 57.6 3027.88 71.3333C3049.91 84.1867 3068.92 95.3333 3109.24 95.3333C3149.56 95.3333 3168.57 84.24 3190.6 71.3333C3214.23 57.5467 3241 42 3292.12 42C3343.24 42 3370.01 57.6 3393.64 71.3333C3415.67 84.1867 3434.68 95.3333 3475 95.3333V135.333Z" fill="#0283D4"/>
<path d="M3475 176.333C3423.85 176.333 3397.11 160.707 3373.48 147C3351.45 134.147 3332.44 123 3292.12 123C3251.8 123 3232.79 134.093 3210.76 147C3187.13 160.76 3160.36 176.333 3109.24 176.333C3058.12 176.333 3031.35 160.707 3007.72 147C2985.69 134.147 2966.68 123 2926.36 123C2886.04 123 2867.03 134.093 2845.03 147C2821.4 160.76 2794.63 176.333 2743.51 176.333C2692.39 176.333 2665.61 160.707 2641.99 147C2619.99 134.147 2600.95 123 2560.65 123C2520.36 123 2501.32 134.093 2479.29 147C2455.69 160.787 2428.92 176.333 2377.8 176.333C2326.68 176.333 2299.91 160.707 2276.28 147C2254.25 134.173 2235.24 123 2194.92 123C2154.6 123 2135.59 134.093 2113.59 147C2089.96 160.76 2063.19 176.333 2012.07 176.333C1960.95 176.333 1934.17 160.707 1910.55 147C1888.55 134.173 1869.51 123 1829.21 123C1788.92 123 1769.88 134.093 1747.85 147C1724.23 160.76 1697.48 176.333 1646.36 176.333C1595.24 176.333 1568.47 160.707 1544.84 147C1522.81 134.173 1503.8 123 1463.51 123C1423.21 123 1404.17 134.093 1382.15 147C1358.55 160.787 1331.77 176.333 1280.65 176.333C1229.53 176.333 1202.76 160.707 1179.16 147C1157.13 134.173 1138.12 123 1097.8 123C1057.48 123 1038.49 134.093 1016.47 147C992.84 160.787 966.093 176.333 914.973 176.333C863.853 176.333 837.08 160.707 813.453 147C791.427 134.147 772.413 123 732.12 123C691.827 123 672.787 134.093 650.76 147C627.133 160.76 600.36 176.333 549.24 176.333C498.12 176.333 471.373 160.707 447.747 147C425.72 134.147 406.707 123 366.387 123C326.067 123 307.08 134.093 285.053 147C261.427 160.787 234.653 176.333 183.533 176.333C132.413 176.333 105.667 160.707 82.04 147C60.0133 134.147 41 123 0.679993 123C-39.64 123 -58.6266 134.093 -80.6533 147C-104.28 160.787 -131.053 176.333 -182.173 176.333C-233.293 176.333 -260.04 160.707 -283.667 147C-305.693 134.173 -324.707 123 -365 123V83C-313.88 83 -287.133 98.6 -263.507 112.333C-241.48 125.187 -222.467 136.333 -182.173 136.333C-141.88 136.333 -122.84 125.24 -100.813 112.333C-77.1866 98.5467 -50.44 83 0.679993 83C51.8 83 78.5733 98.6 102.2 112.333C124.227 125.187 143.24 136.333 183.533 136.333C223.827 136.333 242.867 125.24 264.893 112.333C288.653 98.6 315.32 83 366.387 83C417.453 83 444.28 98.6 467.907 112.333C489.933 125.187 508.947 136.333 549.24 136.333C589.533 136.333 608.573 125.24 630.6 112.333C654.227 98.5467 680.973 83 732.12 83C783.267 83 809.987 98.6 833.613 112.333C855.64 125.187 874.653 136.333 914.973 136.333C955.293 136.333 974.28 125.24 996.307 112.333C1019.93 98.5467 1046.68 83 1097.8 83C1148.92 83 1175.69 98.6 1199.32 112.333C1221.32 125.187 1240.36 136.333 1280.65 136.333C1320.95 136.333 1339.99 125.24 1361.99 112.333C1385.61 98.5467 1412.39 83 1463.51 83C1514.63 83 1541.37 98.6 1565 112.333C1587.03 125.187 1606.04 136.333 1646.36 136.333C1686.68 136.333 1705.67 125.24 1727.69 112.333C1751.32 98.5467 1778.09 83 1829.21 83C1880.33 83 1907.11 98.6 1930.71 112.333C1952.73 125.187 1971.75 136.333 2012.07 136.333C2052.39 136.333 2071.4 125.24 2093.43 112.333C2117.03 98.5467 2143.8 83 2194.92 83C2246.04 83 2272.81 98.6 2296.44 112.333C2318.47 125.187 2337.48 136.333 2377.8 136.333C2418.12 136.333 2437.11 125.24 2459.13 112.333C2482.76 98.5467 2509.53 83 2560.65 83C2611.77 83 2638.55 98.6 2662.15 112.333C2684.17 125.187 2703.19 136.333 2743.51 136.333C2783.83 136.333 2802.84 125.24 2824.87 112.333C2848.47 98.5467 2875.24 83 2926.36 83C2977.48 83 3004.25 98.6 3027.88 112.333C3049.91 125.187 3068.92 136.333 3109.24 136.333C3149.56 136.333 3168.57 125.24 3190.6 112.333C3214.23 98.5467 3241 83 3292.12 83C3343.24 83 3370.01 98.6 3393.64 112.333C3415.67 125.187 3434.68 136.333 3475 136.333V176.333Z" fill="white"/>
</svg>
