<svg width="186" height="81" viewBox="0 0 186 81" fill="none" xmlns="http://www.w3.org/2000/svg">
<g clip-path="url(#clip0_0_1)">
<path d="M251.49 5.49C245.9 7.91 241.07 9.99999 230.75 9.99999C220.43 9.99999 215.59 7.91 210 5.49C201.985 1.87356 193.293 0.00325479 184.5 0.00325479C175.707 0.00325479 167.015 1.87356 159 5.49C153.41 7.91 148.58 9.99999 138.26 9.99999C127.94 9.99999 123.11 7.91 117.52 5.49C109.505 1.87356 100.813 0.00325479 92.02 0.00325479C83.2271 0.00325479 74.5348 1.87356 66.52 5.49C60.92 7.91 56.09 9.99999 45.77 9.99999C35.45 9.99999 30.62 7.91 25.03 5.49C17.0673 1.68619 8.32248 -0.194302 -0.5 -1.05882e-05C-9.31236 -0.189217 -18.0462 1.69114 -26 5.49C-31.59 7.91 -36.42 9.99999 -46.74 9.99999C-57.06 9.99999 -61.89 7.91 -67.48 5.49C-75.4407 1.69056 -84.1812 -0.189746 -93 -1.05882e-05V61C-93 66.3043 -90.8929 71.3914 -87.1421 75.1421C-83.3914 78.8929 -78.3043 81 -73 81H257C262.304 81 267.391 78.8929 271.142 75.1421C274.893 71.3914 277 66.3043 277 61V-1.05882e-05C268.185 -0.188178 259.448 1.69209 251.49 5.49Z" fill="white"/>
</g>
<defs>
<clipPath id="clip0_0_1">
<rect width="370" height="81" fill="white" transform="translate(-93)"/>
</clipPath>
</defs>
</svg>
