<svg width="739" height="176" viewBox="0 0 739 176" fill="none" xmlns="http://www.w3.org/2000/svg">
<path d="M3475 93.3333C3423.85 93.3333 3397.11 77.7067 3373.48 64C3351.45 51.1467 3332.44 40 3292.12 40C3251.8 40 3232.79 51.0933 3210.76 64C3187.13 77.76 3160.36 93.3333 3109.24 93.3333C3058.12 93.3333 3031.35 77.7067 3007.72 64C2985.69 51.1467 2966.68 40 2926.36 40C2886.04 40 2867.03 51.0933 2845.03 64C2821.4 77.76 2794.63 93.3333 2743.51 93.3333C2692.39 93.3333 2665.61 77.7067 2641.99 64C2619.99 51.1467 2600.95 40 2560.65 40C2520.36 40 2501.32 51.0933 2479.29 64C2455.69 77.7867 2428.92 93.3333 2377.8 93.3333C2326.68 93.3333 2299.91 77.7067 2276.28 64C2254.25 51.1733 2235.24 40 2194.92 40C2154.6 40 2135.59 51.0933 2113.59 64C2089.96 77.76 2063.19 93.3333 2012.07 93.3333C1960.95 93.3333 1934.17 77.7067 1910.55 64C1888.55 51.1733 1869.51 40 1829.21 40C1788.92 40 1769.88 51.0933 1747.85 64C1724.23 77.76 1697.48 93.3333 1646.36 93.3333C1595.24 93.3333 1568.47 77.7067 1544.84 64C1522.81 51.1733 1503.8 40 1463.51 40C1423.21 40 1404.17 51.0933 1382.15 64C1358.55 77.7867 1331.77 93.3333 1280.65 93.3333C1229.53 93.3333 1202.76 77.7067 1179.16 64C1157.13 51.1733 1138.12 40 1097.8 40C1057.48 40 1038.49 51.0933 1016.47 64C992.84 77.7867 966.093 93.3333 914.973 93.3333C863.853 93.3333 837.08 77.7067 813.453 64C791.427 51.1467 772.413 40 732.12 40C691.827 40 672.787 51.0933 650.76 64C627.133 77.76 600.36 93.3333 549.24 93.3333C498.12 93.3333 471.373 77.7067 447.747 64C425.72 51.1467 406.707 40 366.387 40C326.067 40 307.08 51.0933 285.053 64C261.427 77.7867 234.653 93.3333 183.533 93.3333C132.413 93.3333 105.667 77.7067 82.04 64C60.0133 51.1467 41 40 0.679993 40C-39.64 40 -58.6266 51.0933 -80.6533 64C-104.28 77.7867 -131.053 93.3333 -182.173 93.3333C-233.293 93.3333 -260.04 77.7067 -283.667 64C-305.693 51.1733 -324.707 40 -365 40V0C-313.88 0 -287.133 15.6 -263.507 29.3333C-241.48 42.1867 -222.467 53.3333 -182.173 53.3333C-141.88 53.3333 -122.84 42.24 -100.813 29.3333C-77.1866 15.5467 -50.44 0 0.679993 0C51.8 0 78.5733 15.6 102.2 29.3333C124.227 42.1867 143.24 53.3333 183.533 53.3333C223.827 53.3333 242.867 42.24 264.893 29.3333C288.52 15.5467 315.267 0 366.387 0C417.507 0 444.28 15.6 467.907 29.3333C489.933 42.1867 508.947 53.3333 549.24 53.3333C589.533 53.3333 608.573 42.24 630.6 29.3333C654.227 15.5467 680.973 0 732.12 0C783.267 0 809.987 15.6 833.613 29.3333C855.64 42.1867 874.653 53.3333 914.973 53.3333C955.293 53.3333 974.28 42.24 996.307 29.3333C1019.93 15.5467 1046.68 0 1097.8 0C1148.92 0 1175.69 15.6 1199.32 29.3333C1221.32 42.1867 1240.36 53.3333 1280.65 53.3333C1320.95 53.3333 1339.99 42.24 1361.99 29.3333C1385.61 15.5467 1412.39 0 1463.51 0C1514.63 0 1541.37 15.6 1565 29.3333C1587.03 42.1867 1606.04 53.3333 1646.36 53.3333C1686.68 53.3333 1705.67 42.24 1727.69 29.3333C1751.32 15.5467 1778.09 0 1829.21 0C1880.33 0 1907.11 15.6 1930.71 29.3333C1952.73 42.1867 1971.75 53.3333 2012.07 53.3333C2052.39 53.3333 2071.4 42.24 2093.43 29.3333C2117.03 15.5467 2143.8 0 2194.92 0C2246.04 0 2272.81 15.6 2296.44 29.3333C2318.47 42.1867 2337.48 53.3333 2377.8 53.3333C2418.12 53.3333 2437.11 42.24 2459.13 29.3333C2482.76 15.5467 2509.53 0 2560.65 0C2611.77 0 2638.55 15.6 2662.15 29.3333C2684.17 42.1867 2703.19 53.3333 2743.51 53.3333C2783.83 53.3333 2802.84 42.24 2824.87 29.3333C2848.47 15.5467 2875.24 0 2926.36 0C2977.48 0 3004.25 15.6 3027.88 29.3333C3049.91 42.1867 3068.92 53.3333 3109.24 53.3333C3149.56 53.3333 3168.57 42.24 3190.6 29.3333C3214.23 15.5467 3241 0 3292.12 0C3343.24 0 3370.01 15.6 3393.64 29.3333C3415.67 42.1867 3434.68 53.3333 3475 53.3333V93.3333Z" fill="#0260D4"/>
<path d="M3475 176C3423.85 176 3397.11 160.373 3373.48 146.667C3351.45 133.813 3332.44 122.667 3292.12 122.667C3251.8 122.667 3232.79 133.76 3210.76 146.667C3187.13 160.427 3160.36 176 3109.24 176C3058.12 176 3031.35 160.373 3007.72 146.667C2985.69 133.813 2966.68 122.667 2926.36 122.667C2886.04 122.667 2867.03 133.76 2845.03 146.667C2821.4 160.427 2794.63 176 2743.51 176C2692.39 176 2665.61 160.373 2641.99 146.667C2619.99 133.813 2600.95 122.667 2560.65 122.667C2520.36 122.667 2501.32 133.76 2479.29 146.667C2455.69 160.453 2428.92 176 2377.8 176C2326.68 176 2299.91 160.373 2276.28 146.667C2254.25 133.84 2235.24 122.667 2194.92 122.667C2154.6 122.667 2135.59 133.76 2113.59 146.667C2089.96 160.427 2063.19 176 2012.07 176C1960.95 176 1934.17 160.373 1910.55 146.667C1888.55 133.84 1869.51 122.667 1829.21 122.667C1788.92 122.667 1769.88 133.76 1747.85 146.667C1724.23 160.427 1697.48 176 1646.36 176C1595.24 176 1568.47 160.373 1544.84 146.667C1522.81 133.84 1503.8 122.667 1463.51 122.667C1423.21 122.667 1404.17 133.76 1382.15 146.667C1358.55 160.453 1331.77 176 1280.65 176C1229.53 176 1202.76 160.373 1179.16 146.667C1157.13 133.84 1138.12 122.667 1097.8 122.667C1057.48 122.667 1038.49 133.76 1016.47 146.667C992.84 160.453 966.093 176 914.973 176C863.853 176 837.08 160.373 813.453 146.667C791.427 133.813 772.413 122.667 732.12 122.667C691.827 122.667 672.787 133.76 650.76 146.667C627.133 160.427 600.36 176 549.24 176C498.12 176 471.373 160.373 447.747 146.667C425.72 133.813 406.707 122.667 366.387 122.667C326.067 122.667 307.08 133.76 285.053 146.667C261.427 160.453 234.653 176 183.533 176C132.413 176 105.667 160.373 82.04 146.667C60.0133 133.813 41 122.667 0.679993 122.667C-39.64 122.667 -58.6266 133.76 -80.6533 146.667C-104.28 160.453 -131.053 176 -182.173 176C-233.293 176 -260.04 160.373 -283.667 146.667C-305.693 133.84 -324.707 122.667 -365 122.667V82.6667C-313.88 82.6667 -287.133 98.2667 -263.507 112C-241.48 124.853 -222.467 136 -182.173 136C-141.88 136 -122.84 124.907 -100.813 112C-77.1866 98.2134 -50.44 82.6667 0.679993 82.6667C51.8 82.6667 78.5733 98.2667 102.2 112C124.227 124.853 143.24 136 183.533 136C223.827 136 242.867 124.907 264.893 112C288.52 98.2134 315.267 82.6667 366.387 82.6667C417.507 82.6667 444.28 98.2667 467.907 112C489.933 124.853 508.947 136 549.24 136C589.533 136 608.573 124.907 630.6 112C654.227 98.2134 680.973 82.6667 732.12 82.6667C783.267 82.6667 809.987 98.2667 833.613 112C855.64 124.853 874.653 136 914.973 136C955.293 136 974.28 124.907 996.307 112C1019.93 98.2134 1046.68 82.6667 1097.8 82.6667C1148.92 82.6667 1175.69 98.2667 1199.32 112C1221.32 124.853 1240.36 136 1280.65 136C1320.95 136 1339.99 124.907 1361.99 112C1385.61 98.2134 1412.39 82.6667 1463.51 82.6667C1514.63 82.6667 1541.37 98.2667 1565 112C1587.03 124.853 1606.04 136 1646.36 136C1686.68 136 1705.67 124.907 1727.69 112C1751.32 98.2134 1778.09 82.6667 1829.21 82.6667C1880.33 82.6667 1907.11 98.2667 1930.71 112C1952.73 124.853 1971.75 136 2012.07 136C2052.39 136 2071.4 124.907 2093.43 112C2117.03 98.2134 2143.8 82.6667 2194.92 82.6667C2246.04 82.6667 2272.81 98.2667 2296.44 112C2318.47 124.853 2337.48 136 2377.8 136C2418.12 136 2437.11 124.907 2459.13 112C2482.76 98.2134 2509.53 82.6667 2560.65 82.6667C2611.77 82.6667 2638.55 98.2667 2662.15 112C2684.17 124.853 2703.19 136 2743.51 136C2783.83 136 2802.84 124.907 2824.87 112C2848.47 98.2134 2875.24 82.6667 2926.36 82.6667C2977.48 82.6667 3004.25 98.2667 3027.88 112C3049.91 124.853 3068.92 136 3109.24 136C3149.56 136 3168.57 124.907 3190.6 112C3214.23 98.2134 3241 82.6667 3292.12 82.6667C3343.24 82.6667 3370.01 98.2667 3393.64 112C3415.67 124.853 3434.68 136 3475 136V176Z" fill="#023ED4"/>
</svg>
