<svg width="30" height="20" viewBox="0 0 30 20" fill="none" xmlns="http://www.w3.org/2000/svg">
<g clip-path="url(#clip0_298_3294)">
<path d="M14.8591 -2.12607e-05C20.3233 -0.0352893 25.5847 2.06783 29.5191 5.85998C29.65 5.95707 29.7589 6.08066 29.8389 6.22268C29.9188 6.36471 29.968 6.52198 29.9831 6.68426C29.9982 6.84654 29.9789 7.01018 29.9265 7.16451C29.8741 7.31885 29.7898 7.46041 29.6791 7.57998C29.5637 7.69881 29.4245 7.7918 29.2705 7.85281C29.1166 7.91382 28.9515 7.94145 28.7861 7.93389C28.6206 7.92633 28.4587 7.88374 28.311 7.80894C28.1632 7.73414 28.0331 7.62883 27.9291 7.49998C25.1552 4.7741 21.5732 3.01991 17.7191 2.49998C15.1168 2.09352 12.4575 2.25294 9.9224 2.96739C7.38733 3.68183 5.03612 4.93449 3.02905 6.63998C2.67905 6.91998 2.36905 7.22998 2.02905 7.52998C1.92299 7.652 1.79278 7.75073 1.64665 7.81991C1.50051 7.88909 1.34162 7.92724 1.18001 7.93194C1.0184 7.93664 0.857564 7.90778 0.707659 7.84721C0.557753 7.78663 0.422031 7.69564 0.309053 7.57998C0.200373 7.46656 0.116305 7.33189 0.0621278 7.18444C0.00795057 7.03699 -0.0151634 6.87994 -0.00577379 6.72314C0.00361583 6.56633 0.0453076 6.41316 0.116693 6.27323C0.188079 6.1333 0.287613 6.00963 0.409052 5.90998C3.81423 2.5826 8.26637 0.536743 13.0091 0.119989C13.6791 0.0499891 14.3391 0.0299787 14.8591 -2.12607e-05Z" fill="#1E1E1E"/>
<path d="M15.3606 5.69C19.1663 5.75013 22.802 7.27606 25.5106 9.95C25.6382 10.0482 25.7435 10.1723 25.8197 10.3142C25.8958 10.4561 25.941 10.6124 25.9524 10.7731C25.9637 10.9337 25.9409 11.0948 25.8854 11.246C25.83 11.3972 25.7431 11.5348 25.6306 11.65C25.5155 11.7655 25.3775 11.8557 25.2255 11.9147C25.0735 11.9737 24.9108 12.0003 24.7479 11.9928C24.585 11.9852 24.4255 11.9437 24.2796 11.8709C24.1337 11.7981 24.0046 11.6956 23.9006 11.57C21.5526 9.30412 18.4289 8.01885 15.1662 7.97612C11.9034 7.93338 8.74717 9.1364 6.34061 11.34C6.21061 11.46 6.08062 11.6 5.95061 11.71C5.7248 11.905 5.43256 12.0055 5.13459 11.9906C4.83662 11.9757 4.55585 11.8465 4.35062 11.63C4.24751 11.5269 4.16572 11.4045 4.10992 11.2698C4.05411 11.1352 4.02539 10.9908 4.02539 10.845C4.02539 10.6992 4.05411 10.5548 4.10992 10.4201C4.16572 10.2855 4.24751 10.1631 4.35062 10.06C5.94392 8.46052 7.884 7.24926 10.0206 6.52C11.7407 5.94256 13.5464 5.66189 15.3606 5.69Z" fill="#1E1E1E"/>
<path d="M21.8704 14.86C21.8703 15.077 21.8043 15.2888 21.6811 15.4674C21.5578 15.646 21.3832 15.7829 21.1804 15.86C20.9674 15.9607 20.7281 15.9918 20.4965 15.9487C20.2649 15.9056 20.0528 15.7906 19.8904 15.62C19.211 14.9418 18.392 14.4197 17.4904 14.09C16.2695 13.6122 14.938 13.491 13.6509 13.7407C12.3638 13.9903 11.1741 14.6004 10.2204 15.5C9.98465 15.7135 9.69935 15.8647 9.39037 15.94C9.15307 15.9809 8.9089 15.9399 8.69806 15.8235C8.48722 15.7072 8.32227 15.5226 8.23036 15.3C8.12683 15.082 8.09718 14.8361 8.1459 14.5998C8.19462 14.3634 8.31906 14.1493 8.50037 13.99C9.83977 12.6532 11.57 11.7776 13.4404 11.49C14.8742 11.2287 16.3499 11.3167 17.7424 11.7467C19.135 12.1766 20.4035 12.9358 21.4404 13.96C21.6437 14.2056 21.8119 14.4782 21.9404 14.77L21.8704 14.86Z" fill="#1E1E1E"/>
<path d="M14.96 17.08C15.8399 17.0755 16.6881 17.4083 17.33 18.01C17.5569 18.2071 17.6967 18.4857 17.7192 18.7853C17.7417 19.0849 17.6449 19.3813 17.45 19.61C17.3491 19.7245 17.2265 19.8179 17.0893 19.8849C16.9522 19.9519 16.8032 19.9911 16.6508 20.0004C16.4984 20.0097 16.3458 19.9888 16.2015 19.939C16.0572 19.8892 15.9242 19.8113 15.81 19.71C15.6991 19.5954 15.5662 19.5043 15.4193 19.442C15.2725 19.3798 15.1146 19.3477 14.955 19.3477C14.7955 19.3477 14.6376 19.3798 14.4907 19.442C14.3439 19.5043 14.211 19.5954 14.1 19.71C13.8706 19.9085 13.5725 20.0092 13.2696 19.9905C12.9668 19.9718 12.6833 19.8352 12.48 19.61C12.3808 19.5001 12.3043 19.3715 12.2551 19.2318C12.2059 19.0922 12.1848 18.9441 12.1932 18.7962C12.2016 18.6483 12.2392 18.5036 12.3039 18.3704C12.3686 18.2371 12.459 18.118 12.57 18.02C13.2161 17.4108 14.0721 17.0741 14.96 17.08Z" fill="#1E1E1E"/>
</g>
<defs>
<clipPath id="clip0_298_3294">
<rect width="30" height="20" fill="white"/>
</clipPath>
</defs>
</svg>
